<svg width="23" height="19" viewBox="0 0 23 19" fill="none" xmlns="http://www.w3.org/2000/svg">
<path d="M23 4.84869V15.0938C23 16.0469 22.6214 16.961 21.9474 17.6349C21.2735 18.3089 20.3594 18.6875 19.4062 18.6875H3.59375C2.64063 18.6875 1.72654 18.3089 1.05259 17.6349C0.378626 16.961 0 16.0469 0 15.0938V4.84869L11.1349 11.4008C11.2455 11.4661 11.3716 11.5005 11.5 11.5005C11.6284 11.5005 11.7545 11.4661 11.8651 11.4008L23 4.84869ZM19.4062 4.44945e-08C20.2905 -0.000139029 21.1438 0.325747 21.8029 0.915313C22.4619 1.50488 22.8805 2.31673 22.9784 3.19556L11.5 9.9475L0.0215627 3.19556C0.11954 2.31673 0.538091 1.50488 1.19714 0.915313C1.85619 0.325747 2.70948 -0.000139029 3.59375 4.44945e-08H19.4062Z" fill="white"/>
</svg>
