<svg width="235" height="20" viewBox="0 0 235 20" fill="none" xmlns="http://www.w3.org/2000/svg">
<path d="M23.6884 1.13281C21.1429 1.13948 18.6182 1.59153 16.2286 2.46851C16.157 2.50135 16.0973 2.55561 16.0578 2.62379C16.0184 2.69197 16.001 2.77072 16.0082 2.84918L16.4089 5.52057C16.419 5.58194 16.4525 5.637 16.5024 5.67418C16.5298 5.68593 16.5594 5.692 16.5892 5.692C16.6191 5.692 16.6486 5.68593 16.676 5.67418C17.7748 5.35778 18.8894 5.09919 20.0153 4.89947C22.6867 4.45201 24.1693 4.56555 24.9173 5.27347C25.13 5.50055 25.2833 5.77663 25.3637 6.07721C25.4441 6.37779 25.449 6.69357 25.3781 6.99651L25.3113 7.50408C25.3113 7.50408 22.0722 7.93818 19.9685 8.33221C18.3886 8.5378 16.8654 9.05539 15.4873 9.8549C13.2967 11.2774 12.7558 14.069 13.1765 16.0592C13.5438 17.8023 15.0799 19.886 20.3225 19.886H20.7032C28.7173 19.886 29.7658 18.5169 30.1198 15.6184L30.6007 11.7716L31.2218 6.68263C31.3542 6.04444 31.3426 5.38474 31.1878 4.75161C31.033 4.11848 30.7389 3.52787 30.3268 3.02282C29.1915 1.75391 27.021 1.13281 23.6884 1.13281ZM24.8705 10.9702C24.8705 10.9702 24.7102 12.4795 24.7102 12.4996L24.2361 16.313H24.1693C23.4232 16.5165 22.6517 16.611 21.8786 16.5935C21.0152 16.6725 20.1544 16.4167 19.4743 15.8789C19.2584 15.6467 19.0921 15.373 18.9853 15.0745C18.8785 14.776 18.8336 14.4589 18.8532 14.1425C18.8532 12.6198 19.7615 11.6648 21.6181 11.3175C23.4747 10.9702 24.9573 10.8099 24.9573 10.8099L24.8705 10.9702Z" fill="white"/>
<path d="M96.3102 1.13965H95.7225C91.475 1.13965 88.5899 2.36181 87.154 4.76606C85.9987 6.68278 85.4443 13.1809 85.4377 13.2477C85.3121 14.2784 85.4217 15.3242 85.7582 16.3065C86.9537 19.4921 91.101 19.9195 93.4852 19.8928C97.7661 19.8928 100.658 18.6706 102.067 16.3265C102.501 15.6052 103.136 13.595 103.723 8.11866V7.92498C103.863 6.94185 103.792 5.94029 103.516 4.98645C102.595 1.94107 99.0885 1.21979 96.3102 1.13965ZM97.292 13.0006V13.1008C97.2371 13.9889 96.8949 14.8352 96.3169 15.5117C95.7532 16.0279 95.0176 16.316 94.2533 16.3198C93.5947 16.3992 92.9274 16.2806 92.3365 15.9792C92.0001 15.7706 91.718 15.485 91.5137 15.1459C91.3093 14.8068 91.1885 14.424 91.1611 14.0291C91.121 13.5149 91.5819 10.3359 91.829 8.62622L91.9425 7.83816C92.0349 6.8847 92.489 6.00283 93.2114 5.3738C93.7815 4.92164 94.4873 4.67462 95.215 4.67256C95.8307 4.63275 96.4444 4.77687 96.9781 5.08663C97.286 5.30877 97.5355 5.6022 97.7054 5.94181C97.8752 6.28142 97.9602 6.65711 97.9531 7.03674C97.9732 7.42409 97.7461 9.48106 97.292 13.0006Z" fill="white"/>
<path d="M84.8566 1.2732H82.3121C81.6296 1.25415 80.9536 1.40979 80.3481 1.72537C79.7427 2.04096 79.2279 2.506 78.8526 3.07639L72.4012 11.0906L72.5749 10.6164L73.7102 1.51363C73.7156 1.48355 73.7136 1.45261 73.7043 1.4235C73.695 1.39439 73.6787 1.36801 73.6568 1.34667C73.6374 1.32301 73.6129 1.30409 73.5852 1.29136C73.5574 1.27862 73.5271 1.27241 73.4965 1.2732H68.1938C68.1207 1.27677 68.0511 1.3052 67.9964 1.3538C67.9418 1.40239 67.9054 1.46821 67.8933 1.54034L65.676 19.265C65.6724 19.2925 65.6746 19.3204 65.6827 19.3469C65.6908 19.3734 65.7044 19.3979 65.7228 19.4186C65.7434 19.4374 65.7677 19.4519 65.7941 19.4611C65.8205 19.4702 65.8485 19.474 65.8764 19.4721H68.6479C69.3285 19.4798 70 19.3155 70.6001 18.9945C71.2002 18.6734 71.7095 18.2059 72.0807 17.6355L78.3851 9.44766L78.1781 9.94855L77.0294 19.2316C77.0223 19.2913 77.0391 19.3513 77.0762 19.3986C77.0984 19.4222 77.1254 19.441 77.1552 19.4536C77.1851 19.4663 77.2173 19.4725 77.2498 19.4721H82.5458C82.6189 19.4685 82.6885 19.4401 82.7432 19.3915C82.7979 19.3429 82.8343 19.277 82.8464 19.2049L85.0503 1.46688C85.0563 1.43994 85.0558 1.41194 85.0488 1.38523C85.0418 1.35852 85.0286 1.33385 85.0102 1.31328C84.9889 1.29612 84.9642 1.28369 84.9377 1.27678C84.9112 1.26987 84.8836 1.26865 84.8566 1.2732Z" fill="white"/>
<path d="M122.991 1.13288L117.588 1.80073C117.511 1.81324 117.439 1.84949 117.382 1.9045C117.326 1.95951 117.289 2.03058 117.274 2.10794L116.506 8.31892L116.466 8.5727H111.304L112.199 1.33991C112.203 1.31244 112.201 1.28441 112.193 1.25784C112.185 1.23127 112.171 1.20683 112.152 1.18631C112.132 1.16718 112.107 1.153 112.081 1.14489C112.054 1.13678 112.026 1.13495 111.998 1.13956L106.595 1.8074C106.518 1.81991 106.446 1.85617 106.39 1.91118C106.334 1.96619 106.296 2.03726 106.282 2.11461L104.185 19.2316C104.182 19.2616 104.185 19.2918 104.195 19.3205C104.204 19.3491 104.219 19.3755 104.239 19.3981C104.259 19.4206 104.284 19.4388 104.311 19.4515C104.338 19.4642 104.368 19.4712 104.398 19.472H109.701C109.775 19.4699 109.846 19.4422 109.902 19.3934C109.958 19.3447 109.996 19.2781 110.008 19.2048L110.863 12.346V12.2926H116.032L115.171 19.2316C115.168 19.2616 115.171 19.2918 115.181 19.3205C115.19 19.3491 115.205 19.3755 115.225 19.3981C115.245 19.4206 115.27 19.4388 115.297 19.4515C115.325 19.4642 115.354 19.4712 115.384 19.472H116.72C119.164 19.472 120.961 19.1781 121.342 16.3531L123.185 1.33991C123.191 1.31299 123.191 1.28486 123.184 1.25804C123.177 1.23123 123.164 1.20657 123.145 1.18631C123.125 1.16554 123.101 1.14981 123.075 1.1405C123.048 1.13118 123.019 1.12857 122.991 1.13288Z" fill="white"/>
<path d="M65.8833 5.17384L66.3374 1.494C66.3402 1.46342 66.3366 1.43259 66.3267 1.40349C66.3169 1.3744 66.3011 1.34767 66.2804 1.32504C66.2596 1.3024 66.2344 1.28435 66.2062 1.27204C66.1781 1.25974 66.1477 1.25344 66.117 1.25357H46.0215C45.8391 1.26166 45.6601 1.30598 45.495 1.38395C45.3299 1.46192 45.1819 1.57198 45.0598 1.70771L39.4432 8.58654H38.6418L39.5434 1.34039C39.548 1.31292 39.5461 1.28475 39.538 1.2581C39.5299 1.23145 39.5157 1.20704 39.4966 1.18679C39.4756 1.16882 39.4511 1.1554 39.4247 1.14735C39.3983 1.13931 39.3704 1.13682 39.343 1.14004L33.9401 1.80789C33.8615 1.8208 33.789 1.85803 33.7327 1.91434C33.6764 1.97065 33.6391 2.0432 33.6262 2.12177L31.4958 19.2387C31.4895 19.2693 31.4905 19.3009 31.4986 19.3311C31.5067 19.3612 31.5218 19.389 31.5425 19.4123C31.5875 19.4554 31.6473 19.4793 31.7095 19.4791H37.0523C37.1253 19.4756 37.195 19.4471 37.2496 19.3985C37.3043 19.35 37.3407 19.2841 37.3528 19.212L38.2143 12.3065H39.0425L42.8959 19.2187C42.942 19.2938 43.0055 19.3567 43.0811 19.4021C43.1567 19.4474 43.2421 19.4739 43.33 19.4791H49.0802C49.1737 19.4791 49.2672 19.4324 49.1871 19.2721L43.9244 10.4966L48.2922 5.44098H54.6033L52.8869 19.2387C52.8807 19.2693 52.8816 19.3009 52.8897 19.3311C52.8979 19.3612 52.9129 19.389 52.9337 19.4123C52.9786 19.4554 53.0385 19.4793 53.1007 19.4791H58.4034C58.4772 19.4782 58.5482 19.4506 58.6034 19.4016C58.6586 19.3525 58.6943 19.2852 58.7039 19.212L60.3936 5.44098H65.576C65.6503 5.43892 65.7215 5.41116 65.7775 5.36243C65.8335 5.31371 65.8709 5.24705 65.8833 5.17384Z" fill="white"/>
<path d="M12.5289 1.25977H7.45991C7.11069 1.27899 6.78157 1.42924 6.53828 1.68051L0.207088 9.35408C0.0916799 9.48651 0.0206105 9.65174 0.00384302 9.8266C-0.0129244 10.0015 0.0254509 10.1772 0.113589 10.3291L5.03563 19.0112C5.11959 19.1478 5.23616 19.2614 5.37487 19.3418C5.51359 19.4222 5.6701 19.467 5.83036 19.472H10.2181C10.532 19.472 10.6856 19.2716 10.532 19.0245L5.59662 10.3425L12.7426 1.66047C12.9296 1.43341 12.8361 1.25977 12.5289 1.25977Z" fill="white"/>
<path d="M136.809 10.3889L131.887 1.70691C131.801 1.57227 131.684 1.46019 131.545 1.38003C131.407 1.29987 131.252 1.25394 131.092 1.24609H126.698C126.39 1.24609 126.237 1.44645 126.384 1.70023L131.326 10.3822L124.18 19.0977C123.986 19.318 124.08 19.4917 124.393 19.4917H129.462C129.811 19.4762 130.139 19.3252 130.377 19.0709L136.715 11.3573C136.829 11.2254 136.899 11.0615 136.916 10.888C136.933 10.7145 136.895 10.5402 136.809 10.3889Z" fill="white"/>
<path d="M197.79 2.59606H191.485L189.428 19.2922C189.417 19.3943 189.367 19.4882 189.289 19.5551C189.211 19.622 189.11 19.6569 189.007 19.6529H187.211C187.159 19.6581 187.106 19.6516 187.057 19.634C187.007 19.6164 186.963 19.588 186.926 19.551C186.888 19.5139 186.86 19.4691 186.842 19.4197C186.825 19.3703 186.818 19.3177 186.824 19.2655L188.881 2.56934H182.63C182.576 2.56991 182.524 2.55896 182.475 2.53726C182.427 2.51555 182.384 2.48361 182.349 2.44362C182.314 2.40363 182.288 2.35655 182.273 2.30562C182.258 2.25469 182.254 2.20112 182.262 2.1486L182.416 0.772834C182.434 0.66081 182.492 0.559072 182.579 0.486578C182.666 0.414085 182.777 0.375781 182.89 0.378804H197.997C198.048 0.375125 198.099 0.383088 198.147 0.402097C198.195 0.421106 198.238 0.450669 198.272 0.488572C198.307 0.526474 198.333 0.571734 198.347 0.620962C198.362 0.67019 198.366 0.72211 198.357 0.772834L198.177 2.20203C198.179 2.2537 198.17 2.3052 198.151 2.35339C198.133 2.40158 198.104 2.44544 198.068 2.48231C198.032 2.51918 197.988 2.54828 197.941 2.56784C197.893 2.5874 197.841 2.597 197.79 2.59606Z" fill="white"/>
<path d="M197.777 14.9639C197.777 17.3348 199.159 18.1429 201.897 18.1429C203.174 18.1119 204.434 17.8494 205.617 17.3682C205.878 17.268 206.011 17.3682 206.038 17.6019L206.192 18.7773C206.192 18.9844 206.138 19.1179 205.878 19.2181C204.435 19.7418 202.911 20.0063 201.376 19.9995C196.995 19.9995 195.366 18.3299 195.366 14.7903C195.374 14.1383 195.418 13.4872 195.499 12.8402C196.047 8.33221 197.403 5.64746 202.532 5.64746C205.971 5.64746 207.875 6.98316 207.875 9.84154C207.875 13.9021 205.377 14.3228 201.73 14.3228H197.77C197.76 14.5365 197.762 14.7505 197.777 14.9639ZM205.464 10.122C205.517 8.32553 204.602 7.49072 202.338 7.49072C199.052 7.49072 198.251 9.36737 197.99 12.6198H201.944C204.362 12.6198 205.41 12.2859 205.464 10.122Z" fill="white"/>
<path d="M220.303 8.11881C219.205 7.77376 218.067 7.57174 216.917 7.51775C214.673 7.51775 213.504 8.21899 212.823 10.1891C212.38 11.6668 212.155 13.2012 212.155 14.7439C212.059 15.6689 212.33 16.5947 212.91 17.3218C213.458 17.8961 214.346 18.1031 215.621 18.1031C216.783 18.0614 217.935 17.8821 219.054 17.5689C219.116 17.5591 219.179 17.5591 219.241 17.5689C219.278 17.5671 219.314 17.5726 219.349 17.5851C219.383 17.5977 219.414 17.617 219.441 17.6419C219.468 17.6668 219.489 17.6968 219.504 17.7301C219.519 17.7634 219.528 17.7994 219.528 17.836L219.602 18.8511C219.613 18.9025 219.614 18.9558 219.605 19.0076C219.595 19.0594 219.575 19.1087 219.546 19.1525C219.516 19.1963 219.478 19.2336 219.434 19.2621C219.39 19.2907 219.34 19.3099 219.288 19.3186C217.935 19.7283 216.533 19.9529 215.121 19.9865C213.117 19.9865 211.781 19.6258 210.88 18.8177C209.978 18.0096 209.631 16.7073 209.631 14.9375C209.628 13.1244 209.907 11.3218 210.459 9.59475C211.401 6.92336 213.224 5.66113 216.897 5.66113C218.244 5.68045 219.579 5.91725 220.851 6.36237C220.918 6.38318 220.978 6.42459 221.021 6.48086C221.064 6.53712 221.089 6.60543 221.091 6.67626C221.087 6.76532 221.069 6.85319 221.038 6.93672L220.697 7.89842C220.672 7.97873 220.618 8.04642 220.544 8.08745C220.471 8.12848 220.384 8.13971 220.303 8.11881Z" fill="white"/>
<path d="M234.702 10.1227L233.553 19.2655C233.551 19.3182 233.539 19.3699 233.518 19.4179C233.496 19.4658 233.465 19.5091 233.426 19.545C233.388 19.581 233.343 19.609 233.293 19.6275C233.244 19.6461 233.192 19.6547 233.139 19.6529H231.496C231.445 19.6607 231.392 19.6558 231.343 19.6386C231.293 19.6214 231.249 19.5925 231.214 19.5543C231.178 19.5162 231.152 19.4699 231.139 19.4196C231.125 19.3693 231.124 19.3164 231.135 19.2655L232.251 10.3564C232.31 9.93351 232.345 9.50768 232.358 9.08085C232.358 7.83197 231.656 7.49137 230.274 7.49137C228.724 7.53188 227.183 7.75606 225.686 8.15922L224.35 19.2789C224.347 19.3339 224.332 19.3877 224.308 19.4371C224.284 19.4865 224.25 19.5306 224.208 19.5666C224.166 19.6027 224.118 19.6301 224.065 19.6472C224.013 19.6643 223.958 19.6708 223.903 19.6662H222.293C222.053 19.6662 221.899 19.5393 221.926 19.2789L224.19 0.839611C224.19 0.599186 224.35 0.499009 224.584 0.445581L226.274 0.0782647C226.329 0.0671234 226.386 0.0693539 226.44 0.0847705C226.494 0.100187 226.544 0.128343 226.585 0.166894C226.627 0.205445 226.658 0.253273 226.677 0.306396C226.696 0.359519 226.702 0.416398 226.694 0.472295L226.12 4.87341L225.679 6.38275C227.338 5.94736 229.041 5.70312 230.755 5.65479C232.264 5.65479 233.359 5.88854 234.014 6.46289C234.309 6.74114 234.537 7.08302 234.681 7.46257C234.824 7.84213 234.879 8.24938 234.842 8.65343C234.823 9.14545 234.776 9.636 234.702 10.1227Z" fill="white"/>
<path d="M158.908 19.5925H157.111C157.061 19.5948 157.011 19.5861 156.964 19.567C156.918 19.548 156.876 19.519 156.841 19.4822C156.807 19.4454 156.781 19.4015 156.766 19.3537C156.75 19.3058 156.745 19.2551 156.751 19.2051L157.792 10.7635H146.873L145.831 19.2051C145.818 19.3125 145.766 19.4114 145.685 19.4828C145.603 19.5542 145.499 19.5933 145.391 19.5925H143.621C143.568 19.5975 143.515 19.591 143.466 19.5734C143.416 19.5558 143.371 19.5276 143.333 19.4907C143.296 19.4538 143.267 19.4091 143.248 19.3597C143.23 19.3104 143.223 19.2576 143.227 19.2051L145.524 0.672362C145.524 0.438615 145.678 0.358474 145.885 0.33176L147.815 0.00451448C147.861 -0.00373188 147.909 -0.000623427 147.954 0.013576C147.999 0.0277754 148.04 0.0526464 148.074 0.0860777C148.107 0.119509 148.132 0.160513 148.146 0.20561C148.161 0.250706 148.164 0.298563 148.155 0.345117L147.134 8.52625H158.053L159.015 0.672362C159.027 0.57851 159.074 0.492425 159.145 0.429873C159.216 0.367322 159.307 0.332491 159.402 0.33176L161.359 0.00451448C161.404 -0.00384885 161.451 -0.000555137 161.495 0.0140884C161.539 0.0287319 161.578 0.0542481 161.61 0.0882566C161.641 0.122265 161.663 0.163658 161.674 0.208574C161.685 0.253489 161.685 0.300464 161.673 0.345117L159.355 19.2051C159.339 19.3125 159.285 19.4106 159.203 19.4817C159.121 19.5528 159.016 19.5921 158.908 19.5925Z" fill="white"/>
<path d="M179.718 8.01845C179.05 9.32076 177.794 10.1021 175.657 10.3626L175.577 11.0304C176.913 11.164 178.155 11.3443 178.863 12.493C179.256 13.2548 179.436 14.1085 179.384 14.9641C179.384 15.4316 179.384 15.5918 179.33 16.3999L179.123 19.2116C179.126 19.266 179.116 19.3203 179.095 19.3706C179.075 19.421 179.043 19.4662 179.003 19.5031C178.963 19.54 178.915 19.5676 178.863 19.5842C178.812 19.6008 178.757 19.6058 178.703 19.5989H176.806C176.546 19.5989 176.412 19.472 176.439 19.1849L176.646 16.2397C176.646 15.7989 176.699 15.3047 176.699 14.8639C176.724 14.481 176.667 14.0972 176.533 13.738C176.398 13.3787 176.188 13.0522 175.918 12.7802C175.25 12.1791 174.201 11.8653 172.665 11.8385L167.323 11.7116L166.408 19.2116C166.389 19.3212 166.331 19.4205 166.245 19.4915C166.16 19.5625 166.051 19.6006 165.94 19.5989H164.197C164.145 19.6018 164.094 19.5938 164.045 19.5754C163.997 19.5569 163.953 19.5285 163.917 19.4919C163.88 19.4554 163.852 19.4115 163.833 19.3632C163.815 19.3149 163.807 19.2632 163.81 19.2116L166.074 0.772306C166.093 0.654926 166.153 0.548143 166.243 0.471058C166.334 0.393974 166.449 0.351616 166.568 0.351562H174.976C177.187 0.351562 178.83 0.819056 179.711 1.99447C180.244 2.77952 180.502 3.71874 180.446 4.66586C180.474 5.8255 180.225 6.97513 179.718 8.01845ZM177.273 3.40363C176.806 2.78253 175.998 2.46864 174.742 2.46864H168.445L167.53 9.81496L172.766 9.63464C174.589 9.58122 176.151 9.32076 177.013 8.04517C177.529 7.18137 177.782 6.18562 177.741 5.1801C177.791 4.54788 177.626 3.91729 177.273 3.39027V3.40363Z" fill="white"/>
</svg>
