<svg width="100" height="100" viewBox="0 0 100 100" fill="none" xmlns="http://www.w3.org/2000/svg">
<circle cx="50" cy="50" r="50" fill="#326CF9"/>
<path d="M43.4411 38.7H47.6411V60H43.4411V51.75C41.9411 52.27 40.3411 52.53 38.6411 52.53C35.9411 52.53 33.9711 51.93 32.7311 50.73C31.5111 49.53 30.9011 47.76 30.9011 45.42V38.7H35.1011V45.42C35.1011 46.64 35.4311 47.52 36.0911 48.06C36.7511 48.58 37.7711 48.84 39.1511 48.84C40.8111 48.84 42.2411 48.6 43.4411 48.12V38.7ZM67.9668 38.7V42.3H61.5468V60H57.3468V42.3H50.9268V38.7H67.9668Z" fill="white"/>
</svg>
