<svg width="183" height="17" viewBox="0 0 183 17" fill="none" xmlns="http://www.w3.org/2000/svg">
<path d="M18.4586 1.59106C16.4751 1.59626 14.5078 1.9485 12.6458 2.63185C12.59 2.65744 12.5435 2.69972 12.5127 2.75285C12.482 2.80598 12.4685 2.86734 12.474 2.92848L12.7863 5.01005C12.7942 5.05787 12.8203 5.10077 12.8591 5.12974C12.8805 5.1389 12.9035 5.14363 12.9268 5.14363C12.95 5.14363 12.9731 5.1389 12.9944 5.12974C13.8506 4.8832 14.7191 4.68171 15.5964 4.52608C17.678 4.17742 18.8332 4.26589 19.4161 4.8175C19.5818 4.99445 19.7013 5.20958 19.764 5.44379C19.8266 5.678 19.8304 5.92406 19.7752 6.16012L19.7231 6.55562C19.7231 6.55562 17.1992 6.89387 15.56 7.2009C14.3289 7.3611 13.142 7.76442 12.0681 8.3874C10.3612 9.49584 9.93973 11.6711 10.2676 13.2219C10.5538 14.5801 11.7507 16.2037 15.8358 16.2037H16.1324C22.3771 16.2037 23.1941 15.1369 23.47 12.8784L23.8446 9.88093L24.3286 5.91553C24.4318 5.41825 24.4228 4.90421 24.3021 4.41087C24.1815 3.91752 23.9523 3.45731 23.6313 3.06378C22.7466 2.07503 21.0553 1.59106 18.4586 1.59106ZM19.3797 9.25646C19.3797 9.25646 19.2548 10.4325 19.2548 10.4482L18.8853 13.4196H18.8332C18.2519 13.5782 17.6507 13.6518 17.0483 13.6382C16.3755 13.6998 15.7048 13.5004 15.1749 13.0813C15.0067 12.9004 14.877 12.6872 14.7938 12.4546C14.7106 12.222 14.6756 11.9749 14.6909 11.7283C14.6909 10.5418 15.3987 9.79767 16.8453 9.52706C18.292 9.25646 19.4473 9.13156 19.4473 9.13156L19.3797 9.25646Z" fill="#E4E4E4"/>
<path d="M75.046 1.59619H74.588C71.2783 1.59619 69.0302 2.54851 67.9114 4.42193C67.0111 5.91546 66.5792 10.9789 66.574 11.0309C66.4761 11.8341 66.5615 12.6489 66.8238 13.4143C67.7553 15.8966 70.9869 16.2296 72.8447 16.2088C76.1804 16.2088 78.4337 15.2565 79.5318 13.4299C79.87 12.8679 80.3644 11.3015 80.8224 7.0343V6.88339C80.9311 6.11732 80.8762 5.3369 80.661 4.59366C79.9429 2.22066 77.2108 1.65864 75.046 1.59619ZM75.811 10.8384V10.9164C75.7682 11.6085 75.5016 12.2679 75.0512 12.7951C74.6119 13.1973 74.0388 13.4217 73.4432 13.4247C72.93 13.4866 72.4101 13.3942 71.9496 13.1593C71.6875 12.9968 71.4677 12.7742 71.3085 12.51C71.1492 12.2458 71.0551 11.9475 71.0338 11.6398C71.0025 11.2391 71.3616 8.76201 71.5541 7.4298L71.6426 6.81574C71.7146 6.07279 72.0684 5.38563 72.6314 4.89548C73.0756 4.54316 73.6256 4.35068 74.1925 4.34907C74.6724 4.31805 75.1505 4.43035 75.5664 4.67172C75.8063 4.84481 76.0008 5.07345 76.1331 5.33808C76.2654 5.60271 76.3316 5.89545 76.3262 6.19126C76.3418 6.49309 76.1648 8.0959 75.811 10.8384Z" fill="#E4E4E4"/>
<path d="M66.1213 1.70034H64.1386C63.6068 1.68549 63.08 1.80677 62.6083 2.05268C62.1365 2.29858 61.7354 2.66095 61.443 3.10541L56.416 9.35013L56.5513 8.98065L57.436 1.88769C57.4402 1.86425 57.4386 1.84014 57.4313 1.81746C57.4241 1.79478 57.4114 1.77422 57.3943 1.75759C57.3793 1.73915 57.3602 1.72441 57.3385 1.71449C57.3169 1.70457 57.2932 1.69973 57.2694 1.70034H53.1375C53.0806 1.70312 53.0263 1.72528 52.9837 1.76314C52.9411 1.801 52.9128 1.8523 52.9033 1.9085L51.1756 15.7197C51.1728 15.7411 51.1746 15.7629 51.1809 15.7835C51.1871 15.8042 51.1978 15.8232 51.2121 15.8394C51.2282 15.8541 51.2471 15.8653 51.2676 15.8725C51.2882 15.8796 51.31 15.8826 51.3317 15.8811H53.4914C54.0217 15.8871 54.5449 15.7591 55.0125 15.5089C55.4801 15.2587 55.877 14.8945 56.1662 14.45L61.0787 8.06996L60.9174 8.46025L60.0223 15.6937C60.0168 15.7402 60.0299 15.787 60.0587 15.8238C60.0761 15.8422 60.0971 15.8568 60.1204 15.8667C60.1437 15.8765 60.1688 15.8814 60.194 15.8811H64.3208C64.3777 15.8783 64.432 15.8561 64.4745 15.8183C64.5171 15.7804 64.5455 15.7291 64.5549 15.6729L66.2722 1.85126C66.2769 1.83026 66.2765 1.80845 66.2711 1.78764C66.2657 1.76682 66.2554 1.7476 66.241 1.73157C66.2244 1.7182 66.2051 1.70851 66.1845 1.70313C66.1639 1.69775 66.1423 1.6968 66.1213 1.70034Z" fill="#E4E4E4"/>
<path d="M95.8357 1.59105L91.6257 2.11144C91.5652 2.12119 91.5092 2.14944 91.4654 2.1923C91.4216 2.23517 91.3921 2.29055 91.3811 2.35082L90.7826 7.19048L90.7514 7.38823H86.7288L87.4261 1.75237C87.4293 1.73097 87.4277 1.70912 87.4214 1.68842C87.4151 1.66772 87.4042 1.64868 87.3897 1.63268C87.3739 1.61778 87.3549 1.60673 87.3341 1.60041C87.3133 1.59409 87.2914 1.59267 87.27 1.59625L83.06 2.11665C82.9995 2.1264 82.9435 2.15464 82.8997 2.19751C82.8559 2.24037 82.8265 2.29575 82.8154 2.35603L81.1814 15.6937C81.1792 15.7171 81.1819 15.7407 81.1893 15.763C81.1966 15.7853 81.2084 15.8059 81.224 15.8235C81.2397 15.841 81.2587 15.8552 81.28 15.8651C81.3013 15.875 81.3244 15.8804 81.3479 15.8811H85.4798C85.5377 15.8794 85.5931 15.8578 85.6368 15.8199C85.6805 15.7819 85.7096 15.7299 85.7192 15.6729L86.3853 10.3285V10.2868H90.4132L89.7418 15.6937C89.7397 15.7171 89.7424 15.7407 89.7497 15.763C89.7571 15.7853 89.7689 15.8059 89.7845 15.8235C89.8001 15.841 89.8192 15.8552 89.8405 15.8651C89.8618 15.875 89.8849 15.8804 89.9084 15.8811H90.9492C92.8538 15.8811 94.2537 15.6521 94.5503 13.4508L95.9866 1.75237C95.9917 1.7314 95.9915 1.70947 95.9861 1.68858C95.9806 1.66768 95.9701 1.64847 95.9553 1.63268C95.9403 1.6165 95.9215 1.60424 95.9007 1.59699C95.8798 1.58973 95.8575 1.58769 95.8357 1.59105Z" fill="#E4E4E4"/>
<path d="M51.3368 4.73933L51.6907 1.87197C51.6929 1.84814 51.69 1.82412 51.6824 1.80144C51.6747 1.77877 51.6624 1.75795 51.6462 1.74031C51.6301 1.72267 51.6104 1.70861 51.5885 1.69902C51.5666 1.68943 51.5429 1.68452 51.5189 1.68462H35.8603C35.7182 1.69093 35.5787 1.72546 35.4501 1.78622C35.3214 1.84697 35.2061 1.93273 35.1109 2.03849L30.7344 7.39854H30.11L30.8125 1.75228C30.8161 1.73087 30.8147 1.70892 30.8083 1.68815C30.802 1.66739 30.791 1.64837 30.7761 1.63258C30.7597 1.61859 30.7406 1.60813 30.72 1.60186C30.6994 1.59559 30.6778 1.59365 30.6564 1.59616L26.4464 2.11655C26.3852 2.12661 26.3286 2.15563 26.2848 2.1995C26.2409 2.24338 26.2119 2.29991 26.2018 2.36114L24.5418 15.6988C24.5369 15.7226 24.5376 15.7473 24.5439 15.7708C24.5503 15.7943 24.562 15.816 24.5782 15.8341C24.6132 15.8676 24.6598 15.8863 24.7083 15.8862H28.8714C28.9284 15.8834 28.9826 15.8612 29.0252 15.8234C29.0678 15.7855 29.0962 15.7342 29.1056 15.678L29.7769 10.2971H30.4222L33.4249 15.6832C33.4608 15.7418 33.5103 15.7908 33.5691 15.8261C33.628 15.8614 33.6946 15.882 33.7631 15.8862H38.2437C38.3166 15.8862 38.3894 15.8497 38.327 15.7248L34.2263 8.88687L37.6296 4.94749H42.5474L41.21 15.6988C41.2051 15.7226 41.2058 15.7473 41.2121 15.7708C41.2185 15.7943 41.2302 15.816 41.2464 15.8341C41.2814 15.8676 41.328 15.8863 41.3765 15.8862H45.5084C45.5659 15.8854 45.6213 15.8639 45.6643 15.8257C45.7073 15.7875 45.7351 15.735 45.7426 15.678L47.0592 4.94749H51.0974C51.1553 4.94588 51.2107 4.92425 51.2544 4.88629C51.2981 4.84833 51.3272 4.79638 51.3368 4.73933Z" fill="#E4E4E4"/>
<path d="M9.76262 1.68982H5.81284C5.54072 1.7048 5.28427 1.82187 5.09469 2.01767L0.161365 7.99699C0.0714379 8.10018 0.0160599 8.22893 0.00299452 8.36518C-0.0100708 8.50143 0.0198316 8.63836 0.0885095 8.75676L3.92381 15.5219C3.98923 15.6283 4.08007 15.7168 4.18815 15.7795C4.29624 15.8422 4.4182 15.877 4.54308 15.8809H7.96206C8.20665 15.8809 8.32634 15.7248 8.20665 15.5323L4.36094 8.76717L9.92915 2.00206C10.0749 1.82512 10.002 1.68982 9.76262 1.68982Z" fill="#E4E4E4"/>
<path d="M106.603 8.80363L102.767 2.03851C102.7 1.93361 102.609 1.84627 102.501 1.78381C102.394 1.72134 102.272 1.68556 102.148 1.67944H98.7239C98.4846 1.67944 98.3649 1.83556 98.4794 2.03331L102.33 8.79842L96.7621 15.5896C96.6111 15.7613 96.684 15.8966 96.9286 15.8966H100.878C101.15 15.8845 101.406 15.7669 101.591 15.5687L106.53 9.5582C106.619 9.45545 106.673 9.32767 106.686 9.19251C106.699 9.05734 106.67 8.92146 106.603 8.80363Z" fill="#E4E4E4"/>
<path d="M154.12 2.73058H149.207L147.604 15.7404C147.595 15.82 147.556 15.8931 147.496 15.9453C147.435 15.9974 147.357 16.0246 147.277 16.0214H145.877C145.836 16.0255 145.795 16.0205 145.757 16.0067C145.718 15.993 145.683 15.9709 145.654 15.942C145.625 15.9131 145.603 15.8782 145.59 15.8397C145.576 15.8013 145.571 15.7602 145.575 15.7196L147.178 2.70977H142.307C142.265 2.71021 142.225 2.70168 142.187 2.68477C142.149 2.66785 142.115 2.64296 142.088 2.6118C142.061 2.58064 142.041 2.54396 142.029 2.50427C142.018 2.46459 142.015 2.42284 142.021 2.38192L142.14 1.30991C142.154 1.22262 142.199 1.14335 142.267 1.08686C142.335 1.03037 142.421 1.00052 142.51 1.00288H154.281C154.321 1.00001 154.361 1.00622 154.398 1.02103C154.435 1.03584 154.469 1.05888 154.496 1.08841C154.523 1.11794 154.543 1.15321 154.554 1.19157C154.566 1.22993 154.568 1.27039 154.562 1.30991L154.422 2.42355C154.423 2.46381 154.416 2.50394 154.402 2.54149C154.387 2.57904 154.365 2.61322 154.337 2.64195C154.308 2.67068 154.275 2.69336 154.237 2.7086C154.2 2.72383 154.16 2.73132 154.12 2.73058Z" fill="#E4E4E4"/>
<path d="M154.109 12.3684C154.109 14.2158 155.186 14.8454 157.32 14.8454C158.315 14.8213 159.297 14.6167 160.219 14.2418C160.421 14.1637 160.526 14.2418 160.546 14.4239L160.666 15.3398C160.666 15.5011 160.624 15.6052 160.421 15.6833C159.297 16.0913 158.11 16.2974 156.914 16.2921C153.5 16.2921 152.23 14.9912 152.23 12.2331C152.237 11.725 152.271 11.2177 152.335 10.7135C152.761 7.20087 153.818 5.10889 157.814 5.10889C160.494 5.10889 161.977 6.14967 161.977 8.37696C161.977 11.5409 160.031 11.8688 157.19 11.8688H154.104C154.096 12.0353 154.098 12.2021 154.109 12.3684ZM160.099 8.59552C160.14 7.19566 159.428 6.54517 157.663 6.54517C155.103 6.54517 154.479 8.00748 154.276 10.5418H157.356C159.24 10.5418 160.057 10.2816 160.099 8.59552Z" fill="#E4E4E4"/>
<path d="M171.662 7.03431C170.806 6.76544 169.92 6.60802 169.024 6.56596C167.275 6.56596 166.364 7.11237 165.834 8.64753C165.489 9.79897 165.313 10.9946 165.313 12.1966C165.238 12.9174 165.45 13.6388 165.901 14.2053C166.328 14.6529 167.02 14.8142 168.014 14.8142C168.919 14.7817 169.817 14.6419 170.689 14.3979C170.737 14.3903 170.786 14.3903 170.835 14.3979C170.863 14.3965 170.892 14.4008 170.918 14.4106C170.945 14.4203 170.97 14.4354 170.99 14.4548C171.011 14.4742 171.028 14.4975 171.04 14.5235C171.051 14.5495 171.058 14.5776 171.058 14.606L171.116 15.397C171.125 15.4371 171.126 15.4786 171.118 15.519C171.11 15.5593 171.095 15.5978 171.072 15.6319C171.049 15.666 171.019 15.695 170.985 15.7173C170.95 15.7396 170.912 15.7545 170.871 15.7613C169.817 16.0805 168.725 16.2556 167.624 16.2817C166.063 16.2817 165.022 16.0007 164.319 15.371C163.617 14.7413 163.346 13.7266 163.346 12.3475C163.344 10.9347 163.561 9.53015 163.991 8.18438C164.725 6.10281 166.146 5.11926 169.008 5.11926C170.058 5.13432 171.098 5.31883 172.089 5.66568C172.142 5.68189 172.188 5.71416 172.222 5.758C172.255 5.80184 172.274 5.85507 172.276 5.91026C172.273 5.97966 172.259 6.04812 172.235 6.11321L171.969 6.86258C171.95 6.92516 171.907 6.9779 171.85 7.00987C171.793 7.04184 171.726 7.05059 171.662 7.03431Z" fill="#E4E4E4"/>
<path d="M182.882 8.59558L181.987 15.7198C181.985 15.7608 181.976 15.8011 181.959 15.8385C181.942 15.8759 181.918 15.9095 181.888 15.9376C181.858 15.9656 181.823 15.9874 181.784 16.0019C181.746 16.0163 181.705 16.023 181.664 16.0216H180.384C180.344 16.0277 180.303 16.0238 180.264 16.0105C180.226 15.9971 180.191 15.9746 180.164 15.9448C180.136 15.9151 180.116 15.879 180.105 15.8398C180.095 15.8006 180.094 15.7594 180.103 15.7198L180.972 8.77772C181.018 8.44816 181.046 8.11635 181.055 7.78377C181.055 6.81063 180.509 6.54523 179.432 6.54523C178.223 6.57679 177.023 6.75148 175.856 7.06562L174.816 15.7302C174.813 15.773 174.802 15.815 174.783 15.8535C174.764 15.892 174.737 15.9263 174.705 15.9544C174.672 15.9825 174.635 16.0039 174.594 16.0172C174.553 16.0305 174.51 16.0355 174.467 16.032H173.213C173.026 16.032 172.906 15.9331 172.927 15.7302L174.691 1.36211C174.691 1.17477 174.816 1.09671 174.998 1.05508L176.314 0.768863C176.358 0.760182 176.402 0.76192 176.444 0.773933C176.487 0.785945 176.525 0.807885 176.557 0.837924C176.59 0.867963 176.614 0.905232 176.629 0.946626C176.643 0.988019 176.648 1.03234 176.642 1.0759L176.195 4.50529L175.851 5.68138C177.144 5.34212 178.471 5.1518 179.806 5.11415C180.982 5.11415 181.836 5.29629 182.346 5.74382C182.576 5.96064 182.754 6.22704 182.865 6.52279C182.977 6.81854 183.02 7.13588 182.991 7.45071C182.976 7.8341 182.94 8.21634 182.882 8.59558Z" fill="#E4E4E4"/>
<path d="M123.822 15.9747H122.422C122.383 15.9764 122.344 15.9697 122.308 15.9548C122.271 15.94 122.239 15.9174 122.212 15.8887C122.185 15.86 122.165 15.8258 122.153 15.7886C122.141 15.7513 122.137 15.7118 122.141 15.6728L122.953 9.09506H114.445L113.633 15.6728C113.623 15.7565 113.582 15.8335 113.519 15.8892C113.455 15.9449 113.374 15.9753 113.289 15.9747H111.91C111.87 15.9786 111.828 15.9735 111.79 15.9598C111.751 15.9461 111.716 15.9241 111.687 15.8953C111.657 15.8666 111.635 15.8317 111.62 15.7933C111.606 15.7549 111.6 15.7137 111.603 15.6728L113.394 1.23192C113.394 1.04978 113.513 0.987334 113.675 0.966518L115.179 0.711526C115.215 0.7051 115.252 0.707522 115.287 0.718586C115.322 0.729651 115.354 0.74903 115.38 0.77508C115.406 0.80113 115.426 0.833081 115.437 0.868221C115.448 0.90336 115.45 0.940651 115.444 0.976926L114.648 7.35174H123.156L123.906 1.23192C123.916 1.15879 123.952 1.09171 124.007 1.04297C124.062 0.994229 124.134 0.967088 124.207 0.966518L125.732 0.711526C125.768 0.705009 125.804 0.707575 125.838 0.718986C125.872 0.730396 125.903 0.750278 125.928 0.776778C125.952 0.803278 125.969 0.835532 125.978 0.87053C125.986 0.905529 125.986 0.942133 125.977 0.976926L124.171 15.6728C124.158 15.7565 124.116 15.833 124.052 15.8883C123.989 15.9437 123.907 15.9743 123.822 15.9747Z" fill="#E4E4E4"/>
<path d="M140.038 6.95629C139.517 7.97106 138.539 8.57992 136.874 8.78287L136.811 9.30327C137.852 9.40735 138.82 9.54785 139.372 10.4429C139.678 11.0365 139.818 11.7017 139.778 12.3684C139.778 12.7327 139.778 12.8576 139.736 13.4872L139.575 15.6781C139.577 15.7205 139.569 15.7628 139.553 15.802C139.537 15.8412 139.512 15.8765 139.481 15.9052C139.45 15.934 139.413 15.9555 139.372 15.9684C139.332 15.9813 139.289 15.9853 139.247 15.9799H137.769C137.566 15.9799 137.462 15.881 137.483 15.6573L137.644 13.3623C137.644 13.0189 137.686 12.6338 137.686 12.2903C137.705 11.992 137.661 11.6929 137.556 11.413C137.451 11.1331 137.288 10.8787 137.077 10.6667C136.556 10.1983 135.739 9.95376 134.542 9.93294L130.379 9.83407L129.666 15.6781C129.652 15.7635 129.607 15.8409 129.54 15.8962C129.473 15.9515 129.389 15.9812 129.302 15.9799H127.944C127.904 15.9822 127.863 15.9759 127.826 15.9615C127.788 15.9472 127.754 15.925 127.725 15.8965C127.697 15.868 127.675 15.8339 127.66 15.7962C127.646 15.7586 127.64 15.7183 127.642 15.6781L129.406 1.31003C129.421 1.21856 129.468 1.13535 129.538 1.07529C129.609 1.01522 129.699 0.982219 129.791 0.982178H136.343C138.066 0.982178 139.346 1.34645 140.033 2.26235C140.448 2.87407 140.649 3.60591 140.605 4.34392C140.627 5.24752 140.433 6.14333 140.038 6.95629ZM138.133 3.36038C137.769 2.87641 137.139 2.63182 136.161 2.63182H131.254L130.541 8.35615L134.621 8.21564C136.041 8.17401 137.259 7.97106 137.93 6.97711C138.333 6.30403 138.53 5.52813 138.497 4.74462C138.536 4.25199 138.408 3.76063 138.133 3.34997V3.36038Z" fill="#E4E4E4"/>
</svg>
