<svg width="50" height="50" viewBox="0 0 50 50" fill="none" xmlns="http://www.w3.org/2000/svg">
<path d="M39.8383 33.7139C38.6131 31.5852 35.457 29.0273 34.154 27.9143C33.7974 27.6095 33.7593 27.0823 34.0838 26.7453C36.5703 24.1658 38.5592 21.2018 39.2438 19.4108C39.5458 18.6197 38.9206 17.7837 38.0397 17.7837H35.4809C34.6374 17.7837 34.1438 18.076 33.9086 18.5413C31.842 22.6294 30.0693 24.3988 28.8284 25.4329C28.1337 26.0121 27.0502 25.5322 27.0502 24.6509C27.0502 22.9527 27.0502 20.7575 27.0502 19.2009C27.0502 18.4459 26.4108 17.835 25.6219 17.835L20.9474 17.7837C20.359 17.7837 20.0229 18.4268 20.376 18.8777L21.1479 19.9472C21.4383 20.3179 21.5951 20.7687 21.5951 21.2314L21.591 26.0482C21.591 26.8862 20.539 27.2955 19.9144 26.7084C17.8016 24.722 15.9681 20.6653 15.3081 18.7255C15.1172 18.1641 14.5724 17.785 13.9548 17.7837L11.4341 17.7778C10.4884 17.7778 9.79708 18.6433 10.0541 19.5148C12.3572 27.3193 17.0829 34.744 25.5046 35.549C26.3343 35.628 27.0502 34.9829 27.0502 34.1844V31.653C27.0502 30.927 27.64 30.303 28.3982 30.2845C28.4248 30.2839 28.4514 30.2839 28.478 30.2839C30.7054 30.2839 33.2002 33.4137 34.0729 34.8775C34.3238 35.2989 34.7929 35.5555 35.3002 35.5555H38.6908C39.6801 35.5555 40.3149 34.5426 39.8383 33.7139Z" fill="white"/>
<path d="M25.0001 49.4444C38.5004 49.4444 49.4445 38.5003 49.4445 25C49.4445 11.4997 38.5004 0.555542 25.0001 0.555542C11.4998 0.555542 0.555664 11.4997 0.555664 25C0.555664 38.5003 11.4998 49.4444 25.0001 49.4444Z" stroke="white"/>
</svg>
