<svg width="100" height="100" viewBox="0 0 100 100" fill="none" xmlns="http://www.w3.org/2000/svg">
<circle cx="50" cy="50" r="50" fill="#326CF9"/>
<path d="M49.558 54C49.558 55.86 48.968 57.33 47.788 58.41C46.608 59.47 44.998 60 42.958 60H32.248V38.7H42.388C44.268 38.7 45.808 39.18 47.008 40.14C48.208 41.1 48.808 42.45 48.808 44.19C48.808 45.33 48.518 46.3 47.938 47.1C47.358 47.88 46.548 48.45 45.508 48.81C48.208 49.65 49.558 51.38 49.558 54ZM36.448 41.94V47.28H41.368C42.448 47.28 43.278 47.04 43.858 46.56C44.438 46.06 44.728 45.38 44.728 44.52C44.728 42.8 43.618 41.94 41.398 41.94H36.448ZM44.338 55.95C45.018 55.41 45.358 54.65 45.358 53.67C45.358 52.69 45.018 51.93 44.338 51.39C43.658 50.83 42.698 50.55 41.458 50.55H36.448V56.76H41.458C42.718 56.76 43.678 56.49 44.338 55.95ZM68.1299 38.7V42.3H61.7099V60H57.5099V42.3H51.0899V38.7H68.1299Z" fill="white"/>
</svg>
