<?xml version="1.0" standalone="no"?><!DOCTYPE svg PUBLIC "-//W3C//DTD SVG 1.1//EN" "http://www.w3.org/Graphics/SVG/1.1/DTD/svg11.dtd" ><svg xmlns="http://www.w3.org/2000/svg"><metadata></metadata><defs><font id="LettersfromSweden: Lab Grotesque Medium: 2015" horiz-adv-x="1792"><font-face font-family="Lab Grotesque" font-weight="500" font-stretch="normal" units-per-em="1000" panose-1="0 0 5 0 0 0 0 0 0 0" ascent="940" descent="-260" x-height="0" bbox="-431 -257 1742 942" underline-thickness="59" underline-position="-247" unicode-range="U+0020-fb02" /><missing-glyph horiz-adv-x="579" d="M479 810 l0 -910 l-379 0 l0 910 l379 0 Z" /><glyph glyph-name="space" unicode=" " d="" /><glyph glyph-name="exclam" unicode="!" d="M208 710 l0 -214 l-26 -282 l-67 0 l-26 282 l0 214 l119 0 ZM210 128 l0 -128 l-124 0 l0 128 l124 0 Z" /><glyph glyph-name="quotedbl" unicode="&quot;" d="M159 710 l-10 -257 l-85 0 l-11 257 l106 0 ZM356 710 l-10 -257 l-85 0 l-11 257 l106 0 Z" /><glyph glyph-name="numbersign" unicode="#" d="M566 431 l-90 0 l-38 -180 l90 0 l-16 -74 l-90 0 l-37 -177 l-84 0 l37 177 l-143 0 l-37 -177 l-84 0 l37 177 l-92 0 l16 74 l92 0 l38 180 l-92 0 l17 74 l91 0 l37 175 l84 0 l-37 -175 l143 0 l37 175 l84 0 l-37 -175 l91 0 l-17 -74 ZM354 251 l38 180 l-143 0 l-38 -180 l143 0 Z" /><glyph glyph-name="dollar" unicode="$" d="M348 -14 l0 -86 l-80 0 l0 86 q-66 6 -122 34 q-56 28 -120 85 l71 74 q92 -85 171 -95 l0 224 q-119 35 -164 76.5 q-45 41.5 -45 117.5 q0 76 59 130 q59 54 150 63 l0 85 l80 0 l0 -85 q109 -12 209 -101 l-70 -74 q-74 67 -139 77 l0 -204 q118 -34 165 -77 q47 -43 47 -123 q0 -85 -57.5 -141.5 q-57.5 -56.5 -154.5 -65.5 ZM268 415 l0 183 q-47 -7 -74 -32.5 q-27 -25.5 -27 -61.5 q0 -33 23 -53 q23 -20 78 -36 ZM450 188 q0 37 -23.5 58.5 q-23.5 21.5 -78.5 39.5 l0 -202 q47 7 74.5 34.5 q27.5 27.5 27.5 69.5 Z" /><glyph glyph-name="percent" unicode="%" d="M641 696 l65 -41 l-472 -671 l-64 42 l471 670 ZM818 154 q0 -72 -46.5 -118 q-46.5 -46 -115.5 -46 q-69 0 -115 46 q-46 46 -46 118 q0 70 46 116.5 q46 46.5 115 46.5 q68 0 115 -46.5 q47 -46.5 47 -116.5 ZM574 154 q0 -43 22 -69 q22 -26 60 -26 q38 0 60.5 26.5 q22.5 26.5 22.5 68.5 q0 42 -22.5 68 q-22.5 26 -60.5 26 q-37 0 -59.5 -26.5 q-22.5 -26.5 -22.5 -67.5 ZM376 528 q0 -72 -46.5 -118 q-46.5 -46 -115.5 -46 q-69 0 -115 46 q-46 46 -46 118 q0 70 46 116.5 q46 46.5 115 46.5 q68 0 115 -46.5 q47 -46.5 47 -116.5 ZM132 528 q0 -43 22 -69 q22 -26 60 -26 q38 0 60.5 26.5 q22.5 26.5 22.5 68.5 q0 42 -22.5 68 q-22.5 26 -60.5 26 q-37 0 -59.5 -26.5 q-22.5 -26.5 -22.5 -67.5 Z" /><glyph glyph-name="ampersand" unicode="&amp;" d="M708 0 l-134 0 l-76 88 q-51 -53 -103.5 -78 q-52.5 -25 -122.5 -25 q-101 0 -165 54 q-64 54 -64 138 q0 72 42 123 q44 52 141 107 q-73 87 -73 156 q0 70 53 116 q53 46 131 46 q80 0 132 -44 q52 -44 52 -110 q0 -59 -31 -99 q-32 -41 -111 -89 l122 -142 l98 122 l77 -59 l-111 -137 l143 -167 ZM256 565 q1 -25 15.5 -50 q14.5 -25 48.5 -64 q57 33 78 58.5 q21 25.5 21 61.5 q0 31 -23 51.5 q-23 20.5 -58 20.5 q-36 0 -59 -21.5 q-23 -21.5 -23 -56.5 ZM435 162 l-151 177 q-75 -45 -101 -77 q-29 -34 -29 -77 q0 -48 34 -78 q34 -30 91 -30 q44 0 80 20.5 q36 20.5 76 64.5 Z" /><glyph glyph-name="quotesingle" unicode="&#39;" d="M159 710 l-10 -257 l-85 0 l-11 257 l106 0 Z" /><glyph glyph-name="parenleft" unicode="(" d="M268 783 l70 -55 q-83 -106 -125 -206 q-40 -95 -40 -215 q0 -120 40 -215 q42 -100 125 -206 l-70 -55 q-101 110 -151.5 224 q-50.5 114 -50.5 252 q0 138 50.5 252 q50.5 114 151.5 224 Z" /><glyph glyph-name="parenright" unicode=")" d="M73 -166 l-70 55 q83 106 125 206 q40 95 40 215 q0 120 -40 215 q-41 98 -125 205 l70 56 q101 -110 151.5 -224 q50.5 -114 50.5 -252 q0 -138 -50.5 -252 q-50.5 -114 -151.5 -224 Z" /><glyph glyph-name="asterisk" unicode="*" d="M253 710 l0 -129 l119 41 l21 -63 l-122 -40 l80 -102 l-54 -42 l-80 106 l-77 -104 l-55 42 l81 100 l-123 40 l22 63 l116 -41 l0 129 l72 0 Z" /><glyph glyph-name="plus" unicode="+" d="M348 570 l0 -213 l212 0 l0 -94 l-212 0 l0 -213 l-96 0 l0 213 l-212 0 l0 94 l212 0 l0 213 l96 0 Z" /><glyph glyph-name="comma" unicode="," d="M184 128 l0 -128 l-71 -138 l-64 0 l63 138 l-59 0 l0 128 l131 0 Z" /><glyph glyph-name="hyphen" unicode="-" d="M354 339 l0 -99 l-301 0 l0 99 l301 0 Z" /><glyph glyph-name="period" unicode="." d="M177 128 l0 -128 l-124 0 l0 128 l124 0 Z" /><glyph glyph-name="slash" unicode="/" d="M437 710 l-310 -710 l-109 0 l310 710 l109 0 Z" /><glyph glyph-name="zero" unicode="0" d="M508 568 q47 -92 47 -228 q0 -136 -47 -228 q-68 -128 -213 -128 q-145 0 -213 128 q-47 92 -47 228 q0 136 47 228 q68 128 213 128 q145 0 213 -128 ZM182 521 q-32 -70 -32 -181 q0 -111 32 -181 q36 -78 113 -78 q77 0 113 78 q32 70 32 181 q0 111 -32 181 q-36 78 -113 78 q-77 0 -113 -78 Z" /><glyph glyph-name="one" unicode="1" d="M236 680 l88 0 l0 -680 l-114 0 l0 539 l-129 -90 l-56 78 l211 153 Z" /><glyph glyph-name="two" unicode="2" d="M311 242 l-22 -13 q-30 -18 -67 -43 q-54 -39 -65 -91 l381 0 l0 -95 l-498 0 l0 44 q0 71 27 119 q26 48 66 80 q41 33 109 75 l49 28 q48 28 74 46 q60 43 60 105 q0 47 -32 74.5 q-32 27.5 -83 27.5 q-51 0 -92.5 -27 q-41.5 -27 -93.5 -92 l-83 60 q55 79 119 117.5 q64 38.5 147 38.5 q106 0 169 -56.5 q63 -56.5 63 -140.5 q0 -59 -24 -100 q-22 -39 -59 -67 q-35 -26 -100 -64 q-10 -5 -45 -26 Z" /><glyph glyph-name="three" unicode="3" d="M531 207 q0 -90 -67.5 -156.5 q-67.5 -66.5 -181.5 -66.5 q-70 0 -130 19.5 q-60 19.5 -127 66.5 l55 81 q60 -36 106 -54 q42 -16 93 -16 q63 0 100.5 34 q37.5 34 37.5 91 q0 56 -39.5 88 q-39.5 32 -107.5 32 q-48 0 -80 -13 l-51 69 l231 203 l-311 0 l0 95 l448 0 l0 -93 l-201 -177 q98 0 161.5 -55 q63.5 -55 63.5 -148 Z" /><glyph glyph-name="four" unicode="4" d="M471 246 l97 0 l0 -92 l-97 0 l0 -154 l-111 0 l0 154 l-334 0 l0 104 l270 422 l125 0 l-277 -434 l216 0 l0 145 l111 0 l0 -145 Z" /><glyph glyph-name="five" unicode="5" d="M537 226 q0 -103 -70.5 -172.5 q-70.5 -69.5 -178.5 -69.5 q-74 0 -132 20 q-56 21 -130 71 l56 81 q67 -43 107 -59 q41 -16 91 -16 q62 0 102 39 q41 39 41 97 q0 60 -36 95 q-36 35 -100 35 q-74 0 -120 -46 l-100 10 l30 369 l406 0 l0 -95 l-310 0 l-15 -185 q56 41 136 41 q98 0 160.5 -62 q62.5 -62 62.5 -153 Z" /><glyph glyph-name="six" unicode="6" d="M554 219 q0 -96 -69.5 -165.5 q-69.5 -69.5 -182.5 -69.5 q-118 0 -188 75.5 q-70 75.5 -70 197.5 q0 102 51 193 q51 91 153 188 l45 42 l150 0 l0 -2 l-112 -102 q-105 -95 -149 -179 q56 50 145 50 q99 0 163 -66.5 q64 -66.5 64 -161.5 ZM403.5 118.5 q37.5 37.5 37.5 98.5 q0 61 -37.5 98.5 q-37.5 37.5 -99.5 37.5 q-65 0 -105 -38 q-40 -38 -40 -98 q0 -59 40 -97.5 q40 -38.5 104 -38.5 q63 0 100.5 37.5 Z" /><glyph glyph-name="seven" unicode="7" d="M23 680 l498 0 l0 -84 q-97 -118 -169 -276 q-74 -160 -98 -320 l-125 0 q19 147 92 303 q74 156 169 282 l-367 0 l0 95 Z" /><glyph glyph-name="eight" unicode="8" d="M555 189 q0 -90 -70.5 -147.5 q-70.5 -57.5 -190.5 -57.5 q-120 0 -191 57.5 q-71 57.5 -71 147.5 q0 128 125 180 q-92 45 -92 148 q0 80 63.5 130 q63.5 50 165.5 50 q102 0 165 -50 q63 -50 63 -130 q0 -102 -91 -148 q59 -25 91.5 -71.5 q32.5 -46.5 32.5 -108.5 ZM174 511 q0 -45 33 -73 q33 -28 87 -28 q54 0 87 28 q33 28 33 73 q0 43 -33 70.5 q-33 27.5 -87 27.5 q-54 0 -87 -27.5 q-33 -27.5 -33 -70.5 ZM440 197 q0 56 -39 90.5 q-39 34.5 -107 34.5 q-68 0 -107.5 -34.5 q-39.5 -34.5 -39.5 -90.5 q0 -52 40 -86 q40 -34 107 -34 q67 0 106.5 33.5 q39.5 33.5 39.5 86.5 Z" /><glyph glyph-name="nine" unicode="9" d="M544 423 q0 -102 -50.5 -193 q-50.5 -91 -153.5 -188 l-45 -42 l-149 0 l0 2 l112 102 q103 91 147 178 q-53 -49 -143 -49 q-99 0 -163 66.5 q-64 66.5 -64 161.5 q0 96 69.5 165.5 q69.5 69.5 182.5 69.5 q118 0 187.5 -75.5 q69.5 -75.5 69.5 -197.5 ZM429 463 q0 59 -40 97.5 q-40 38.5 -103 38.5 q-62 0 -100 -37.5 q-38 -37.5 -38 -98.5 q0 -61 37 -98.5 q37 -37.5 99 -37.5 q65 0 105 38 q40 38 40 98 Z" /><glyph glyph-name="colon" unicode=":" d="M197 502 l0 -128 l-124 0 l0 128 l124 0 ZM197 128 l0 -128 l-124 0 l0 128 l124 0 Z" /><glyph glyph-name="semicolon" unicode=";" d="M208 128 l0 -128 l-71 -138 l-64 0 l63 138 l-59 0 l0 128 l131 0 ZM203 502 l0 -128 l-124 0 l0 128 l124 0 Z" /><glyph glyph-name="less" unicode="&lt;" d="M540 534 l0 -98 l-356 -126 l356 -126 l0 -98 l-480 180 l0 88 l480 180 Z" /><glyph glyph-name="equal" unicode="=" d="M560 457 l0 -94 l-520 0 l0 94 l520 0 ZM560 257 l0 -94 l-520 0 l0 94 l520 0 Z" /><glyph glyph-name="greater" unicode="&gt;" d="M60 534 l480 -180 l0 -88 l-480 -180 l0 98 l356 126 l-356 126 l0 98 Z" /><glyph glyph-name="question" unicode="?" d="M487 539 q0 -42 -17 -74 q-16 -31 -38 -53 q-13 -13 -74 -67 q-39 -34 -59 -59 q-16 -19 -21 -53 l-3 -24 l-95 0 l0 28 q0 59 16 89 q16 30 80 86 l16 14 q44 36 60.5 58.5 q16.5 22.5 16.5 53.5 q0 40 -29.5 63 q-29.5 23 -78.5 23 q-41 0 -77.5 -17.5 q-36.5 -17.5 -94.5 -61.5 l-66 76 q117 105 241 105 q99 0 161 -50 q62 -50 62 -137 ZM292 128 l0 -128 l-124 0 l0 128 l124 0 Z" /><glyph glyph-name="at" unicode="@" d="M711 473 l-56 -265 q-6 -26 -6 -51 q0 -68 67 -68 q51 0 83.5 55.5 q32.5 55.5 32.5 145.5 q0 157 -93.5 242 q-93.5 85 -243.5 85 q-164 0 -262 -104.5 q-98 -104.5 -98 -271.5 q0 -163 97.5 -259 q97.5 -96 278.5 -96 l224 0 l0 -76 l-245 0 q-206 0 -326.5 118.5 q-120.5 118.5 -120.5 314.5 q-2 198 122.5 327.5 q124.5 129.5 324.5 126.5 q188 2 309.5 -111.5 q121.5 -113.5 119.5 -293.5 q0 -123 -58 -198 q-58 -75 -151 -75 q-116 0 -139 89 q-57 -89 -161 -89 q-76 0 -116 43 q-40 43 -40 120 q-1 70 28.5 139.5 q29.5 69.5 85.5 115.5 q56 46 122 44 q97 0 121 -76 l11 68 l89 0 ZM574 315 q0 45 -18 66 q-18 21 -57 21 q-61 3 -105.5 -67 q-44.5 -70 -43.5 -147 q0 -90 73 -90 q48 -2 84.5 37.5 q36.5 39.5 52 88.5 q15.5 49 14.5 91 Z" /><glyph glyph-name="A" unicode="a" d="M557 0 l-56 160 l-313 0 l-55 -160 l-120 0 l256 710 l155 0 l256 -710 l-123 0 ZM222 258 l245 0 l-30 87 l-23 67 q-50 141 -69 208 q-23 -76 -85 -253 l-8 -23 l-30 -86 Z" /><glyph glyph-name="B" unicode="b" d="M640 200 q0 -92 -59.5 -146 q-59.5 -54 -159.5 -54 l-344 0 l0 710 l327 0 q95 0 153 -48 q58 -48 58 -134 q0 -57 -29.5 -97 q-29.5 -40 -81.5 -58 q65 -19 100.5 -63 q35.5 -44 35.5 -110 ZM195 617 l0 -200 l182 0 q58 0 90.5 27.5 q32.5 27.5 32.5 75.5 q0 97 -123 97 l-182 0 ZM485 123.5 q37 30.5 37 84.5 q0 54 -37.5 85 q-37.5 31 -103.5 31 l-186 0 l0 -231 l185 0 q68 0 105 30.5 Z" /><glyph glyph-name="C" unicode="c" d="M647 623 l-69 -82 q-53 46 -96.5 64 q-43.5 18 -94.5 18 q-104 0 -166 -73.5 q-62 -73.5 -62 -193.5 q0 -121 61.5 -195 q61.5 -74 162.5 -74 q58 0 101 22 q45 23 104 75 l71 -80 q-69 -64 -132 -92 q-63 -28 -142 -28 q-158 0 -252.5 104 q-94.5 104 -94.5 268 q0 163 94.5 266.5 q94.5 103.5 255.5 103.5 q75 0 135 -24 q60 -24 124 -79 Z" /><glyph glyph-name="D" unicode="d" d="M588.5 612 q85.5 -98 85.5 -257 q0 -159 -85.5 -257 q-85.5 -98 -233.5 -98 l-278 0 l0 710 l278 0 q148 0 233.5 -98 ZM337 610 l-142 0 l0 -510 l142 0 q101 0 158.5 66.5 q57.5 66.5 57.5 188.5 q0 122 -57.5 188.5 q-57.5 66.5 -158.5 66.5 Z" /><glyph glyph-name="E" unicode="e" d="M564 710 l0 -100 l-369 0 l0 -194 l344 0 l0 -99 l-344 0 l0 -217 l379 0 l0 -100 l-497 0 l0 710 l487 0 Z" /><glyph glyph-name="F" unicode="f" d="M564 710 l0 -100 l-369 0 l0 -211 l343 0 l0 -100 l-343 0 l0 -299 l-118 0 l0 710 l487 0 Z" /><glyph glyph-name="G" unicode="g" d="M364 284 l0 100 l322 0 l0 -384 l-91 0 l-7 78 q-64 -93 -212 -93 q-157 0 -247.5 102 q-90.5 102 -90.5 269 q0 162 96 265.5 q96 103.5 256 103.5 q90 0 158.5 -31 q68.5 -31 137.5 -102 l-74 -77 q-62 59 -112 83 q-49 24 -112 24 q-104 0 -166.5 -72 q-62.5 -72 -62.5 -195 q0 -125 60.5 -196 q60.5 -71 165.5 -71 q88 0 140.5 48 q52.5 48 52.5 129 l0 19 l-214 0 Z" /><glyph glyph-name="H" unicode="h" d="M660 710 l0 -710 l-119 0 l0 321 l-346 0 l0 -321 l-118 0 l0 710 l118 0 l0 -289 l346 0 l0 289 l119 0 Z" /><glyph glyph-name="I" unicode="i" d="M202 710 l0 -710 l-118 0 l0 710 l118 0 Z" /><glyph glyph-name="J" unicode="j" d="M396 710 l0 -523 q0 -100 -53 -150.5 q-53 -50.5 -151 -50.5 q-92 0 -184 45 l37 94 q84 -34 142 -34 q91 0 91 108 l0 511 l118 0 Z" /><glyph glyph-name="K" unicode="k" d="M540 0 l-226 350 l-119 -123 l0 -227 l-118 0 l0 710 l118 0 l0 -339 l317 339 l147 0 l-266 -276 l281 -434 l-134 0 Z" /><glyph glyph-name="L" unicode="l" d="M195 710 l0 -609 l337 0 l0 -101 l-455 0 l0 710 l118 0 Z" /><glyph glyph-name="M" unicode="m" d="M630 710 l185 0 l0 -710 l-115 0 l0 358 q0 110 4 265 l-48 -149 l-38 -116 l-119 -358 l-104 0 l-121 358 q-14 45 -30 89 l-56 170 q2 -226 2 -260 l0 -357 l-113 0 l0 710 l187 0 l101 -300 q50 -141 83 -262 q33 116 82 262 l100 300 Z" /><glyph glyph-name="N" unicode="n" d="M547 710 l115 0 l0 -710 l-128 0 l-193 304 q-112 174 -154 250 q5 -117 5 -275 l0 -279 l-115 0 l0 710 l130 0 l201 -316 l19 -30 q99 -159 125 -206 q-5 112 -5 264 l0 288 Z" /><glyph glyph-name="O" unicode="o" d="M727 355 q2 -161 -93.5 -267 q-95.5 -106 -250.5 -104 q-156 0 -250.5 104.5 q-94.5 104.5 -94.5 266.5 q0 162 94.5 266.5 q94.5 104.5 250.5 104.5 q155 2 250.5 -104 q95.5 -106 93.5 -267 ZM221 548 q-62 -74 -62 -193 q0 -119 62 -193 q62 -74 162 -74 q101 0 162 73.5 q61 73.5 61 193.5 q0 120 -61 193.5 q-61 73.5 -162 73.5 q-100 0 -162 -74 Z" /><glyph glyph-name="P" unicode="p" d="M571 651 q64 -58 64 -160 q0 -102 -64 -160 q-62 -58 -169 -58 l-207 0 l0 -273 l-118 0 l0 710 l325 0 q105 0 169 -59 ZM383 612 l-188 0 l0 -241 l188 0 q63 0 98.5 31.5 q35.5 31.5 35.5 88.5 q0 58 -35.5 89.5 q-35.5 31.5 -98.5 31.5 Z" /><glyph glyph-name="Q" unicode="q" d="M612 67 l59 -78 l-84 -59 l-62 81 q-64 -27 -142 -27 q-156 0 -250.5 104.5 q-94.5 104.5 -94.5 266.5 q0 162 94.5 266.5 q94.5 104.5 250.5 104.5 q155 2 250.5 -104 q95.5 -106 93.5 -267 q0 -89 -30 -164 q-30 -75 -85 -124 ZM458 100 l-88 117 l83 59 l89 -118 q64 75 64 197 q0 120 -61 193.5 q-61 73.5 -162 73.5 q-100 0 -162 -74 q-62 -74 -62 -193 q0 -119 62 -193 q62 -74 162 -74 q41 0 75 12 Z" /><glyph glyph-name="R" unicode="r" d="M654 0 l-133 0 l-178 273 l-148 0 l0 -273 l-118 0 l0 710 l319 0 q102 0 167 -60.5 q65 -60.5 65 -158.5 q0 -79 -43.5 -135 q-43.5 -56 -117.5 -74 l187 -282 ZM195 612 l0 -241 l180 0 q64 0 100 31.5 q36 31.5 36 88.5 q0 57 -36.5 89 q-36.5 32 -99.5 32 l-180 0 Z" /><glyph glyph-name="S" unicode="s" d="M591 618 l-69 -82 q-61 50 -105 68 q-44 19 -105 19 q-65 0 -104.5 -28 q-39.5 -28 -39.5 -71 q0 -32 18 -50 q20 -18 54 -30 q40 -13 110 -29 q141 -35 194 -76.5 q53 -41.5 56 -129.5 q0 -100 -75 -162.5 q-75 -62.5 -197 -62.5 q-90 0 -160 29 q-67 28 -148 98 l71 83 q75 -64 124 -85 q51 -22 115 -22 q69 0 111 30.5 q42 30.5 42 83.5 q0 37 -22 56 q-23 20 -55 30 q-40 13 -112 29 q-139 33 -191 76.5 q-52 43.5 -52 127.5 q0 89 75 147.5 q75 58.5 188 58.5 q85 0 147 -25 q64 -26 130 -83 Z" /><glyph glyph-name="T" unicode="t" d="M585 710 l0 -101 l-219 0 l0 -609 l-119 0 l0 609 l-218 0 l0 101 l556 0 Z" /><glyph glyph-name="U" unicode="u" d="M626 710 l0 -476 q0 -124 -71 -187 q-71 -63 -206 -63 q-135 0 -206 63 q-71 63 -71 187 l0 476 l118 0 l0 -471 q0 -73 40.5 -112 q40.5 -39 118.5 -39 q78 0 118.5 39 q40.5 39 40.5 112 l0 471 l118 0 Z" /><glyph glyph-name="V" unicode="v" d="M516 710 l122 0 l-238 -710 l-148 0 l-238 710 l123 0 l113 -345 q48 -145 77 -252 q40 139 77 250 l112 347 Z" /><glyph glyph-name="W" unicode="w" d="M812 710 l116 0 l-171 -710 l-139 0 l-78 298 q-34 129 -61 254 q-30 -135 -61 -255 l-78 -297 l-140 0 l-172 710 l120 0 l75 -322 q19 -79 53 -253 q40 174 61 253 l86 322 l117 0 l84 -322 q34 -136 60 -255 q34 177 52 255 l76 322 Z" /><glyph glyph-name="X" unicode="x" d="M666 0 l-133 0 l-195 290 l-196 -290 l-131 0 l256 376 l-231 334 l134 0 l170 -251 l169 251 l132 0 l-232 -335 l257 -375 Z" /><glyph glyph-name="Y" unicode="y" d="M504 710 l127 0 l-251 -410 l0 -300 l-119 0 l0 301 l-250 409 l131 0 l181 -305 l181 305 Z" /><glyph glyph-name="Z" unicode="z" d="M590 710 l0 -96 l-405 -514 l404 0 l0 -100 l-546 0 l0 96 l405 514 l-389 0 l0 100 l531 0 Z" /><glyph glyph-name="bracketleft" unicode="[" d="M308 767 l0 -81 l-111 0 l0 -756 l111 0 l0 -80 l-215 0 l0 917 l215 0 Z" /><glyph glyph-name="backslash" unicode="\" d="M18 710 l109 0 l310 -710 l-109 0 l-310 710 Z" /><glyph glyph-name="bracketright" unicode="]" d="M33 767 l215 0 l0 -917 l-215 0 l0 80 l111 0 l0 756 l-111 0 l0 81 Z" /><glyph glyph-name="asciicircum" unicode="^" d="M340 710 l199 -430 l-91 0 l-152 332 l-153 -332 l-92 0 l200 430 l89 0 Z" /><glyph glyph-name="underscore" unicode="_" d="M605 -114 l0 -76 l-610 0 l0 76 l610 0 Z" /><glyph glyph-name="grave" unicode="`" d="M52 713 l122 0 l70 -143 l-97 0 l-95 143 Z" /><glyph glyph-name="a" unicode="a" d="M486 343 l0 -343 l-99 0 l0 57 q-50 -73 -166 -73 q-81 0 -130.5 36 q-49.5 36 -49.5 106 q0 79 59 117 q61 40 166 59 l115 21 l0 18 q0 41 -28 63.5 q-28 22.5 -76 22.5 q-46 0 -80.5 -18.5 q-34.5 -18.5 -80.5 -64.5 l-69 64 q92 110 227 110 q101 0 156.5 -47 q55.5 -47 55.5 -128 ZM381 197 l0 46 l-87 -18 q-79 -17 -112 -36.5 q-33 -19.5 -33 -56.5 q0 -28 23.5 -44 q23.5 -16 64.5 -16 q63 0 103.5 33.5 q40.5 33.5 40.5 91.5 Z" /><glyph glyph-name="b" unicode="b" d="M490 442.5 q62 -73.5 62 -191.5 q0 -118 -63 -191 q-63 -73 -160 -73 q-112 0 -165 83 l0 -70 l-102 0 l0 710 l110 0 l0 -268 q54 74 158 74 q98 0 160 -73.5 ZM440 251 q0 78 -36 124.5 q-36 46.5 -97 46.5 q-63 0 -101.5 -46.5 q-38.5 -46.5 -38.5 -124.5 q0 -77 39 -123 q39 -46 101 -46 q60 0 96.5 46 q36.5 46 36.5 123 Z" /><glyph glyph-name="c" unicode="c" d="M286 425 q-67 0 -104 -51 q-36 -50 -36 -123 q0 -73 36 -123 q37 -49 104 -49 q38 0 69.5 17.5 q31.5 17.5 72.5 62.5 l73 -61 q-49 -62 -99 -87.5 q-50 -25.5 -117 -25.5 q-113 0 -182 72.5 q-69 72.5 -69 193.5 q0 121 70 194 q70 73 182 73 q63 0 111 -22 q48 -22 96 -73 l-70 -68 q-40 40 -70.5 55 q-30.5 15 -66.5 15 Z" /><glyph glyph-name="d" unicode="d" d="M415 710 l110 0 l0 -710 l-102 0 l0 73 q-54 -87 -166 -87 q-97 0 -159.5 73.5 q-62.5 73.5 -62.5 191.5 q0 118 63.5 191.5 q63.5 73.5 159.5 73.5 q105 0 157 -73 l0 267 ZM380.5 126.5 q38.5 46.5 38.5 124.5 q0 78 -38.5 124 q-38.5 46 -100.5 46 q-60 0 -96.5 -46.5 q-36.5 -46.5 -36.5 -123.5 q0 -78 36 -124.5 q36 -46.5 96 -46.5 q63 0 101.5 46.5 Z" /><glyph glyph-name="e" unicode="e" d="M449 153 l64 -67 q-53 -54 -105.5 -77.5 q-52.5 -23.5 -116.5 -23.5 q-119 0 -188 71.5 q-69 71.5 -69 191.5 q0 119 67.5 194.5 q67.5 75.5 179.5 75.5 q110 0 170.5 -65.5 q60.5 -65.5 60.5 -181.5 q0 -19 -2 -45 l-368 0 q6 -68 45 -108 q39 -40 106 -40 q43 0 75 16 q32 16 81 59 ZM145 306 l259 0 q-3 58 -36 91.5 q-33 33.5 -90 33.5 q-53 0 -87.5 -32.5 q-34.5 -32.5 -45.5 -92.5 Z" /><glyph glyph-name="f" unicode="f" d="M217 559 l0 -57 l118 0 l0 -83 l-118 0 l0 -419 l-110 0 l0 419 l-89 0 l0 83 l89 0 l0 66 q0 78 40.5 118.5 q40.5 40.5 117.5 40.5 q55 0 104 -18 l-20 -82 q-37 9 -64 9 q-36 0 -52 -18 q-16 -18 -16 -59 Z" /><glyph glyph-name="g" unicode="g" d="M415 502 l102 0 l0 -483 q0 -102 -66 -157 q-65 -56 -172 -56 q-125 0 -234 73 l54 80 q56 -34 95.5 -48 q39.5 -14 83.5 -14 q61 0 96 33 q35 33 35 98 l0 52 q-53 -71 -153 -71 q-96 0 -158 71.5 q-62 71.5 -62 183.5 q0 111 62 182.5 q62 71.5 158 71.5 q107 0 159 -79 l0 63 ZM412 264 q0 71 -37 115.5 q-37 44.5 -96 44.5 q-60 0 -96 -44 q-36 -44 -36 -116 q0 -73 36 -117.5 q36 -44.5 96 -44.5 q59 0 96 45 q37 45 37 117 Z" /><glyph glyph-name="h" unicode="h" d="M499 344 l0 -344 l-110 0 l0 310 q0 55 -27 84.5 q-27 29.5 -77 29.5 q-49 0 -81 -33 q-32 -33 -32 -84 l0 -307 l-110 0 l0 710 l110 0 l0 -258 q52 66 147 66 q85 0 132.5 -47.5 q47.5 -47.5 47.5 -126.5 Z" /><glyph glyph-name="i" unicode="i" d="M172 502 l0 -502 l-110 0 l0 502 l110 0 ZM172 702 l0 -113 l-110 0 l0 113 l110 0 Z" /><glyph glyph-name="j" unicode="j" d="M7 -102 q32 0 45 17 q13 17 13 56 l0 531 l110 0 l0 -530 q0 -163 -150 -163 q-55 0 -100 15 l20 82 q43 -8 62 -8 ZM175 702 l0 -113 l-110 0 l0 113 l110 0 Z" /><glyph glyph-name="k" unicode="k" d="M405 0 l-153 240 l-80 -81 l0 -159 l-110 0 l0 710 l110 0 l0 -430 l211 222 l132 0 l-187 -192 l200 -310 l-123 0 Z" /><glyph glyph-name="l" unicode="l" d="M174 710 l0 -710 l-110 0 l0 710 l110 0 Z" /><glyph glyph-name="m" unicode="m" d="M770 351 l0 -351 l-110 0 l0 318 q0 106 -89 106 q-46 0 -73.5 -31 q-27.5 -31 -27.5 -81 l0 -312 l-110 0 l0 318 q0 106 -89 106 q-45 0 -72 -31 q-27 -31 -27 -81 l0 -312 l-110 0 l0 502 l102 0 l0 -58 q47 74 144 74 q99 0 142 -77 q51 77 152 77 q80 0 124 -45 q44 -45 44 -122 Z" /><glyph glyph-name="n" unicode="n" d="M499 344 l0 -344 l-110 0 l0 310 q0 55 -27 84.5 q-27 29.5 -77 29.5 q-49 0 -81 -33 q-32 -33 -32 -84 l0 -307 l-110 0 l0 502 l102 0 l0 -61 q50 77 155 77 q85 0 132.5 -47.5 q47.5 -47.5 47.5 -126.5 Z" /><glyph glyph-name="o" unicode="o" d="M545 251 q0 -117 -71.5 -191.5 q-71.5 -74.5 -183.5 -74.5 q-113 0 -184.5 74 q-71.5 74 -71.5 192 q0 119 71.5 193 q71.5 74 184.5 74 q112 0 183.5 -74.5 q71.5 -74.5 71.5 -192.5 ZM146 251 q0 -78 39 -125.5 q39 -47.5 105 -47.5 q64 0 103.5 47.5 q39.5 47.5 39.5 125.5 q0 79 -39 126.5 q-39 47.5 -104 47.5 q-66 0 -105 -47.5 q-39 -47.5 -39 -126.5 Z" /><glyph glyph-name="p" unicode="p" d="M552 252 q0 -119 -63 -192 q-63 -73 -160 -73 q-103 0 -157 71 l0 -238 l-110 0 l0 682 l102 0 l0 -71 q55 85 166 85 q97 0 159.5 -73 q62.5 -73 62.5 -191 ZM403.5 128.5 q36.5 46.5 36.5 123.5 q0 77 -36 123.5 q-36 46.5 -97 46.5 q-63 0 -101.5 -46.5 q-38.5 -46.5 -38.5 -123.5 q0 -78 39 -124 q39 -46 101 -46 q60 0 96.5 46.5 Z" /><glyph glyph-name="q" unicode="q" d="M423 502 l102 0 l0 -682 l-110 0 l0 240 q-56 -74 -158 -74 q-96 0 -159 73.5 q-63 73.5 -63 191.5 q0 118 63 191.5 q63 73.5 160 73.5 q111 0 165 -85 l0 71 ZM380.5 126.5 q38.5 46.5 38.5 124.5 q0 78 -38.5 124 q-38.5 46 -100.5 46 q-60 0 -96.5 -46.5 q-36.5 -46.5 -36.5 -123.5 q0 -78 36 -124.5 q36 -46.5 96 -46.5 q63 0 101.5 46.5 Z" /><glyph glyph-name="r" unicode="r" d="M369 494 l-20 -95 q-36 10 -64 10 q-52 0 -82.5 -40.5 q-30.5 -40.5 -30.5 -111.5 l0 -257 l-110 0 l0 502 l102 0 l0 -75 q40 82 126 82 q30 0 79 -15 Z" /><glyph glyph-name="s" unicode="s" d="M457 442 l-60 -73 q-45 35 -78.5 47.5 q-33.5 12.5 -75.5 12.5 q-44 0 -70 -17 q-26 -17 -26 -44 q0 -18 12 -29 q18 -14 113 -36 q107 -24 150 -57.5 q43 -33.5 43 -99.5 q0 -72 -57 -116.5 q-57 -44.5 -152 -44.5 q-70 0 -124 21 q-54 21 -114 73 l64 72 q52 -43 92 -61 q36 -16 84 -16 q43 0 71 17.5 q28 17.5 28 47.5 q-4 34 -28.5 46 q-24.5 12 -102.5 29 q-107 24 -145.5 55 q-38.5 31 -38.5 95 q0 67 55.5 110.5 q55.5 43.5 147.5 43.5 q64 0 112.5 -17 q48.5 -17 99.5 -59 Z" /><glyph glyph-name="t" unicode="t" d="M340 95 l14 -87 q-54 -19 -108 -19 q-72 0 -104.5 33 q-32.5 33 -32.5 102 l0 295 l-91 0 l0 83 l91 0 l0 162 l110 0 l0 -162 l127 0 l0 -83 l-127 0 l0 -282 q0 -29 13 -41 q13 -12 41 -12 q25 0 67 11 Z" /><glyph glyph-name="u" unicode="u" d="M380 502 l110 0 l0 -502 l-101 0 l0 58 q-45 -73 -149 -73 q-88 0 -133.5 43 q-45.5 43 -45.5 118 l0 356 l110 0 l0 -326 q0 -46 24 -71 q24 -25 69 -25 q53 0 84.5 31 q31.5 31 31.5 87 l0 304 Z" /><glyph glyph-name="v" unicode="v" d="M377 502 l114 0 l-173 -502 l-135 0 l-172 502 l116 0 l55 -173 q36 -108 70 -238 q34 130 70 238 l55 173 Z" /><glyph glyph-name="w" unicode="w" d="M636 502 l113 0 l-140 -502 l-132 0 l-41 147 q-31 112 -54 218 l-6 -27 l-19 -78 q-18 -76 -28 -113 l-40 -147 l-131 0 l-141 502 l116 0 l44 -175 q29 -113 52 -228 q36 151 56 228 l47 175 l103 0 l48 -175 q31 -115 56 -230 q25 124 52 230 l45 175 Z" /><glyph glyph-name="x" unicode="x" d="M496 0 l-122 0 l-122 186 l-125 -186 l-119 0 l182 263 l-166 239 l120 0 l109 -161 l107 161 l119 0 l-164 -235 l181 -267 Z" /><glyph glyph-name="y" unicode="y" d="M379 502 l112 0 l-197 -564 q-24 -72 -61 -102 q-37 -30 -103 -30 q-46 0 -88 11 l18 83 q36 -6 57 -6 q30 0 50 16 q20 16 32 55 l3 9 l-189 528 l116 0 l49 -147 q51 -151 77 -236 q42 138 75 237 l49 146 Z" /><glyph glyph-name="z" unicode="z" d="M447 502 l0 -82 l-275 -330 l275 0 l0 -90 l-411 0 l0 83 l275 330 l-258 0 l0 89 l394 0 Z" /><glyph glyph-name="braceleft" unicode="{" d="M337 767 l0 -81 l-29 0 q-36 0 -50 -11 q-15 -11 -16 -27 q-2 -22 -2 -67 l0 -143 q0 -57 -20.5 -86 q-20.5 -29 -73.5 -38 l0 -2 q53 -9 73.5 -38 q20.5 -29 20.5 -86 l0 -153 l0 -44 q0 -36 15.5 -48.5 q15.5 -12.5 52.5 -12.5 l29 0 l0 -80 l-53 0 q-81 0 -114.5 34 q-33.5 34 -33.5 124 l0 163 q0 56 -17.5 76 q-17.5 20 -68.5 20 l0 93 q52 0 69 19 q17 19 17 76 l0 154 q0 90 33.5 124 q33.5 34 114.5 34 l53 0 Z" /><glyph glyph-name="bar" unicode="|" d="M241 800 l0 -940 l-95 0 l0 940 l95 0 Z" /><glyph glyph-name="braceright" unicode="}" d="M33 767 l53 0 q81 0 114 -34 q33 -34 33 -124 l0 -154 q0 -56 18 -75.5 q18 -19.5 69 -19.5 l0 -93 q-51 0 -69 -20 q-18 -20 -18 -76 l0 -163 q0 -90 -33 -124 q-33 -34 -114 -34 l-53 0 l0 80 l29 0 q36 0 50 11 q15 11 16 27 q2 22 2 67 l0 153 q0 57 20.5 86 q20.5 29 73.5 38 l0 2 q-53 9 -73.5 38 q-20.5 29 -20.5 86 l0 143 l0 44 q0 36 -15.5 48.5 q-15.5 12.5 -52.5 12.5 l-29 0 l0 81 Z" /><glyph glyph-name="asciitilde" unicode="~" d="M317 383 q53 -24 88 -24 q50 0 55 48 l89 0 q0 -63 -35.5 -100 q-35.5 -37 -95.5 -37 q-45 0 -124 31 q-62 24 -91 24 q-26 0 -43 -13.5 q-17 -13.5 -21 -35.5 l-88 0 q1 63 41 100 q40 37 103 37 q45 0 122 -30 Z" /><glyph glyph-name="nonbreakingspace" unicode=" " d="" /><glyph glyph-name="exclamdown" unicode="¡" d="M61 375 l0 128 l123 0 l0 -128 l-123 0 ZM62 -207 l0 214 l26 282 l68 0 l26 -282 l0 -214 l-120 0 Z" /><glyph glyph-name="cent" unicode="¢" d="M359 -12 l0 -88 l-80 0 l0 87 q-99 10 -158 82 q-58 70 -58 182 q0 111 59 182 q59 71 157 83 l0 86 l80 0 l0 -87 q90 -11 163 -93 l-70 -67 q-52 52 -93 64 l0 -334 q44 14 98 74 l73 -61 q-77 -97 -171 -110 ZM279 83 l0 337 q-49 -12 -76.5 -58.5 q-27.5 -46.5 -27.5 -110.5 q0 -64 27.5 -110 q27.5 -46 76.5 -58 Z" /><glyph glyph-name="sterling" unicode="£" d="M524 119 l37 -86 q-74 -46 -147 -46 q-53 0 -131 21 l-28 6 q-40 11 -77 11 q-52 0 -109 -27 l-32 87 q42 16 63 28 q62 33 62 108 q0 25 -4 53 l-96 0 l0 85 l73 0 q-22 72 -22 142 q0 87 63.5 139.5 q63.5 52.5 156.5 52.5 q116 0 217 -79 l-61 -79 q-85 61 -153 61 q-49 0 -78.5 -28 q-29.5 -28 -29.5 -76 q0 -56 24 -133 l204 0 l0 -85 l-185 0 q2 -32 2 -38 q-2 -79 -67 -122 q17 -2 37 -5.5 q20 -3.5 35 -7 q15 -3.5 16 -3.5 q71 -16 111 -16 q53 0 119 37 Z" /><glyph glyph-name="currency" unicode="¤" d="M487 581 l49 -48 l-64 -64 q41 -56 41 -129 q0 -73 -41 -129 l64 -64 l-49 -48 l-65 65 q-53 -34 -125 -34 q-72 0 -127 36 l-68 -67 l-48 48 l67 66 q-40 53 -40 127 q0 74 39 126 l-67 67 l49 48 l67 -68 q55 37 128 37 q72 0 124 -34 l66 65 ZM200 438 q-38 -38 -38 -98 q0 -60 38 -98 q38 -38 97 -38 q59 0 97 38 q38 38 38 98 q0 60 -38 98 q-38 38 -97 38 q-59 0 -97 -38 Z" /><glyph glyph-name="yen" unicode="¥" d="M566 680 l-152 -268 l116 0 l0 -78 l-160 0 l-19 -34 l0 -44 l179 0 l0 -78 l-179 0 l0 -178 l-114 0 l0 178 l-176 0 l0 78 l176 0 l0 45 l-19 33 l-157 0 l0 78 l114 0 l-151 268 l126 0 l147 -274 l148 274 l121 0 Z" /><glyph glyph-name="brokenbar" unicode="¦" d="M241 800 l0 -400 l-95 0 l0 400 l95 0 ZM241 260 l0 -400 l-95 0 l0 400 l95 0 Z" /><glyph glyph-name="section" unicode="§" d="M519 80 q0 -73 -62 -120 q-62 -47 -162 -47 q-70 0 -124.5 19 q-54.5 19 -111.5 64 l59 73 q55 -40 92 -53 q39 -14 86 -14 q53 0 85.5 20.5 q32.5 20.5 32.5 53.5 q0 22 -15 34 q-15 14 -42 21 q-43 12 -91 22 q-121 26 -171 62 q-52 37 -52 109 q0 82 84 123 q-56 35 -56 110 q0 73 62 120 q62 47 162 47 q70 0 124.5 -19 q54.5 -19 111.5 -64 l-59 -74 q-53 40 -92 53 q-39 14 -86 14 q-53 0 -85.5 -20.5 q-32.5 -20.5 -32.5 -52.5 q0 -21 15 -35 q25 -20 133 -42 q121 -26 172 -63 q51 -37 51 -107 q0 -84 -84 -124 q56 -35 56 -110 ZM312 241 q19 -5 36 -8 q92 20 92 74 q0 25 -21 42 q-19 16 -49 24 q-52 14 -92 23 q-19 5 -36 8 q-43 -8 -67.5 -27.5 q-24.5 -19.5 -24.5 -46.5 q0 -25 20 -42 q20 -15 49 -24 q29 -9 93 -23 Z" /><glyph glyph-name="dieresis" unicode="¨" d="M160 702 l0 -113 l-107 0 l0 113 l107 0 ZM348 702 l0 -113 l-107 0 l0 113 l107 0 Z" /><glyph glyph-name="copyright" unicode="©" d="M60 355 q-2 154 106.5 262.5 q108.5 108.5 261.5 105.5 q153 3 261.5 -105.5 q108.5 -108.5 106.5 -262.5 q2 -154 -106.5 -262.5 q-108.5 -108.5 -261.5 -105.5 q-153 -3 -261.5 105.5 q-108.5 108.5 -106.5 262.5 ZM729 355 q2 130 -85.5 220.5 q-87.5 90.5 -215.5 89.5 q-128 1 -215.5 -89.5 q-87.5 -90.5 -85.5 -220.5 q-2 -130 85.5 -220.5 q87.5 -90.5 215.5 -89.5 q128 -1 215.5 89.5 q87.5 90.5 85.5 220.5 ZM282 197 q-58 63 -58 158 q0 95 58 158 q58 63 150 63 q122 0 176 -107 l-66 -31 q-21 38 -47 53.5 q-26 15.5 -63 15.5 q-59 0 -94.5 -42 q-35.5 -42 -35.5 -110 q0 -67 35.5 -109.5 q35.5 -42.5 94.5 -42.5 q40 0 64.5 17 q24.5 17 49.5 62 l65 -33 q-31 -61 -72.5 -88 q-41.5 -27 -106.5 -27 q-92 0 -150 63 Z" /><glyph glyph-name="ordfeminine" unicode="ª" d="M381 580 l0 -265 l-77 0 l0 47 q-40 -60 -134 -60 q-62 0 -99.5 29 q-37.5 29 -37.5 82 q0 58 43.5 88 q43.5 30 138.5 48 l83 15 l0 9 q0 72 -86 72 q-62 0 -120 -61 l-55 51 q72 81 178 81 q79 0 122.5 -36.5 q43.5 -36.5 43.5 -99.5 ZM298 470 l0 31 l-67 -14 q-64 -14 -88.5 -27.5 q-24.5 -13.5 -24.5 -41.5 q0 -46 68 -46 q50 0 81 25.5 q31 25.5 31 72.5 Z" /><glyph glyph-name="guillemotleft" unicode="«" d="M305 475 l-144 -222 l144 -222 l-105 0 l-142 222 l142 222 l105 0 ZM530 475 l-143 -222 l143 -222 l-105 0 l-141 222 l141 222 l105 0 Z" /><glyph glyph-name="logicalnot" unicode="¬" d="M40 357 l520 0 l0 -287 l-95 0 l0 193 l-425 0 l0 94 Z" /><glyph glyph-name="registered" unicode="®" d="M116.5 343.5 q-63.5 63.5 -63.5 157.5 q0 94 63.5 157.5 q63.5 63.5 157.5 63.5 q94 0 157.5 -63.5 q63.5 -63.5 63.5 -157.5 q0 -94 -63.5 -157.5 q-63.5 -63.5 -157.5 -63.5 q-94 0 -157.5 63.5 ZM398.5 373 q49.5 51 49.5 128 q0 77 -49.5 128 q-49.5 51 -124.5 51 q-75 0 -124.5 -51 q-49.5 -51 -49.5 -128 q0 -77 49.5 -128 q49.5 -51 124.5 -51 q75 0 124.5 51 ZM188 381 l0 248 l104 0 q35 0 57.5 -22.5 q22.5 -22.5 22.5 -55.5 q0 -53 -48 -73 l59 -97 l-54 0 l-55 92 l-37 0 l0 -92 l-49 0 ZM237 514 l46 0 q41 0 41 36 q0 35 -41 35 l-46 0 l0 -71 Z" /><glyph glyph-name="macron" unicode="¯" d="M355 674 l0 -82 l-301 0 l0 82 l301 0 Z" /><glyph glyph-name="degree" unicode="°" d="M103.5 470.5 q-43.5 42.5 -43.5 105.5 q0 63 43.5 105 q43.5 42 106.5 42 q63 0 107 -42 q44 -42 44 -105 q0 -63 -44 -105.5 q-44 -42.5 -107 -42.5 q-63 0 -106.5 42.5 ZM267.5 518 q22.5 23 22.5 58 q0 35 -22.5 57.5 q-22.5 22.5 -57.5 22.5 q-35 0 -57 -22.5 q-22 -22.5 -22 -57.5 q0 -35 22.5 -58 q22.5 -23 56.5 -23 q35 0 57.5 23 Z" /><glyph glyph-name="plusminus" unicode="±" d="M348 676 l0 -213 l212 0 l0 -94 l-212 0 l0 -213 l-96 0 l0 213 l-212 0 l0 94 l212 0 l0 213 l96 0 ZM560 94 l0 -94 l-520 0 l0 94 l520 0 Z" /><glyph glyph-name="twosuperior" unicode="²" d="M123 372 l237 0 l0 -70 l-323 0 l0 33 q0 61 31.5 96.5 q31.5 35.5 99.5 71.5 l25 13 q49 24 67 39.5 q18 15.5 18 40.5 q0 25 -19.5 38.5 q-19.5 13.5 -52.5 13.5 q-52 0 -118 -52 l-45 54 q77 71 164 71 q70 0 112.5 -35.5 q42.5 -35.5 42.5 -86.5 q0 -35 -15 -61 q-14 -23 -36 -38.5 q-22 -15.5 -71 -40.5 l-25 -13 q-48 -25 -67 -39.5 q-19 -14.5 -25 -34.5 Z" /><glyph glyph-name="threesuperior" unicode="³" d="M356 427 q0 -57 -44 -96.5 q-44 -39.5 -118 -39.5 q-88 0 -169 53 l40 59 q74 -39 128 -39 q36 0 57 17 q21 17 21 46 q0 29 -24 45 q-24 16 -64 16 q-33 0 -50 -6 l-36 49 l138 109 l-189 0 l0 70 l292 0 l0 -69 l-121 -94 q62 -2 100.5 -34.5 q38.5 -32.5 38.5 -85.5 Z" /><glyph glyph-name="acute" unicode="´" d="M244 713 l-94 -143 l-97 0 l70 143 l121 0 Z" /><glyph glyph-name="mu" unicode="µ" d="M381 502 l110 0 l0 -502 l-100 0 l0 66 q-40 -81 -130 -81 q-58 0 -89 28 l0 -196 l-110 0 l0 685 l110 0 l0 -326 q0 -95 98 -95 q51 0 81 30.5 q30 30.5 30 86.5 l0 304 Z" /><glyph glyph-name="paragraph" unicode="¶" d="M423 710 l0 -810 l-86 0 l0 364 l-77 0 q-102 0 -164.5 61 q-62.5 61 -62.5 162 q0 101 62.5 162 q62.5 61 164.5 61 l163 0 ZM591 710 l0 -810 l-86 0 l0 810 l86 0 Z" /><glyph glyph-name="middot" unicode="·" d="M177 387 l0 -128 l-124 0 l0 128 l124 0 Z" /><glyph glyph-name="cedilla" unicode="¸" d="M275 -146 q0 -42 -30.5 -68 q-30.5 -26 -79.5 -26 q-54 0 -112 38 l30 47 q47 -27 81 -27 q22 0 35.5 9 q13.5 9 13.5 26 q0 15 -16 24 q-16 9 -38 9 q-16 0 -28 -3 l-31 29 l49 108 l51 -20 l-31 -66 q48 1 77 -21.5 q29 -22.5 29 -58.5 Z" /><glyph glyph-name="onesuperior" unicode="¹" d="M160 710 l64 0 l0 -408 l-83 0 l0 308 l-69 -49 l-41 56 l129 93 Z" /><glyph glyph-name="ordmasculine" unicode="º" d="M426 511 q0 -90 -54.5 -148.5 q-54.5 -58.5 -139.5 -58.5 q-85 0 -139.5 58.5 q-54.5 58.5 -54.5 148.5 q0 92 54 149.5 q54 57.5 140 57.5 q86 0 140 -57.5 q54 -57.5 54 -149.5 ZM126 511 q0 -61 28.5 -97.5 q28.5 -36.5 77.5 -36.5 q49 0 77.5 36.5 q28.5 36.5 28.5 97.5 q0 60 -29 97 q-29 37 -77 37 q-48 0 -77 -37 q-29 -37 -29 -97 Z" /><glyph glyph-name="guillemotright" unicode="»" d="M63 475 l105 0 l142 -222 l-142 -222 l-105 0 l140 222 l-140 222 ZM289 475 l105 0 l141 -222 l-141 -222 l-105 0 l140 222 l-140 222 Z" /><glyph glyph-name="onequarter" unicode="¼" d="M160 680 l64 0 l0 -408 l-83 0 l0 308 l-69 -49 l-41 56 l129 93 ZM626 696 l65 -41 l-472 -671 l-64 42 l471 670 ZM812 155 l56 0 l0 -66 l-56 0 l0 -89 l-82 0 l0 89 l-201 0 l0 78 l162 241 l89 0 l-167 -253 l117 0 l0 82 l82 0 l0 -82 Z" /><glyph glyph-name="onehalf" unicode="½" d="M160 680 l64 0 l0 -408 l-83 0 l0 308 l-69 -49 l-41 56 l129 93 ZM626 696 l65 -41 l-472 -671 l-64 42 l471 670 ZM652 70 l237 0 l0 -70 l-323 0 l0 33 q0 61 31.5 96.5 q31.5 35.5 99.5 71.5 l25 13 q49 24 67 39.5 q18 15.5 18 40.5 q0 25 -19.5 38.5 q-19.5 13.5 -52.5 13.5 q-52 0 -118 -52 l-45 54 q77 71 164 71 q70 0 112.5 -35.5 q42.5 -35.5 42.5 -86.5 q0 -35 -15 -61 q-14 -23 -36 -38.5 q-22 -15.5 -71 -40.5 l-25 -13 q-48 -25 -67 -39.5 q-19 -14.5 -25 -34.5 Z" /><glyph glyph-name="threequarters" unicode="¾" d="M356 397 q0 -57 -44 -96.5 q-44 -39.5 -118 -39.5 q-88 0 -169 53 l40 59 q74 -39 128 -39 q36 0 57 17 q21 17 21 46 q0 29 -24 45 q-24 16 -64 16 q-33 0 -50 -6 l-36 49 l138 109 l-189 0 l0 70 l292 0 l0 -69 l-121 -94 q62 -2 100.5 -34.5 q38.5 -32.5 38.5 -85.5 ZM701 696 l65 -41 l-472 -671 l-64 42 l471 670 ZM887 155 l56 0 l0 -66 l-56 0 l0 -89 l-82 0 l0 89 l-201 0 l0 78 l162 241 l89 0 l-167 -253 l117 0 l0 82 l82 0 l0 -82 Z" /><glyph glyph-name="questiondown" unicode="¿" d="M198 375 l0 128 l124 0 l0 -128 l-124 0 ZM3 -36 q0 38 14 69 q13 28 33.5 50 q20.5 22 65.5 62 l16 14 q40 35 58 57 q18 24 22 55 l3 23 l95 0 l0 -27 q-2 -61 -16.5 -89.5 q-14.5 -28.5 -79.5 -85.5 l-18 -15 q-43 -36 -59 -58.5 q-16 -22.5 -16 -52.5 q0 -40 29.5 -63.5 q29.5 -23.5 78.5 -23.5 q40 0 76.5 17.5 q36.5 17.5 95.5 62.5 l66 -77 q-117 -105 -241 -105 q-97 0 -161 50 q-62 50 -62 137 Z" /><glyph glyph-name="Agrave" unicode="à" d="M557 0 l-56 160 l-313 0 l-55 -160 l-120 0 l256 710 l155 0 l256 -710 l-123 0 ZM222 258 l245 0 l-30 87 l-23 67 q-50 141 -69 208 q-23 -76 -85 -253 l-8 -23 l-30 -86 ZM204 914 l122 0 l70 -143 l-97 0 l-95 143 Z" /><glyph glyph-name="Aacute" unicode="á" d="M557 0 l-56 160 l-313 0 l-55 -160 l-120 0 l256 710 l155 0 l256 -710 l-123 0 ZM222 258 l245 0 l-30 87 l-23 67 q-50 141 -69 208 q-23 -76 -85 -253 l-8 -23 l-30 -86 ZM486 914 l-94 -143 l-97 0 l70 143 l121 0 Z" /><glyph glyph-name="Acircumflex" unicode="â" d="M557 0 l-56 160 l-313 0 l-55 -160 l-120 0 l256 710 l155 0 l256 -710 l-123 0 ZM222 258 l245 0 l-30 87 l-23 67 q-50 141 -69 208 q-23 -76 -85 -253 l-8 -23 l-30 -86 ZM420 771 l-75 94 l-76 -94 l-93 0 l100 143 l138 0 l100 -143 l-94 0 Z" /><glyph glyph-name="Atilde" unicode="ã" d="M557 0 l-56 160 l-313 0 l-55 -160 l-120 0 l256 710 l155 0 l256 -710 l-123 0 ZM222 258 l245 0 l-30 87 l-23 67 q-50 141 -69 208 q-23 -76 -85 -253 l-8 -23 l-30 -86 ZM360 868 q34 -22 54 -22 q32 0 32 50 l65 0 q0 -56 -24.5 -88 q-24.5 -32 -66.5 -32 q-33 0 -80 28 q-43 22 -60 22 q-15 0 -24.5 -14 q-9.5 -14 -9.5 -36 l-66 0 q0 56 27 88.5 q27 32.5 70 32.5 q32 0 83 -29 Z" /><glyph glyph-name="Adieresis" unicode="ä" d="M557 0 l-56 160 l-313 0 l-55 -160 l-120 0 l256 710 l155 0 l256 -710 l-123 0 ZM222 258 l245 0 l-30 87 l-23 67 q-50 141 -69 208 q-23 -76 -85 -253 l-8 -23 l-30 -86 ZM305 903 l0 -113 l-107 0 l0 113 l107 0 ZM493 903 l0 -113 l-107 0 l0 113 l107 0 Z" /><glyph glyph-name="Aring" unicode="å" d="M563 0 l-56 161 l-318 0 l-56 -161 l-120 0 l251 698 q-46 39 -46 98 q0 52 38 90 q37 37 93 37 q56 0 93 -37 q39 -38 39 -90 q0 -58 -46 -97 l251 -699 l-123 0 ZM280 796 q0 -31 19.5 -50.5 q19.5 -19.5 49.5 -19.5 q30 0 49.5 19.5 q19.5 19.5 19.5 50.5 q0 31 -19.5 50 q-19.5 19 -49.5 19 q-30 0 -49.5 -19.5 q-19.5 -19.5 -19.5 -49.5 ZM222 258 l252 0 l-31 88 l-35 102 q-46 135 -60 180 q-22 -74 -74 -220 q-7 -17 -22 -64 l-30 -86 Z" /><glyph glyph-name="AE" unicode="æ" d="M561 100 l378 0 l0 -100 l-497 0 l0 160 l-236 0 l-82 -160 l-121 0 l366 710 l560 0 l0 -100 l-368 0 l0 -194 l344 0 l0 -99 l-344 0 l0 -217 ZM256 258 l186 0 l0 366 l-186 -366 Z" /><glyph glyph-name="Ccedilla" unicode="ç" d="M482 -146 q0 -42 -30.5 -68 q-30.5 -26 -79.5 -26 q-53 0 -111 38 l30 47 q45 -27 80 -27 q49 0 49 35 q0 15 -15 24 q-15 9 -39 9 q-16 0 -28 -3 l-31 29 l34 74 q-139 15 -221 117 q-82 102 -82 253 q0 163 94.5 266.5 q94.5 103.5 255.5 103.5 q75 0 135 -24 q60 -24 124 -79 l-69 -82 q-53 46 -96.5 64 q-43.5 18 -94.5 18 q-104 0 -166 -73.5 q-62 -73.5 -62 -193.5 q0 -121 61.5 -195 q61.5 -74 162.5 -74 q58 0 101 22 q45 23 104 75 l71 -80 q-66 -61 -125 -89 q-59 -28 -133 -31 l-24 -50 q48 0 76.5 -22 q28.5 -22 28.5 -58 Z" /><glyph glyph-name="Egrave" unicode="è" d="M564 710 l0 -100 l-369 0 l0 -194 l344 0 l0 -99 l-344 0 l0 -217 l379 0 l0 -100 l-497 0 l0 710 l487 0 ZM183 914 l122 0 l70 -143 l-97 0 l-95 143 Z" /><glyph glyph-name="Eacute" unicode="é" d="M564 710 l0 -100 l-369 0 l0 -194 l344 0 l0 -99 l-344 0 l0 -217 l379 0 l0 -100 l-497 0 l0 710 l487 0 ZM465 914 l-94 -143 l-97 0 l70 143 l121 0 Z" /><glyph glyph-name="Ecircumflex" unicode="ê" d="M564 710 l0 -100 l-369 0 l0 -194 l344 0 l0 -99 l-344 0 l0 -217 l379 0 l0 -100 l-497 0 l0 710 l487 0 ZM399 771 l-75 94 l-76 -94 l-93 0 l100 143 l138 0 l100 -143 l-94 0 Z" /><glyph glyph-name="Edieresis" unicode="ë" d="M564 710 l0 -100 l-369 0 l0 -194 l344 0 l0 -99 l-344 0 l0 -217 l379 0 l0 -100 l-497 0 l0 710 l487 0 ZM284 903 l0 -113 l-107 0 l0 113 l107 0 ZM472 903 l0 -113 l-107 0 l0 113 l107 0 Z" /><glyph glyph-name="Igrave" unicode="ì" d="M202 710 l0 -710 l-118 0 l0 710 l118 0 ZM2 914 l122 0 l70 -143 l-97 0 l-95 143 Z" /><glyph glyph-name="Iacute" unicode="í" d="M202 710 l0 -710 l-118 0 l0 710 l118 0 ZM284 914 l-94 -143 l-97 0 l70 143 l121 0 Z" /><glyph glyph-name="Icircumflex" unicode="î" d="M202 710 l0 -710 l-118 0 l0 710 l118 0 ZM218 771 l-75 94 l-76 -94 l-93 0 l100 143 l138 0 l100 -143 l-94 0 Z" /><glyph glyph-name="Idieresis" unicode="ï" d="M202 710 l0 -710 l-118 0 l0 710 l118 0 ZM103 903 l0 -113 l-107 0 l0 113 l107 0 ZM291 903 l0 -113 l-107 0 l0 113 l107 0 Z" /><glyph glyph-name="Eth" unicode="ð" d="M617.5 612 q85.5 -98 85.5 -257 q0 -159 -85.5 -257 q-85.5 -98 -233.5 -98 l-279 0 l0 317 l-79 0 l0 99 l79 0 l0 294 l279 0 q148 0 233.5 -98 ZM524 166.5 q57 66.5 57 188.5 q0 122 -57 188.5 q-57 66.5 -159 66.5 l-141 0 l0 -194 l177 0 l0 -99 l-177 0 l0 -217 l141 0 q102 0 159 66.5 Z" /><glyph glyph-name="Ntilde" unicode="ñ" d="M547 710 l115 0 l0 -710 l-128 0 l-193 304 q-112 174 -154 250 q5 -117 5 -275 l0 -279 l-115 0 l0 710 l130 0 l201 -316 l19 -30 q99 -159 125 -206 q-5 112 -5 264 l0 288 ZM393 868 q34 -22 54 -22 q32 0 32 50 l65 0 q0 -56 -24.5 -88 q-24.5 -32 -66.5 -32 q-33 0 -80 28 q-43 22 -60 22 q-15 0 -24.5 -14 q-9.5 -14 -9.5 -36 l-66 0 q0 56 27 88.5 q27 32.5 70 32.5 q32 0 83 -29 Z" /><glyph glyph-name="Ograve" unicode="ò" d="M727 355 q2 -161 -93.5 -267 q-95.5 -106 -250.5 -104 q-156 0 -250.5 104.5 q-94.5 104.5 -94.5 266.5 q0 162 94.5 266.5 q94.5 104.5 250.5 104.5 q155 2 250.5 -104 q95.5 -106 93.5 -267 ZM221 548 q-62 -74 -62 -193 q0 -119 62 -193 q62 -74 162 -74 q101 0 162 73.5 q61 73.5 61 193.5 q0 120 -61 193.5 q-61 73.5 -162 73.5 q-100 0 -162 -74 ZM241 914 l122 0 l70 -143 l-97 0 l-95 143 Z" /><glyph glyph-name="Oacute" unicode="ó" d="M727 355 q2 -161 -93.5 -267 q-95.5 -106 -250.5 -104 q-156 0 -250.5 104.5 q-94.5 104.5 -94.5 266.5 q0 162 94.5 266.5 q94.5 104.5 250.5 104.5 q155 2 250.5 -104 q95.5 -106 93.5 -267 ZM221 548 q-62 -74 -62 -193 q0 -119 62 -193 q62 -74 162 -74 q101 0 162 73.5 q61 73.5 61 193.5 q0 120 -61 193.5 q-61 73.5 -162 73.5 q-100 0 -162 -74 ZM523 914 l-94 -143 l-97 0 l70 143 l121 0 Z" /><glyph glyph-name="Ocircumflex" unicode="ô" d="M727 355 q2 -161 -93.5 -267 q-95.5 -106 -250.5 -104 q-156 0 -250.5 104.5 q-94.5 104.5 -94.5 266.5 q0 162 94.5 266.5 q94.5 104.5 250.5 104.5 q155 2 250.5 -104 q95.5 -106 93.5 -267 ZM221 548 q-62 -74 -62 -193 q0 -119 62 -193 q62 -74 162 -74 q101 0 162 73.5 q61 73.5 61 193.5 q0 120 -61 193.5 q-61 73.5 -162 73.5 q-100 0 -162 -74 ZM457 771 l-75 94 l-76 -94 l-93 0 l100 143 l138 0 l100 -143 l-94 0 Z" /><glyph glyph-name="Otilde" unicode="õ" d="M727 355 q2 -161 -93.5 -267 q-95.5 -106 -250.5 -104 q-156 0 -250.5 104.5 q-94.5 104.5 -94.5 266.5 q0 162 94.5 266.5 q94.5 104.5 250.5 104.5 q155 2 250.5 -104 q95.5 -106 93.5 -267 ZM221 548 q-62 -74 -62 -193 q0 -119 62 -193 q62 -74 162 -74 q101 0 162 73.5 q61 73.5 61 193.5 q0 120 -61 193.5 q-61 73.5 -162 73.5 q-100 0 -162 -74 ZM397 868 q34 -22 54 -22 q32 0 32 50 l65 0 q0 -56 -24.5 -88 q-24.5 -32 -66.5 -32 q-33 0 -80 28 q-43 22 -60 22 q-15 0 -24.5 -14 q-9.5 -14 -9.5 -36 l-66 0 q0 56 27 88.5 q27 32.5 70 32.5 q32 0 83 -29 Z" /><glyph glyph-name="Odieresis" unicode="ö" d="M727 355 q2 -161 -93.5 -267 q-95.5 -106 -250.5 -104 q-156 0 -250.5 104.5 q-94.5 104.5 -94.5 266.5 q0 162 94.5 266.5 q94.5 104.5 250.5 104.5 q155 2 250.5 -104 q95.5 -106 93.5 -267 ZM221 548 q-62 -74 -62 -193 q0 -119 62 -193 q62 -74 162 -74 q101 0 162 73.5 q61 73.5 61 193.5 q0 120 -61 193.5 q-61 73.5 -162 73.5 q-100 0 -162 -74 ZM342 903 l0 -113 l-107 0 l0 113 l107 0 ZM530 903 l0 -113 l-107 0 l0 113 l107 0 Z" /><glyph glyph-name="multiply" unicode="×" d="M537 480 l-170 -170 l170 -170 l-67 -67 l-170 170 l-170 -170 l-67 67 l170 170 l-170 170 l67 67 l170 -170 l170 170 l67 -67 Z" /><glyph glyph-name="Oslash" unicode="ø" d="M727 355 q2 -161 -93.5 -267 q-95.5 -106 -250.5 -104 q-118 0 -205 63 l-44 -53 l-63 53 l48 57 q-81 99 -81 251 q0 162 94.5 266.5 q94.5 104.5 250.5 104.5 q118 0 204 -62 l44 52 l63 -53 l-47 -57 q80 -100 80 -251 ZM196 197 l319 381 q-56 44 -132 44 q-100 0 -162 -74 q-62 -74 -62 -193 q0 -94 37 -158 ZM606 355 q0 93 -37 158 l-319 -380 q56 -45 133 -45 q101 0 162 73.5 q61 73.5 61 193.5 Z" /><glyph glyph-name="Ugrave" unicode="ù" d="M626 710 l0 -476 q0 -124 -71 -187 q-71 -63 -206 -63 q-135 0 -206 63 q-71 63 -71 187 l0 476 l118 0 l0 -471 q0 -73 40.5 -112 q40.5 -39 118.5 -39 q78 0 118.5 39 q40.5 39 40.5 112 l0 471 l118 0 ZM207 914 l122 0 l70 -143 l-97 0 l-95 143 Z" /><glyph glyph-name="Uacute" unicode="ú" d="M626 710 l0 -476 q0 -124 -71 -187 q-71 -63 -206 -63 q-135 0 -206 63 q-71 63 -71 187 l0 476 l118 0 l0 -471 q0 -73 40.5 -112 q40.5 -39 118.5 -39 q78 0 118.5 39 q40.5 39 40.5 112 l0 471 l118 0 ZM489 914 l-94 -143 l-97 0 l70 143 l121 0 Z" /><glyph glyph-name="Ucircumflex" unicode="û" d="M626 710 l0 -476 q0 -124 -71 -187 q-71 -63 -206 -63 q-135 0 -206 63 q-71 63 -71 187 l0 476 l118 0 l0 -471 q0 -73 40.5 -112 q40.5 -39 118.5 -39 q78 0 118.5 39 q40.5 39 40.5 112 l0 471 l118 0 ZM424 771 l-75 94 l-76 -94 l-93 0 l100 143 l138 0 l100 -143 l-94 0 Z" /><glyph glyph-name="Udieresis" unicode="ü" d="M626 710 l0 -476 q0 -124 -71 -187 q-71 -63 -206 -63 q-135 0 -206 63 q-71 63 -71 187 l0 476 l118 0 l0 -471 q0 -73 40.5 -112 q40.5 -39 118.5 -39 q78 0 118.5 39 q40.5 39 40.5 112 l0 471 l118 0 ZM308 903 l0 -113 l-107 0 l0 113 l107 0 ZM496 903 l0 -113 l-107 0 l0 113 l107 0 Z" /><glyph glyph-name="Yacute" unicode="ý" d="M504 710 l127 0 l-251 -410 l0 -300 l-119 0 l0 301 l-250 409 l131 0 l181 -305 l181 305 ZM462 914 l-94 -143 l-97 0 l70 143 l121 0 Z" /><glyph glyph-name="Thorn" unicode="þ" d="M571 527 q64 -58 64 -160 q0 -102 -64 -160 q-62 -58 -169 -58 l-207 0 l0 -149 l-118 0 l0 710 l118 0 l0 -124 l207 0 q105 0 169 -59 ZM517 367 q0 58 -35.5 89.5 q-35.5 31.5 -98.5 31.5 l-188 0 l0 -241 l188 0 q63 0 98.5 31.5 q35.5 31.5 35.5 88.5 Z" /><glyph glyph-name="germandbls" unicode="ß" d="M559 212 q0 -94 -60.5 -157 q-60.5 -63 -160.5 -63 q-58 0 -114 15 l17 89 q60 -11 87 -11 q54 0 86.5 35 q32.5 35 32.5 95 q0 61 -43 95 q-43 34 -120 34 l-24 0 l0 88 l24 0 q51 0 79.5 27 q28.5 27 28.5 75 q0 43 -30 70.5 q-30 27.5 -77 27.5 q-52 0 -82.5 -34 q-30.5 -34 -30.5 -96 l0 -502 l-110 0 l0 509 q0 103 63.5 159.5 q63.5 56.5 160.5 56.5 q94 0 154 -54 q60 -54 60 -130 q0 -98 -83 -139 q142 -44 142 -190 Z" /><glyph glyph-name="agrave" unicode="à" d="M486 343 l0 -343 l-99 0 l0 57 q-50 -73 -166 -73 q-81 0 -130.5 36 q-49.5 36 -49.5 106 q0 79 59 117 q61 40 166 59 l115 21 l0 18 q0 41 -28 63.5 q-28 22.5 -76 22.5 q-46 0 -80.5 -18.5 q-34.5 -18.5 -80.5 -64.5 l-69 64 q92 110 227 110 q101 0 156.5 -47 q55.5 -47 55.5 -128 ZM381 197 l0 46 l-87 -18 q-79 -17 -112 -36.5 q-33 -19.5 -33 -56.5 q0 -28 23.5 -44 q23.5 -16 64.5 -16 q63 0 103.5 33.5 q40.5 33.5 40.5 91.5 ZM138 713 l122 0 l70 -143 l-97 0 l-95 143 Z" /><glyph glyph-name="aacute" unicode="á" d="M486 343 l0 -343 l-99 0 l0 57 q-50 -73 -166 -73 q-81 0 -130.5 36 q-49.5 36 -49.5 106 q0 79 59 117 q61 40 166 59 l115 21 l0 18 q0 41 -28 63.5 q-28 22.5 -76 22.5 q-46 0 -80.5 -18.5 q-34.5 -18.5 -80.5 -64.5 l-69 64 q92 110 227 110 q101 0 156.5 -47 q55.5 -47 55.5 -128 ZM381 197 l0 46 l-87 -18 q-79 -17 -112 -36.5 q-33 -19.5 -33 -56.5 q0 -28 23.5 -44 q23.5 -16 64.5 -16 q63 0 103.5 33.5 q40.5 33.5 40.5 91.5 ZM419 713 l-94 -143 l-97 0 l70 143 l121 0 Z" /><glyph glyph-name="acircumflex" unicode="â" d="M486 343 l0 -343 l-99 0 l0 57 q-50 -73 -166 -73 q-81 0 -130.5 36 q-49.5 36 -49.5 106 q0 79 59 117 q61 40 166 59 l115 21 l0 18 q0 41 -28 63.5 q-28 22.5 -76 22.5 q-46 0 -80.5 -18.5 q-34.5 -18.5 -80.5 -64.5 l-69 64 q92 110 227 110 q101 0 156.5 -47 q55.5 -47 55.5 -128 ZM381 197 l0 46 l-87 -18 q-79 -17 -112 -36.5 q-33 -19.5 -33 -56.5 q0 -28 23.5 -44 q23.5 -16 64.5 -16 q63 0 103.5 33.5 q40.5 33.5 40.5 91.5 ZM354 570 l-75 94 l-76 -94 l-93 0 l100 143 l138 0 l100 -143 l-94 0 Z" /><glyph glyph-name="atilde" unicode="ã" d="M486 343 l0 -343 l-99 0 l0 57 q-50 -73 -166 -73 q-81 0 -130.5 36 q-49.5 36 -49.5 106 q0 79 59 117 q61 40 166 59 l115 21 l0 18 q0 41 -28 63.5 q-28 22.5 -76 22.5 q-46 0 -80.5 -18.5 q-34.5 -18.5 -80.5 -64.5 l-69 64 q92 110 227 110 q101 0 156.5 -47 q55.5 -47 55.5 -128 ZM381 197 l0 46 l-87 -18 q-79 -17 -112 -36.5 q-33 -19.5 -33 -56.5 q0 -28 23.5 -44 q23.5 -16 64.5 -16 q63 0 103.5 33.5 q40.5 33.5 40.5 91.5 ZM294 667 q34 -22 54 -22 q32 0 32 50 l65 0 q0 -56 -24.5 -88 q-24.5 -32 -66.5 -32 q-33 0 -80 28 q-43 22 -60 22 q-15 0 -24.5 -14 q-9.5 -14 -9.5 -36 l-66 0 q0 56 27 88.5 q27 32.5 70 32.5 q32 0 83 -29 Z" /><glyph glyph-name="adieresis" unicode="ä" d="M486 343 l0 -343 l-99 0 l0 57 q-50 -73 -166 -73 q-81 0 -130.5 36 q-49.5 36 -49.5 106 q0 79 59 117 q61 40 166 59 l115 21 l0 18 q0 41 -28 63.5 q-28 22.5 -76 22.5 q-46 0 -80.5 -18.5 q-34.5 -18.5 -80.5 -64.5 l-69 64 q92 110 227 110 q101 0 156.5 -47 q55.5 -47 55.5 -128 ZM381 197 l0 46 l-87 -18 q-79 -17 -112 -36.5 q-33 -19.5 -33 -56.5 q0 -28 23.5 -44 q23.5 -16 64.5 -16 q63 0 103.5 33.5 q40.5 33.5 40.5 91.5 ZM239 702 l0 -113 l-107 0 l0 113 l107 0 ZM427 702 l0 -113 l-107 0 l0 113 l107 0 Z" /><glyph glyph-name="aring" unicode="å" d="M486 343 l0 -343 l-99 0 l0 57 q-50 -73 -166 -73 q-81 0 -130.5 36 q-49.5 36 -49.5 106 q0 79 59 117 q61 40 166 59 l115 21 l0 18 q0 41 -28 63.5 q-28 22.5 -76 22.5 q-46 0 -80.5 -18.5 q-34.5 -18.5 -80.5 -64.5 l-69 64 q92 110 227 110 q101 0 156.5 -47 q55.5 -47 55.5 -128 ZM381 197 l0 46 l-87 -18 q-79 -17 -112 -36.5 q-33 -19.5 -33 -56.5 q0 -28 23.5 -44 q23.5 -16 64.5 -16 q63 0 103.5 33.5 q40.5 33.5 40.5 91.5 ZM394 677 q0 -46 -34 -79 q-35 -32 -81 -32 q-47 0 -82 32 q-34 33 -34 79 q0 47 34 78 q34 33 82 33 q47 0 81 -33 q34 -31 34 -78 ZM236 721 q-17 -17 -17 -44 q0 -27 17 -44 q17 -17 43 -17 q26 0 42.5 17 q16.5 17 16.5 44 q0 27 -16.5 44 q-16.5 17 -42.5 17 q-26 0 -43 -17 Z" /><glyph glyph-name="ae" unicode="æ" d="M796 153 l63 -67 q-53 -55 -105 -78 q-52 -23 -117 -23 q-132 0 -198 86 q-85 -87 -212 -87 q-87 0 -136.5 35.5 q-49.5 35.5 -49.5 104.5 q0 69 47.5 109 q47.5 40 152.5 60 l140 26 l0 15 q0 93 -105 93 q-42 0 -77 -18 q-35 -18 -79 -63 l-71 65 q53 56 106.5 81.5 q53.5 25.5 124.5 25.5 q120 0 173 -71 q68 71 175 71 q110 0 171 -65.5 q61 -65.5 61 -181.5 q0 -14 -2 -44 l-367 0 q6 -69 43.5 -109 q37.5 -40 104.5 -40 q46 0 77 16 q36 18 80 59 ZM493 304 l260 0 q-3 60 -36.5 94.5 q-33.5 34.5 -89.5 34.5 q-54 0 -89 -34 q-35 -34 -45 -95 ZM397 146 q-14 44 -15 95 l-120 -27 q-59 -13 -85.5 -32 q-26.5 -19 -26.5 -49 q0 -61 91 -61 q95 0 156 74 Z" /><glyph glyph-name="ccedilla" unicode="ç" d="M306 -14 l-24 -52 q48 0 77 -22 q29 -22 29 -58 q0 -42 -30.5 -68 q-30.5 -26 -80.5 -26 q-53 0 -111 38 l30 47 q45 -27 80 -27 q49 0 49 35 q0 15 -15.5 24 q-15.5 9 -37.5 9 q-17 0 -29 -3 l-31 29 l35 75 q-99 12 -156 82.5 q-57 70.5 -57 181.5 q0 121 70 194 q70 73 182 73 q63 0 111 -22 q48 -22 96 -73 l-70 -68 q-40 40 -70.5 55 q-30.5 15 -66.5 15 q-67 0 -104 -51 q-36 -50 -36 -123 q0 -73 36 -123 q37 -49 104 -49 q38 0 69.5 17.5 q31.5 17.5 72.5 62.5 l73 -61 q-45 -57 -91 -83 q-46 -26 -104 -29 Z" /><glyph glyph-name="egrave" unicode="è" d="M449 153 l64 -67 q-53 -54 -105.5 -77.5 q-52.5 -23.5 -116.5 -23.5 q-119 0 -188 71.5 q-69 71.5 -69 191.5 q0 119 67.5 194.5 q67.5 75.5 179.5 75.5 q110 0 170.5 -65.5 q60.5 -65.5 60.5 -181.5 q0 -19 -2 -45 l-368 0 q6 -68 45 -108 q39 -40 106 -40 q43 0 75 16 q32 16 81 59 ZM145 306 l259 0 q-3 58 -36 91.5 q-33 33.5 -90 33.5 q-53 0 -87.5 -32.5 q-34.5 -32.5 -45.5 -92.5 ZM149 713 l122 0 l70 -143 l-97 0 l-95 143 Z" /><glyph glyph-name="eacute" unicode="é" d="M449 153 l64 -67 q-53 -54 -105.5 -77.5 q-52.5 -23.5 -116.5 -23.5 q-119 0 -188 71.5 q-69 71.5 -69 191.5 q0 119 67.5 194.5 q67.5 75.5 179.5 75.5 q110 0 170.5 -65.5 q60.5 -65.5 60.5 -181.5 q0 -19 -2 -45 l-368 0 q6 -68 45 -108 q39 -40 106 -40 q43 0 75 16 q32 16 81 59 ZM145 306 l259 0 q-3 58 -36 91.5 q-33 33.5 -90 33.5 q-53 0 -87.5 -32.5 q-34.5 -32.5 -45.5 -92.5 ZM431 713 l-94 -143 l-97 0 l70 143 l121 0 Z" /><glyph glyph-name="ecircumflex" unicode="ê" d="M449 153 l64 -67 q-53 -54 -105.5 -77.5 q-52.5 -23.5 -116.5 -23.5 q-119 0 -188 71.5 q-69 71.5 -69 191.5 q0 119 67.5 194.5 q67.5 75.5 179.5 75.5 q110 0 170.5 -65.5 q60.5 -65.5 60.5 -181.5 q0 -19 -2 -45 l-368 0 q6 -68 45 -108 q39 -40 106 -40 q43 0 75 16 q32 16 81 59 ZM145 306 l259 0 q-3 58 -36 91.5 q-33 33.5 -90 33.5 q-53 0 -87.5 -32.5 q-34.5 -32.5 -45.5 -92.5 ZM365 570 l-75 94 l-76 -94 l-93 0 l100 143 l138 0 l100 -143 l-94 0 Z" /><glyph glyph-name="edieresis" unicode="ë" d="M449 153 l64 -67 q-53 -54 -105.5 -77.5 q-52.5 -23.5 -116.5 -23.5 q-119 0 -188 71.5 q-69 71.5 -69 191.5 q0 119 67.5 194.5 q67.5 75.5 179.5 75.5 q110 0 170.5 -65.5 q60.5 -65.5 60.5 -181.5 q0 -19 -2 -45 l-368 0 q6 -68 45 -108 q39 -40 106 -40 q43 0 75 16 q32 16 81 59 ZM145 306 l259 0 q-3 58 -36 91.5 q-33 33.5 -90 33.5 q-53 0 -87.5 -32.5 q-34.5 -32.5 -45.5 -92.5 ZM250 702 l0 -113 l-107 0 l0 113 l107 0 ZM438 702 l0 -113 l-107 0 l0 113 l107 0 Z" /><glyph glyph-name="igrave" unicode="ì" d="M172 502 l0 -502 l-110 0 l0 502 l110 0 ZM-25 713 l122 0 l70 -143 l-97 0 l-95 143 Z" /><glyph glyph-name="iacute" unicode="í" d="M172 502 l0 -502 l-110 0 l0 502 l110 0 ZM257 713 l-94 -143 l-97 0 l70 143 l121 0 Z" /><glyph glyph-name="icircumflex" unicode="î" d="M172 502 l0 -502 l-110 0 l0 502 l110 0 ZM191 570 l-75 94 l-76 -94 l-93 0 l100 143 l138 0 l100 -143 l-94 0 Z" /><glyph glyph-name="idieresis" unicode="ï" d="M172 502 l0 -502 l-110 0 l0 502 l110 0 ZM76 702 l0 -113 l-107 0 l0 113 l107 0 ZM264 702 l0 -113 l-107 0 l0 113 l107 0 Z" /><glyph glyph-name="eth" unicode="ð" d="M529 293 q0 -146 -67.5 -228 q-67.5 -82 -184.5 -82 q-109 0 -176 74 q-67 74 -67 177 q0 101 61 171 q61 70 160 70 q108 0 164 -80 q-24 104 -121 167 l-93 -59 l-35 49 l68 43 q-19 10 -57 25 l-48 18 l41 87 l47 -16 q63 -22 115 -52 l82 52 l35 -49 l-63 -40 q139 -112 139 -327 ZM412 231 q0 63 -40 107 q-40 44 -99 44 q-58 0 -93.5 -42.5 q-35.5 -42.5 -35.5 -108.5 q0 -66 37 -108.5 q37 -42.5 96 -42.5 q60 0 97 43 q38 44 38 108 Z" /><glyph glyph-name="ntilde" unicode="ñ" d="M499 344 l0 -344 l-110 0 l0 310 q0 55 -27 84.5 q-27 29.5 -77 29.5 q-49 0 -81 -33 q-32 -33 -32 -84 l0 -307 l-110 0 l0 502 l102 0 l0 -61 q50 77 155 77 q85 0 132.5 -47.5 q47.5 -47.5 47.5 -126.5 ZM293 667 q34 -22 54 -22 q32 0 32 50 l65 0 q0 -56 -24.5 -88 q-24.5 -32 -66.5 -32 q-33 0 -80 28 q-43 22 -60 22 q-15 0 -24.5 -14 q-9.5 -14 -9.5 -36 l-66 0 q0 56 27 88.5 q27 32.5 70 32.5 q32 0 83 -29 Z" /><glyph glyph-name="ograve" unicode="ò" d="M545 251 q0 -117 -71.5 -191.5 q-71.5 -74.5 -183.5 -74.5 q-113 0 -184.5 74 q-71.5 74 -71.5 192 q0 119 71.5 193 q71.5 74 184.5 74 q112 0 183.5 -74.5 q71.5 -74.5 71.5 -192.5 ZM146 251 q0 -78 39 -125.5 q39 -47.5 105 -47.5 q64 0 103.5 47.5 q39.5 47.5 39.5 125.5 q0 79 -39 126.5 q-39 47.5 -104 47.5 q-66 0 -105 -47.5 q-39 -47.5 -39 -126.5 ZM146 713 l122 0 l70 -143 l-97 0 l-95 143 Z" /><glyph glyph-name="oacute" unicode="ó" d="M545 251 q0 -117 -71.5 -191.5 q-71.5 -74.5 -183.5 -74.5 q-113 0 -184.5 74 q-71.5 74 -71.5 192 q0 119 71.5 193 q71.5 74 184.5 74 q112 0 183.5 -74.5 q71.5 -74.5 71.5 -192.5 ZM146 251 q0 -78 39 -125.5 q39 -47.5 105 -47.5 q64 0 103.5 47.5 q39.5 47.5 39.5 125.5 q0 79 -39 126.5 q-39 47.5 -104 47.5 q-66 0 -105 -47.5 q-39 -47.5 -39 -126.5 ZM428 713 l-94 -143 l-97 0 l70 143 l121 0 Z" /><glyph glyph-name="ocircumflex" unicode="ô" d="M545 251 q0 -117 -71.5 -191.5 q-71.5 -74.5 -183.5 -74.5 q-113 0 -184.5 74 q-71.5 74 -71.5 192 q0 119 71.5 193 q71.5 74 184.5 74 q112 0 183.5 -74.5 q71.5 -74.5 71.5 -192.5 ZM146 251 q0 -78 39 -125.5 q39 -47.5 105 -47.5 q64 0 103.5 47.5 q39.5 47.5 39.5 125.5 q0 79 -39 126.5 q-39 47.5 -104 47.5 q-66 0 -105 -47.5 q-39 -47.5 -39 -126.5 ZM362 570 l-75 94 l-76 -94 l-93 0 l100 143 l138 0 l100 -143 l-94 0 Z" /><glyph glyph-name="otilde" unicode="õ" d="M545 251 q0 -117 -71.5 -191.5 q-71.5 -74.5 -183.5 -74.5 q-113 0 -184.5 74 q-71.5 74 -71.5 192 q0 119 71.5 193 q71.5 74 184.5 74 q112 0 183.5 -74.5 q71.5 -74.5 71.5 -192.5 ZM146 251 q0 -78 39 -125.5 q39 -47.5 105 -47.5 q64 0 103.5 47.5 q39.5 47.5 39.5 125.5 q0 79 -39 126.5 q-39 47.5 -104 47.5 q-66 0 -105 -47.5 q-39 -47.5 -39 -126.5 ZM302 667 q34 -22 54 -22 q32 0 32 50 l65 0 q0 -56 -24.5 -88 q-24.5 -32 -66.5 -32 q-33 0 -80 28 q-43 22 -60 22 q-15 0 -24.5 -14 q-9.5 -14 -9.5 -36 l-66 0 q0 56 27 88.5 q27 32.5 70 32.5 q32 0 83 -29 Z" /><glyph glyph-name="odieresis" unicode="ö" d="M545 251 q0 -117 -71.5 -191.5 q-71.5 -74.5 -183.5 -74.5 q-113 0 -184.5 74 q-71.5 74 -71.5 192 q0 119 71.5 193 q71.5 74 184.5 74 q112 0 183.5 -74.5 q71.5 -74.5 71.5 -192.5 ZM146 251 q0 -78 39 -125.5 q39 -47.5 105 -47.5 q64 0 103.5 47.5 q39.5 47.5 39.5 125.5 q0 79 -39 126.5 q-39 47.5 -104 47.5 q-66 0 -105 -47.5 q-39 -47.5 -39 -126.5 ZM247 702 l0 -113 l-107 0 l0 113 l107 0 ZM435 702 l0 -113 l-107 0 l0 113 l107 0 Z" /><glyph glyph-name="divide" unicode="÷" d="M362 558 l0 -128 l-124 0 l0 128 l124 0 ZM560 357 l0 -94 l-520 0 l0 94 l520 0 ZM362 190 l0 -128 l-124 0 l0 128 l124 0 Z" /><glyph glyph-name="oslash" unicode="ø" d="M545 251 q0 -117 -71.5 -191.5 q-71.5 -74.5 -183.5 -74.5 q-68 0 -124 29 l-27 -39 l-59 42 l28 39 q-74 74 -74 195 q0 119 71.5 193 q71.5 74 184.5 74 q68 0 121 -28 l27 38 l59 -41 l-27 -39 q75 -75 75 -197 ZM171 146 l184 263 q-28 16 -65 16 q-66 0 -105 -47.5 q-39 -47.5 -39 -126.5 q0 -62 25 -105 ZM433 251 q0 63 -26 107 l-185 -264 q31 -16 68 -16 q64 0 103.5 47.5 q39.5 47.5 39.5 125.5 Z" /><glyph glyph-name="ugrave" unicode="ù" d="M380 502 l110 0 l0 -502 l-101 0 l0 58 q-45 -73 -149 -73 q-88 0 -133.5 43 q-45.5 43 -45.5 118 l0 356 l110 0 l0 -326 q0 -46 24 -71 q24 -25 69 -25 q53 0 84.5 31 q31.5 31 31.5 87 l0 304 ZM127 713 l122 0 l70 -143 l-97 0 l-95 143 Z" /><glyph glyph-name="uacute" unicode="ú" d="M380 502 l110 0 l0 -502 l-101 0 l0 58 q-45 -73 -149 -73 q-88 0 -133.5 43 q-45.5 43 -45.5 118 l0 356 l110 0 l0 -326 q0 -46 24 -71 q24 -25 69 -25 q53 0 84.5 31 q31.5 31 31.5 87 l0 304 ZM409 713 l-94 -143 l-97 0 l70 143 l121 0 Z" /><glyph glyph-name="ucircumflex" unicode="û" d="M380 502 l110 0 l0 -502 l-101 0 l0 58 q-45 -73 -149 -73 q-88 0 -133.5 43 q-45.5 43 -45.5 118 l0 356 l110 0 l0 -326 q0 -46 24 -71 q24 -25 69 -25 q53 0 84.5 31 q31.5 31 31.5 87 l0 304 ZM343 570 l-75 94 l-76 -94 l-93 0 l100 143 l138 0 l100 -143 l-94 0 Z" /><glyph glyph-name="udieresis" unicode="ü" d="M380 502 l110 0 l0 -502 l-101 0 l0 58 q-45 -73 -149 -73 q-88 0 -133.5 43 q-45.5 43 -45.5 118 l0 356 l110 0 l0 -326 q0 -46 24 -71 q24 -25 69 -25 q53 0 84.5 31 q31.5 31 31.5 87 l0 304 ZM228 702 l0 -113 l-107 0 l0 113 l107 0 ZM416 702 l0 -113 l-107 0 l0 113 l107 0 Z" /><glyph glyph-name="yacute" unicode="ý" d="M379 502 l112 0 l-197 -564 q-24 -72 -61 -102 q-37 -30 -103 -30 q-46 0 -88 11 l18 83 q36 -6 57 -6 q30 0 50 16 q20 16 32 55 l3 9 l-189 528 l116 0 l49 -147 q51 -151 77 -236 q42 138 75 237 l49 146 ZM392 713 l-94 -143 l-97 0 l70 143 l121 0 Z" /><glyph glyph-name="thorn" unicode="þ" d="M552 252 q0 -119 -63 -192 q-63 -73 -160 -73 q-103 0 -157 71 l0 -238 l-110 0 l0 891 l110 0 l0 -269 q54 74 158 74 q97 0 159.5 -73 q62.5 -73 62.5 -191 ZM403.5 128.5 q36.5 46.5 36.5 123.5 q0 77 -36 123.5 q-36 46.5 -97 46.5 q-63 0 -101.5 -46.5 q-38.5 -46.5 -38.5 -123.5 q0 -78 39 -124 q39 -46 101 -46 q60 0 96.5 46.5 Z" /><glyph glyph-name="ydieresis" unicode="ÿ" d="M379 502 l112 0 l-197 -564 q-24 -72 -61 -102 q-37 -30 -103 -30 q-46 0 -88 11 l18 83 q36 -6 57 -6 q30 0 50 16 q20 16 32 55 l3 9 l-189 528 l116 0 l49 -147 q51 -151 77 -236 q42 138 75 237 l49 146 ZM211 702 l0 -113 l-107 0 l0 113 l107 0 ZM399 702 l0 -113 l-107 0 l0 113 l107 0 Z" /><glyph glyph-name="Amacron" unicode="&#x100;" d="M557 0 l-56 160 l-313 0 l-55 -160 l-120 0 l256 710 l155 0 l256 -710 l-123 0 ZM222 258 l245 0 l-30 87 l-23 67 q-50 141 -69 208 q-23 -76 -85 -253 l-8 -23 l-30 -86 ZM496 875 l0 -82 l-301 0 l0 82 l301 0 Z" /><glyph glyph-name="amacron" unicode="&#x101;" d="M486 343 l0 -343 l-99 0 l0 57 q-50 -73 -166 -73 q-81 0 -130.5 36 q-49.5 36 -49.5 106 q0 79 59 117 q61 40 166 59 l115 21 l0 18 q0 41 -28 63.5 q-28 22.5 -76 22.5 q-46 0 -80.5 -18.5 q-34.5 -18.5 -80.5 -64.5 l-69 64 q92 110 227 110 q101 0 156.5 -47 q55.5 -47 55.5 -128 ZM381 197 l0 46 l-87 -18 q-79 -17 -112 -36.5 q-33 -19.5 -33 -56.5 q0 -28 23.5 -44 q23.5 -16 64.5 -16 q63 0 103.5 33.5 q40.5 33.5 40.5 91.5 ZM430 674 l0 -82 l-301 0 l0 82 l301 0 Z" /><glyph glyph-name="Abreve" unicode="&#x102;" d="M557 0 l-56 160 l-313 0 l-55 -160 l-120 0 l256 710 l155 0 l256 -710 l-123 0 ZM222 258 l245 0 l-30 87 l-23 67 q-50 141 -69 208 q-23 -76 -85 -253 l-8 -23 l-30 -86 ZM190 903 l78 0 q0 -33 20.5 -52 q20.5 -19 56.5 -19 q36 0 56 19 q20 19 21 52 l77 0 q0 -65 -42.5 -102.5 q-42.5 -37.5 -111.5 -37.5 q-69 0 -112 37.5 q-43 37.5 -43 102.5 Z" /><glyph glyph-name="abreve" unicode="&#x103;" d="M486 343 l0 -343 l-99 0 l0 57 q-50 -73 -166 -73 q-81 0 -130.5 36 q-49.5 36 -49.5 106 q0 79 59 117 q61 40 166 59 l115 21 l0 18 q0 41 -28 63.5 q-28 22.5 -76 22.5 q-46 0 -80.5 -18.5 q-34.5 -18.5 -80.5 -64.5 l-69 64 q92 110 227 110 q101 0 156.5 -47 q55.5 -47 55.5 -128 ZM381 197 l0 46 l-87 -18 q-79 -17 -112 -36.5 q-33 -19.5 -33 -56.5 q0 -28 23.5 -44 q23.5 -16 64.5 -16 q63 0 103.5 33.5 q40.5 33.5 40.5 91.5 ZM124 702 l78 0 q0 -33 20.5 -52 q20.5 -19 56.5 -19 q36 0 56 19 q20 19 21 52 l77 0 q0 -65 -42.5 -102.5 q-42.5 -37.5 -111.5 -37.5 q-69 0 -112 37.5 q-43 37.5 -43 102.5 Z" /><glyph glyph-name="Aogonek" unicode="&#x104;" d="M646 -145 q16 0 28 4 l0 -66 q-15 -7 -44 -7 q-53 0 -82 23.5 q-29 23.5 -29 65.5 q0 66 71 125 l-33 0 l-56 160 l-313 0 l-55 -160 l-120 0 l256 710 l155 0 l256 -710 q-84 -54 -84 -106 q0 -39 50 -39 ZM222 258 l245 0 l-30 87 l-23 67 q-50 141 -69 208 q-23 -76 -85 -253 l-8 -23 l-30 -86 Z" /><glyph glyph-name="aogonek" unicode="&#x105;" d="M403 -106 q0 -39 50 -39 q16 0 28 4 l0 -66 q-15 -7 -44 -7 q-53 0 -82 23.5 q-29 23.5 -29 65.5 q0 66 71 125 l-10 0 l0 57 q-50 -73 -166 -73 q-81 0 -130.5 36 q-49.5 36 -49.5 106 q0 79 59 117 q61 40 166 59 l115 21 l0 18 q0 41 -28 63.5 q-28 22.5 -76 22.5 q-46 0 -80.5 -18.5 q-34.5 -18.5 -80.5 -64.5 l-69 64 q92 110 227 110 q101 0 156.5 -47 q55.5 -47 55.5 -128 l0 -343 q-83 -54 -83 -106 ZM381 197 l0 46 l-87 -18 q-79 -17 -112 -36.5 q-33 -19.5 -33 -56.5 q0 -28 23.5 -44 q23.5 -16 64.5 -16 q63 0 103.5 33.5 q40.5 33.5 40.5 91.5 Z" /><glyph glyph-name="Cacute" unicode="&#x106;" d="M647 623 l-69 -82 q-53 46 -96.5 64 q-43.5 18 -94.5 18 q-104 0 -166 -73.5 q-62 -73.5 -62 -193.5 q0 -121 61.5 -195 q61.5 -74 162.5 -74 q58 0 101 22 q45 23 104 75 l71 -80 q-69 -64 -132 -92 q-63 -28 -142 -28 q-158 0 -252.5 104 q-94.5 104 -94.5 268 q0 163 94.5 266.5 q94.5 103.5 255.5 103.5 q75 0 135 -24 q60 -24 124 -79 ZM530 914 l-94 -143 l-97 0 l70 143 l121 0 Z" /><glyph glyph-name="cacute" unicode="&#x107;" d="M286 425 q-67 0 -104 -51 q-36 -50 -36 -123 q0 -73 36 -123 q37 -49 104 -49 q38 0 69.5 17.5 q31.5 17.5 72.5 62.5 l73 -61 q-49 -62 -99 -87.5 q-50 -25.5 -117 -25.5 q-113 0 -182 72.5 q-69 72.5 -69 193.5 q0 121 70 194 q70 73 182 73 q63 0 111 -22 q48 -22 96 -73 l-70 -68 q-40 40 -70.5 55 q-30.5 15 -66.5 15 ZM422 713 l-94 -143 l-97 0 l70 143 l121 0 Z" /><glyph glyph-name="Cdotaccent" unicode="&#x10a;" d="M647 623 l-69 -82 q-53 46 -96.5 64 q-43.5 18 -94.5 18 q-104 0 -166 -73.5 q-62 -73.5 -62 -193.5 q0 -121 61.5 -195 q61.5 -74 162.5 -74 q58 0 101 22 q45 23 104 75 l71 -80 q-69 -64 -132 -92 q-63 -28 -142 -28 q-158 0 -252.5 104 q-94.5 104 -94.5 268 q0 163 94.5 266.5 q94.5 103.5 255.5 103.5 q75 0 135 -24 q60 -24 124 -79 ZM444 903 l0 -113 l-110 0 l0 113 l110 0 Z" /><glyph glyph-name="cdotaccent" unicode="&#x10b;" d="M286 425 q-67 0 -104 -51 q-36 -50 -36 -123 q0 -73 36 -123 q37 -49 104 -49 q38 0 69.5 17.5 q31.5 17.5 72.5 62.5 l73 -61 q-49 -62 -99 -87.5 q-50 -25.5 -117 -25.5 q-113 0 -182 72.5 q-69 72.5 -69 193.5 q0 121 70 194 q70 73 182 73 q63 0 111 -22 q48 -22 96 -73 l-70 -68 q-40 40 -70.5 55 q-30.5 15 -66.5 15 ZM337 702 l0 -113 l-110 0 l0 113 l110 0 Z" /><glyph glyph-name="Ccaron" unicode="&#x10c;" d="M647 623 l-69 -82 q-53 46 -96.5 64 q-43.5 18 -94.5 18 q-104 0 -166 -73.5 q-62 -73.5 -62 -193.5 q0 -121 61.5 -195 q61.5 -74 162.5 -74 q58 0 101 22 q45 23 104 75 l71 -80 q-69 -64 -132 -92 q-63 -28 -142 -28 q-158 0 -252.5 104 q-94.5 104 -94.5 268 q0 163 94.5 266.5 q94.5 103.5 255.5 103.5 q75 0 135 -24 q60 -24 124 -79 ZM558 914 l-100 -143 l-138 0 l-100 143 l94 0 l76 -94 l75 94 l93 0 Z" /><glyph glyph-name="ccaron" unicode="&#x10d;" d="M286 425 q-67 0 -104 -51 q-36 -50 -36 -123 q0 -73 36 -123 q37 -49 104 -49 q38 0 69.5 17.5 q31.5 17.5 72.5 62.5 l73 -61 q-49 -62 -99 -87.5 q-50 -25.5 -117 -25.5 q-113 0 -182 72.5 q-69 72.5 -69 193.5 q0 121 70 194 q70 73 182 73 q63 0 111 -22 q48 -22 96 -73 l-70 -68 q-40 40 -70.5 55 q-30.5 15 -66.5 15 ZM451 713 l-100 -143 l-138 0 l-100 143 l94 0 l76 -94 l75 94 l93 0 Z" /><glyph glyph-name="Dcaron" unicode="&#x10e;" d="M588.5 612 q85.5 -98 85.5 -257 q0 -159 -85.5 -257 q-85.5 -98 -233.5 -98 l-278 0 l0 710 l278 0 q148 0 233.5 -98 ZM337 610 l-142 0 l0 -510 l142 0 q101 0 158.5 66.5 q57.5 66.5 57.5 188.5 q0 122 -57.5 188.5 q-57.5 66.5 -158.5 66.5 ZM521 914 l-100 -143 l-138 0 l-100 143 l94 0 l76 -94 l75 94 l93 0 Z" /><glyph glyph-name="dcaron" unicode="&#x10f;" d="M414 710 l110 0 l0 -710 l-102 0 l0 73 q-54 -87 -166 -87 q-98 0 -160 73.5 q-62 73.5 -62 191.5 q0 118 63.5 191.5 q63.5 73.5 159.5 73.5 q105 0 157 -73 l0 267 ZM379.5 126.5 q38.5 46.5 38.5 124.5 q0 78 -38.5 124 q-38.5 46 -100.5 46 q-60 0 -96.5 -46.5 q-36.5 -46.5 -36.5 -123.5 q0 -78 36 -124.5 q36 -46.5 96 -46.5 q63 0 101.5 46.5 ZM737 710 l-69 -207 l-68 0 l28 207 l109 0 Z" /><glyph glyph-name="Dcroat" unicode="&#x110;" d="M617.5 612 q85.5 -98 85.5 -257 q0 -159 -85.5 -257 q-85.5 -98 -233.5 -98 l-279 0 l0 317 l-79 0 l0 99 l79 0 l0 294 l279 0 q148 0 233.5 -98 ZM524 166.5 q57 66.5 57 188.5 q0 122 -57 188.5 q-57 66.5 -159 66.5 l-141 0 l0 -194 l177 0 l0 -99 l-177 0 l0 -217 l141 0 q102 0 159 66.5 Z" /><glyph glyph-name="dcroat" unicode="&#x111;" d="M596 636 l0 -76 l-71 0 l0 -560 l-102 0 l0 72 q-54 -86 -166 -86 q-97 0 -159.5 72.5 q-62.5 72.5 -62.5 188.5 q0 116 63.5 189 q63.5 73 159.5 73 q104 0 157 -72 l0 123 l-125 0 l0 76 l125 0 l0 74 l110 0 l0 -74 l71 0 ZM419 247 q0 76 -38.5 121.5 q-38.5 45.5 -100.5 45.5 q-59 0 -96 -46 q-37 -46 -37 -121 q0 -75 36 -121 q36 -46 96 -46 q63 0 101.5 46 q38.5 46 38.5 121 Z" /><glyph glyph-name="Emacron" unicode="&#x112;" d="M564 710 l0 -100 l-369 0 l0 -194 l344 0 l0 -99 l-344 0 l0 -217 l379 0 l0 -100 l-497 0 l0 710 l487 0 ZM475 875 l0 -82 l-301 0 l0 82 l301 0 Z" /><glyph glyph-name="emacron" unicode="&#x113;" d="M449 153 l64 -67 q-53 -54 -105.5 -77.5 q-52.5 -23.5 -116.5 -23.5 q-119 0 -188 71.5 q-69 71.5 -69 191.5 q0 119 67.5 194.5 q67.5 75.5 179.5 75.5 q110 0 170.5 -65.5 q60.5 -65.5 60.5 -181.5 q0 -19 -2 -45 l-368 0 q6 -68 45 -108 q39 -40 106 -40 q43 0 75 16 q32 16 81 59 ZM145 306 l259 0 q-3 58 -36 91.5 q-33 33.5 -90 33.5 q-53 0 -87.5 -32.5 q-34.5 -32.5 -45.5 -92.5 ZM441 674 l0 -82 l-301 0 l0 82 l301 0 Z" /><glyph glyph-name="Edotaccent" unicode="&#x116;" d="M564 710 l0 -100 l-369 0 l0 -194 l344 0 l0 -99 l-344 0 l0 -217 l379 0 l0 -100 l-497 0 l0 710 l487 0 ZM379 903 l0 -113 l-110 0 l0 113 l110 0 Z" /><glyph glyph-name="edotaccent" unicode="&#x117;" d="M449 153 l64 -67 q-53 -54 -105.5 -77.5 q-52.5 -23.5 -116.5 -23.5 q-119 0 -188 71.5 q-69 71.5 -69 191.5 q0 119 67.5 194.5 q67.5 75.5 179.5 75.5 q110 0 170.5 -65.5 q60.5 -65.5 60.5 -181.5 q0 -19 -2 -45 l-368 0 q6 -68 45 -108 q39 -40 106 -40 q43 0 75 16 q32 16 81 59 ZM145 306 l259 0 q-3 58 -36 91.5 q-33 33.5 -90 33.5 q-53 0 -87.5 -32.5 q-34.5 -32.5 -45.5 -92.5 ZM345 702 l0 -113 l-110 0 l0 113 l110 0 Z" /><glyph glyph-name="Eogonek" unicode="&#x118;" d="M491 -106 q0 -39 50 -39 q16 0 28 4 l0 -66 q-17 -7 -45 -7 q-53 0 -82 23.5 q-29 23.5 -29 65.5 q0 67 72 125 l-408 0 l0 710 l487 0 l0 -100 l-369 0 l0 -194 l344 0 l0 -99 l-344 0 l0 -217 l379 0 l0 -100 q-83 -54 -83 -106 Z" /><glyph glyph-name="eogonek" unicode="&#x119;" d="M296 -122 q0 59 47 112 q-32 -5 -53 -5 q-117 0 -187 72 q-70 72 -70 191 q0 119 67.5 194.5 q67.5 75.5 179.5 75.5 q110 0 170.5 -65.5 q60.5 -65.5 60.5 -181.5 q0 -19 -2 -45 l-368 0 q7 -68 45.5 -108 q38.5 -40 105.5 -40 q46 0 77 16 q35 18 80 59 l63 -67 q-23 -23 -47 -44 q-91 -81 -91 -144 q0 -43 51 -43 q16 0 28 4 l0 -67 q-15 -6 -43 -6 q-54 0 -84 24.5 q-30 24.5 -30 67.5 ZM144 306 l259 0 q-3 58 -36 91.5 q-33 33.5 -90 33.5 q-53 0 -87.5 -32.5 q-34.5 -32.5 -45.5 -92.5 Z" /><glyph glyph-name="Ecaron" unicode="&#x11a;" d="M564 710 l0 -100 l-369 0 l0 -194 l344 0 l0 -99 l-344 0 l0 -217 l379 0 l0 -100 l-497 0 l0 710 l487 0 ZM493 914 l-100 -143 l-138 0 l-100 143 l94 0 l76 -94 l75 94 l93 0 Z" /><glyph glyph-name="ecaron" unicode="&#x11b;" d="M449 153 l64 -67 q-53 -54 -105.5 -77.5 q-52.5 -23.5 -116.5 -23.5 q-119 0 -188 71.5 q-69 71.5 -69 191.5 q0 119 67.5 194.5 q67.5 75.5 179.5 75.5 q110 0 170.5 -65.5 q60.5 -65.5 60.5 -181.5 q0 -19 -2 -45 l-368 0 q6 -68 45 -108 q39 -40 106 -40 q43 0 75 16 q32 16 81 59 ZM145 306 l259 0 q-3 58 -36 91.5 q-33 33.5 -90 33.5 q-53 0 -87.5 -32.5 q-34.5 -32.5 -45.5 -92.5 ZM459 713 l-100 -143 l-138 0 l-100 143 l94 0 l76 -94 l75 94 l93 0 Z" /><glyph glyph-name="Gbreve" unicode="&#x11e;" d="M364 284 l0 100 l322 0 l0 -384 l-91 0 l-7 78 q-64 -93 -212 -93 q-157 0 -247.5 102 q-90.5 102 -90.5 269 q0 162 96 265.5 q96 103.5 256 103.5 q90 0 158.5 -31 q68.5 -31 137.5 -102 l-74 -77 q-62 59 -112 83 q-49 24 -112 24 q-104 0 -166.5 -72 q-62.5 -72 -62.5 -195 q0 -125 60.5 -196 q60.5 -71 165.5 -71 q88 0 140.5 48 q52.5 48 52.5 129 l0 19 l-214 0 ZM231 903 l78 0 q0 -33 20.5 -52 q20.5 -19 56.5 -19 q36 0 56 19 q20 19 21 52 l77 0 q0 -65 -42.5 -102.5 q-42.5 -37.5 -111.5 -37.5 q-69 0 -112 37.5 q-43 37.5 -43 102.5 Z" /><glyph glyph-name="gbreve" unicode="&#x11f;" d="M415 502 l102 0 l0 -483 q0 -102 -66 -157 q-65 -56 -172 -56 q-125 0 -234 73 l54 80 q56 -34 95.5 -48 q39.5 -14 83.5 -14 q61 0 96 33 q35 33 35 98 l0 52 q-53 -71 -153 -71 q-96 0 -158 71.5 q-62 71.5 -62 183.5 q0 111 62 182.5 q62 71.5 158 71.5 q107 0 159 -79 l0 63 ZM412 264 q0 71 -37 115.5 q-37 44.5 -96 44.5 q-60 0 -96 -44 q-36 -44 -36 -116 q0 -73 36 -117.5 q36 -44.5 96 -44.5 q59 0 96 45 q37 45 37 117 ZM135 702 l78 0 q0 -33 20.5 -52 q20.5 -19 56.5 -19 q36 0 56 19 q20 19 21 52 l77 0 q0 -65 -42.5 -102.5 q-42.5 -37.5 -111.5 -37.5 q-69 0 -112 37.5 q-43 37.5 -43 102.5 Z" /><glyph glyph-name="Gdotaccent" unicode="&#x120;" d="M364 284 l0 100 l322 0 l0 -384 l-91 0 l-7 78 q-64 -93 -212 -93 q-157 0 -247.5 102 q-90.5 102 -90.5 269 q0 162 96 265.5 q96 103.5 256 103.5 q90 0 158.5 -31 q68.5 -31 137.5 -102 l-74 -77 q-62 59 -112 83 q-49 24 -112 24 q-104 0 -166.5 -72 q-62.5 -72 -62.5 -195 q0 -125 60.5 -196 q60.5 -71 165.5 -71 q88 0 140.5 48 q52.5 48 52.5 129 l0 19 l-214 0 ZM441 903 l0 -113 l-110 0 l0 113 l110 0 Z" /><glyph glyph-name="gdotaccent" unicode="&#x121;" d="M415 502 l102 0 l0 -483 q0 -102 -66 -157 q-65 -56 -172 -56 q-125 0 -234 73 l54 80 q56 -34 95.5 -48 q39.5 -14 83.5 -14 q61 0 96 33 q35 33 35 98 l0 52 q-53 -71 -153 -71 q-96 0 -158 71.5 q-62 71.5 -62 183.5 q0 111 62 182.5 q62 71.5 158 71.5 q107 0 159 -79 l0 63 ZM412 264 q0 71 -37 115.5 q-37 44.5 -96 44.5 q-60 0 -96 -44 q-36 -44 -36 -116 q0 -73 36 -117.5 q36 -44.5 96 -44.5 q59 0 96 45 q37 45 37 117 ZM345 702 l0 -113 l-110 0 l0 113 l110 0 Z" /><glyph glyph-name="uni0122" unicode="&#x122;" d="M364 284 l0 100 l322 0 l0 -384 l-91 0 l-7 78 q-64 -93 -212 -93 q-157 0 -247.5 102 q-90.5 102 -90.5 269 q0 162 96 265.5 q96 103.5 256 103.5 q90 0 158.5 -31 q68.5 -31 137.5 -102 l-74 -77 q-62 59 -112 83 q-49 24 -112 24 q-104 0 -166.5 -72 q-62.5 -72 -62.5 -195 q0 -125 60.5 -196 q60.5 -71 165.5 -71 q88 0 140.5 48 q52.5 48 52.5 129 l0 19 l-214 0 ZM442 -66 l0 -97 l-65 -93 l-59 0 l60 93 l-56 0 l0 97 l120 0 Z" /><glyph glyph-name="uni0123" unicode="&#x123;" d="M415 502 l102 0 l0 -483 q0 -102 -66 -157 q-65 -56 -172 -56 q-125 0 -234 73 l54 80 q56 -34 95.5 -48 q39.5 -14 83.5 -14 q61 0 96 33 q35 33 35 98 l0 52 q-53 -71 -153 -71 q-96 0 -158 71.5 q-62 71.5 -62 183.5 q0 111 62 182.5 q62 71.5 158 71.5 q107 0 159 -79 l0 63 ZM412 264 q0 71 -37 115.5 q-37 44.5 -96 44.5 q-60 0 -96 -44 q-36 -44 -36 -116 q0 -73 36 -117.5 q36 -44.5 96 -44.5 q59 0 96 45 q37 45 37 117 ZM232 587 l0 99 l65 101 l59 0 l-59 -101 l55 0 l0 -99 l-120 0 Z" /><glyph glyph-name="Hbar" unicode="&#x126;" d="M759 607 l0 -82 l-72 0 l0 -525 l-119 0 l0 321 l-345 0 l0 -321 l-119 0 l0 525 l-74 0 l0 82 l74 0 l0 103 l119 0 l0 -103 l345 0 l0 103 l119 0 l0 -103 l72 0 ZM568 421 l0 104 l-345 0 l0 -104 l345 0 Z" /><glyph glyph-name="hbar" unicode="&#x127;" d="M520 337 l0 -337 l-110 0 l0 303 q0 55 -26.5 84 q-26.5 29 -76.5 29 q-49 0 -81.5 -33 q-32.5 -33 -32.5 -83 l0 -300 l-110 0 l0 560 l-71 0 l0 76 l71 0 l0 74 l110 0 l0 -74 l125 0 l0 -76 l-125 0 l0 -122 q50 73 148 73 q85 0 132 -47 q47 -47 47 -127 Z" /><glyph glyph-name="Imacron" unicode="&#x12a;" d="M202 710 l0 -710 l-118 0 l0 710 l118 0 ZM294 875 l0 -82 l-301 0 l0 82 l301 0 Z" /><glyph glyph-name="imacron" unicode="&#x12b;" d="M172 502 l0 -502 l-110 0 l0 502 l110 0 ZM267 674 l0 -82 l-301 0 l0 82 l301 0 Z" /><glyph glyph-name="Iogonek" unicode="&#x12e;" d="M119 -106 q0 -39 50 -39 q16 0 28 4 l0 -66 q-15 -7 -44 -7 q-53 0 -82 23.5 q-29 23.5 -29 65.5 q0 66 71 125 l-29 0 l0 710 l118 0 l0 -710 q-83 -54 -83 -106 Z" /><glyph glyph-name="iogonek" unicode="&#x12f;" d="M62 702 l110 0 l0 -113 l-110 0 l0 113 ZM62 0 l0 502 l110 0 l0 -502 q-84 -54 -84 -106 q0 -39 50 -39 q16 0 28 4 l0 -66 q-15 -7 -44 -7 q-53 0 -82 23.5 q-29 23.5 -29 65.5 q0 66 71 125 l-20 0 Z" /><glyph glyph-name="Idotaccent" unicode="&#x130;" d="M202 710 l0 -710 l-118 0 l0 710 l118 0 ZM198 903 l0 -113 l-110 0 l0 113 l110 0 Z" /><glyph glyph-name="dotlessi" unicode="&#x131;" d="M172 502 l0 -502 l-110 0 l0 502 l110 0 Z" /><glyph glyph-name="IJ" unicode="&#x132;" d="M202 710 l0 -710 l-118 0 l0 710 l118 0 ZM682 710 l0 -523 q0 -100 -53 -150.5 q-53 -50.5 -151 -50.5 q-92 0 -184 45 l37 94 q84 -34 142 -34 q91 0 91 108 l0 511 l118 0 Z" /><glyph glyph-name="ij" unicode="&#x133;" d="M172 502 l0 -502 l-110 0 l0 502 l110 0 ZM172 702 l0 -113 l-110 0 l0 113 l110 0 ZM240 -102 q32 0 45 17 q13 17 13 56 l0 531 l110 0 l0 -530 q0 -163 -150 -163 q-55 0 -100 15 l20 82 q43 -8 62 -8 ZM408 702 l0 -113 l-110 0 l0 113 l110 0 Z" /><glyph glyph-name="uni0136" unicode="&#x136;" d="M540 0 l-226 350 l-119 -123 l0 -227 l-118 0 l0 710 l118 0 l0 -339 l317 339 l147 0 l-266 -276 l281 -434 l-134 0 ZM415 -66 l0 -97 l-65 -93 l-59 0 l60 93 l-56 0 l0 97 l120 0 Z" /><glyph glyph-name="uni0137" unicode="&#x137;" d="M405 0 l-153 240 l-80 -81 l0 -159 l-110 0 l0 710 l110 0 l0 -430 l211 222 l132 0 l-187 -192 l200 -310 l-123 0 ZM343 -66 l0 -97 l-65 -93 l-59 0 l60 93 l-56 0 l0 97 l120 0 Z" /><glyph glyph-name="Lacute" unicode="&#x139;" d="M195 710 l0 -609 l337 0 l0 -101 l-455 0 l0 710 l118 0 ZM277 914 l-94 -143 l-97 0 l70 143 l121 0 Z" /><glyph glyph-name="lacute" unicode="&#x13a;" d="M174 710 l0 -710 l-110 0 l0 710 l110 0 ZM258 904 l-94 -143 l-97 0 l70 143 l121 0 Z" /><glyph glyph-name="uni013B" unicode="&#x13b;" d="M195 710 l0 -609 l337 0 l0 -101 l-455 0 l0 710 l118 0 ZM368 -66 l0 -97 l-65 -93 l-59 0 l60 93 l-56 0 l0 97 l120 0 Z" /><glyph glyph-name="uni013C" unicode="&#x13c;" d="M174 710 l0 -710 l-110 0 l0 710 l110 0 ZM179 -66 l0 -97 l-65 -93 l-59 0 l60 93 l-56 0 l0 97 l120 0 Z" /><glyph glyph-name="Lcaron" unicode="&#x13d;" d="M195 710 l0 -609 l337 0 l0 -101 l-455 0 l0 710 l118 0 ZM422 710 l-69 -207 l-68 0 l28 207 l109 0 Z" /><glyph glyph-name="lcaron" unicode="&#x13e;" d="M174 710 l0 -710 l-110 0 l0 710 l110 0 ZM392 710 l-69 -207 l-68 0 l28 207 l109 0 Z" /><glyph glyph-name="Ldot" unicode="&#x13f;" d="M195 710 l0 -609 l337 0 l0 -101 l-455 0 l0 710 l118 0 ZM450 433 l0 -128 l-124 0 l0 128 l124 0 Z" /><glyph glyph-name="ldot" unicode="&#x140;" d="M174 710 l0 -710 l-110 0 l0 710 l110 0 ZM395 387 l0 -128 l-124 0 l0 128 l124 0 Z" /><glyph glyph-name="Lslash" unicode="&#x141;" d="M240 101 l336 0 l0 -101 l-455 0 l0 280 l-98 -54 l0 101 l98 54 l0 329 l119 0 l0 -268 l133 73 l0 -100 l-133 -73 l0 -241 Z" /><glyph glyph-name="lslash" unicode="&#x142;" d="M318 506 l0 -93 l-86 -49 l0 -364 l-110 0 l0 300 l-89 -51 l0 93 l89 51 l0 317 l110 0 l0 -253 l86 49 Z" /><glyph glyph-name="Nacute" unicode="&#x143;" d="M547 710 l115 0 l0 -710 l-128 0 l-193 304 q-112 174 -154 250 q5 -117 5 -275 l0 -279 l-115 0 l0 710 l130 0 l201 -316 l19 -30 q99 -159 125 -206 q-5 112 -5 264 l0 288 ZM519 914 l-94 -143 l-97 0 l70 143 l121 0 Z" /><glyph glyph-name="nacute" unicode="&#x144;" d="M499 344 l0 -344 l-110 0 l0 310 q0 55 -27 84.5 q-27 29.5 -77 29.5 q-49 0 -81 -33 q-32 -33 -32 -84 l0 -307 l-110 0 l0 502 l102 0 l0 -61 q50 77 155 77 q85 0 132.5 -47.5 q47.5 -47.5 47.5 -126.5 ZM419 713 l-94 -143 l-97 0 l70 143 l121 0 Z" /><glyph glyph-name="uni0145" unicode="&#x145;" d="M547 710 l115 0 l0 -710 l-128 0 l-193 304 q-112 174 -154 250 q5 -117 5 -275 l0 -279 l-115 0 l0 710 l130 0 l201 -316 l19 -30 q99 -159 125 -206 q-5 112 -5 264 l0 288 ZM433 -66 l0 -97 l-65 -93 l-59 0 l60 93 l-56 0 l0 97 l120 0 Z" /><glyph glyph-name="uni0146" unicode="&#x146;" d="M499 344 l0 -344 l-110 0 l0 310 q0 55 -27 84.5 q-27 29.5 -77 29.5 q-49 0 -81 -33 q-32 -33 -32 -84 l0 -307 l-110 0 l0 502 l102 0 l0 -61 q50 77 155 77 q85 0 132.5 -47.5 q47.5 -47.5 47.5 -126.5 ZM337 -66 l0 -97 l-65 -93 l-59 0 l60 93 l-56 0 l0 97 l120 0 Z" /><glyph glyph-name="Ncaron" unicode="&#x147;" d="M547 710 l115 0 l0 -710 l-128 0 l-193 304 q-112 174 -154 250 q5 -117 5 -275 l0 -279 l-115 0 l0 710 l130 0 l201 -316 l19 -30 q99 -159 125 -206 q-5 112 -5 264 l0 288 ZM547 914 l-100 -143 l-138 0 l-100 143 l94 0 l76 -94 l75 94 l93 0 Z" /><glyph glyph-name="ncaron" unicode="&#x148;" d="M499 344 l0 -344 l-110 0 l0 310 q0 55 -27 84.5 q-27 29.5 -77 29.5 q-49 0 -81 -33 q-32 -33 -32 -84 l0 -307 l-110 0 l0 502 l102 0 l0 -61 q50 77 155 77 q85 0 132.5 -47.5 q47.5 -47.5 47.5 -126.5 ZM448 713 l-100 -143 l-138 0 l-100 143 l94 0 l76 -94 l75 94 l93 0 Z" /><glyph glyph-name="Eng" unicode="&#x14a;" d="M547 710 l115 0 l0 -744 q0 -163 -155 -163 q-55 0 -109 17 l21 91 q45 -12 71 -12 q62 0 62 73 l-211 331 q-114 176 -154 251 q5 -118 5 -275 l0 -279 l-115 0 l0 710 l129 0 l201 -315 l32 -50 q68 -108 113 -188 q-5 112 -5 265 l0 288 Z" /><glyph glyph-name="eng" unicode="&#x14b;" d="M499 344 l0 -372 q0 -163 -150 -163 q-55 0 -101 15 l20 82 q43 -8 62 -8 q32 0 45.5 17 q13.5 17 13.5 56 l0 339 q0 55 -27 84.5 q-27 29.5 -77 29.5 q-49 0 -81 -33 q-32 -33 -32 -84 l0 -307 l-110 0 l0 502 l102 0 l0 -61 q50 77 155 77 q85 0 132.5 -47.5 q47.5 -47.5 47.5 -126.5 Z" /><glyph glyph-name="Omacron" unicode="&#x14c;" d="M727 355 q2 -161 -93.5 -267 q-95.5 -106 -250.5 -104 q-156 0 -250.5 104.5 q-94.5 104.5 -94.5 266.5 q0 162 94.5 266.5 q94.5 104.5 250.5 104.5 q155 2 250.5 -104 q95.5 -106 93.5 -267 ZM221 548 q-62 -74 -62 -193 q0 -119 62 -193 q62 -74 162 -74 q101 0 162 73.5 q61 73.5 61 193.5 q0 120 -61 193.5 q-61 73.5 -162 73.5 q-100 0 -162 -74 ZM534 875 l0 -82 l-301 0 l0 82 l301 0 Z" /><glyph glyph-name="omacron" unicode="&#x14d;" d="M545 251 q0 -117 -71.5 -191.5 q-71.5 -74.5 -183.5 -74.5 q-113 0 -184.5 74 q-71.5 74 -71.5 192 q0 119 71.5 193 q71.5 74 184.5 74 q112 0 183.5 -74.5 q71.5 -74.5 71.5 -192.5 ZM146 251 q0 -78 39 -125.5 q39 -47.5 105 -47.5 q64 0 103.5 47.5 q39.5 47.5 39.5 125.5 q0 79 -39 126.5 q-39 47.5 -104 47.5 q-66 0 -105 -47.5 q-39 -47.5 -39 -126.5 ZM438 674 l0 -82 l-301 0 l0 82 l301 0 Z" /><glyph glyph-name="Ohungarumlaut" unicode="&#x150;" d="M727 355 q2 -161 -93.5 -267 q-95.5 -106 -250.5 -104 q-156 0 -250.5 104.5 q-94.5 104.5 -94.5 266.5 q0 162 94.5 266.5 q94.5 104.5 250.5 104.5 q155 2 250.5 -104 q95.5 -106 93.5 -267 ZM221 548 q-62 -74 -62 -193 q0 -119 62 -193 q62 -74 162 -74 q101 0 162 73.5 q61 73.5 61 193.5 q0 120 -61 193.5 q-61 73.5 -162 73.5 q-100 0 -162 -74 ZM437 918 l-96 -147 l-80 0 l71 147 l105 0 ZM600 918 l-96 -147 l-80 0 l71 147 l105 0 Z" /><glyph glyph-name="ohungarumlaut" unicode="&#x151;" d="M545 251 q0 -117 -71.5 -191.5 q-71.5 -74.5 -183.5 -74.5 q-113 0 -184.5 74 q-71.5 74 -71.5 192 q0 119 71.5 193 q71.5 74 184.5 74 q112 0 183.5 -74.5 q71.5 -74.5 71.5 -192.5 ZM146 251 q0 -78 39 -125.5 q39 -47.5 105 -47.5 q64 0 103.5 47.5 q39.5 47.5 39.5 125.5 q0 79 -39 126.5 q-39 47.5 -104 47.5 q-66 0 -105 -47.5 q-39 -47.5 -39 -126.5 ZM341 717 l-96 -147 l-80 0 l71 147 l105 0 ZM504 717 l-96 -147 l-80 0 l71 147 l105 0 Z" /><glyph glyph-name="OE" unicode="&#x152;" d="M724 100 l379 0 l0 -100 l-497 0 l0 85 q-84 -101 -227 -101 q-156 0 -248.5 104 q-92.5 104 -92.5 267 q0 163 92.5 267 q92.5 104 248.5 104 q143 0 227 -101 l0 85 l487 0 l0 -100 l-369 0 l0 -194 l344 0 l0 -99 l-344 0 l0 -217 ZM545 161.5 q61 73.5 61 193.5 q0 120 -61 193.5 q-61 73.5 -162 73.5 q-100 0 -162 -74 q-62 -74 -62 -193 q0 -119 62 -193 q62 -74 162 -74 q101 0 162 73.5 Z" /><glyph glyph-name="oe" unicode="&#x153;" d="M851 153 l64 -67 q-53 -55 -105 -78 q-52 -23 -117 -23 q-135 0 -204 94 q-71 -94 -199 -94 q-113 0 -184.5 74 q-71.5 74 -71.5 192 q0 119 71.5 193 q71.5 74 184.5 74 q130 0 200 -95 q65 95 193 95 q110 0 171 -65.5 q61 -65.5 61 -181.5 q0 -14 -2 -44 l-367 0 q6 -69 44 -109 q38 -40 105 -40 q46 0 77 16 q31 15 79 59 ZM549 304 l259 0 q-2 60 -35.5 94.5 q-33.5 34.5 -90.5 34.5 q-54 0 -88.5 -34 q-34.5 -34 -44.5 -95 ZM433 251 q0 79 -39 126.5 q-39 47.5 -104 47.5 q-66 0 -105 -47.5 q-39 -47.5 -39 -126.5 q0 -78 39 -125.5 q39 -47.5 105 -47.5 q64 0 103.5 47.5 q39.5 47.5 39.5 125.5 Z" /><glyph glyph-name="Racute" unicode="&#x154;" d="M654 0 l-133 0 l-178 273 l-148 0 l0 -273 l-118 0 l0 710 l319 0 q102 0 167 -60.5 q65 -60.5 65 -158.5 q0 -79 -43.5 -135 q-43.5 -56 -117.5 -74 l187 -282 ZM195 612 l0 -241 l180 0 q64 0 100 31.5 q36 31.5 36 88.5 q0 57 -36.5 89 q-36.5 32 -99.5 32 l-180 0 ZM479 914 l-94 -143 l-97 0 l70 143 l121 0 Z" /><glyph glyph-name="racute" unicode="&#x155;" d="M369 494 l-20 -95 q-36 10 -64 10 q-52 0 -82.5 -40.5 q-30.5 -40.5 -30.5 -111.5 l0 -257 l-110 0 l0 502 l102 0 l0 -75 q40 82 126 82 q30 0 79 -15 ZM355 713 l-94 -143 l-97 0 l70 143 l121 0 Z" /><glyph glyph-name="uni0156" unicode="&#x156;" d="M654 0 l-133 0 l-178 273 l-148 0 l0 -273 l-118 0 l0 710 l319 0 q102 0 167 -60.5 q65 -60.5 65 -158.5 q0 -79 -43.5 -135 q-43.5 -56 -117.5 -74 l187 -282 ZM195 612 l0 -241 l180 0 q64 0 100 31.5 q36 31.5 36 88.5 q0 57 -36.5 89 q-36.5 32 -99.5 32 l-180 0 ZM402 -66 l0 -97 l-65 -93 l-59 0 l60 93 l-56 0 l0 97 l120 0 Z" /><glyph glyph-name="uni0157" unicode="&#x157;" d="M369 494 l-20 -95 q-36 10 -64 10 q-52 0 -82.5 -40.5 q-30.5 -40.5 -30.5 -111.5 l0 -257 l-110 0 l0 502 l102 0 l0 -75 q40 82 126 82 q30 0 79 -15 ZM176 -66 l0 -97 l-65 -93 l-59 0 l60 93 l-56 0 l0 97 l120 0 Z" /><glyph glyph-name="Rcaron" unicode="&#x158;" d="M654 0 l-133 0 l-178 273 l-148 0 l0 -273 l-118 0 l0 710 l319 0 q102 0 167 -60.5 q65 -60.5 65 -158.5 q0 -79 -43.5 -135 q-43.5 -56 -117.5 -74 l187 -282 ZM195 612 l0 -241 l180 0 q64 0 100 31.5 q36 31.5 36 88.5 q0 57 -36.5 89 q-36.5 32 -99.5 32 l-180 0 ZM507 914 l-100 -143 l-138 0 l-100 143 l94 0 l76 -94 l75 94 l93 0 Z" /><glyph glyph-name="rcaron" unicode="&#x159;" d="M369 494 l-20 -95 q-36 10 -64 10 q-52 0 -82.5 -40.5 q-30.5 -40.5 -30.5 -111.5 l0 -257 l-110 0 l0 502 l102 0 l0 -75 q40 82 126 82 q30 0 79 -15 ZM384 713 l-100 -143 l-138 0 l-100 143 l94 0 l76 -94 l75 94 l93 0 Z" /><glyph glyph-name="Sacute" unicode="&#x15a;" d="M591 618 l-69 -82 q-61 50 -105 68 q-44 19 -105 19 q-65 0 -104.5 -28 q-39.5 -28 -39.5 -71 q0 -32 18 -50 q20 -18 54 -30 q40 -13 110 -29 q141 -35 194 -76.5 q53 -41.5 56 -129.5 q0 -100 -75 -162.5 q-75 -62.5 -197 -62.5 q-90 0 -160 29 q-67 28 -148 98 l71 83 q75 -64 124 -85 q51 -22 115 -22 q69 0 111 30.5 q42 30.5 42 83.5 q0 37 -22 56 q-23 20 -55 30 q-40 13 -112 29 q-139 33 -191 76.5 q-52 43.5 -52 127.5 q0 89 75 147.5 q75 58.5 188 58.5 q85 0 147 -25 q64 -26 130 -83 ZM459 914 l-94 -143 l-97 0 l70 143 l121 0 Z" /><glyph glyph-name="sacute" unicode="&#x15b;" d="M457 442 l-60 -73 q-45 35 -78.5 47.5 q-33.5 12.5 -75.5 12.5 q-44 0 -70 -17 q-26 -17 -26 -44 q0 -18 12 -29 q18 -14 113 -36 q107 -24 150 -57.5 q43 -33.5 43 -99.5 q0 -72 -57 -116.5 q-57 -44.5 -152 -44.5 q-70 0 -124 21 q-54 21 -114 73 l64 72 q52 -43 92 -61 q36 -16 84 -16 q43 0 71 17.5 q28 17.5 28 47.5 q-4 34 -28.5 46 q-24.5 12 -102.5 29 q-107 24 -145.5 55 q-38.5 31 -38.5 95 q0 67 55.5 110.5 q55.5 43.5 147.5 43.5 q64 0 112.5 -17 q48.5 -17 99.5 -59 ZM393 713 l-94 -143 l-97 0 l70 143 l121 0 Z" /><glyph glyph-name="Scedilla" unicode="&#x15e;" d="M341 -16 l-24 -50 q48 1 77 -21.5 q29 -22.5 29 -58.5 q0 -42 -30.5 -68 q-30.5 -26 -79.5 -26 q-53 0 -112 38 l30 47 q47 -27 81 -27 q49 0 49 35 q0 15 -16 24 q-16 9 -38 9 q-16 0 -28 -3 l-31 29 l34 74 q-72 6 -132.5 35 q-60.5 29 -129.5 90 l71 83 q75 -64 124 -85 q51 -22 115 -22 q69 0 111 30.5 q42 30.5 42 83.5 q0 37 -22 56 q-23 20 -55 30 q-40 13 -112 29 q-139 33 -191 76.5 q-52 43.5 -52 127.5 q0 89 75 147.5 q75 58.5 188 58.5 q85 0 147 -25 q64 -26 130 -83 l-69 -82 q-61 50 -105 68 q-44 19 -105 19 q-65 0 -104.5 -28 q-39.5 -28 -39.5 -71 q0 -32 18 -50 q20 -18 54 -30 q40 -13 110 -29 q141 -35 194 -76.5 q53 -41.5 56 -129.5 q0 -97 -71.5 -159.5 q-71.5 -62.5 -187.5 -65.5 Z" /><glyph glyph-name="scedilla" unicode="&#x15f;" d="M268 -15 l-24 -51 q48 0 77 -22 q29 -22 29 -58 q0 -42 -30.5 -68 q-30.5 -26 -80.5 -26 q-53 0 -111 38 l30 47 q44 -27 80 -27 q49 0 49 35 q0 15 -15.5 24 q-15.5 9 -37.5 9 q-17 0 -29 -3 l-31 29 l35 75 q-99 12 -191 92 l64 72 q52 -43 92 -61 q36 -16 84 -16 q43 0 71 17.5 q28 17.5 28 47.5 q-4 34 -28.5 46 q-24.5 12 -102.5 29 q-107 24 -145.5 55 q-38.5 31 -38.5 95 q0 67 55.5 110.5 q55.5 43.5 147.5 43.5 q64 0 112.5 -17 q48.5 -17 99.5 -59 l-60 -73 q-45 35 -78.5 47.5 q-33.5 12.5 -75.5 12.5 q-44 0 -70 -17 q-26 -17 -26 -44 q0 -18 12 -29 q18 -14 113 -36 q107 -24 150 -57.5 q43 -33.5 43 -99.5 q0 -70 -53.5 -114 q-53.5 -44 -143.5 -47 Z" /><glyph glyph-name="Scaron" unicode="&#x160;" d="M591 618 l-69 -82 q-61 50 -105 68 q-44 19 -105 19 q-65 0 -104.5 -28 q-39.5 -28 -39.5 -71 q0 -32 18 -50 q20 -18 54 -30 q40 -13 110 -29 q141 -35 194 -76.5 q53 -41.5 56 -129.5 q0 -100 -75 -162.5 q-75 -62.5 -197 -62.5 q-90 0 -160 29 q-67 28 -148 98 l71 83 q75 -64 124 -85 q51 -22 115 -22 q69 0 111 30.5 q42 30.5 42 83.5 q0 37 -22 56 q-23 20 -55 30 q-40 13 -112 29 q-139 33 -191 76.5 q-52 43.5 -52 127.5 q0 89 75 147.5 q75 58.5 188 58.5 q85 0 147 -25 q64 -26 130 -83 ZM487 914 l-100 -143 l-138 0 l-100 143 l94 0 l76 -94 l75 94 l93 0 Z" /><glyph glyph-name="scaron" unicode="&#x161;" d="M457 442 l-60 -73 q-45 35 -78.5 47.5 q-33.5 12.5 -75.5 12.5 q-44 0 -70 -17 q-26 -17 -26 -44 q0 -18 12 -29 q18 -14 113 -36 q107 -24 150 -57.5 q43 -33.5 43 -99.5 q0 -72 -57 -116.5 q-57 -44.5 -152 -44.5 q-70 0 -124 21 q-54 21 -114 73 l64 72 q52 -43 92 -61 q36 -16 84 -16 q43 0 71 17.5 q28 17.5 28 47.5 q-4 34 -28.5 46 q-24.5 12 -102.5 29 q-107 24 -145.5 55 q-38.5 31 -38.5 95 q0 67 55.5 110.5 q55.5 43.5 147.5 43.5 q64 0 112.5 -17 q48.5 -17 99.5 -59 ZM422 713 l-100 -143 l-138 0 l-100 143 l94 0 l76 -94 l75 94 l93 0 Z" /><glyph glyph-name="uni0162" unicode="&#x162;" d="M366 0 l-27 0 l-31 -66 q48 0 77 -22 q29 -22 29 -58 q0 -42 -30.5 -68 q-30.5 -26 -80.5 -26 q-53 0 -111 38 l30 47 q44 -27 80 -27 q49 0 49 35 q0 15 -15.5 24 q-15.5 9 -37.5 9 q-17 0 -29 -3 l-31 29 l41 88 l-32 0 l0 609 l-218 0 l0 101 l556 0 l0 -101 l-219 0 l0 -609 Z" /><glyph glyph-name="uni0163" unicode="&#x163;" d="M338 -146 q0 -42 -30.5 -68 q-30.5 -26 -80.5 -26 q-53 0 -111 38 l30 47 q47 -27 81 -27 q48 0 48 35 q0 15 -15.5 24 q-15.5 9 -37.5 9 q-16 0 -28 -3 l-32 29 l38 81 q-91 18 -91 131 l0 295 l-91 0 l0 83 l91 0 l0 162 l110 0 l0 -162 l127 0 l0 -83 l-127 0 l0 -282 q0 -29 13 -41 q13 -12 41 -12 q25 0 67 11 l14 -87 q-56 -18 -96 -19 l-26 -55 q48 1 77 -21.5 q29 -22.5 29 -58.5 Z" /><glyph glyph-name="Tcaron" unicode="&#x164;" d="M585 710 l0 -101 l-219 0 l0 -609 l-119 0 l0 609 l-218 0 l0 101 l556 0 ZM476 914 l-100 -143 l-138 0 l-100 143 l94 0 l76 -94 l75 94 l93 0 Z" /><glyph glyph-name="tcaron" unicode="&#x165;" d="M340 95 l14 -87 q-54 -19 -108 -19 q-72 0 -104.5 33 q-32.5 33 -32.5 102 l0 295 l-91 0 l0 83 l91 0 l0 162 l110 0 l0 -162 l127 0 l0 -83 l-127 0 l0 -282 q0 -29 13 -41 q13 -12 41 -12 q25 0 67 11 ZM429 789 l-69 -207 l-68 0 l28 207 l109 0 Z" /><glyph glyph-name="Tbar" unicode="&#x166;" d="M581 609 l-217 0 l0 -196 l127 0 l0 -82 l-127 0 l0 -331 l-119 0 l0 331 l-125 0 l0 82 l125 0 l0 196 l-216 0 l0 101 l552 0 l0 -101 Z" /><glyph glyph-name="tbar" unicode="&#x167;" d="M340 95 l14 -87 q-54 -19 -108 -19 q-72 0 -104.5 33 q-32.5 33 -32.5 102 l0 99 l-91 0 l0 85 l91 0 l0 111 l-91 0 l0 83 l91 0 l0 162 l110 0 l0 -162 l127 0 l0 -83 l-127 0 l0 -111 l127 0 l0 -85 l-127 0 l0 -86 q0 -29 13 -41 q13 -12 41 -12 q25 0 67 11 Z" /><glyph glyph-name="Umacron" unicode="&#x16a;" d="M626 710 l0 -476 q0 -124 -71 -187 q-71 -63 -206 -63 q-135 0 -206 63 q-71 63 -71 187 l0 476 l118 0 l0 -471 q0 -73 40.5 -112 q40.5 -39 118.5 -39 q78 0 118.5 39 q40.5 39 40.5 112 l0 471 l118 0 ZM500 875 l0 -82 l-301 0 l0 82 l301 0 Z" /><glyph glyph-name="umacron" unicode="&#x16b;" d="M380 502 l110 0 l0 -502 l-101 0 l0 58 q-45 -73 -149 -73 q-88 0 -133.5 43 q-45.5 43 -45.5 118 l0 356 l110 0 l0 -326 q0 -46 24 -71 q24 -25 69 -25 q53 0 84.5 31 q31.5 31 31.5 87 l0 304 ZM420 674 l0 -82 l-301 0 l0 82 l301 0 Z" /><glyph glyph-name="Uring" unicode="&#x16e;" d="M626 710 l0 -476 q0 -124 -71 -187 q-71 -63 -206 -63 q-135 0 -206 63 q-71 63 -71 187 l0 476 l118 0 l0 -471 q0 -73 40.5 -112 q40.5 -39 118.5 -39 q78 0 118.5 39 q40.5 39 40.5 112 l0 471 l118 0 ZM463 831 q0 -46 -34 -79 q-35 -32 -81 -32 q-47 0 -82 32 q-34 33 -34 79 q0 47 34 78 q34 33 82 33 q46 0 81 -33 q34 -31 34 -78 ZM305 875 q-17 -17 -17 -44 q0 -27 17 -44 q17 -17 43 -17 q26 0 42.5 17 q16.5 17 16.5 44 q0 27 -16.5 44 q-16.5 17 -42.5 17 q-26 0 -43 -17 Z" /><glyph glyph-name="uring" unicode="&#x16f;" d="M380 502 l110 0 l0 -502 l-101 0 l0 58 q-45 -73 -149 -73 q-88 0 -133.5 43 q-45.5 43 -45.5 118 l0 356 l110 0 l0 -326 q0 -46 24 -71 q24 -25 69 -25 q53 0 84.5 31 q31.5 31 31.5 87 l0 304 ZM384 677 q0 -46 -34 -79 q-35 -32 -81 -32 q-47 0 -82 32 q-34 33 -34 79 q0 47 34 78 q34 33 82 33 q47 0 81 -33 q34 -31 34 -78 ZM226 721 q-17 -17 -17 -44 q0 -27 17 -44 q17 -17 43 -17 q26 0 42.5 17 q16.5 17 16.5 44 q0 27 -16.5 44 q-16.5 17 -42.5 17 q-26 0 -43 -17 Z" /><glyph glyph-name="Uhungarumlaut" unicode="&#x170;" d="M626 710 l0 -476 q0 -124 -71 -187 q-71 -63 -206 -63 q-135 0 -206 63 q-71 63 -71 187 l0 476 l118 0 l0 -471 q0 -73 40.5 -112 q40.5 -39 118.5 -39 q78 0 118.5 39 q40.5 39 40.5 112 l0 471 l118 0 ZM403 918 l-96 -147 l-80 0 l71 147 l105 0 ZM566 918 l-96 -147 l-80 0 l71 147 l105 0 Z" /><glyph glyph-name="uhungarumlaut" unicode="&#x171;" d="M380 502 l110 0 l0 -502 l-101 0 l0 58 q-45 -73 -149 -73 q-88 0 -133.5 43 q-45.5 43 -45.5 118 l0 356 l110 0 l0 -326 q0 -46 24 -71 q24 -25 69 -25 q53 0 84.5 31 q31.5 31 31.5 87 l0 304 ZM323 717 l-96 -147 l-80 0 l71 147 l105 0 ZM486 717 l-96 -147 l-80 0 l71 147 l105 0 Z" /><glyph glyph-name="Uogonek" unicode="&#x172;" d="M508 710 l118 0 l0 -475 q0 -80 -26 -129 q-27 -50 -86 -92 q-91 -64 -91 -119 q0 -40 49 -40 q17 0 29 4 l0 -66 q-15 -7 -44 -7 q-53 0 -82.5 24.5 q-29.5 24.5 -29.5 66.5 q0 56 50 109 q-38 -2 -46 -2 q-135 0 -206 63 q-71 63 -71 187 l0 476 l118 0 l0 -471 q0 -73 40.5 -112 q40.5 -39 118.5 -39 q78 0 118.5 39 q40.5 39 40.5 112 l0 471 Z" /><glyph glyph-name="uogonek" unicode="&#x173;" d="M407 -106 q0 -39 50 -39 q16 0 28 4 l0 -66 q-17 -7 -45 -7 q-53 0 -82 23.5 q-29 23.5 -29 65.5 q0 67 72 125 l-12 0 l0 58 q-45 -73 -149 -73 q-88 0 -133.5 43 q-45.5 43 -45.5 118 l0 356 l110 0 l0 -326 q0 -46 24 -71 q24 -25 69 -25 q53 0 84.5 31 q31.5 31 31.5 87 l0 304 l110 0 l0 -502 q-83 -54 -83 -106 Z" /><glyph glyph-name="Wcircumflex" unicode="&#x174;" d="M812 710 l116 0 l-171 -710 l-139 0 l-78 298 q-34 129 -61 254 q-30 -135 -61 -255 l-78 -297 l-140 0 l-172 710 l120 0 l75 -322 q19 -79 53 -253 q40 174 61 253 l86 322 l117 0 l84 -322 q34 -136 60 -255 q34 177 52 255 l76 322 ZM553 771 l-75 94 l-76 -94 l-93 0 l100 143 l138 0 l100 -143 l-94 0 Z" /><glyph glyph-name="wcircumflex" unicode="&#x175;" d="M636 502 l113 0 l-140 -502 l-132 0 l-41 147 q-31 112 -54 218 l-6 -27 l-19 -78 q-18 -76 -28 -113 l-40 -147 l-131 0 l-141 502 l116 0 l44 -175 q29 -113 52 -228 q36 151 56 228 l47 175 l103 0 l48 -175 q31 -115 56 -230 q25 124 52 230 l45 175 ZM459 570 l-75 94 l-76 -94 l-93 0 l100 143 l138 0 l100 -143 l-94 0 Z" /><glyph glyph-name="Ycircumflex" unicode="&#x176;" d="M504 710 l127 0 l-251 -410 l0 -300 l-119 0 l0 301 l-250 409 l131 0 l181 -305 l181 305 ZM396 771 l-75 94 l-76 -94 l-93 0 l100 143 l138 0 l100 -143 l-94 0 Z" /><glyph glyph-name="ycircumflex" unicode="&#x177;" d="M379 502 l112 0 l-197 -564 q-24 -72 -61 -102 q-37 -30 -103 -30 q-46 0 -88 11 l18 83 q36 -6 57 -6 q30 0 50 16 q20 16 32 55 l3 9 l-189 528 l116 0 l49 -147 q51 -151 77 -236 q42 138 75 237 l49 146 ZM326 570 l-75 94 l-76 -94 l-93 0 l100 143 l138 0 l100 -143 l-94 0 Z" /><glyph glyph-name="Ydieresis" unicode="&#x178;" d="M504 710 l127 0 l-251 -410 l0 -300 l-119 0 l0 301 l-250 409 l131 0 l181 -305 l181 305 ZM281 903 l0 -113 l-107 0 l0 113 l107 0 ZM469 903 l0 -113 l-107 0 l0 113 l107 0 Z" /><glyph glyph-name="Zacute" unicode="&#x179;" d="M590 710 l0 -96 l-405 -514 l404 0 l0 -100 l-546 0 l0 96 l405 514 l-389 0 l0 100 l531 0 ZM469 914 l-94 -143 l-97 0 l70 143 l121 0 Z" /><glyph glyph-name="zacute" unicode="&#x17a;" d="M447 502 l0 -82 l-275 -330 l275 0 l0 -90 l-411 0 l0 83 l275 330 l-258 0 l0 89 l394 0 ZM385 713 l-94 -143 l-97 0 l70 143 l121 0 Z" /><glyph glyph-name="Zdotaccent" unicode="&#x17b;" d="M590 710 l0 -96 l-405 -514 l404 0 l0 -100 l-546 0 l0 96 l405 514 l-389 0 l0 100 l531 0 ZM383 903 l0 -113 l-110 0 l0 113 l110 0 Z" /><glyph glyph-name="zdotaccent" unicode="&#x17c;" d="M447 502 l0 -82 l-275 -330 l275 0 l0 -90 l-411 0 l0 83 l275 330 l-258 0 l0 89 l394 0 ZM299 702 l0 -113 l-110 0 l0 113 l110 0 Z" /><glyph glyph-name="Zcaron" unicode="&#x17d;" d="M590 710 l0 -96 l-405 -514 l404 0 l0 -100 l-546 0 l0 96 l405 514 l-389 0 l0 100 l531 0 ZM497 914 l-100 -143 l-138 0 l-100 143 l94 0 l76 -94 l75 94 l93 0 Z" /><glyph glyph-name="zcaron" unicode="&#x17e;" d="M447 502 l0 -82 l-275 -330 l275 0 l0 -90 l-411 0 l0 83 l275 330 l-258 0 l0 89 l394 0 ZM413 713 l-100 -143 l-138 0 l-100 143 l94 0 l76 -94 l75 94 l93 0 Z" /><glyph glyph-name="florin" unicode="&#x192;" d="M334 472 l124 0 l0 -83 l-124 0 l0 -420 q0 -164 -150 -164 q-50 0 -100 15 l20 83 q35 -8 62 -8 q32 0 45 17 q13 17 13 56 l0 421 l-107 0 l0 83 l107 0 l0 64 q0 78 41 119 q41 41 117 41 q50 0 105 -18 l-21 -83 q-39 10 -64 10 q-36 0 -52 -18 q-16 -18 -16 -59 l0 -56 Z" /><glyph glyph-name="uni0218" unicode="&#x218;" d="M591 618 l-69 -82 q-61 50 -105 68 q-44 19 -105 19 q-65 0 -104.5 -28 q-39.5 -28 -39.5 -71 q0 -32 18 -50 q20 -18 54 -30 q40 -13 110 -29 q141 -35 194 -76.5 q53 -41.5 56 -129.5 q0 -100 -75 -162.5 q-75 -62.5 -197 -62.5 q-90 0 -160 29 q-67 28 -148 98 l71 83 q75 -64 124 -85 q51 -22 115 -22 q69 0 111 30.5 q42 30.5 42 83.5 q0 37 -22 56 q-23 20 -55 30 q-40 13 -112 29 q-139 33 -191 76.5 q-52 43.5 -52 127.5 q0 89 75 147.5 q75 58.5 188 58.5 q85 0 147 -25 q64 -26 130 -83 ZM378 -66 l0 -97 l-65 -93 l-59 0 l60 93 l-56 0 l0 97 l120 0 Z" /><glyph glyph-name="uni0219" unicode="&#x219;" d="M457 442 l-60 -73 q-45 35 -78.5 47.5 q-33.5 12.5 -75.5 12.5 q-44 0 -70 -17 q-26 -17 -26 -44 q0 -18 12 -29 q18 -14 113 -36 q107 -24 150 -57.5 q43 -33.5 43 -99.5 q0 -72 -57 -116.5 q-57 -44.5 -152 -44.5 q-70 0 -124 21 q-54 21 -114 73 l64 72 q52 -43 92 -61 q36 -16 84 -16 q43 0 71 17.5 q28 17.5 28 47.5 q-4 34 -28.5 46 q-24.5 12 -102.5 29 q-107 24 -145.5 55 q-38.5 31 -38.5 95 q0 67 55.5 110.5 q55.5 43.5 147.5 43.5 q64 0 112.5 -17 q48.5 -17 99.5 -59 ZM304 -66 l0 -97 l-65 -93 l-59 0 l60 93 l-56 0 l0 97 l120 0 Z" /><glyph glyph-name="uni021A" unicode="&#x21a;" d="M585 710 l0 -101 l-219 0 l0 -609 l-119 0 l0 609 l-218 0 l0 101 l556 0 ZM368 -66 l0 -97 l-65 -93 l-59 0 l60 93 l-56 0 l0 97 l120 0 Z" /><glyph glyph-name="uni021B" unicode="&#x21b;" d="M340 95 l14 -87 q-54 -19 -108 -19 q-72 0 -104.5 33 q-32.5 33 -32.5 102 l0 295 l-91 0 l0 83 l91 0 l0 162 l110 0 l0 -162 l127 0 l0 -83 l-127 0 l0 -282 q0 -29 13 -41 q13 -12 41 -12 q25 0 67 11 ZM292 -66 l0 -97 l-65 -93 l-59 0 l60 93 l-56 0 l0 97 l120 0 Z" /><glyph glyph-name="uni0237" unicode="&#x237;" d="M7 -102 q32 0 45 17 q13 17 13 56 l0 531 l110 0 l0 -530 q0 -163 -150 -163 q-55 0 -100 15 l20 82 q43 -8 62 -8 Z" /><glyph glyph-name="circumflex" unicode="&#x2c6;" d="M297 570 l-75 94 l-76 -94 l-93 0 l100 143 l138 0 l100 -143 l-94 0 Z" /><glyph glyph-name="caron" unicode="&#x2c7;" d="M391 713 l-100 -143 l-138 0 l-100 143 l94 0 l76 -94 l75 94 l93 0 Z" /><glyph glyph-name="breve" unicode="&#x2d8;" d="M53 702 l78 0 q0 -33 20.5 -52 q20.5 -19 56.5 -19 q36 0 56 19 q20 19 21 52 l77 0 q0 -65 -42.5 -102.5 q-42.5 -37.5 -111.5 -37.5 q-69 0 -112 37.5 q-43 37.5 -43 102.5 Z" /><glyph glyph-name="dotaccent" unicode="&#x2d9;" d="M163 702 l0 -113 l-110 0 l0 113 l110 0 Z" /><glyph glyph-name="ring" unicode="&#x2da;" d="M283 677 q0 -46 -34 -79 q-35 -32 -81 -32 q-47 0 -82 32 q-34 33 -34 79 q0 47 34 78 q34 33 82 33 q46 0 81 -33 q34 -31 34 -78 ZM125 721 q-17 -17 -17 -44 q0 -27 17 -44 q17 -17 43 -17 q26 0 42.5 17 q16.5 17 16.5 44 q0 27 -16.5 44 q-16.5 17 -42.5 17 q-26 0 -43 -17 Z" /><glyph glyph-name="ogonek" unicode="&#x2db;" d="M157 24 l57 -24 q-83 -54 -83 -106 q0 -39 49 -39 q16 0 28 4 l0 -66 q-15 -7 -44 -7 q-53 0 -82 23.5 q-29 23.5 -29 65.5 q0 79 104 149 Z" /><glyph glyph-name="tilde" unicode="&#x2dc;" d="M233 667 q34 -22 54 -22 q32 0 32 50 l65 0 q0 -56 -24.5 -88 q-24.5 -32 -66.5 -32 q-33 0 -80 28 q-43 22 -60 22 q-15 0 -24.5 -14 q-9.5 -14 -9.5 -36 l-66 0 q0 56 27 88.5 q27 32.5 70 32.5 q32 0 83 -29 Z" /><glyph glyph-name="hungarumlaut" unicode="&#x2dd;" d="M229 717 l-96 -147 l-80 0 l71 147 l105 0 ZM392 717 l-96 -147 l-80 0 l71 147 l105 0 Z" /><glyph glyph-name="gravecomb" unicode="&#x300;" d="M-284 713 l122 0 l70 -143 l-97 0 l-95 143 Z" /><glyph glyph-name="acutecomb" unicode="&#x301;" d="M-79 713 l-94 -143 l-97 0 l70 143 l121 0 Z" /><glyph glyph-name="uni0302" unicode="&#x302;" d="M-175 570 l-75 94 l-76 -94 l-93 0 l100 143 l138 0 l100 -143 l-94 0 Z" /><glyph glyph-name="tildecomb" unicode="&#x303;" d="M-251 667 q34 -22 54 -22 q32 0 32 50 l65 0 q0 -56 -24.5 -88 q-24.5 -32 -66.5 -32 q-33 0 -80 28 q-43 22 -60 22 q-15 0 -24.5 -14 q-9.5 -14 -9.5 -36 l-66 0 q0 56 27 88.5 q27 32.5 70 32.5 q32 0 83 -29 Z" /><glyph glyph-name="uni0304" unicode="&#x304;" d="M-88 674 l0 -82 l-301 0 l0 82 l301 0 Z" /><glyph glyph-name="uni0306" unicode="&#x306;" d="M-409 702 l78 0 q0 -33 20.5 -52 q20.5 -19 56.5 -19 q36 0 56 19 q20 19 21 52 l77 0 q0 -65 -42.5 -102.5 q-42.5 -37.5 -111.5 -37.5 q-69 0 -112 37.5 q-43 37.5 -43 102.5 Z" /><glyph glyph-name="uni0307" unicode="&#x307;" d="M-100 702 l0 -113 l-110 0 l0 113 l110 0 Z" /><glyph glyph-name="uni0308" unicode="&#x308;" d="M-287 702 l0 -113 l-107 0 l0 113 l107 0 ZM-99 702 l0 -113 l-107 0 l0 113 l107 0 Z" /><glyph glyph-name="uni030A" unicode="&#x30a;" d="M-107 677 q0 -46 -34 -79 q-35 -32 -81 -32 q-47 0 -82 32 q-34 33 -34 79 q0 47 34 78 q34 33 82 33 q46 0 81 -33 q34 -31 34 -78 ZM-265 721 q-17 -17 -17 -44 q0 -27 17 -44 q17 -17 43 -17 q26 0 42.5 17 q16.5 17 16.5 44 q0 27 -16.5 44 q-16.5 17 -42.5 17 q-26 0 -43 -17 Z" /><glyph glyph-name="uni030B" unicode="&#x30b;" d="M-255 717 l-96 -147 l-80 0 l71 147 l105 0 ZM-92 717 l-96 -147 l-80 0 l71 147 l105 0 Z" /><glyph glyph-name="uni030C" unicode="&#x30c;" d="M-92 713 l-100 -143 l-138 0 l-100 143 l94 0 l76 -94 l75 94 l93 0 Z" /><glyph glyph-name="uni0326" unicode="&#x326;" d="M-100 -66 l0 -97 l-65 -93 l-59 0 l60 93 l-56 0 l0 97 l120 0 Z" /><glyph glyph-name="uni0327" unicode="&#x327;" d="M-93 -146 q0 -42 -30.5 -68 q-30.5 -26 -79.5 -26 q-54 0 -112 38 l30 47 q47 -27 81 -27 q22 0 35.5 9 q13.5 9 13.5 26 q0 15 -16 24 q-16 9 -38 9 q-16 0 -28 -3 l-31 29 l49 108 l51 -20 l-31 -66 q48 1 77 -21.5 q29 -22.5 29 -58.5 Z" /><glyph glyph-name="uni0328" unicode="&#x328;" d="M-142 24 l57 -24 q-83 -54 -83 -106 q0 -39 49 -39 q16 0 28 4 l0 -66 q-15 -7 -44 -7 q-53 0 -82 23.5 q-29 23.5 -29 65.5 q0 79 104 149 Z" /><glyph glyph-name="uni037E" unicode="&#x37e;" d="M208 128 l0 -128 l-71 -138 l-64 0 l63 138 l-59 0 l0 128 l131 0 ZM203 502 l0 -128 l-124 0 l0 128 l124 0 Z" /><glyph glyph-name="tonos" unicode="&#x384;" d="M199 576 l-93 0 l38 146 l120 0 l-65 -146 Z" /><glyph glyph-name="dieresistonos" unicode="&#x385;" d="M195 587 l21 135 l111 0 l-51 -135 l-81 0 ZM68 587 l0 99 l100 0 l0 -99 l-100 0 ZM336 587 l0 99 l100 0 l0 -99 l-100 0 Z" /><glyph glyph-name="Alphatonos" unicode="&#x386;" d="M557 0 l-56 160 l-313 0 l-55 -160 l-120 0 l256 710 l155 0 l256 -710 l-123 0 ZM222 258 l245 0 l-30 87 l-23 67 q-50 141 -69 208 q-23 -76 -85 -253 l-8 -23 l-30 -86 ZM103 564 l-93 0 l38 146 l120 0 l-65 -146 Z" /><glyph glyph-name="anoteleia" unicode="&#x387;" d="M177 387 l0 -128 l-124 0 l0 128 l124 0 Z" /><glyph glyph-name="Epsilontonos" unicode="&#x388;" d="M564 710 l0 -100 l-369 0 l0 -194 l344 0 l0 -99 l-344 0 l0 -217 l379 0 l0 -100 l-497 0 l0 710 l487 0 ZM-27 564 l-93 0 l38 146 l120 0 l-65 -146 Z" /><glyph glyph-name="Etatonos" unicode="&#x389;" d="M660 710 l0 -710 l-119 0 l0 321 l-346 0 l0 -321 l-118 0 l0 710 l118 0 l0 -289 l346 0 l0 289 l119 0 ZM-27 564 l-93 0 l38 146 l120 0 l-65 -146 Z" /><glyph glyph-name="Iotatonos" unicode="&#x38a;" d="M202 710 l0 -710 l-118 0 l0 710 l118 0 ZM-27 564 l-93 0 l38 146 l120 0 l-65 -146 Z" /><glyph glyph-name="Omicrontonos" unicode="&#x38c;" d="M727 355 q2 -161 -93.5 -267 q-95.5 -106 -250.5 -104 q-156 0 -250.5 104.5 q-94.5 104.5 -94.5 266.5 q0 162 94.5 266.5 q94.5 104.5 250.5 104.5 q155 2 250.5 -104 q95.5 -106 93.5 -267 ZM221 548 q-62 -74 -62 -193 q0 -119 62 -193 q62 -74 162 -74 q101 0 162 73.5 q61 73.5 61 193.5 q0 120 -61 193.5 q-61 73.5 -162 73.5 q-100 0 -162 -74 ZM8 564 l-93 0 l38 146 l120 0 l-65 -146 Z" /><glyph glyph-name="Upsilontonos" unicode="&#x38e;" d="M504 710 l127 0 l-251 -410 l0 -300 l-119 0 l0 301 l-250 409 l131 0 l181 -305 l181 305 ZM-68 564 l-93 0 l38 146 l120 0 l-65 -146 Z" /><glyph glyph-name="Omegatonos" unicode="&#x38f;" d="M605 100 l120 0 l0 -100 l-276 0 l0 100 q156 68 156 260 q0 118 -61 190 q-61 72 -162 72 q-99 0 -161 -72.5 q-62 -72.5 -62 -189.5 q0 -192 156 -260 l0 -100 l-276 0 l0 100 l121 0 q-59 42 -90 110 q-31 68 -31 151 q0 160 94 262.5 q94 102.5 249 102.5 q155 2 250.5 -102 q95.5 -104 93.5 -263 q0 -83 -31 -151 q-31 -68 -90 -110 ZM8 564 l-93 0 l38 146 l120 0 l-65 -146 Z" /><glyph glyph-name="iotadieresistonos" unicode="&#x390;" d="M172 0 l-110 0 l0 502 l110 0 l0 -502 ZM70 587 l21 135 l111 0 l-51 -135 l-81 0 ZM-57 587 l0 99 l100 0 l0 -99 l-100 0 ZM211 587 l0 99 l100 0 l0 -99 l-100 0 Z" /><glyph glyph-name="Alpha" unicode="&#x391;" d="M557 0 l-56 160 l-313 0 l-55 -160 l-120 0 l256 710 l155 0 l256 -710 l-123 0 ZM222 258 l245 0 l-30 87 l-23 67 q-50 141 -69 208 q-23 -76 -85 -253 l-8 -23 l-30 -86 Z" /><glyph glyph-name="Beta" unicode="&#x392;" d="M640 200 q0 -92 -59.5 -146 q-59.5 -54 -159.5 -54 l-344 0 l0 710 l327 0 q95 0 153 -48 q58 -48 58 -134 q0 -57 -29.5 -97 q-29.5 -40 -81.5 -58 q65 -19 100.5 -63 q35.5 -44 35.5 -110 ZM195 617 l0 -200 l182 0 q58 0 90.5 27.5 q32.5 27.5 32.5 75.5 q0 97 -123 97 l-182 0 ZM485 123.5 q37 30.5 37 84.5 q0 54 -37.5 85 q-37.5 31 -103.5 31 l-186 0 l0 -231 l185 0 q68 0 105 30.5 Z" /><glyph glyph-name="Gamma" unicode="&#x393;" d="M543 610 l-348 0 l0 -610 l-118 0 l0 710 l466 0 l0 -100 Z" /><glyph glyph-name="uni0394" unicode="&#x394;" d="M424 710 l257 -710 l-668 0 l256 710 l155 0 ZM166 98 l358 0 l-86 247 l-15 44 q-68 199 -79 236 q-23 -80 -49 -155 q-30 -90 -36 -107 q0 -1 -1.5 -4 q-1.5 -3 -3 -7 q-1.5 -4 -2.5 -8 l-86 -246 Z" /><glyph glyph-name="Epsilon" unicode="&#x395;" d="M564 710 l0 -100 l-369 0 l0 -194 l344 0 l0 -99 l-344 0 l0 -217 l379 0 l0 -100 l-497 0 l0 710 l487 0 Z" /><glyph glyph-name="Zeta" unicode="&#x396;" d="M590 710 l0 -96 l-405 -514 l404 0 l0 -100 l-546 0 l0 96 l405 514 l-389 0 l0 100 l531 0 Z" /><glyph glyph-name="Eta" unicode="&#x397;" d="M660 710 l0 -710 l-119 0 l0 321 l-346 0 l0 -321 l-118 0 l0 710 l118 0 l0 -289 l346 0 l0 289 l119 0 Z" /><glyph glyph-name="Theta" unicode="&#x398;" d="M734 355 q2 -162 -95 -267 q-97 -105 -253 -104 q-158 0 -253.5 103.5 q-95.5 103.5 -95.5 267.5 q0 164 95.5 267.5 q95.5 103.5 253.5 103.5 q156 1 253 -104 q97 -105 95 -267 ZM222 548.5 q-62 -73.5 -62 -193.5 q0 -120 62 -193.5 q62 -73.5 164 -73.5 q102 0 163.5 73.5 q61.5 73.5 61.5 193.5 q0 120 -61.5 193.5 q-61.5 73.5 -163.5 73.5 q-102 0 -164 -73.5 ZM239 414 l292 0 l0 -97 l-292 0 l0 97 Z" /><glyph glyph-name="Iota" unicode="&#x399;" d="M202 710 l0 -710 l-118 0 l0 710 l118 0 Z" /><glyph glyph-name="Kappa" unicode="&#x39a;" d="M540 0 l-226 350 l-119 -123 l0 -227 l-118 0 l0 710 l118 0 l0 -339 l317 339 l147 0 l-266 -276 l281 -434 l-134 0 Z" /><glyph glyph-name="Lambda" unicode="&#x39b;" d="M400 710 l237 -710 l-122 0 l-113 345 q-46 143 -78 255 q-17 -63 -65 -215 l-12 -38 l-112 -347 l-121 0 l238 710 l148 0 Z" /><glyph glyph-name="Mu" unicode="&#x39c;" d="M630 710 l185 0 l0 -710 l-115 0 l0 358 q0 110 4 265 l-48 -149 l-38 -116 l-119 -358 l-104 0 l-121 358 q-14 45 -30 89 l-56 170 q2 -226 2 -260 l0 -357 l-113 0 l0 710 l187 0 l101 -300 q50 -141 83 -262 q33 116 82 262 l100 300 Z" /><glyph glyph-name="Nu" unicode="&#x39d;" d="M547 710 l115 0 l0 -710 l-128 0 l-193 304 q-112 174 -154 250 q5 -117 5 -275 l0 -279 l-115 0 l0 710 l130 0 l201 -316 l19 -30 q99 -159 125 -206 q-5 112 -5 264 l0 288 Z" /><glyph glyph-name="Xi" unicode="&#x39e;" d="M54 604 l0 106 l544 0 l0 -106 l-544 0 ZM90 314 l0 105 l473 0 l0 -105 l-473 0 ZM46 0 l0 106 l561 0 l0 -106 l-561 0 Z" /><glyph glyph-name="Omicron" unicode="&#x39f;" d="M727 355 q2 -161 -93.5 -267 q-95.5 -106 -250.5 -104 q-156 0 -250.5 104.5 q-94.5 104.5 -94.5 266.5 q0 162 94.5 266.5 q94.5 104.5 250.5 104.5 q155 2 250.5 -104 q95.5 -106 93.5 -267 ZM221 548 q-62 -74 -62 -193 q0 -119 62 -193 q62 -74 162 -74 q101 0 162 73.5 q61 73.5 61 193.5 q0 120 -61 193.5 q-61 73.5 -162 73.5 q-100 0 -162 -74 Z" /><glyph glyph-name="Pi" unicode="&#x3a0;" d="M646 0 l-119 0 l0 610 l-332 0 l0 -610 l-118 0 l0 710 l569 0 l0 -710 Z" /><glyph glyph-name="Rho" unicode="&#x3a1;" d="M571 651 q64 -58 64 -160 q0 -102 -64 -160 q-62 -58 -169 -58 l-207 0 l0 -273 l-118 0 l0 710 l325 0 q105 0 169 -59 ZM383 612 l-188 0 l0 -241 l188 0 q63 0 98.5 31.5 q35.5 31.5 35.5 88.5 q0 58 -35.5 89.5 q-35.5 31.5 -98.5 31.5 Z" /><glyph glyph-name="Sigma" unicode="&#x3a3;" d="M182 100 l387 0 l0 -100 l-526 0 l0 96 l214 267 l-207 246 l0 101 l513 0 l0 -100 l-372 0 l206 -245 l-215 -265 Z" /><glyph glyph-name="Tau" unicode="&#x3a4;" d="M585 710 l0 -101 l-219 0 l0 -609 l-119 0 l0 609 l-218 0 l0 101 l556 0 Z" /><glyph glyph-name="Upsilon" unicode="&#x3a5;" d="M504 710 l127 0 l-251 -410 l0 -300 l-119 0 l0 301 l-250 409 l131 0 l181 -305 l181 305 Z" /><glyph glyph-name="Phi" unicode="&#x3a6;" d="M476 57 l0 -63 l-119 0 l0 63 q-153 9 -237 91.5 q-84 82.5 -84 211.5 q0 129 84 211.5 q84 82.5 237 91.5 l0 53 l119 0 l0 -53 q152 -9 237 -91.5 q85 -82.5 85 -211.5 q0 -129 -85 -211.5 q-85 -82.5 -237 -91.5 ZM359 153 l0 414 q-98 -9 -151 -63 q-53 -54 -53 -144 q0 -90 53 -144 q53 -54 151 -63 ZM625 216 q53 54 53 144 q0 90 -53 144 q-53 54 -151 63 l0 -414 q98 9 151 63 Z" /><glyph glyph-name="Chi" unicode="&#x3a7;" d="M666 0 l-133 0 l-195 290 l-196 -290 l-131 0 l256 376 l-231 334 l134 0 l170 -251 l169 251 l132 0 l-232 -335 l257 -375 Z" /><glyph glyph-name="Psi" unicode="&#x3a8;" d="M635 710 l119 0 l0 -298 q0 -252 -283 -263 l0 -149 l-119 0 l0 150 q-282 10 -282 262 l0 298 l118 0 l0 -295 q0 -151 164 -164 l0 459 l119 0 l0 -459 q164 13 164 164 l0 295 Z" /><glyph glyph-name="uni03A9" unicode="&#x3a9;" d="M605 100 l120 0 l0 -100 l-276 0 l0 100 q156 68 156 260 q0 118 -61 190 q-61 72 -162 72 q-99 0 -161 -72.5 q-62 -72.5 -62 -189.5 q0 -192 156 -260 l0 -100 l-276 0 l0 100 l121 0 q-59 42 -90 110 q-31 68 -31 151 q0 160 94 262.5 q94 102.5 249 102.5 q155 2 250.5 -102 q95.5 -104 93.5 -263 q0 -83 -31 -151 q-31 -68 -90 -110 Z" /><glyph glyph-name="Iotadieresis" unicode="&#x3aa;" d="M202 710 l0 -710 l-118 0 l0 710 l118 0 ZM103 903 l0 -113 l-107 0 l0 113 l107 0 ZM291 903 l0 -113 l-107 0 l0 113 l107 0 Z" /><glyph glyph-name="Upsilondieresis" unicode="&#x3ab;" d="M504 710 l127 0 l-251 -410 l0 -300 l-119 0 l0 301 l-250 409 l131 0 l181 -305 l181 305 ZM281 903 l0 -113 l-107 0 l0 113 l107 0 ZM469 903 l0 -113 l-107 0 l0 113 l107 0 Z" /><glyph glyph-name="alphatonos" unicode="&#x3ac;" d="M423 502 l103 0 l0 -502 l-103 0 l0 71 q-55 -85 -166 -85 q-97 0 -160 73.5 q-63 73.5 -63 191.5 q0 118 63.5 191.5 q63.5 73.5 159.5 73.5 q112 0 166 -84 l0 70 ZM380.5 126 q38.5 47 38.5 125 q0 78 -38.5 124.5 q-38.5 46.5 -100.5 46.5 q-59 0 -96 -47 q-37 -47 -37 -124 q0 -78 36 -125 q36 -47 97 -47 q62 0 100.5 47 ZM332 576 l-93 0 l38 146 l120 0 l-65 -146 Z" /><glyph glyph-name="epsilontonos" unicode="&#x3ad;" d="M441 142 l61 -70 q-98 -87 -233 -87 q-235 0 -235 153 q0 92 102 127 q-83 35 -83 113 q0 65 60.5 102.5 q60.5 37.5 161.5 37.5 q69 0 119.5 -17 q50.5 -17 103.5 -59 l-59 -72 q-80 60 -162 60 q-54 0 -83 -17 q-29 -17 -29 -45 q0 -31 25.5 -48.5 q25.5 -17.5 73.5 -17.5 l78 0 l0 -79 l-77 0 q-119 0 -119 -74 q0 -72 123 -72 q98 0 172 65 ZM328 576 l-93 0 l38 146 l120 0 l-65 -146 Z" /><glyph glyph-name="etatonos" unicode="&#x3ae;" d="M499 344 l0 -524 l-110 0 l0 492 q0 55 -27 83.5 q-27 28.5 -77 28.5 q-48 0 -80.5 -33 q-32.5 -33 -32.5 -84 l0 -307 l-110 0 l0 502 l102 0 l0 -60 q51 76 155 76 q85 0 132.5 -47.5 q47.5 -47.5 47.5 -126.5 ZM328 576 l-93 0 l38 146 l120 0 l-65 -146 Z" /><glyph glyph-name="iotatonos" unicode="&#x3af;" d="M172 0 l-110 0 l0 502 l110 0 l0 -502 ZM166 576 l-93 0 l38 146 l120 0 l-65 -146 Z" /><glyph glyph-name="upsilondieresistonos" unicode="&#x3b0;" d="M60 194 l0 308 l110 0 l0 -301 q0 -61 24 -92 q24 -31 79 -31 q56 0 81 31 q25 31 25 92 l0 301 l110 0 l0 -308 q0 -100 -54 -154.5 q-54 -54.5 -161 -54.5 q-106 0 -160 54.5 q-54 54.5 -54 154.5 ZM228 587 l21 135 l111 0 l-51 -135 l-81 0 ZM101 587 l0 99 l100 0 l0 -99 l-100 0 ZM369 587 l0 99 l100 0 l0 -99 l-100 0 Z" /><glyph glyph-name="alpha" unicode="&#x3b1;" d="M423 502 l103 0 l0 -502 l-103 0 l0 71 q-55 -85 -166 -85 q-97 0 -160 73.5 q-63 73.5 -63 191.5 q0 118 63.5 191.5 q63.5 73.5 159.5 73.5 q112 0 166 -84 l0 70 ZM380.5 126 q38.5 47 38.5 125 q0 78 -38.5 124.5 q-38.5 46.5 -100.5 46.5 q-59 0 -96 -47 q-37 -47 -37 -124 q0 -78 36 -125 q36 -47 97 -47 q62 0 100.5 47 Z" /><glyph glyph-name="beta" unicode="&#x3b2;" d="M553 197 q0 -93 -61.5 -151.5 q-61.5 -58.5 -165.5 -58.5 q-104 0 -154 81 l0 -248 l-110 0 l0 673 q0 107 63 169.5 q63 62.5 166 62.5 q106 0 165.5 -51.5 q59.5 -51.5 59.5 -134.5 q0 -55 -28 -95.5 q-28 -40.5 -74 -59.5 q65 -18 102 -67 q37 -49 37 -120 ZM406.5 113.5 q33.5 34.5 33.5 92.5 q0 58 -38 91 q-38 33 -100 33 l-51 0 l0 90 l54 0 q45 0 73.5 31 q28.5 31 28.5 78 q0 48 -30.5 75.5 q-30.5 27.5 -84.5 27.5 q-56 0 -88 -39 q-32 -39 -32 -103 l0 -244 q0 -75 39.5 -121 q39.5 -46 102.5 -46 q59 0 92.5 34.5 Z" /><glyph glyph-name="gamma" unicode="&#x3b3;" d="M198 -180 l0 179 l-186 503 l116 0 l59 -170 q46 -137 67 -210 q31 106 65 209 l59 171 l114 0 l-183 -502 l0 -180 l-111 0 Z" /><glyph glyph-name="delta" unicode="&#x3b4;" d="M32 235 q0 97 58.5 168 q58.5 71 154.5 75 l15 -1 l-170 149 l0 84 l394 0 l0 -89 l-238 0 l176 -155 q121 -105 121 -231 q0 -105 -71.5 -177.5 q-71.5 -72.5 -183.5 -72.5 q-112 0 -184 70.5 q-72 70.5 -72 179.5 ZM430 236 q0 64 -37.5 112 q-37.5 48 -103.5 48 q-67 0 -106 -46.5 q-39 -46.5 -39 -113.5 q0 -62 38.5 -110 q38.5 -48 105.5 -48 q65 0 103.5 46 q38.5 46 38.5 112 Z" /><glyph glyph-name="epsilon" unicode="&#x3b5;" d="M441 142 l61 -70 q-98 -87 -233 -87 q-235 0 -235 153 q0 92 102 127 q-83 35 -83 113 q0 65 60.5 102.5 q60.5 37.5 161.5 37.5 q69 0 119.5 -17 q50.5 -17 103.5 -59 l-59 -72 q-80 60 -162 60 q-54 0 -83 -17 q-29 -17 -29 -45 q0 -31 25.5 -48.5 q25.5 -17.5 73.5 -17.5 l78 0 l0 -79 l-77 0 q-119 0 -119 -74 q0 -72 123 -72 q98 0 172 65 Z" /><glyph glyph-name="zeta" unicode="&#x3b6;" d="M386 -176 l-57 59 q54 48 54 77 q0 40 -49 40 l-64 0 q-103 0 -169 52.5 q-66 52.5 -66 147.5 q0 223 266 421 l-237 0 l0 89 l393 0 l0 -82 q-309 -217 -309 -425 q0 -110 129 -110 l66 0 q64 0 100.5 -29.5 q36.5 -29.5 36.5 -83.5 q0 -42 -23 -76.5 q-23 -34.5 -71 -79.5 Z" /><glyph glyph-name="eta" unicode="&#x3b7;" d="M499 344 l0 -524 l-110 0 l0 492 q0 55 -27 83.5 q-27 28.5 -77 28.5 q-48 0 -80.5 -33 q-32.5 -33 -32.5 -84 l0 -307 l-110 0 l0 502 l102 0 l0 -60 q51 76 155 76 q85 0 132.5 -47.5 q47.5 -47.5 47.5 -126.5 Z" /><glyph glyph-name="theta" unicode="&#x3b8;" d="M452 46 q-62 -61 -160 -61 q-98 0 -159 61 q-49 49 -68 123 q-19 74 -19 187 q0 113 19 187 q19 74 68 123 q61 61 159 61 q98 0 160 -61 q49 -49 67.5 -123 q18.5 -74 18.5 -187 q0 -113 -18.5 -187 q-18.5 -74 -67.5 -123 ZM157 401 l269 0 q-5 134 -46 192 q-33 41 -88 41 q-53 0 -88 -41 q-42 -54 -47 -192 ZM426 319 l-269 0 q1 -139 47 -200 q35 -41 88 -41 q55 0 88 41 q41 56 46 200 Z" /><glyph glyph-name="iota" unicode="&#x3b9;" d="M172 0 l-110 0 l0 502 l110 0 l0 -502 Z" /><glyph glyph-name="kappa" unicode="&#x3ba;" d="M405 0 l-152 235 l-81 -84 l0 -151 l-110 0 l0 502 l110 0 l0 -228 l210 228 l126 0 l-180 -193 l199 -309 l-122 0 Z" /><glyph glyph-name="lambda" unicode="&#x3bb;" d="M278 596 l213 -596 l-114 0 l-56 162 q-27 78 -48 150 q-5 13 -10.5 31.5 q-5.5 18.5 -6.5 21.5 q-36 -113 -69 -203 l-60 -162 l-116 0 l194 503 l-22 67 q-23 66 -74 66 q-30 0 -60 -10 l-21 85 q39 16 92 16 q61 0 97.5 -30.5 q36.5 -30.5 60.5 -100.5 Z" /><glyph glyph-name="uni03BC" unicode="&#x3bc;" d="M381 502 l110 0 l0 -502 l-100 0 l0 66 q-40 -81 -130 -81 q-58 0 -89 28 l0 -196 l-110 0 l0 685 l110 0 l0 -326 q0 -95 98 -95 q51 0 81 30.5 q30 30.5 30 86.5 l0 304 Z" /><glyph glyph-name="nu" unicode="&#x3bd;" d="M377 502 l114 0 l-173 -502 l-135 0 l-172 502 l116 0 l55 -173 q36 -108 70 -238 q34 130 70 238 l55 173 Z" /><glyph glyph-name="xi" unicode="&#x3be;" d="M386 -176 l-57 59 q54 48 54 77 q0 40 -49 40 l-64 0 q-106 0 -170 51 q-65 53 -65 144 q0 72 36.5 119.5 q36.5 47.5 97.5 63.5 q-42 14 -67 48.5 q-25 34.5 -25 79.5 q0 40 20 72 q20 32 60 47 l-108 0 l0 85 l408 0 l0 -89 l-132 0 q-64 0 -99.5 -27 q-35.5 -27 -35.5 -81 q0 -44 29.5 -70.5 q29.5 -26.5 75.5 -26.5 l136 0 l0 -90 l-134 0 q-70 0 -109.5 -31.5 q-39.5 -31.5 -39.5 -92.5 q0 -109 129 -109 l66 0 q64 0 100.5 -29.5 q36.5 -29.5 36.5 -83.5 q0 -42 -23 -76.5 q-23 -34.5 -71 -79.5 Z" /><glyph glyph-name="omicron" unicode="&#x3bf;" d="M545 251 q0 -117 -71.5 -191.5 q-71.5 -74.5 -183.5 -74.5 q-113 0 -184.5 74 q-71.5 74 -71.5 192 q0 119 71.5 193 q71.5 74 184.5 74 q112 0 183.5 -74.5 q71.5 -74.5 71.5 -192.5 ZM146 251 q0 -78 39 -125.5 q39 -47.5 105 -47.5 q64 0 103.5 47.5 q39.5 47.5 39.5 125.5 q0 79 -39 126.5 q-39 47.5 -104 47.5 q-66 0 -105 -47.5 q-39 -47.5 -39 -126.5 Z" /><glyph glyph-name="pi" unicode="&#x3c0;" d="M595 93 l12 -87 q-51 -17 -93 -17 q-71 0 -100 32.5 q-29 32.5 -29 105.5 l0 289 l-168 0 l0 -416 l-110 0 l0 416 l-91 0 l0 86 l566 0 l0 -86 l-87 0 l0 -277 q0 -31 10.5 -43.5 q10.5 -12.5 35.5 -12.5 q21 0 54 10 Z" /><glyph glyph-name="rho" unicode="&#x3c1;" d="M476 443.5 q69 -74.5 69 -192.5 q0 -118 -62 -191 q-62 -73 -160 -73 q-107 0 -159 72 l0 -239 l-110 0 l0 431 q0 120 65.5 193.5 q65.5 73.5 175.5 73.5 q112 0 181 -74.5 ZM433 252 q0 78 -37.5 125.5 q-37.5 47.5 -100.5 47.5 q-62 0 -98.5 -47.5 q-36.5 -47.5 -36.5 -125.5 q0 -77 39 -124 q39 -47 100 -47 q60 0 97 47 q37 47 37 124 Z" /><glyph glyph-name="uni03C2" unicode="&#x3c2;" d="M349 -176 l-56 59 l20 20 q31 30 31 53 q0 16 -16.5 26 q-16.5 10 -62.5 23 q-231 66 -231 255 q0 116 69 187 q69 71 181 71 q63 0 111 -22 q48 -22 96 -73 l-69 -68 q-40 40 -70.5 55 q-30.5 15 -67.5 15 q-65 0 -101 -49 q-36 -48 -36 -117 q0 -59 34 -99.5 q34 -40.5 97 -58.5 q56 -17 86 -30 q78 -30 78 -98 q0 -38 -22.5 -71.5 q-22.5 -33.5 -70.5 -77.5 Z" /><glyph glyph-name="sigma" unicode="&#x3c3;" d="M573 502 l0 -89 l-117 0 q85 -57 85 -168 q0 -115 -70.5 -187.5 q-70.5 -72.5 -182.5 -72.5 q-112 0 -184 73.5 q-72 73.5 -72 187.5 q0 115 71 185.5 q71 70.5 185 70.5 l285 0 ZM430 246 q0 75 -38.5 121 q-38.5 46 -103.5 46 q-66 0 -104.5 -45.5 q-38.5 -45.5 -38.5 -121.5 q0 -73 39 -121 q39 -47 104 -47 q63 0 102.5 47.5 q39.5 47.5 39.5 120.5 Z" /><glyph glyph-name="tau" unicode="&#x3c4;" d="M424 413 l-150 0 l0 -272 q0 -31 13 -43.5 q13 -12.5 42 -12.5 q23 0 65 11 l15 -88 q-51 -19 -107 -19 q-73 0 -105.5 32.5 q-32.5 32.5 -32.5 100.5 l0 291 l-149 0 l0 89 l409 0 l0 -89 Z" /><glyph glyph-name="upsilon" unicode="&#x3c5;" d="M60 194 l0 308 l110 0 l0 -301 q0 -61 24 -92 q24 -31 79 -31 q56 0 81 31 q25 31 25 92 l0 301 l110 0 l0 -308 q0 -100 -54 -154.5 q-54 -54.5 -161 -54.5 q-106 0 -160 54.5 q-54 54.5 -54 154.5 Z" /><glyph glyph-name="phi" unicode="&#x3c6;" d="M311 -180 l0 165 q-133 5 -206 72 q-73 67 -73 188 q0 96 41 163 q43 67 154 110 l36 -90 q-66 -28 -92 -71.5 q-26 -43.5 -26 -111.5 q0 -164 166 -168 l0 255 q0 90 47 138 q47 48 128 48 q96 0 155.5 -68.5 q59.5 -68.5 59.5 -188.5 q0 -128 -74 -200 q-74 -72 -205 -76 l0 -165 l-111 0 ZM589 261 q0 78 -27.5 121 q-27.5 43 -75.5 43 q-64 0 -64 -101 l0 -247 q167 8 167 184 Z" /><glyph glyph-name="chi" unicode="&#x3c7;" d="M502 -180 l-119 0 l-127 245 l-129 -245 l-118 0 l185 338 l-181 344 l119 0 l122 -239 l127 239 l116 0 l-179 -332 l184 -350 Z" /><glyph glyph-name="psi" unicode="&#x3c8;" d="M581 502 l111 0 l0 -249 q0 -131 -64.5 -196.5 q-64.5 -65.5 -197.5 -70.5 l0 -166 l-110 0 l0 166 q-133 5 -197.5 70.5 q-64.5 65.5 -64.5 196.5 l0 249 l111 0 l0 -249 q0 -87 35.5 -128.5 q35.5 -41.5 115.5 -45.5 l0 585 l110 0 l0 -585 q80 4 115.5 45.5 q35.5 41.5 35.5 128.5 l0 249 Z" /><glyph glyph-name="omega" unicode="&#x3c9;" d="M465 428 l34 90 q106 -39 153.5 -107 q47.5 -68 47.5 -172 q0 -111 -49.5 -182.5 q-49.5 -71.5 -136.5 -71.5 q-57 0 -95.5 28 q-38.5 28 -52.5 79 q-14 -51 -52.5 -79 q-38.5 -28 -94.5 -28 q-87 0 -137 71.5 q-50 71.5 -50 182.5 q0 104 47.5 172 q47.5 68 153.5 107 l35 -90 q-123 -49 -123 -191 q0 -71 23.5 -115 q23.5 -44 62.5 -44 q80 0 80 121 l0 144 l111 0 l0 -144 q0 -121 79 -121 q39 0 63 44.5 q24 44.5 24 114.5 q0 142 -123 191 Z" /><glyph glyph-name="iotadieresis" unicode="&#x3ca;" d="M172 0 l-110 0 l0 502 l110 0 l0 -502 ZM76 702 l0 -113 l-107 0 l0 113 l107 0 ZM264 702 l0 -113 l-107 0 l0 113 l107 0 Z" /><glyph glyph-name="upsilondieresis" unicode="&#x3cb;" d="M60 194 l0 308 l110 0 l0 -301 q0 -61 24 -92 q24 -31 79 -31 q56 0 81 31 q25 31 25 92 l0 301 l110 0 l0 -308 q0 -100 -54 -154.5 q-54 -54.5 -161 -54.5 q-106 0 -160 54.5 q-54 54.5 -54 154.5 ZM234 702 l0 -113 l-107 0 l0 113 l107 0 ZM422 702 l0 -113 l-107 0 l0 113 l107 0 Z" /><glyph glyph-name="omicrontonos" unicode="&#x3cc;" d="M545 251 q0 -117 -71.5 -191.5 q-71.5 -74.5 -183.5 -74.5 q-113 0 -184.5 74 q-71.5 74 -71.5 192 q0 119 71.5 193 q71.5 74 184.5 74 q112 0 183.5 -74.5 q71.5 -74.5 71.5 -192.5 ZM146 251 q0 -78 39 -125.5 q39 -47.5 105 -47.5 q64 0 103.5 47.5 q39.5 47.5 39.5 125.5 q0 79 -39 126.5 q-39 47.5 -104 47.5 q-66 0 -105 -47.5 q-39 -47.5 -39 -126.5 ZM332 576 l-93 0 l38 146 l120 0 l-65 -146 Z" /><glyph glyph-name="upsilontonos" unicode="&#x3cd;" d="M60 194 l0 308 l110 0 l0 -301 q0 -61 24 -92 q24 -31 79 -31 q56 0 81 31 q25 31 25 92 l0 301 l110 0 l0 -308 q0 -100 -54 -154.5 q-54 -54.5 -161 -54.5 q-106 0 -160 54.5 q-54 54.5 -54 154.5 ZM322 576 l-93 0 l38 146 l120 0 l-65 -146 Z" /><glyph glyph-name="omegatonos" unicode="&#x3ce;" d="M465 428 l34 90 q106 -39 153.5 -107 q47.5 -68 47.5 -172 q0 -111 -49.5 -182.5 q-49.5 -71.5 -136.5 -71.5 q-57 0 -95.5 28 q-38.5 28 -52.5 79 q-14 -51 -52.5 -79 q-38.5 -28 -94.5 -28 q-87 0 -137 71.5 q-50 71.5 -50 182.5 q0 104 47.5 172 q47.5 68 153.5 107 l35 -90 q-123 -49 -123 -191 q0 -71 23.5 -115 q23.5 -44 62.5 -44 q80 0 80 121 l0 144 l111 0 l0 -144 q0 -121 79 -121 q39 0 63 44.5 q24 44.5 24 114.5 q0 142 -123 191 ZM417 576 l-93 0 l38 146 l120 0 l-65 -146 Z" /><glyph glyph-name="uni0401" unicode="&#x401;" d="M564 710 l0 -100 l-369 0 l0 -194 l344 0 l0 -99 l-344 0 l0 -217 l379 0 l0 -100 l-497 0 l0 710 l487 0 ZM284 903 l0 -113 l-107 0 l0 113 l107 0 ZM472 903 l0 -113 l-107 0 l0 113 l107 0 Z" /><glyph glyph-name="uni0402" unicode="&#x402;" d="M759 219 q0 -104 -61 -168 q-60 -64 -170 -64 q-39 0 -100 11 l17 96 q53 -8 74 -8 q121 0 121 130 q0 65 -39.5 97.5 q-39.5 32.5 -110.5 32.5 q-81 0 -156 -27 l0 -319 l-118 0 l0 610 l-187 0 l0 100 l536 0 l0 -100 l-231 0 l0 -191 q73 31 169 31 q125 0 190.5 -60 q65.5 -60 65.5 -171 Z" /><glyph glyph-name="uni0403" unicode="&#x403;" d="M543 610 l-348 0 l0 -610 l-118 0 l0 710 l466 0 l0 -100 ZM459 914 l-94 -143 l-97 0 l70 143 l121 0 Z" /><glyph glyph-name="uni0404" unicode="&#x404;" d="M587 184 l70 -80 q-67 -64 -130 -92 q-63 -28 -143 -28 q-155 -2 -251.5 104 q-96.5 106 -94.5 268 q-2 161 94 266.5 q96 105.5 255 103.5 q75 0 135 -24 q60 -24 124 -79 l-70 -82 q-53 46 -97 64 q-44 18 -94 18 q-92 0 -152 -55.5 q-60 -55.5 -74 -152.5 l313 0 l0 -98 l-315 0 q10 -105 70.5 -167.5 q60.5 -62.5 153.5 -62.5 q55 0 100 22 q45 22 106 75 Z" /><glyph glyph-name="uni0405" unicode="&#x405;" d="M591 618 l-69 -82 q-61 50 -105 68 q-44 19 -105 19 q-65 0 -104.5 -28 q-39.5 -28 -39.5 -71 q0 -32 18 -50 q20 -18 54 -30 q40 -13 110 -29 q141 -35 194 -76.5 q53 -41.5 56 -129.5 q0 -100 -75 -162.5 q-75 -62.5 -197 -62.5 q-90 0 -160 29 q-67 28 -148 98 l71 83 q75 -64 124 -85 q51 -22 115 -22 q69 0 111 30.5 q42 30.5 42 83.5 q0 37 -22 56 q-23 20 -55 30 q-40 13 -112 29 q-139 33 -191 76.5 q-52 43.5 -52 127.5 q0 89 75 147.5 q75 58.5 188 58.5 q85 0 147 -25 q64 -26 130 -83 Z" /><glyph glyph-name="uni0406" unicode="&#x406;" d="M202 710 l0 -710 l-118 0 l0 710 l118 0 Z" /><glyph glyph-name="uni0407" unicode="&#x407;" d="M202 710 l0 -710 l-118 0 l0 710 l118 0 ZM103 903 l0 -113 l-107 0 l0 113 l107 0 ZM291 903 l0 -113 l-107 0 l0 113 l107 0 Z" /><glyph glyph-name="uni0408" unicode="&#x408;" d="M396 710 l0 -523 q0 -100 -53 -150.5 q-53 -50.5 -151 -50.5 q-92 0 -184 45 l37 94 q84 -34 142 -34 q91 0 91 108 l0 511 l118 0 Z" /><glyph glyph-name="uni0409" unicode="&#x409;" d="M1093 220 q0 -102 -66 -161 q-65 -59 -172 -59 l-307 0 l0 610 l-268 0 l-2 -304 q-2 -172 -37 -241 q-35 -69 -142 -73 q-43 0 -76 10 l13 100 q25 -5 49 -5 q39 0 55 24 q16 25 21 69 q5 45 6 136 l2 384 l497 0 l0 -270 l189 0 q107 0 172.5 -60 q65.5 -60 65.5 -160 ZM938.5 129.5 q36.5 31.5 36.5 90.5 q0 59 -36.5 90.5 q-36.5 31.5 -102.5 31.5 l-170 0 l0 -244 l170 0 q66 0 102.5 31.5 Z" /><glyph glyph-name="uni040A" unicode="&#x40a;" d="M1087 215 q0 -99 -65 -158 q-64 -57 -171 -57 l-310 0 l0 333 l-346 0 l0 -333 l-118 0 l0 710 l118 0 l0 -279 l346 0 l0 279 l119 0 l0 -279 l191 0 q108 0 172 -57.5 q64 -57.5 64 -158.5 ZM969 215 q0 57 -36 87.5 q-36 30.5 -101 30.5 l-172 0 l0 -235 l172 0 q64 0 100.5 30.5 q36.5 30.5 36.5 86.5 Z" /><glyph glyph-name="uni040B" unicode="&#x40b;" d="M754 226 l0 -226 l-119 0 l0 225 q0 64 -35 92.5 q-35 28.5 -110 28.5 q-87 0 -156 -29 l0 -317 l-118 0 l0 610 l-187 0 l0 100 l536 0 l0 -100 l-231 0 l0 -191 q72 31 169 31 q130 0 190.5 -56.5 q60.5 -56.5 60.5 -167.5 Z" /><glyph glyph-name="uni040C" unicode="&#x40c;" d="M540 0 l-227 321 l-118 0 l0 -321 l-118 0 l0 710 l118 0 l0 -289 l119 0 l216 289 l134 0 l-254 -335 l266 -375 l-136 0 ZM481 914 l-94 -143 l-97 0 l70 143 l121 0 Z" /><glyph glyph-name="uni040E" unicode="&#x40e;" d="M625 710 l-117 0 l-184 -420 l-190 420 l-124 0 l258 -548 l-4 -8 q-27 -64 -87 -64 q-25 0 -65 9 l-22 -100 q52 -13 93 -13 q68 0 106 32 q37 32 72 108 l264 584 ZM487 903 q0 -70 -45 -105 q-45 -35 -124 -35 q-80 0 -125 35 q-45 35 -45 105 l90 0 q0 -72 80 -72 q80 0 80 72 l89 0 Z" /><glyph glyph-name="uni040F" unicode="&#x40f;" d="M77 710 l118 0 l0 -610 l328 0 l0 610 l118 0 l0 -710 l-224 0 l0 -156 l-116 0 l0 156 l-224 0 l0 710 Z" /><glyph glyph-name="uni0410" unicode="&#x410;" d="M557 0 l-56 160 l-313 0 l-55 -160 l-120 0 l256 710 l155 0 l256 -710 l-123 0 ZM222 258 l245 0 l-30 87 l-23 67 q-50 141 -69 208 q-23 -76 -85 -253 l-8 -23 l-30 -86 Z" /><glyph glyph-name="uni0411" unicode="&#x411;" d="M77 0 l0 710 l495 0 l0 -100 l-377 0 l0 -180 l192 0 q105 0 169 -58 q65 -59 65 -157 q0 -98 -65 -157 q-64 -58 -169 -58 l-310 0 ZM195 98 l173 0 q64 0 99.5 30.5 q35.5 30.5 35.5 86.5 q0 56 -35.5 86.5 q-35.5 30.5 -99.5 30.5 l-173 0 l0 -234 Z" /><glyph glyph-name="uni0412" unicode="&#x412;" d="M640 200 q0 -92 -59.5 -146 q-59.5 -54 -159.5 -54 l-344 0 l0 710 l327 0 q95 0 153 -48 q58 -48 58 -134 q0 -57 -29.5 -97 q-29.5 -40 -81.5 -58 q65 -19 100.5 -63 q35.5 -44 35.5 -110 ZM195 617 l0 -200 l182 0 q58 0 90.5 27.5 q32.5 27.5 32.5 75.5 q0 97 -123 97 l-182 0 ZM485 123.5 q37 30.5 37 84.5 q0 54 -37.5 85 q-37.5 31 -103.5 31 l-186 0 l0 -231 l185 0 q68 0 105 30.5 Z" /><glyph glyph-name="uni0413" unicode="&#x413;" d="M543 610 l-348 0 l0 -610 l-118 0 l0 710 l466 0 l0 -100 Z" /><glyph glyph-name="uni0414" unicode="&#x414;" d="M165 710 l492 0 l0 -610 l87 0 l0 -248 l-116 0 l0 148 l-491 0 l0 -148 l-116 0 l0 248 l62 0 q33 48 56 125 q23 77 24 216 l2 269 ZM206 100 l333 0 l0 510 l-264 0 l-2 -173 q-1 -143 -21 -219 q-18 -77 -46 -118 Z" /><glyph glyph-name="uni0415" unicode="&#x415;" d="M564 710 l0 -100 l-369 0 l0 -194 l344 0 l0 -99 l-344 0 l0 -217 l379 0 l0 -100 l-497 0 l0 710 l487 0 Z" /><glyph glyph-name="uni0416" unicode="&#x416;" d="M879 0 l-211 321 l-98 0 l0 -321 l-114 0 l0 321 l-98 0 l-210 -321 l-138 0 l250 376 l-237 334 l135 0 l201 -289 l97 0 l0 289 l114 0 l0 -289 l97 0 l202 289 l134 0 l-237 -334 l251 -376 l-138 0 Z" /><glyph glyph-name="uni0417" unicode="&#x417;" d="M614 206 q0 -101 -78.5 -161.5 q-78.5 -60.5 -209.5 -60.5 q-169 0 -297 118 l69 81 q58 -51 110.5 -73.5 q52.5 -22.5 118.5 -22.5 q79 0 124 32 q45 32 45 92 q0 50 -38.5 78 q-38.5 28 -113.5 28 l-137 0 l0 96 l133 0 q135 0 135 103 q0 48 -40 77.5 q-40 29.5 -107 29.5 q-60 0 -107 -19 q-47 -19 -101 -65 l-70 81 q65 56 130 81 q65 25 146 25 q123 0 194 -54 q71 -54 71 -147 q0 -111 -107 -154 q130 -43 130 -165 Z" /><glyph glyph-name="uni0418" unicode="&#x418;" d="M533 710 l129 0 l0 -710 l-115 0 l0 279 q0 177 7 295 q-50 -90 -160 -268 l-190 -306 l-127 0 l0 710 l115 0 l0 -288 q0 -181 -6 -283 q70 127 150 253 l197 318 Z" /><glyph glyph-name="uni0419" unicode="&#x419;" d="M662 710 l-129 0 l-197 -318 q-80 -126 -150 -253 q6 102 6 283 l0 288 l-115 0 l0 -710 l127 0 l190 306 q110 178 160 268 q-7 -118 -7 -295 l0 -279 l115 0 l0 710 ZM539 903 q0 -70 -45 -105 q-45 -35 -124 -35 q-80 0 -125 35 q-45 35 -45 105 l90 0 q0 -72 80 -72 q80 0 80 72 l89 0 Z" /><glyph glyph-name="uni041A" unicode="&#x41a;" d="M540 0 l-227 321 l-118 0 l0 -321 l-118 0 l0 710 l118 0 l0 -289 l119 0 l216 289 l134 0 l-254 -335 l266 -375 l-136 0 Z" /><glyph glyph-name="uni041B" unicode="&#x41b;" d="M23 2 l13 100 q25 -5 49 -5 q39 0 55 24 q16 25 21 69 q5 45 6 136 l2 384 l497 0 l0 -710 l-118 0 l0 610 l-268 0 l-2 -304 q-2 -172 -37 -241 q-35 -69 -142 -73 q-43 0 -76 10 Z" /><glyph glyph-name="uni041C" unicode="&#x41c;" d="M630 710 l185 0 l0 -710 l-115 0 l0 358 q0 110 4 265 l-48 -149 l-38 -116 l-119 -358 l-104 0 l-121 358 q-14 45 -30 89 l-56 170 q2 -226 2 -260 l0 -357 l-113 0 l0 710 l187 0 l101 -300 q50 -141 83 -262 q33 116 82 262 l100 300 Z" /><glyph glyph-name="uni041D" unicode="&#x41d;" d="M660 710 l0 -710 l-119 0 l0 321 l-346 0 l0 -321 l-118 0 l0 710 l118 0 l0 -289 l346 0 l0 289 l119 0 Z" /><glyph glyph-name="uni041E" unicode="&#x41e;" d="M727 355 q2 -161 -93.5 -267 q-95.5 -106 -250.5 -104 q-156 0 -250.5 104.5 q-94.5 104.5 -94.5 266.5 q0 162 94.5 266.5 q94.5 104.5 250.5 104.5 q155 2 250.5 -104 q95.5 -106 93.5 -267 ZM221 548 q-62 -74 -62 -193 q0 -119 62 -193 q62 -74 162 -74 q101 0 162 73.5 q61 73.5 61 193.5 q0 120 -61 193.5 q-61 73.5 -162 73.5 q-100 0 -162 -74 Z" /><glyph glyph-name="uni041F" unicode="&#x41f;" d="M646 0 l-119 0 l0 610 l-332 0 l0 -610 l-118 0 l0 710 l569 0 l0 -710 Z" /><glyph glyph-name="uni0420" unicode="&#x420;" d="M571 651 q64 -58 64 -160 q0 -102 -64 -160 q-62 -58 -169 -58 l-207 0 l0 -273 l-118 0 l0 710 l325 0 q105 0 169 -59 ZM383 612 l-188 0 l0 -241 l188 0 q63 0 98.5 31.5 q35.5 31.5 35.5 88.5 q0 58 -35.5 89.5 q-35.5 31.5 -98.5 31.5 Z" /><glyph glyph-name="uni0421" unicode="&#x421;" d="M647 623 l-69 -82 q-53 46 -96.5 64 q-43.5 18 -94.5 18 q-104 0 -166 -73.5 q-62 -73.5 -62 -193.5 q0 -121 61.5 -195 q61.5 -74 162.5 -74 q58 0 101 22 q45 23 104 75 l71 -80 q-69 -64 -132 -92 q-63 -28 -142 -28 q-158 0 -252.5 104 q-94.5 104 -94.5 268 q0 163 94.5 266.5 q94.5 103.5 255.5 103.5 q75 0 135 -24 q60 -24 124 -79 Z" /><glyph glyph-name="uni0422" unicode="&#x422;" d="M585 710 l0 -101 l-219 0 l0 -609 l-119 0 l0 609 l-218 0 l0 101 l556 0 Z" /><glyph glyph-name="uni0423" unicode="&#x423;" d="M508 710 l117 0 l-264 -584 q-35 -76 -72 -108 q-38 -32 -106 -32 q-41 0 -93 13 l22 100 q40 -9 65 -9 q60 0 87 64 l4 8 l-258 548 l124 0 l190 -420 l184 420 Z" /><glyph glyph-name="uni0424" unicode="&#x424;" d="M782.5 584.5 q94.5 -84.5 94.5 -224.5 q0 -140 -94.5 -224.5 q-94.5 -84.5 -255.5 -84.5 l-12 0 l0 -86 l-115 0 l0 86 l-12 0 q-161 0 -255.5 84.5 q-94.5 84.5 -94.5 224.5 q0 140 94.5 224.5 q94.5 84.5 255.5 84.5 l12 0 l0 76 l115 0 l0 -76 l12 0 q161 0 255.5 -84.5 ZM388 148 l14 0 l0 424 l-14 0 q-110 0 -170 -56 q-60 -56 -60 -156 q0 -100 60 -156 q60 -56 170 -56 ZM696 204.5 q61 56.5 61 155.5 q0 99 -61 155.5 q-61 56.5 -169 56.5 l-14 0 l0 -424 l14 0 q108 0 169 56.5 Z" /><glyph glyph-name="uni0425" unicode="&#x425;" d="M666 0 l-133 0 l-195 290 l-196 -290 l-131 0 l256 376 l-231 334 l134 0 l170 -251 l169 251 l132 0 l-232 -335 l257 -375 Z" /><glyph glyph-name="uni0426" unicode="&#x426;" d="M77 710 l118 0 l0 -610 l328 0 l0 610 l118 0 l0 -610 l86 0 l0 -248 l-115 0 l0 148 l-535 0 l0 710 Z" /><glyph glyph-name="uni0427" unicode="&#x427;" d="M479 710 l119 0 l0 -710 l-119 0 l0 287 q-77 -29 -168 -29 q-251 0 -251 223 l0 229 l119 0 l0 -228 q0 -63 35.5 -91.5 q35.5 -28.5 109.5 -28.5 q89 0 155 29 l0 319 Z" /><glyph glyph-name="uni0428" unicode="&#x428;" d="M976 710 l0 -710 l-899 0 l0 710 l118 0 l0 -610 l272 0 l0 610 l119 0 l0 -610 l271 0 l0 610 l119 0 Z" /><glyph glyph-name="uni0429" unicode="&#x429;" d="M947 -148 l0 148 l-870 0 l0 710 l118 0 l0 -610 l272 0 l0 610 l119 0 l0 -610 l271 0 l0 610 l119 0 l0 -610 l86 0 l0 -248 l-115 0 Z" /><glyph glyph-name="uni042A" unicode="&#x42a;" d="M756 220 q0 -102 -66 -161 q-65 -59 -172 -59 l-307 0 l0 610 l-182 0 l0 100 l301 0 l0 -270 l188 0 q107 0 172.5 -60 q65.5 -60 65.5 -160 ZM602 129.5 q37 31.5 37 90.5 q0 59 -37 90.5 q-37 31.5 -103 31.5 l-169 0 l0 -244 l169 0 q66 0 103 31.5 Z" /><glyph glyph-name="uni042B" unicode="&#x42b;" d="M77 0 l0 710 l118 0 l0 -270 l189 0 q107 0 172.5 -60 q65.5 -60 65.5 -160 q0 -102 -66 -161 q-65 -59 -172 -59 l-307 0 ZM195 98 l170 0 q66 0 102.5 31.5 q36.5 31.5 36.5 90.5 q0 59 -36.5 90.5 q-36.5 31.5 -102.5 31.5 l-170 0 l0 -244 ZM826 710 l0 -710 l-118 0 l0 710 l118 0 Z" /><glyph glyph-name="uni042C" unicode="&#x42c;" d="M77 0 l0 710 l118 0 l0 -270 l189 0 q107 0 172.5 -60 q65.5 -60 65.5 -160 q0 -102 -66 -161 q-65 -59 -172 -59 l-307 0 ZM195 98 l170 0 q66 0 102.5 31.5 q36.5 31.5 36.5 90.5 q0 59 -36.5 90.5 q-36.5 31.5 -102.5 31.5 l-170 0 l0 -244 Z" /><glyph glyph-name="uni042D" unicode="&#x42d;" d="M635 356 q2 -162 -94.5 -268 q-96.5 -106 -251.5 -104 q-80 0 -143 28 q-63 28 -130 92 l70 80 q61 -53 106 -75 q45 -22 100 -22 q93 0 153.5 62.5 q60.5 62.5 70.5 167.5 l-315 0 l0 98 l313 0 q-14 97 -74 152.5 q-60 55.5 -152 55.5 q-51 0 -94.5 -18 q-43.5 -18 -96.5 -64 l-70 82 q64 55 124 79 q60 24 135 24 q159 2 255 -103.5 q96 -105.5 94 -266.5 Z" /><glyph glyph-name="uni042E" unicode="&#x42e;" d="M999 355 q2 -161 -93.5 -267 q-95.5 -106 -250.5 -104 q-145 -1 -239.5 92.5 q-94.5 93.5 -104.5 240.5 l-115 0 l0 -317 l-119 0 l0 710 l119 0 l0 -294 l118 0 q18 139 109 224.5 q91 85.5 232 85.5 q155 2 250.5 -104 q95.5 -106 93.5 -267 ZM817 161.5 q61 73.5 61 193.5 q0 120 -61 193.5 q-61 73.5 -162 73.5 q-100 0 -162 -74 q-62 -74 -62 -193 q0 -119 62 -193 q62 -74 162 -74 q101 0 162 73.5 Z" /><glyph glyph-name="uni042F" unicode="&#x42f;" d="M288 710 l312 0 l0 -710 l-115 0 l0 263 l-117 0 l-201 -263 l-134 0 l208 267 q-84 14 -135 73.5 q-51 59.5 -51 146.5 q0 99 65 161 q65 62 168 62 ZM485 362 l0 250 l-176 0 q-63 0 -100 -33 q-37 -33 -37 -92 q0 -59 36.5 -92 q36.5 -33 99.5 -33 l177 0 Z" /><glyph glyph-name="uni0430" unicode="&#x430;" d="M486 343 l0 -343 l-99 0 l0 57 q-50 -73 -166 -73 q-81 0 -130.5 36 q-49.5 36 -49.5 106 q0 79 59 117 q61 40 166 59 l115 21 l0 18 q0 41 -28 63.5 q-28 22.5 -76 22.5 q-46 0 -80.5 -18.5 q-34.5 -18.5 -80.5 -64.5 l-69 64 q92 110 227 110 q101 0 156.5 -47 q55.5 -47 55.5 -128 ZM381 197 l0 46 l-87 -18 q-79 -17 -112 -36.5 q-33 -19.5 -33 -56.5 q0 -28 23.5 -44 q23.5 -16 64.5 -16 q63 0 103.5 33.5 q40.5 33.5 40.5 91.5 Z" /><glyph glyph-name="uni0431" unicode="&#x431;" d="M482.5 422.5 q59.5 -65.5 59.5 -179.5 q0 -114 -70.5 -185.5 q-70.5 -71.5 -178.5 -71.5 q-122 0 -189 83 q-67 83 -67 238 q0 195 66.5 289.5 q66.5 94.5 233.5 109.5 l167 15 l9 -104 l-166 -14 q-113 -9 -159.5 -55.5 q-46.5 -46.5 -55.5 -164.5 q24 48 73.5 76.5 q49.5 28.5 112.5 28.5 q105 0 164.5 -65.5 ZM430 241 q0 71 -36.5 113 q-36.5 42 -100.5 42 q-63 0 -103.5 -43 q-40.5 -43 -40.5 -112 q0 -75 38.5 -118.5 q38.5 -43.5 103.5 -43.5 q64 0 101.5 43.5 q37.5 43.5 37.5 118.5 Z" /><glyph glyph-name="uni0432" unicode="&#x432;" d="M515 140 q0 -64 -45 -102 q-45 -38 -124 -38 l-282 0 l0 502 l265 0 q78 0 125.5 -35.5 q47.5 -35.5 47.5 -97.5 q0 -39 -23 -68.5 q-23 -29.5 -62 -42.5 q46 -12 72 -42.5 q26 -30.5 26 -75.5 ZM172 419 l0 -126 l138 0 q83 0 83 65 q0 61 -82 61 l-139 0 ZM313 85 q91 0 91 66 q0 66 -93 66 l-139 0 l0 -132 l141 0 Z" /><glyph glyph-name="uni0433" unicode="&#x433;" d="M414 413 l-240 0 l0 -413 l-110 0 l0 502 l350 0 l0 -89 Z" /><glyph glyph-name="uni0434" unicode="&#x434;" d="M21 -125 l0 214 l49 0 q60 65 61 222 l2 191 l385 0 l0 -413 l72 0 l0 -214 l-106 0 l0 125 l-357 0 l0 -125 l-106 0 ZM184 89 l224 0 l0 324 l-175 0 l-2 -106 q-3 -165 -47 -218 Z" /><glyph glyph-name="uni0435" unicode="&#x435;" d="M449 153 l64 -67 q-53 -54 -105.5 -77.5 q-52.5 -23.5 -116.5 -23.5 q-119 0 -188 71.5 q-69 71.5 -69 191.5 q0 119 67.5 194.5 q67.5 75.5 179.5 75.5 q110 0 170.5 -65.5 q60.5 -65.5 60.5 -181.5 q0 -19 -2 -45 l-368 0 q6 -68 45 -108 q39 -40 106 -40 q43 0 75 16 q32 16 81 59 ZM145 306 l259 0 q-3 58 -36 91.5 q-33 33.5 -90 33.5 q-53 0 -87.5 -32.5 q-34.5 -32.5 -45.5 -92.5 Z" /><glyph glyph-name="uni0436" unicode="&#x436;" d="M662 0 l-142 216 l-70 0 l0 -216 l-105 0 l0 216 l-70 0 l-142 -216 l-122 0 l177 266 l-161 236 l119 0 l129 -196 l70 0 l0 196 l105 0 l0 -196 l71 0 l128 196 l119 0 l-160 -236 l177 -266 l-123 0 Z" /><glyph glyph-name="uni0437" unicode="&#x437;" d="M472 145 q0 -72 -60 -117.5 q-60 -45.5 -163 -45.5 q-129 0 -234 90 l61 71 q86 -69 174 -69 q54 0 83.5 20 q29.5 20 29.5 56 q0 34 -26 49 q-26 15 -82 15 l-88 0 l0 83 l94 0 q90 0 90 65 q0 31 -26 50 q-26 19 -75 19 q-81 0 -164 -64 l-53 72 q106 80 222 80 q82 0 143.5 -38 q61.5 -38 61.5 -107 q0 -82 -85 -114 q97 -31 97 -115 Z" /><glyph glyph-name="uni0438" unicode="&#x438;" d="M402 502 l120 0 l0 -502 l-103 0 l0 184 q0 143 4 210 q-73 -124 -102 -172 l-137 -222 l-120 0 l0 502 l102 0 l0 -194 q0 -110 -3 -199 q55 98 101 172 l138 221 Z" /><glyph glyph-name="uni0439" unicode="&#x439;" d="M522 502 l-120 0 l-138 -221 q-46 -74 -101 -172 q3 88 3 199 l0 194 l-102 0 l0 -502 l120 0 l137 222 q29 48 102 172 q-4 -67 -4 -210 l0 -184 l103 0 l0 502 ZM462 702 q0 -70 -45 -105 q-45 -35 -124 -35 q-80 0 -125 35 q-45 35 -45 105 l90 0 q0 -72 80 -72 q80 0 80 72 l89 0 Z" /><glyph glyph-name="uni043A" unicode="&#x43a;" d="M409 0 l-151 216 l-84 0 l0 -216 l-110 0 l0 502 l110 0 l0 -196 l85 0 l139 196 l118 0 l-170 -236 l187 -266 l-124 0 Z" /><glyph glyph-name="uni043B" unicode="&#x43b;" d="M17 1 l10 89 q27 -4 38 -4 q44 3 55 34 q11 31 13 150 l2 232 l390 0 l0 -502 l-110 0 l0 413 l-180 0 l-2 -145 q-2 -159 -31 -214.5 q-29 -55.5 -118 -59.5 q-38 0 -67 7 Z" /><glyph glyph-name="uni043C" unicode="&#x43c;" d="M507 502 l159 0 l0 -502 l-103 0 l0 209 q0 113 4 216 l-9 -27 l-21 -61 q-16 -45 -31 -83 l-93 -254 l-98 0 l-93 254 l-60 170 q4 -105 4 -215 l0 -209 l-102 0 l0 502 l163 0 l78 -213 q35 -92 61 -180 q37 117 61 180 l80 213 Z" /><glyph glyph-name="uni043D" unicode="&#x43d;" d="M500 0 l-110 0 l0 216 l-216 0 l0 -216 l-110 0 l0 502 l110 0 l0 -196 l216 0 l0 196 l110 0 l0 -502 Z" /><glyph glyph-name="uni043E" unicode="&#x43e;" d="M545 251 q0 -117 -71.5 -191.5 q-71.5 -74.5 -183.5 -74.5 q-113 0 -184.5 74 q-71.5 74 -71.5 192 q0 119 71.5 193 q71.5 74 184.5 74 q112 0 183.5 -74.5 q71.5 -74.5 71.5 -192.5 ZM146 251 q0 -78 39 -125.5 q39 -47.5 105 -47.5 q64 0 103.5 47.5 q39.5 47.5 39.5 125.5 q0 79 -39 126.5 q-39 47.5 -104 47.5 q-66 0 -105 -47.5 q-39 -47.5 -39 -126.5 Z" /><glyph glyph-name="uni043F" unicode="&#x43f;" d="M64 0 l0 502 l430 0 l0 -502 l-110 0 l0 413 l-210 0 l0 -413 l-110 0 Z" /><glyph glyph-name="uni0440" unicode="&#x440;" d="M552 252 q0 -119 -63 -192 q-63 -73 -160 -73 q-103 0 -157 71 l0 -238 l-110 0 l0 682 l102 0 l0 -71 q55 85 166 85 q97 0 159.5 -73 q62.5 -73 62.5 -191 ZM403.5 128.5 q36.5 46.5 36.5 123.5 q0 77 -36 123.5 q-36 46.5 -97 46.5 q-63 0 -101.5 -46.5 q-38.5 -46.5 -38.5 -123.5 q0 -78 39 -124 q39 -46 101 -46 q60 0 96.5 46.5 Z" /><glyph glyph-name="uni0441" unicode="&#x441;" d="M286 425 q-67 0 -104 -51 q-36 -50 -36 -123 q0 -73 36 -123 q37 -49 104 -49 q38 0 69.5 17.5 q31.5 17.5 72.5 62.5 l73 -61 q-49 -62 -99 -87.5 q-50 -25.5 -117 -25.5 q-113 0 -182 72.5 q-69 72.5 -69 193.5 q0 121 70 194 q70 73 182 73 q63 0 111 -22 q48 -22 96 -73 l-70 -68 q-40 40 -70.5 55 q-30.5 15 -66.5 15 Z" /><glyph glyph-name="uni0442" unicode="&#x442;" d="M463 413 l-167 0 l0 -413 l-110 0 l0 413 l-166 0 l0 89 l443 0 l0 -89 Z" /><glyph glyph-name="uni0443" unicode="&#x443;" d="M379 502 l112 0 l-197 -564 q-24 -72 -61 -102 q-37 -30 -103 -30 q-46 0 -88 11 l18 83 q36 -6 57 -6 q30 0 50 16 q20 16 32 55 l3 9 l-189 528 l116 0 l49 -147 q51 -151 77 -236 q42 138 75 237 l49 146 Z" /><glyph glyph-name="uni0444" unicode="&#x444;" d="M318 710 l106 0 l0 -193 q128 -5 206 -74 q78 -69 78 -192 q0 -123 -78 -192 q-78 -69 -206 -74 l0 -165 l-106 0 l0 165 q-125 4 -206 73 q-78 69 -78 193 q0 125 78 192 q80 70 206 74 l0 193 ZM321 74 l0 354 q-83 -2 -129 -48 q-46 -46 -46 -129 q0 -83 46 -129 q46 -46 129 -48 ZM421 428 l0 -354 q83 2 129 48 q46 46 46 129 q0 83 -46 129 q-46 46 -129 48 Z" /><glyph glyph-name="uni0445" unicode="&#x445;" d="M496 0 l-122 0 l-122 186 l-125 -186 l-119 0 l182 263 l-166 239 l120 0 l109 -161 l107 161 l119 0 l-164 -235 l181 -267 Z" /><glyph glyph-name="uni0446" unicode="&#x446;" d="M464 -125 l0 125 l-400 0 l0 502 l110 0 l0 -413 l214 0 l0 413 l110 0 l0 -413 l73 0 l0 -214 l-107 0 Z" /><glyph glyph-name="uni0447" unicode="&#x447;" d="M360 502 l110 0 l0 -502 l-110 0 l0 189 q-58 -24 -129 -24 q-99 0 -144 40 q-45 40 -45 123 l0 174 l110 0 l0 -163 q0 -43 22.5 -62.5 q22.5 -19.5 75.5 -19.5 q69 0 110 19 l0 226 Z" /><glyph glyph-name="uni0448" unicode="&#x448;" d="M746 502 l0 -502 l-682 0 l0 502 l110 0 l0 -412 l176 0 l0 412 l110 0 l0 -412 l176 0 l0 412 l110 0 Z" /><glyph glyph-name="uni0449" unicode="&#x449;" d="M712 -125 l0 125 l-648 0 l0 502 l110 0 l0 -412 l177 0 l0 412 l109 0 l0 -412 l176 0 l0 412 l110 0 l0 -413 l73 0 l0 -214 l-107 0 Z" /><glyph glyph-name="uni044A" unicode="&#x44a;" d="M541.5 298 q52.5 -46 52.5 -126 q0 -80 -52.5 -126 q-52.5 -46 -140.5 -46 l-243 0 l0 413 l-138 0 l0 89 l248 0 l0 -158 l133 0 q88 0 140.5 -46 ZM386 90 q96 0 96 82 q0 82 -96 82 l-118 0 l0 -164 l118 0 Z" /><glyph glyph-name="uni044B" unicode="&#x44b;" d="M64 0 l0 502 l110 0 l0 -158 l132 0 q88 0 140.5 -46 q52.5 -46 52.5 -126 q0 -80 -52.5 -126 q-52.5 -46 -140.5 -46 l-242 0 ZM174 90 l117 0 q96 0 96 82 q0 82 -96 82 l-117 0 l0 -164 ZM668 502 l0 -502 l-110 0 l0 502 l110 0 Z" /><glyph glyph-name="uni044C" unicode="&#x44c;" d="M64 0 l0 502 l110 0 l0 -158 l132 0 q88 0 140.5 -46 q52.5 -46 52.5 -126 q0 -80 -52.5 -126 q-52.5 -46 -140.5 -46 l-242 0 ZM174 90 l117 0 q96 0 96 82 q0 82 -96 82 l-117 0 l0 -164 Z" /><glyph glyph-name="uni044D" unicode="&#x44d;" d="M412 445 q70 -73 70 -194 q0 -121 -69 -193.5 q-69 -72.5 -182 -72.5 q-67 0 -117 25.5 q-50 25.5 -99 87.5 l72 61 q42 -46 74 -63 q32 -17 73 -17 q58 0 93.5 36.5 q35.5 36.5 44.5 98.5 l-214 0 l0 82 l212 0 q-10 60 -45 94.5 q-35 34.5 -91 34.5 q-40 0 -71 -15 q-31 -15 -70 -55 l-70 68 q47 51 94.5 73 q47.5 22 111.5 22 q113 0 183 -73 Z" /><glyph glyph-name="uni044E" unicode="&#x44e;" d="M700.5 443.5 q71.5 -74.5 71.5 -192.5 q0 -118 -71.5 -192 q-71.5 -74 -184.5 -74 q-104 0 -174.5 65 q-70.5 65 -79.5 170 l-90 0 l0 -220 l-110 0 l0 502 l110 0 l0 -203 l92 0 q13 99 83 159 q69 60 169 60 q113 0 184.5 -74.5 ZM660 251 q0 79 -39.5 126.5 q-39.5 47.5 -104.5 47.5 q-65 0 -104 -47.5 q-39 -47.5 -39 -126.5 q0 -78 39 -125.5 q39 -47.5 104 -47.5 q65 0 104.5 47.5 q39.5 47.5 39.5 125.5 Z" /><glyph glyph-name="uni044F" unicode="&#x44f;" d="M233 502 l245 0 l0 -502 l-105 0 l0 170 l-86 0 l-138 -170 l-126 0 l149 177 q-60 15 -94.5 57.5 q-34.5 42.5 -34.5 102.5 q0 75 52 120 q52 45 138 45 ZM373 258 l0 156 l-127 0 q-45 0 -69 -20.5 q-24 -20.5 -24 -56.5 q0 -37 24.5 -58 q24.5 -21 68.5 -21 l127 0 Z" /><glyph glyph-name="uni0451" unicode="&#x451;" d="M449 153 l64 -67 q-53 -54 -105.5 -77.5 q-52.5 -23.5 -116.5 -23.5 q-119 0 -188 71.5 q-69 71.5 -69 191.5 q0 119 67.5 194.5 q67.5 75.5 179.5 75.5 q110 0 170.5 -65.5 q60.5 -65.5 60.5 -181.5 q0 -19 -2 -45 l-368 0 q6 -68 45 -108 q39 -40 106 -40 q43 0 75 16 q32 16 81 59 ZM145 306 l259 0 q-3 58 -36 91.5 q-33 33.5 -90 33.5 q-53 0 -87.5 -32.5 q-34.5 -32.5 -45.5 -92.5 ZM250 702 l0 -113 l-107 0 l0 113 l107 0 ZM438 702 l0 -113 l-107 0 l0 113 l107 0 Z" /><glyph glyph-name="uni0452" unicode="&#x452;" d="M531 327 l0 -355 q0 -163 -150 -163 q-55 0 -100 15 l20 83 q36 -9 61 -9 q32 0 45.5 17 q13.5 17 13.5 56 l0 322 q0 55 -27 84.5 q-27 29.5 -77 29.5 q-48 0 -80 -33 q-32 -33 -32 -84 l0 -290 l-110 0 l0 577 l-72 0 l0 70 l72 0 l0 63 l110 0 l0 -63 l185 0 l0 -70 l-185 0 l0 -142 q53 66 147 66 q85 0 132 -47.5 q47 -47.5 47 -126.5 Z" /><glyph glyph-name="uni0453" unicode="&#x453;" d="M414 413 l-240 0 l0 -413 l-110 0 l0 502 l350 0 l0 -89 ZM368 713 l-94 -143 l-97 0 l70 143 l121 0 Z" /><glyph glyph-name="uni0454" unicode="&#x454;" d="M428 159 l73 -61 q-49 -62 -99 -87.5 q-50 -25.5 -117 -25.5 q-113 0 -182 72.5 q-69 72.5 -69 193.5 q0 121 70 194 q70 73 182 73 q63 0 111 -22 q48 -22 96 -73 l-70 -68 q-40 40 -71 55 q-31 15 -71 15 q-56 0 -91 -35 q-35 -35 -45 -94 l213 0 l0 -82 l-214 0 q9 -62 44.5 -98.5 q35.5 -36.5 93.5 -36.5 q42 0 73 17.5 q31 17.5 73 62.5 Z" /><glyph glyph-name="uni0455" unicode="&#x455;" d="M457 442 l-60 -73 q-45 35 -78.5 47.5 q-33.5 12.5 -75.5 12.5 q-44 0 -70 -17 q-26 -17 -26 -44 q0 -18 12 -29 q18 -14 113 -36 q107 -24 150 -57.5 q43 -33.5 43 -99.5 q0 -72 -57 -116.5 q-57 -44.5 -152 -44.5 q-70 0 -124 21 q-54 21 -114 73 l64 72 q52 -43 92 -61 q36 -16 84 -16 q43 0 71 17.5 q28 17.5 28 47.5 q-4 34 -28.5 46 q-24.5 12 -102.5 29 q-107 24 -145.5 55 q-38.5 31 -38.5 95 q0 67 55.5 110.5 q55.5 43.5 147.5 43.5 q64 0 112.5 -17 q48.5 -17 99.5 -59 Z" /><glyph glyph-name="uni0456" unicode="&#x456;" d="M172 502 l0 -502 l-110 0 l0 502 l110 0 ZM172 702 l0 -113 l-110 0 l0 113 l110 0 Z" /><glyph glyph-name="uni0457" unicode="&#x457;" d="M172 502 l0 -502 l-110 0 l0 502 l110 0 ZM76 702 l0 -113 l-107 0 l0 113 l107 0 ZM264 702 l0 -113 l-107 0 l0 113 l107 0 Z" /><glyph glyph-name="uni0458" unicode="&#x458;" d="M7 -102 q32 0 45 17 q13 17 13 56 l0 531 l110 0 l0 -530 q0 -163 -150 -163 q-55 0 -100 15 l20 82 q43 -8 62 -8 ZM175 702 l0 -113 l-110 0 l0 113 l110 0 Z" /><glyph glyph-name="uni0459" unicode="&#x459;" d="M862 160 q0 -76 -49.5 -118 q-49.5 -42 -135.5 -42 l-262 0 l0 413 l-180 0 l-2 -145 q-2 -159 -31 -214.5 q-29 -55.5 -118 -59.5 q-38 0 -67 7 l10 89 q27 -4 38 -4 q44 3 55 34 q11 31 13 150 l2 232 l390 0 l0 -182 l152 0 q85 0 135 -42.5 q50 -42.5 50 -117.5 ZM665 90 q84 0 84 70 q0 70 -84 70 l-140 0 l0 -140 l140 0 Z" /><glyph glyph-name="uni045A" unicode="&#x45a;" d="M64 0 l0 502 l110 0 l0 -182 l216 0 l0 182 l110 0 l0 -182 l153 0 q85 0 135 -42.5 q50 -42.5 50 -117.5 q0 -76 -49.5 -118 q-49.5 -42 -135.5 -42 l-263 0 l0 230 l-216 0 l0 -230 l-110 0 ZM500 90 l141 0 q85 0 85 70 q0 70 -85 70 l-141 0 l0 -140 Z" /><glyph glyph-name="uni045B" unicode="&#x45b;" d="M531 327 l0 -327 l-110 0 l0 293 q0 55 -27 84.5 q-27 29.5 -77 29.5 q-48 0 -80 -33 q-32 -33 -32 -84 l0 -290 l-110 0 l0 577 l-72 0 l0 70 l72 0 l0 63 l110 0 l0 -63 l185 0 l0 -70 l-185 0 l0 -141 q52 65 147 65 q85 0 132 -47.5 q47 -47.5 47 -126.5 Z" /><glyph glyph-name="uni045C" unicode="&#x45c;" d="M409 0 l-151 216 l-84 0 l0 -216 l-110 0 l0 502 l110 0 l0 -196 l85 0 l139 196 l118 0 l-170 -236 l187 -266 l-124 0 ZM421 713 l-94 -143 l-97 0 l70 143 l121 0 Z" /><glyph glyph-name="uni045E" unicode="&#x45e;" d="M491 502 l-112 0 l-49 -146 q-33 -99 -75 -237 q-26 85 -77 236 l-49 147 l-116 0 l189 -528 l-3 -9 q-12 -39 -32 -55 q-20 -16 -50 -16 q-21 0 -57 6 l-18 -83 q42 -11 88 -11 q66 0 103 30 q37 30 61 102 l197 564 ZM420 702 q0 -70 -45 -105 q-45 -35 -124 -35 q-80 0 -125 35 q-45 35 -45 105 l90 0 q0 -72 80 -72 q80 0 80 72 l89 0 Z" /><glyph glyph-name="uni045F" unicode="&#x45f;" d="M229 -129 l0 129 l-165 0 l0 502 l110 0 l0 -413 l217 0 l0 413 l110 0 l0 -502 l-166 0 l0 -129 l-106 0 Z" /><glyph glyph-name="uni0490" unicode="&#x490;" d="M77 0 l0 710 l350 0 l0 146 l116 0 l0 -246 l-348 0 l0 -610 l-118 0 Z" /><glyph glyph-name="uni0491" unicode="&#x491;" d="M64 0 l0 502 l267 0 l0 131 l105 0 l0 -220 l-262 0 l0 -413 l-110 0 Z" /><glyph glyph-name="Wgrave" unicode="&#x1e80;" d="M812 710 l116 0 l-171 -710 l-139 0 l-78 298 q-34 129 -61 254 q-30 -135 -61 -255 l-78 -297 l-140 0 l-172 710 l120 0 l75 -322 q19 -79 53 -253 q40 174 61 253 l86 322 l117 0 l84 -322 q34 -136 60 -255 q34 177 52 255 l76 322 ZM337 914 l122 0 l70 -143 l-97 0 l-95 143 Z" /><glyph glyph-name="wgrave" unicode="&#x1e81;" d="M636 502 l113 0 l-140 -502 l-132 0 l-41 147 q-31 112 -54 218 l-6 -27 l-19 -78 q-18 -76 -28 -113 l-40 -147 l-131 0 l-141 502 l116 0 l44 -175 q29 -113 52 -228 q36 151 56 228 l47 175 l103 0 l48 -175 q31 -115 56 -230 q25 124 52 230 l45 175 ZM243 713 l122 0 l70 -143 l-97 0 l-95 143 Z" /><glyph glyph-name="Wacute" unicode="&#x1e82;" d="M812 710 l116 0 l-171 -710 l-139 0 l-78 298 q-34 129 -61 254 q-30 -135 -61 -255 l-78 -297 l-140 0 l-172 710 l120 0 l75 -322 q19 -79 53 -253 q40 174 61 253 l86 322 l117 0 l84 -322 q34 -136 60 -255 q34 177 52 255 l76 322 ZM619 914 l-94 -143 l-97 0 l70 143 l121 0 Z" /><glyph glyph-name="wacute" unicode="&#x1e83;" d="M636 502 l113 0 l-140 -502 l-132 0 l-41 147 q-31 112 -54 218 l-6 -27 l-19 -78 q-18 -76 -28 -113 l-40 -147 l-131 0 l-141 502 l116 0 l44 -175 q29 -113 52 -228 q36 151 56 228 l47 175 l103 0 l48 -175 q31 -115 56 -230 q25 124 52 230 l45 175 ZM524 713 l-94 -143 l-97 0 l70 143 l121 0 Z" /><glyph glyph-name="Wdieresis" unicode="&#x1e84;" d="M812 710 l116 0 l-171 -710 l-139 0 l-78 298 q-34 129 -61 254 q-30 -135 -61 -255 l-78 -297 l-140 0 l-172 710 l120 0 l75 -322 q19 -79 53 -253 q40 174 61 253 l86 322 l117 0 l84 -322 q34 -136 60 -255 q34 177 52 255 l76 322 ZM438 903 l0 -113 l-107 0 l0 113 l107 0 ZM626 903 l0 -113 l-107 0 l0 113 l107 0 Z" /><glyph glyph-name="wdieresis" unicode="&#x1e85;" d="M636 502 l113 0 l-140 -502 l-132 0 l-41 147 q-31 112 -54 218 l-6 -27 l-19 -78 q-18 -76 -28 -113 l-40 -147 l-131 0 l-141 502 l116 0 l44 -175 q29 -113 52 -228 q36 151 56 228 l47 175 l103 0 l48 -175 q31 -115 56 -230 q25 124 52 230 l45 175 ZM344 702 l0 -113 l-107 0 l0 113 l107 0 ZM532 702 l0 -113 l-107 0 l0 113 l107 0 Z" /><glyph glyph-name="Ygrave" unicode="&#x1ef2;" d="M504 710 l127 0 l-251 -410 l0 -300 l-119 0 l0 301 l-250 409 l131 0 l181 -305 l181 305 ZM180 914 l122 0 l70 -143 l-97 0 l-95 143 Z" /><glyph glyph-name="ygrave" unicode="&#x1ef3;" d="M379 502 l112 0 l-197 -564 q-24 -72 -61 -102 q-37 -30 -103 -30 q-46 0 -88 11 l18 83 q36 -6 57 -6 q30 0 50 16 q20 16 32 55 l3 9 l-189 528 l116 0 l49 -147 q51 -151 77 -236 q42 138 75 237 l49 146 ZM110 713 l122 0 l70 -143 l-97 0 l-95 143 Z" /><glyph glyph-name="endash" unicode="&#x2013;" d="M667 336 l0 -94 l-603 0 l0 94 l603 0 Z" /><glyph glyph-name="emdash" unicode="&#x2014;" d="M902 336 l0 -94 l-828 0 l0 94 l828 0 Z" /><glyph glyph-name="quoteleft" unicode="&#x2018;" d="M43 457 l0 122 l69 131 l62 0 l-62 -131 l58 0 l0 -122 l-127 0 Z" /><glyph glyph-name="quoteright" unicode="&#x2019;" d="M172 710 l0 -122 l-69 -131 l-62 0 l62 131 l-58 0 l0 122 l127 0 Z" /><glyph glyph-name="quotesinglbase" unicode="&#x201a;" d="M169 125 l0 -125 l-68 -126 l-60 0 l58 126 l-56 0 l0 125 l126 0 Z" /><glyph glyph-name="quotedblleft" unicode="&#x201c;" d="M43 457 l0 122 l69 131 l62 0 l-62 -131 l58 0 l0 -122 l-127 0 ZM244 457 l0 122 l69 131 l62 0 l-62 -131 l58 0 l0 -122 l-127 0 Z" /><glyph glyph-name="quotedblright" unicode="&#x201d;" d="M172 710 l0 -122 l-69 -131 l-62 0 l62 131 l-58 0 l0 122 l127 0 ZM373 710 l0 -122 l-69 -131 l-62 0 l62 131 l-58 0 l0 122 l127 0 Z" /><glyph glyph-name="quotedblbase" unicode="&#x201e;" d="M169 125 l0 -125 l-68 -126 l-60 0 l58 126 l-56 0 l0 125 l126 0 ZM370 125 l0 -125 l-68 -126 l-60 0 l58 126 l-56 0 l0 125 l126 0 Z" /><glyph glyph-name="dagger" unicode="&#x2020;" d="M550 452 l0 -99 l-198 0 l0 -550 l-113 0 l0 550 l-198 0 l0 99 l198 0 l0 258 l113 0 l0 -258 l198 0 Z" /><glyph glyph-name="daggerdbl" unicode="&#x2021;" d="M550 403 l-198 0 l0 -205 l198 0 l0 -99 l-198 0 l0 -296 l-113 0 l0 296 l-198 0 l0 99 l198 0 l0 205 l-198 0 l0 99 l198 0 l0 208 l113 0 l0 -208 l198 0 l0 -99 Z" /><glyph glyph-name="bullet" unicode="&#x2022;" d="M441 296 q0 -75 -55 -130.5 q-55 -55.5 -131 -55.5 q-76 0 -131 55.5 q-55 55.5 -55 130.5 q0 76 55 131 q55 55 131 55 q76 0 131 -55 q55 -55 55 -131 Z" /><glyph glyph-name="ellipsis" unicode="&#x2026;" d="M177 128 l0 -128 l-124 0 l0 128 l124 0 ZM400 128 l0 -128 l-123 0 l0 128 l123 0 ZM625 128 l0 -128 l-124 0 l0 128 l124 0 Z" /><glyph glyph-name="perthousand" unicode="&#x2030;" d="M641 696 l65 -41 l-472 -671 l-64 42 l471 670 ZM818 154 q0 -72 -46.5 -118 q-46.5 -46 -115.5 -46 q-69 0 -115 46 q-46 46 -46 118 q0 70 46 116.5 q46 46.5 115 46.5 q68 0 115 -46.5 q47 -46.5 47 -116.5 ZM574 154 q0 -43 22 -69 q22 -26 60 -26 q38 0 60.5 26.5 q22.5 26.5 22.5 68.5 q0 42 -22.5 68 q-22.5 26 -60.5 26 q-37 0 -59.5 -26.5 q-22.5 -26.5 -22.5 -67.5 ZM376 528 q0 -72 -46.5 -118 q-46.5 -46 -115.5 -46 q-69 0 -115 46 q-46 46 -46 118 q0 70 46 116.5 q46 46.5 115 46.5 q68 0 115 -46.5 q47 -46.5 47 -116.5 ZM132 528 q0 -43 22 -69 q22 -26 60 -26 q38 0 60.5 26.5 q22.5 26.5 22.5 68.5 q0 42 -22.5 68 q-22.5 26 -60.5 26 q-37 0 -59.5 -26.5 q-22.5 -26.5 -22.5 -67.5 ZM1195 154 q0 -72 -46.5 -118 q-46.5 -46 -115.5 -46 q-69 0 -115 46 q-46 46 -46 118 q0 70 46 116.5 q46 46.5 115 46.5 q68 0 115 -46.5 q47 -46.5 47 -116.5 ZM951 154 q0 -43 22 -69 q22 -26 60 -26 q38 0 60.5 26.5 q22.5 26.5 22.5 68.5 q0 42 -22.5 68 q-22.5 26 -60.5 26 q-37 0 -59.5 -26.5 q-22.5 -26.5 -22.5 -67.5 Z" /><glyph glyph-name="guilsinglleft" unicode="&#x2039;" d="M305 475 l-144 -222 l144 -222 l-105 0 l-142 222 l142 222 l105 0 Z" /><glyph glyph-name="guilsinglright" unicode="&#x203a;" d="M63 475 l105 0 l142 -222 l-142 -222 l-105 0 l140 222 l-140 222 Z" /><glyph glyph-name="fraction" unicode="&#x2044;" d="M308 696 l65 -41 l-472 -671 l-64 42 l471 670 Z" /><glyph glyph-name="Euro" unicode="&#x20ac;" d="M531 130 l61 -77 q-48 -37 -94 -53 q-46 -16 -106 -16 q-106 0 -176 67 q-69 68 -92 181 l-72 0 l0 78 l63 0 q-1 7 -1 30 q0 7 2 47 l-64 0 l0 78 l76 0 q27 108 95.5 169.5 q68.5 61.5 168.5 61.5 q60 0 106 -16 q46 -16 94 -53 l-61 -77 q-39 28 -70 39 q-27 10 -69 10 q-52 0 -90 -35 q-38 -35 -57 -99 l239 0 l0 -78 l-253 0 q-2 -40 -2 -47 q0 -23 1 -30 l254 0 l0 -78 l-243 0 q17 -72 56 -111.5 q39 -39.5 95 -39.5 q42 0 69 10 q31 11 70 39 Z" /><glyph glyph-name="uni20B9" unicode="&#x20b9;" d="M549 605 l-109 0 q32 -38 41 -92 l68 0 l0 -75 l-68 0 q-11 -78 -70.5 -123 q-59.5 -45 -150.5 -45 l-37 0 l275 -270 l-151 0 l-268 270 l0 87 l170 0 q102 0 121 81 l-291 0 l0 75 l289 0 q-22 72 -119 72 l-170 0 l0 95 l470 0 l0 -75 Z" /><glyph glyph-name="uni20BA" unicode="&#x20ba;" d="M457 303 l102 -16 l-11 -60 q-24 -125 -88 -176 q-64 -51 -201 -51 l-126 0 l0 245 l-91 -40 l0 82 l91 40 l0 89 l-91 -40 l0 82 l91 40 l0 182 l113 0 l0 -132 l150 67 l0 -82 l-150 -67 l0 -89 l150 67 l0 -82 l-150 -67 l0 -198 l9 0 q92 2 131.5 30 q39.5 28 59.5 119 l11 57 Z" /><glyph glyph-name="uni20BD" unicode="&#x20bd;" d="M342 271 l-103 0 l0 -77 l201 0 l0 -75 l-201 0 l0 -119 l-113 0 l0 119 l-89 0 l0 75 l89 0 l0 77 l-89 0 l0 86 l89 0 l0 323 l216 0 q100 0 162 -56.5 q62 -56.5 62 -149.5 q0 -93 -62 -149 q-62 -54 -162 -54 ZM239 585 l0 -228 l93 0 q57 0 90.5 30.5 q33.5 30.5 33.5 83.5 q0 53 -33.5 83.5 q-33.5 30.5 -90.5 30.5 l-93 0 Z" /><glyph glyph-name="uni2116" unicode="&#x2116;" d="M730 554 q0 72 45 118 q46 46 117 46 q71 0 116 -46 q46 -46 46 -118 q0 -72 -46 -118 q-45 -45 -116 -45 q-70 0 -117 45 q-45 47 -45 118 ZM533 422 l0 288 l116 0 l0 -710 l-129 0 l-187 303 q-76 120 -146 252 q6 -127 6 -277 l0 -278 l-116 0 l0 710 l131 0 l194 -316 q81 -126 136 -233 q-5 110 -5 261 ZM834.5 623.5 q-22.5 -25.5 -22.5 -69.5 q0 -44 22.5 -69 q22.5 -25 57.5 -25 q35 0 57.5 25 q22.5 25 22.5 69 q0 44 -22.5 69.5 q-22.5 25.5 -57.5 25.5 q-35 0 -57.5 -25.5 ZM741 281 l0 68 l301 0 l0 -68 l-301 0 Z" /><glyph glyph-name="uni2117" unicode="&#x2117;" d="M60 355 q-2 154 106.5 262.5 q108.5 108.5 261.5 105.5 q153 3 261.5 -105.5 q108.5 -108.5 106.5 -262.5 q2 -154 -106.5 -262.5 q-108.5 -108.5 -261.5 -105.5 q-153 -3 -261.5 105.5 q-108.5 108.5 -106.5 262.5 ZM729 355 q2 130 -85.5 220.5 q-87.5 90.5 -215.5 89.5 q-128 1 -215.5 -89.5 q-87.5 -90.5 -85.5 -220.5 q-2 -130 85.5 -220.5 q87.5 -90.5 215.5 -89.5 q128 -1 215.5 89.5 q87.5 90.5 85.5 220.5 ZM295 149 l0 413 l167 0 q59 0 96.5 -36.5 q37.5 -36.5 37.5 -92.5 q0 -124 -134 -124 l-98 0 l0 -160 l-69 0 ZM364 367 l83 0 q80 0 80 66 q0 31 -20.5 49 q-20.5 18 -59.5 18 l-83 0 l0 -133 Z" /><glyph glyph-name="trademark" unicode="&#x2122;" d="M372 710 l0 -64 l-131 0 l0 -323 l-76 0 l0 323 l-132 0 l0 64 l339 0 ZM888 710 l0 -387 l-69 0 l0 293 l-118 -293 l-65 0 l-121 289 l0 -289 l-71 0 l0 387 l101 0 l124 -298 l118 298 l101 0 Z" /><glyph glyph-name="Omega" unicode="&#x2126;" d="M605 100 l120 0 l0 -100 l-276 0 l0 100 q156 68 156 260 q0 118 -61 190 q-61 72 -162 72 q-99 0 -161 -72.5 q-62 -72.5 -62 -189.5 q0 -192 156 -260 l0 -100 l-276 0 l0 100 l121 0 q-59 42 -90 110 q-31 68 -31 151 q0 160 94 262.5 q94 102.5 249 102.5 q155 2 250.5 -102 q95.5 -104 93.5 -263 q0 -83 -31 -151 q-31 -68 -90 -110 Z" /><glyph glyph-name="uni2154" unicode="&#x2154;" d="M123 342 l237 0 l0 -70 l-323 0 l0 33 q0 61 31.5 96.5 q31.5 35.5 99.5 71.5 l25 13 q49 24 67 39.5 q18 15.5 18 40.5 q0 25 -19.5 38.5 q-19.5 13.5 -52.5 13.5 q-52 0 -118 -52 l-45 54 q77 71 164 71 q70 0 112.5 -35.5 q42.5 -35.5 42.5 -86.5 q0 -35 -15 -61 q-14 -23 -36 -38.5 q-22 -15.5 -71 -40.5 l-25 -13 q-48 -25 -67 -39.5 q-19 -14.5 -25 -34.5 ZM726 696 l65 -41 l-472 -671 l-64 42 l471 670 ZM984 125 q0 -57 -44 -96.5 q-44 -39.5 -118 -39.5 q-88 0 -169 53 l40 59 q74 -39 128 -39 q36 0 57 17 q21 17 21 46 q0 29 -24 45 q-24 16 -64 16 q-33 0 -50 -6 l-36 49 l138 109 l-189 0 l0 70 l292 0 l0 -69 l-121 -94 q62 -2 100.5 -34.5 q38.5 -32.5 38.5 -85.5 Z" /><glyph glyph-name="oneeighth" unicode="&#x215b;" d="M160 680 l64 0 l0 -408 l-83 0 l0 308 l-69 -49 l-41 56 l129 93 ZM626 696 l65 -41 l-472 -671 l-64 42 l471 670 ZM896 111 q0 -54 -45.5 -88 q-45.5 -34 -122.5 -34 q-77 0 -122 34 q-45 34 -45 88 q0 75 75 105 q-58 31 -58 90 q0 49 41.5 81 q41.5 32 108.5 32 q68 0 109.5 -32 q41.5 -32 41.5 -81 q0 -60 -59 -90 q76 -30 76 -105 ZM676 337 q-20 -15 -20 -38 q0 -23 20.5 -39 q20.5 -16 51.5 -16 q32 0 52 15.5 q20 15.5 20 39.5 q0 24 -19.5 38.5 q-19.5 14.5 -52.5 14.5 q-32 0 -52 -15 ZM790 74 q22 17 22 45 q0 28 -22.5 46.5 q-22.5 18.5 -61.5 18.5 q-39 0 -61.5 -18.5 q-22.5 -18.5 -22.5 -46.5 q0 -28 22.5 -45 q22.5 -17 61.5 -17 q40 0 62 17 Z" /><glyph glyph-name="threeeighths" unicode="&#x215c;" d="M356 397 q0 -57 -44 -96.5 q-44 -39.5 -118 -39.5 q-88 0 -169 53 l40 59 q74 -39 128 -39 q36 0 57 17 q21 17 21 46 q0 29 -24 45 q-24 16 -64 16 q-33 0 -50 -6 l-36 49 l138 109 l-189 0 l0 70 l292 0 l0 -69 l-121 -94 q62 -2 100.5 -34.5 q38.5 -32.5 38.5 -85.5 ZM701 696 l65 -41 l-472 -671 l-64 42 l471 670 ZM971 111 q0 -54 -45.5 -88 q-45.5 -34 -122.5 -34 q-77 0 -122 34 q-45 34 -45 88 q0 75 75 105 q-58 31 -58 90 q0 49 41.5 81 q41.5 32 108.5 32 q68 0 109.5 -32 q41.5 -32 41.5 -81 q0 -60 -59 -90 q76 -30 76 -105 ZM751 337 q-20 -15 -20 -38 q0 -23 20.5 -39 q20.5 -16 51.5 -16 q32 0 52 15.5 q20 15.5 20 39.5 q0 24 -19.5 38.5 q-19.5 14.5 -52.5 14.5 q-32 0 -52 -15 ZM865 74 q22 17 22 45 q0 28 -22.5 46.5 q-22.5 18.5 -61.5 18.5 q-39 0 -61.5 -18.5 q-22.5 -18.5 -22.5 -46.5 q0 -28 22.5 -45 q22.5 -17 61.5 -17 q40 0 62 17 Z" /><glyph glyph-name="fiveeighths" unicode="&#x215d;" d="M365 410 q0 -67 -45.5 -107.5 q-45.5 -40.5 -119.5 -40.5 q-83 0 -173 54 l40 60 q80 -42 129 -42 q37 0 60 19 q23 19 23 52 q0 31 -20.5 48.5 q-20.5 17.5 -59.5 17.5 q-45 0 -80 -29 l-66 7 l21 231 l270 0 l0 -70 l-202 0 l-9 -97 q37 26 92 26 q62 0 101 -38 q39 -38 39 -91 ZM704 696 l65 -41 l-472 -671 l-64 42 l471 670 ZM973 111 q0 -54 -45.5 -88 q-45.5 -34 -122.5 -34 q-77 0 -122 34 q-45 34 -45 88 q0 75 75 105 q-58 31 -58 90 q0 49 41.5 81 q41.5 32 108.5 32 q68 0 109.5 -32 q41.5 -32 41.5 -81 q0 -60 -59 -90 q76 -30 76 -105 ZM753 337 q-20 -15 -20 -38 q0 -23 20.5 -39 q20.5 -16 51.5 -16 q32 0 52 15.5 q20 15.5 20 39.5 q0 24 -19.5 38.5 q-19.5 14.5 -52.5 14.5 q-32 0 -52 -15 ZM867 74 q22 17 22 45 q0 28 -22.5 46.5 q-22.5 18.5 -61.5 18.5 q-39 0 -61.5 -18.5 q-22.5 -18.5 -22.5 -46.5 q0 -28 22.5 -45 q22.5 -17 61.5 -17 q40 0 62 17 Z" /><glyph glyph-name="seveneighths" unicode="&#x215e;" d="M26 680 l325 0 l0 -63 q-150 -165 -163 -345 l-90 0 q6 88 52 178 q47 94 107 160 l-231 0 l0 70 ZM617 696 l65 -41 l-472 -671 l-64 42 l471 670 ZM886 111 q0 -54 -45.5 -88 q-45.5 -34 -122.5 -34 q-77 0 -122 34 q-45 34 -45 88 q0 75 75 105 q-58 31 -58 90 q0 49 41.5 81 q41.5 32 108.5 32 q68 0 109.5 -32 q41.5 -32 41.5 -81 q0 -60 -59 -90 q76 -30 76 -105 ZM666 337 q-20 -15 -20 -38 q0 -23 20.5 -39 q20.5 -16 51.5 -16 q32 0 52 15.5 q20 15.5 20 39.5 q0 24 -19.5 38.5 q-19.5 14.5 -52.5 14.5 q-32 0 -52 -15 ZM780 74 q22 17 22 45 q0 28 -22.5 46.5 q-22.5 18.5 -61.5 18.5 q-39 0 -61.5 -18.5 q-22.5 -18.5 -22.5 -46.5 q0 -28 22.5 -45 q22.5 -17 61.5 -17 q40 0 62 17 Z" /><glyph glyph-name="arrowleft" unicode="&#x2190;" d="M870 385 l0 -93 l-664 0 l232 -229 l-66 -67 l-342 343 l342 341 l66 -66 l-232 -229 l664 0 Z" /><glyph glyph-name="arrowup" unicode="&#x2191;" d="M697 437 l-64 -65 l-214 217 l0 -589 l-100 0 l0 590 l-214 -218 l-65 65 l329 328 l328 -328 Z" /><glyph glyph-name="arrowright" unicode="&#x2192;" d="M555 680 l342 -341 l-342 -343 l-66 67 l232 229 l-664 0 l0 93 l664 0 l-232 229 l66 66 Z" /><glyph glyph-name="arrowdown" unicode="&#x2193;" d="M633 338 l64 -65 l-328 -328 l-329 328 l65 65 l214 -218 l0 590 l100 0 l0 -589 l214 217 Z" /><glyph glyph-name="uni2196" unicode="&#x2196;" d="M713 133 l-66 -66 l-485 485 l0 -337 l-92 0 l0 495 l495 0 l0 -91 l-338 0 l486 -486 Z" /><glyph glyph-name="uni2197" unicode="&#x2197;" d="M178 710 l495 0 l0 -495 l-92 0 l0 337 l-484 -485 l-67 66 l486 486 l-338 0 l0 91 Z" /><glyph glyph-name="uni2198" unicode="&#x2198;" d="M581 495 l92 0 l0 -495 l-495 0 l0 91 l338 0 l-486 486 l67 66 l484 -485 l0 337 Z" /><glyph glyph-name="uni2199" unicode="&#x2199;" d="M713 577 l-486 -486 l338 0 l0 -91 l-495 0 l0 495 l92 0 l0 -337 l485 485 l66 -66 Z" /><glyph glyph-name="partialdiff" unicode="&#x2202;" d="M529 293 q0 -146 -67.5 -228 q-67.5 -82 -184.5 -82 q-109 0 -176 74 q-67 74 -67 177 q0 101 61 171 q61 70 160 70 q103 0 159 -73 q-50 193 -284 223 l24 99 q194 -26 284 -139 q91 -113 91 -292 ZM412 231 q0 63 -40 107 q-40 44 -99 44 q-58 0 -93.5 -42.5 q-35.5 -42.5 -35.5 -108.5 q0 -66 37 -108.5 q37 -42.5 96 -42.5 q60 0 97 43 q38 44 38 108 Z" /><glyph glyph-name="Delta" unicode="&#x2206;" d="M424 710 l257 -710 l-668 0 l256 710 l155 0 ZM166 98 l358 0 l-86 247 l-15 44 q-68 199 -79 236 q-23 -80 -49 -155 q-30 -90 -36 -107 q0 -1 -1.5 -4 q-1.5 -3 -3 -7 q-1.5 -4 -2.5 -8 l-86 -246 Z" /><glyph glyph-name="product" unicode="&#x220f;" d="M643 710 l0 -820 l-118 0 l0 720 l-330 0 l0 -720 l-118 0 l0 820 l566 0 Z" /><glyph glyph-name="summation" unicode="&#x2211;" d="M545 710 l0 -98 l-355 0 l244 -312 l-247 -317 l384 0 l0 -98 l-521 0 l0 93 l244 322 l-242 317 l0 93 l493 0 Z" /><glyph glyph-name="minus" unicode="&#x2212;" d="M560 357 l0 -94 l-520 0 l0 94 l520 0 Z" /><glyph glyph-name="radical" unicode="&#x221a;" d="M482 710 l122 0 l-250 -710 l-150 0 l-181 502 l123 0 l137 -389 l199 597 Z" /><glyph glyph-name="infinity" unicode="&#x221e;" d="M715.5 414 q49.5 -50 49.5 -124 q0 -74 -49 -123.5 q-49 -49.5 -120 -49.5 q-101 0 -190 106 q-89 -106 -185 -106 q-70 0 -119 49.5 q-49 49.5 -49 123.5 q0 74 50.5 124 q50.5 50 123.5 50 q97 0 186 -107 q89 107 180 107 q73 0 122.5 -50 ZM354 284 q-30 36 -47 53 q-35 38 -80 38 q-36 0 -59 -24 q-23 -24 -23 -62 q0 -38 22.5 -62 q22.5 -24 56.5 -24 q63 0 130 81 ZM651 227 q22 24 22 62 q0 38 -23 62 q-23 24 -58 24 q-63 0 -127 -82 q42 -50 69 -70 q27 -20 61 -20 q34 0 56 24 Z" /><glyph glyph-name="integral" unicode="&#x222b;" d="M184 -195 q-50 0 -100 15 l20 83 q35 -8 62 -8 q32 0 45 17 q13 17 13 56 l0 598 q0 78 41 119 q41 41 117 41 q50 0 105 -18 l-21 -83 q-39 10 -64 10 q-36 0 -52 -18 q-16 -18 -16 -59 l0 -589 q0 -164 -150 -164 Z" /><glyph glyph-name="approxequal" unicode="&#x2248;" d="M312 449 q66 -26 92 -26 q27 0 47.5 10 q20.5 10 52.5 40 l52 -65 q-43 -46 -75 -61 q-30 -15 -73 -15 q-37 0 -102 28 q-68 27 -101 27 q-28 0 -49 -10.5 q-21 -10.5 -53 -39.5 l-52 65 q41 42 75 59 q34 17 76 17 q38 0 110 -29 ZM312 249 q64 -26 92 -26 q27 0 47.5 10 q20.5 10 52.5 40 l52 -65 q-43 -46 -75 -61 q-30 -15 -73 -15 q-33 0 -101 27 q-65 28 -102 28 q-28 0 -49 -10.5 q-21 -10.5 -53 -39.5 l-52 65 q41 42 75 59 q34 17 76 17 q38 0 110 -29 Z" /><glyph glyph-name="notequal" unicode="&#x2260;" d="M560 363 l-196 0 l-39 -106 l235 0 l0 -94 l-270 0 l-39 -108 l-95 0 l39 108 l-155 0 l0 94 l190 0 l39 106 l-229 0 l0 94 l263 0 l39 107 l95 0 l-39 -107 l162 0 l0 -94 Z" /><glyph glyph-name="lessequal" unicode="&#x2264;" d="M540 576 l0 -98 l-356 -126 l356 -126 l0 -98 l-480 180 l0 88 l480 180 ZM560 94 l0 -94 l-520 0 l0 94 l520 0 Z" /><glyph glyph-name="greaterequal" unicode="&#x2265;" d="M60 576 l480 -180 l0 -88 l-480 -180 l0 98 l356 126 l-356 126 l0 98 ZM560 94 l0 -94 l-520 0 l0 94 l520 0 Z" /><glyph glyph-name="lozenge" unicode="&#x25ca;" d="M365 710 l215 -356 l-215 -354 l-117 0 l-215 354 l215 356 l117 0 ZM306 611 l-155 -257 l155 -255 l155 255 l-155 257 Z" /><glyph glyph-name="uni2923" unicode="&#x2923;" d="M280 677 l17 -17 q84 -87 121 -132 q105 -123 105 -251 q0 -71 -33 -138 q-32 -63 -80 -121 q-47 -56 -130 -142 l-74 72 q65 68 115 125 q94 112 94 204 q0 55 -27 108 q-26 54 -66 101 q-47 55 -112 122 l0 -221 l-90 0 l0 378 l378 0 l0 -88 l-218 0 Z" /><glyph glyph-name="uni2924" unicode="&#x2924;" d="M523 387 l-90 0 l0 222 q-76 -79 -113 -123 q-92 -109 -92 -209 q0 -53 27 -105 q28 -54 67 -99 q50 -57 115 -125 l-74 -72 q-91 94 -131 142 q-112 134 -112 259 q0 71 30 135 q30 62 75 116 q37 45 121 132 l17 17 l-218 0 l0 88 l378 0 l0 -378 Z" /><glyph glyph-name="uni2925" unicode="&#x2925;" d="M433 306 l90 0 l0 -378 l-378 0 l0 88 l218 0 l-17 17 q-90 93 -121 131 q-105 126 -105 252 q0 71 33 137 q33 67 79 122 q40 48 131 142 l74 -72 q-65 -68 -115 -125 q-94 -112 -94 -204 q0 -55 26 -109 q26 -54 66 -101 q40 -46 113 -122 l0 222 Z" /><glyph glyph-name="uni2926" unicode="&#x2926;" d="M297 33 l-17 -17 l218 0 l0 -88 l-378 0 l0 378 l90 0 l0 -221 q65 67 112 122 q93 112 93 209 q0 52 -27 105 q-28 54 -67 99 q-50 57 -115 125 l74 72 q83 -86 130 -142 q113 -131 113 -259 q0 -72 -31 -135 q-29 -63 -74 -117 q-31 -38 -121 -131 Z" /><glyph glyph-name="uniE000" unicode="&#xe000;" d="M315 0 l-265 0 l0 230 l13 0 q38 -101 105 -159 q67 -58 145 -58 q60 0 95 38 q35 40 35 92 q0 54 -38 94 q-22 22 -48.5 34.5 q-26.5 12.5 -86.5 31.5 q-59 17 -93 33.5 q-34 16.5 -62 44.5 q-58 58 -58 144 q0 78 49 131.5 q49 53.5 126 53.5 l243 0 l0 -197 l-10 0 q-42 72 -76 106 q-77 78 -158 78 q-44 0 -79 -25 q-35 -26 -35 -84 q0 -54 34 -88 q23 -23 53 -36.5 q30 -13.5 88 -30.5 q67 -20 105.5 -38 q38.5 -18 70.5 -50 q50 -48 50 -135 q0 -98 -55 -154 q-55 -56 -148 -56 ZM503 710 l375 0 q141 2 233.5 -105.5 q92.5 -107.5 90.5 -261.5 q0 -65 -19.5 -125 q-19.5 -60 -59 -110 q-39.5 -50 -105 -79.5 q-65.5 -29.5 -149.5 -28.5 l-365 0 l0 13 l20 0 q56 0 82.5 23.5 q26.5 23.5 26.5 75.5 l0 486 q0 51 -26.5 75 q-26.5 24 -82.5 24 l-21 0 l0 13 ZM1149 13 l16 0 q57 0 83.5 24 q26.5 24 26.5 75 l0 486 q0 52 -26.5 75.5 q-26.5 23.5 -83.5 23.5 l-17 0 l0 13 l384 0 l0 -13 l-27 0 q-56 0 -82 -23.5 q-26 -23.5 -26 -75.5 l0 -486 q0 -55 16.5 -77 q16.5 -22 58.5 -22 l66 0 q37 2 60.5 18 q23.5 16 52.5 63 q29 47 79 150 l12 0 l0 -244 l-593 0 l0 13 ZM1654 710 l0 -13 l-20 0 l0 -54 l-15 0 l0 54 l-20 0 l0 13 l55 0 ZM1742 710 l0 -67 l-15 0 l0 49 l-19 -49 l-11 0 l-18 49 l0 -49 l-15 0 l0 67 l23 0 l16 -45 l17 45 l22 0 ZM1072 329 q0 185 -60 276.5 q-60 91.5 -153 91.5 l-65 0 q-23 0 -31 -9.5 q-8 -9.5 -8 -36.5 l0 -554 q0 -84 107 -84 q110 0 160 89 q50 91 50 227 Z" /><glyph glyph-name="uniE001" unicode="&#xe001;" d="M505 -82 q-102 0 -192 43 q-121 56 -192 169.5 q-71 113.5 -71 243.5 q0 101 43 191 q56 121 169 192 q113 71 244 71 q102 0 192 -43 q121 -56 192 -169.5 q71 -113.5 71 -243.5 q0 -101 -43 -191 q-56 -121 -169 -192 q-113 -71 -244 -71 ZM946 372 q0 126 -68 236 q-68 110 -186 165 q-90 41 -186 41 q-127 0 -237 -68 q-108 -67 -164 -186 q-41 -90 -41 -186 q0 -127 68 -237 q66 -107 187 -164 q90 -41 186 -41 q126 0 236.5 68.5 q110.5 68.5 163.5 185.5 q41 90 41 186 ZM527 720 l8 64 l45 -6 l-2 -15 l-23 2 l-1 -9 l22 -3 l-2 -16 l-22 3 l-3 -23 l-22 3 ZM430 723 l-1 11 l22 3 l1 -4 q0 -2 6 -2 l5 3 l-1 5 q0 2 -6 2 l-2 0 q-21 0 -27 8 l-3 18 q6 16 34 16 q15 0 21 -9 l2 -11 l-23 -3 l0 4 q-2 2 -6 2 q-5 -2 -5 -3 l0 -4 q2 -2 7 -2 l2 0 q23 -2 27 -8 l2 -18 q-4 -16 -33 -16 q-14 0 -22 8 ZM621 700 l-4 23 l-5 2 l-6 -20 l-22 7 l20 62 l35 -12 q13 -4 16 -16 l-7 -21 q-4 -3 -10 -5 l4 -14 l-4 -12 l-17 6 ZM402 704 l-17 16 l-4 -1 l6 -20 l-21 -7 l-21 61 l35 12 q2 1 8 1 q9 0 14 -5 l7 -20 q-1 -8 -5 -11 l12 -8 l4 -12 l-18 -6 ZM617 739 l7 -3 q5 0 6 1 l3 8 q-1 3 -5 4 l-7 3 l-4 -13 ZM376 733 l8 3 q1 0 4 3 l-3 9 q-3 1 -6 0 l-7 -3 l4 -12 ZM314 663 l-32 57 l41 23 l8 -14 l-21 -12 l4 -7 l20 11 l7 -14 l-19 -11 l4 -8 l22 12 l7 -14 l-41 -23 ZM655 700 l20 35 q4 4 12 4 q9 0 19 -5 q19 -10 19 -26 l-20 -35 q-4 -4 -12 -4 q-8 0 -20 5 q-18 10 -18 26 ZM688 688 l15 26 q0 3 -5 5 q-5 2 -6 1 l-15 -27 q0 -3 4 -4 q5 -3 7 -1 ZM276 633 l-32 37 l-11 -9 l-10 12 l40 33 l10 -12 l-11 -9 l31 -38 l-17 -14 ZM710 656 l43 48 l21 -19 l-8 -22 l2 -2 l20 11 l21 -19 l-43 -48 l-16 14 l22 25 l-1 1 l-23 -10 l-7 7 l8 23 l-2 2 l-22 -25 l-15 14 ZM505 54 q-69 0 -134 30 q-85 40 -135 120 q-49 79 -49 170 q0 70 30 134 q41 86 119 135 q79 49 170 49 q70 0 134 -30 q86 -40 135 -120 q49 -77 49 -170 q0 -68 -30 -134 q-41 -86 -119 -135 q-79 -49 -170 -49 ZM811 373 q0 87 -48 162 q-47 75 -129 114 q-64 29 -128 29 q-87 0 -164 -47 q-76 -47 -113 -129 q-29 -64 -29 -128 q0 -86 47 -163 q48 -77 130 -114 q64 -29 128 -29 q87 0 163 47 q76 47 114 129 q29 66 29 129 ZM232 586 l-38 32 l-9 -12 l-12 11 l33 40 l12 -10 l-9 -12 l37 -31 l-14 -18 ZM799 579 l9 5 l12 -19 l-4 -2 q-1 -1 1 -6 q1 -4 4 -4 l4 2 q2 2 0 7 l-1 2 q-5 12 -5 19 q0 3 2 9 l15 9 q14 0 25 -18 q6 -7 6 -19 q0 -6 -3 -11 l-9 -5 l-12 19 l4 2 q1 1 -1 6 q-1 4 -4 4 l-4 -2 q0 -5 1 -7 l1 -2 q5 -17 5 -20 q0 -2 -2 -8 l-16 -9 q-14 0 -25 18 q-6 12 -6 19 q0 5 3 11 ZM193 525 l-56 32 l23 41 l14 -8 l-12 -21 l7 -4 l11 19 l14 -7 l-11 -20 l8 -5 l12 22 l13 -8 l-23 -41 ZM515 537 q0 -8 -5 -21 q-12 -23 -29 -23 q-16 0 -16 21 q0 8 5 21 q11 23 28 23 q17 0 17 -21 ZM827 507 l47 25 l12 3 l6 -21 l-33 -14 l0 -2 l37 3 l5 -16 l-32 -18 l0 -1 l36 5 l6 -18 l-12 -4 l-53 -6 l-7 26 l21 12 l-1 1 l-24 -1 l-8 26 ZM174 475 l-61 23 l8 21 l46 -17 l6 17 l15 -5 l-14 -39 ZM657 471 q0 -8 -5 -21 q-11 -23 -28 -23 q-17 0 -17 21 q0 8 5 21 q11 23 28 23 q17 0 17 -21 ZM141 431 q0 -5 -1 -6 q-2 -7 -10 -7 l-5 1 q-7 4 -7 11 l1 5 q3 6 10 6 q5 0 6 -1 q6 -2 6 -9 ZM849 421 l65 5 l3 -46 l-15 -2 l-2 25 l-8 -1 l1 -23 l-16 -1 l-1 23 l-9 -1 l1 -24 l-15 -2 l-4 47 ZM627 264 l-15 7 q-19 -32 -52 -50.5 q-33 -18.5 -69 -18.5 q-33 0 -59 13 q-38 18 -59.5 52.5 q-21.5 34.5 -21.5 74.5 q0 21 8 47 l-15 7 q-10 -24 -10 -54 q0 -45 24.5 -84 q24.5 -39 66.5 -58 q31 -15 66 -15 q42 0 78.5 21 q36.5 21 57.5 58 ZM161 326 l-65 -4 l-2 20 l22 7 l-1 1 l-21 4 l-2 20 l66 4 l1 -15 l-35 -2 l0 -2 l24 -4 l1 -8 l-24 -7 l0 -1 l35 2 l1 -15 ZM853 362 l64 -7 l-3 -33 q-3 -17 -15 -22 l-40 4 q-10 7 -10 22 l0 3 l4 33 ZM866 338 l-1 -7 q0 -3 2 -5 l29 -3 q2 0 2 5 l1 7 l-33 3 ZM170 286 l-64 -14 l-4 16 l52 12 l-3 12 l12 3 l7 -29 ZM844 294 l61 -20 l-13 -44 l-15 4 l7 24 l-8 2 l-7 -22 l-15 5 l7 22 l-9 2 l-7 -23 l-15 4 l14 46 ZM178 233 l-45 -16 q-12 0 -17 15 q-1 2 -1 9 q0 12 5 14 l44 16 q12 0 17 -15 l2 -9 q0 -9 -5 -14 ZM164 254 l-33 -12 q-2 -2 -1 -5 q2 -2 3 -2 l34 12 l1 4 q-2 3 -4 3 ZM826 237 l57 -30 l-11 -21 l-32 0 l-1 -2 l25 -13 l-10 -18 l-57 30 l11 21 l32 0 l1 2 l-25 13 l10 18 ZM211 190 l-58 -32 l-8 15 l22 12 l-4 6 l-21 -12 l-8 15 l57 31 l8 -14 l-23 -13 l3 -7 l24 13 l8 -14 ZM240 149 l-52 -39 l-10 13 l13 10 l0 1 l-19 -4 l-7 11 l8 6 l20 2 l15 24 l9 7 l8 -11 l-12 -18 l3 1 l14 10 l10 -13 ZM270 106 l-33 -34 q-11 -4 -22 7 q-8 8 -8 20 l14 14 l11 -11 l-8 -9 q-1 -1 -0.5 -3 q0.5 -2 3.5 -2 l2 0 l25 25 q0 3 -1 4 l-4 1 l-10 -9 l-11 11 l15 15 q10 3 20 -7 q8 -10 8 -18 l-1 -4 ZM801 122 q0 -3 -1 -4 q-3 -7 -11 -7 q-4 0 -5 1 q-6 3 -6 11 q0 3 1 4 q4 7 10 7 q4 0 5 -1 q7 -3 7 -11 ZM730 108 l39 -53 l-17 -12 l-17 14 l-1 -1 l8 -20 l-16 -12 l-39 53 l13 9 l21 -28 l1 1 l-9 23 l6 4 l18 -16 l1 1 l-20 28 l12 9 ZM312 73 l-27 -38 q-11 -4 -23 4 q-10 6 -10 17 l0 3 l28 38 q8 8 22 -3 q10 -7 10 -17 l0 -4 ZM290 83 l-21 -29 q-1 -1 1 -4 q3 -2 5 0 l21 29 q0 2 -2 4 q-2 2 -4 0 ZM653 60 l9 -14 l8 4 l-5 15 l13 7 l4 -10 l17 -53 l-23 -11 l-32 45 l-5 10 l14 7 ZM350 63 l-25 -46 l9 -5 l-6 -11 l-32 16 l6 12 l9 -5 l25 47 l14 -8 ZM402 34 l-4 -13 l-15 5 l2 6 q0 3 -3 3 q-2 2 -4 0 l-2 -7 q0 -2 3 -4 l1 -1 q12 -11 12 -18 l-7 -19 q-6 -3 -13 -3 q-6 0 -8 1 q-12 5 -15 16 l4 12 l15 -5 l-2 -6 q0 -3 4 -3 q2 0 3 1 l2 5 q0 2 -3 5 l-1 0 q-12 9 -12 18 l7 20 q7 4 12 4 q1 0 9 -2 q15 -5 15 -15 ZM629 49 l19 -63 l-23 -7 q-10 -4 -18 4 l-14 45 q0 8 12 13 l24 8 ZM681 19 l-7 19 l-6 -3 l11 -17 l2 1 ZM578 34 l11 -65 l-30 -5 l-2 13 l14 2 l-3 13 l-13 -2 l-2 12 l13 3 l-2 14 l-14 -3 l-2 13 l30 5 ZM483 27 l-9 -65 l-17 2 l-5 32 l-1 0 l-4 -31 l-16 2 l8 65 l18 -2 l5 -32 l1 -1 l4 32 l16 -2 ZM617 31 l-4 -1 q-3 0 -3 -3 l11 -34 q3 -3 4 -1 l4 1 l-12 38 ZM512 26 l0 -65 l-17 0 l0 66 l17 -1 Z" /><glyph glyph-name="uniE002" unicode="&#xe002;" d="M394 3 l0 -103 l-79 0 l0 100 l-74 0 l0 -100 l-79 0 l0 100 l-101 0 l0 680 l101 0 l0 100 l79 0 l0 -100 l74 0 l0 100 l79 0 l0 -106 q65 -15 102.5 -57.5 q37.5 -42.5 37.5 -109.5 q0 -107 -96 -148 q57 -19 88 -62.5 q31 -43.5 31 -105.5 q0 -77 -43.5 -127 q-43.5 -50 -119.5 -61 ZM309 588 l-131 0 l0 -188 l130 0 q54 0 83.5 26 q29.5 26 29.5 72 q0 90 -112 90 ZM442 200 q0 51 -33.5 79.5 q-33.5 28.5 -95.5 28.5 l-135 0 l0 -216 l135 0 q129 0 129 108 Z" /><glyph glyph-name="fi" unicode="&#xfb01;" d="M217 554 l0 -52 l117 0 l0 -83 l-117 0 l0 -419 l-110 0 l0 419 l-89 0 l0 83 l89 0 l0 60 q0 79 39 119.5 q39 40.5 114 40.5 q42 0 85 -12 l-14 -85 q-32 5 -48 5 q-38 0 -52 -16.5 q-14 -16.5 -14 -59.5 ZM410 702 l110 0 l0 -113 l-110 0 l0 113 ZM410 0 l0 502 l110 0 l0 -502 l-110 0 Z" /><glyph glyph-name="fl" unicode="&#xfb02;" d="M217 554 l0 -52 l117 0 l0 -83 l-117 0 l0 -419 l-110 0 l0 419 l-89 0 l0 83 l89 0 l0 60 q0 79 39 119.5 q39 40.5 114 40.5 q42 0 85 -12 l-14 -85 q-32 5 -48 5 q-38 0 -52 -16.5 q-14 -16.5 -14 -59.5 ZM410 710 l110 0 l0 -710 l-110 0 l0 710 Z" /></font>
</defs>
</svg>
