<svg xmlns="http://www.w3.org/2000/svg" viewBox="0 0 351.62 29.93"><g id="Слой_2" data-name="Слой 2"><g id="Layer_1" data-name="Layer 1"><g id="HrTech_White" data-name="HrTech White"><path d="M35.47,1.69a32.67,32.67,0,0,0-11.17,2,.57.57,0,0,0-.33.57l.6,4a.36.36,0,0,0,.14.23.33.33,0,0,0,.26,0,49,49,0,0,1,5-1.16c4-.67,6.22-.5,7.34.56A2.83,2.83,0,0,1,38,10.47l-.1.76s-4.85.65-8,1.24a18,18,0,0,0-6.71,2.28c-3.28,2.13-4.09,6.31-3.46,9.29.55,2.61,2.85,5.73,10.7,5.73H31c12,0,13.57-2.05,14.1-6.39l.72-5.76L46.75,10a6.56,6.56,0,0,0-1.34-5.48C43.71,2.62,40.46,1.69,35.47,1.69Zm1.77,14.73S37,18.68,37,18.71l-.71,5.71-.1,0a12,12,0,0,1-3.43.42h0a5.06,5.06,0,0,1-3.6-1.07,3.5,3.5,0,0,1-.93-2.6c0-2.28,1.36-3.71,4.14-4.23s5-.76,5-.76Z" style="fill:#fff"/><path d="M144.21,1.7h-.88c-6.36,0-10.68,1.83-12.83,5.43-1.73,2.87-2.56,12.6-2.57,12.7a10.29,10.29,0,0,0,.48,4.58c1.79,4.77,8,5.41,11.57,5.37,6.41,0,10.74-1.83,12.85-5.34.65-1.08,1.6-4.09,2.48-12.29l0-.29a10.51,10.51,0,0,0-.31-4.4C153.62,2.9,148.37,1.82,144.21,1.7Zm1.47,17.76,0,.15a6.14,6.14,0,0,1-1.46,3.61,4.61,4.61,0,0,1-3.09,1.21,5,5,0,0,1-2.87-.51A3.74,3.74,0,0,1,136.5,21c-.06-.77.63-5.53,1-8.09l.17-1.18a5.61,5.61,0,0,1,1.9-3.69,4.85,4.85,0,0,1,3-1.05,4.66,4.66,0,0,1,2.64.62,3.52,3.52,0,0,1,1.46,2.92C146.7,11.11,146.36,14.19,145.68,19.46Z" style="fill:#fff"/><path d="M127.06,1.9h-3.81a6,6,0,0,0-5.18,2.7l-9.66,12,.26-.71,1.7-13.63a.28.28,0,0,0-.08-.25.3.3,0,0,0-.24-.11h-7.94a.48.48,0,0,0-.45.4L98.34,28.84a.29.29,0,0,0,.07.23.31.31,0,0,0,.23.08h4.15a6.05,6.05,0,0,0,5.14-2.75l9.44-12.26-.31.75-1.72,13.9a.34.34,0,0,0,.07.25.35.35,0,0,0,.26.11h7.93a.48.48,0,0,0,.45-.4l3.3-26.56a.26.26,0,0,0-.06-.23A.29.29,0,0,0,127.06,1.9Z" style="fill:#fff"/><path d="M184.16,1.69l-8.09,1a.57.57,0,0,0-.47.46l-1.15,9.3-.06.38h-7.73L168,2a.28.28,0,0,0-.07-.23.27.27,0,0,0-.23-.07l-8.09,1a.57.57,0,0,0-.47.46L156,28.79a.33.33,0,0,0,.32.36h7.94a.48.48,0,0,0,.46-.4L166,18.48V18.4h7.74l-1.29,10.39a.33.33,0,0,0,.32.36h2c3.66,0,6.35-.44,6.92-4.67L184.45,2a.25.25,0,0,0-.06-.23A.26.26,0,0,0,184.16,1.69Z" style="fill:#fff"/><path d="M98.65,7.74l.68-5.51A.33.33,0,0,0,99,1.87H68.91a2.06,2.06,0,0,0-1.44.68l-8.41,10.3h-1.2L59.21,2a.27.27,0,0,0-.07-.23.3.3,0,0,0-.23-.07l-8.09,1a.57.57,0,0,0-.47.47L47.16,28.8a.3.3,0,0,0,.07.26.36.36,0,0,0,.25.1h8a.48.48,0,0,0,.45-.4l1.29-10.34h1.24l5.77,10.35a.82.82,0,0,0,.65.39h8.61c.14,0,.28-.07.16-.31L65.77,15.71l6.54-7.57h9.45L79.19,28.8a.3.3,0,0,0,.07.26.36.36,0,0,0,.25.1h7.94a.46.46,0,0,0,.45-.4L90.43,8.14h7.76A.48.48,0,0,0,98.65,7.74Z" style="fill:#fff"/><path d="M18.76,1.88H11.17a2.08,2.08,0,0,0-1.38.63L.31,14a1.26,1.26,0,0,0-.14,1.46l7.37,13a1.45,1.45,0,0,0,1.19.69H15.3c.47,0,.7-.3.47-.67l-7.39-13,10.7-13C19.36,2.14,19.22,1.88,18.76,1.88Z" style="fill:#fff"/><path d="M204.85,15.55l-7.37-13a1.5,1.5,0,0,0-1.19-.69h-6.58c-.46,0-.69.3-.47.68l7.4,13-10.7,13.05c-.29.33-.15.59.32.59h7.59a2,2,0,0,0,1.37-.63L204.71,17A1.26,1.26,0,0,0,204.85,15.55Z" style="fill:#fff"/><path d="M296.16,3.88h-9.44l-3.08,25a.61.61,0,0,1-.63.54h-2.69a.53.53,0,0,1-.58-.58l3.08-25h-9.36a.55.55,0,0,1-.55-.63l.23-2.06a.7.7,0,0,1,.71-.59h22.62a.51.51,0,0,1,.54.59l-.27,2.14A.57.57,0,0,1,296.16,3.88Z" style="fill:#fff"/><path d="M296.14,22.4c0,3.55,2.07,4.76,6.17,4.76A15.8,15.8,0,0,0,307.88,26c.39-.15.59,0,.63.35l.23,1.76c0,.31-.08.51-.47.66a19.5,19.5,0,0,1-6.74,1.17c-6.56,0-9-2.5-9-7.8a26.06,26.06,0,0,1,.2-2.92c.82-6.75,2.85-10.77,10.53-10.77,5.15,0,8,2,8,6.28,0,6.08-3.74,6.71-9.2,6.71h-5.93A8.2,8.2,0,0,0,296.14,22.4Zm11.51-7.25c.08-2.69-1.29-3.94-4.68-3.94-4.92,0-6.12,2.81-6.51,7.68h5.92C306,18.89,307.57,18.39,307.65,15.15Z" style="fill:#fff"/><path d="M329.87,12.15a20.05,20.05,0,0,0-5.07-.9c-3.36,0-5.11,1.05-6.13,4a23.76,23.76,0,0,0-1,6.82,5.31,5.31,0,0,0,1.13,3.86c.82.86,2.15,1.17,4.06,1.17A22,22,0,0,0,328,26.3a.9.9,0,0,1,.28,0,.41.41,0,0,1,.43.4l.11,1.52a.58.58,0,0,1-.47.7,23.45,23.45,0,0,1-6.24,1c-3,0-5-.54-6.35-1.75s-1.87-3.16-1.87-5.81a26.13,26.13,0,0,1,1.24-8c1.41-4,4.14-5.89,9.64-5.89a18.73,18.73,0,0,1,5.92,1.05.51.51,0,0,1,.36.47,1.29,1.29,0,0,1-.08.39l-.51,1.44A.49.49,0,0,1,329.87,12.15Z" style="fill:#fff"/><path d="M351.43,15.15l-1.72,13.69a.6.6,0,0,1-.62.58h-2.46a.48.48,0,0,1-.54-.58l1.67-13.34a17.54,17.54,0,0,0,.16-1.91c0-1.87-1.05-2.38-3.12-2.38a29.38,29.38,0,0,0-6.87,1l-2,16.65a.62.62,0,0,1-.67.58h-2.41c-.36,0-.59-.19-.55-.58l3.39-27.61c0-.36.24-.51.59-.59l2.53-.55a.53.53,0,0,1,.63.59l-.86,6.59-.66,2.26a33.67,33.67,0,0,1,7.6-1.09c2.26,0,3.9.35,4.88,1.21a4,4,0,0,1,1.24,3.28A19.41,19.41,0,0,1,351.43,15.15Z" style="fill:#fff"/><path d="M237.94,29.33h-2.69a.52.52,0,0,1-.54-.58l1.56-12.64H219.92l-1.56,12.64a.66.66,0,0,1-.66.58h-2.65a.54.54,0,0,1-.59-.58L217.9,1c0-.35.23-.47.54-.51L221.33,0a.44.44,0,0,1,.51.51l-1.53,12.25h16.35L238.1,1a.59.59,0,0,1,.58-.51L241.61,0a.41.41,0,0,1,.47.51l-3.47,28.24A.68.68,0,0,1,237.94,29.33Z" style="fill:#fff"/><path d="M269.1,12c-1,1.95-2.88,3.12-6.08,3.51l-.12,1c2,.2,3.86.47,4.92,2.19a7.13,7.13,0,0,1,.78,3.7c0,.7,0,.94-.08,2.15l-.31,4.21a.56.56,0,0,1-.63.58h-2.84c-.39,0-.59-.19-.55-.62l.31-4.41c0-.66.08-1.4.08-2.06a4.05,4.05,0,0,0-1.17-3.12c-1-.9-2.57-1.37-4.87-1.41l-8-.19-1.37,11.23a.7.7,0,0,1-.7.58h-2.61a.55.55,0,0,1-.58-.58l3.39-27.61a.75.75,0,0,1,.74-.63H262c3.31,0,5.77.7,7.09,2.46a6.44,6.44,0,0,1,1.1,4A10.87,10.87,0,0,1,269.1,12Zm-3.66-6.91c-.7-.93-1.91-1.4-3.79-1.4h-9.43l-1.37,11,7.84-.27c2.73-.08,5.07-.47,6.36-2.38a7.74,7.74,0,0,0,1.09-4.29A4.22,4.22,0,0,0,265.44,5.07Z" style="fill:#fff"/></g></g></g></svg>