<svg width="16" height="16" viewBox="0 0 16 16" fill="none" xmlns="http://www.w3.org/2000/svg">
<path fill-rule="evenodd" clip-rule="evenodd" d="M8 16C12.4183 16 16 12.4183 16 8C16 3.58172 12.4183 0 8 0C3.58172 0 0 3.58172 0 8C0 12.4183 3.58172 16 8 16ZM12.2433 6.79397C12.6128 6.38346 12.5795 5.75117 12.169 5.38171C11.7585 5.01226 11.1262 5.04553 10.7567 5.45604L7.08988 9.53033L5.31377 7.04377C4.99276 6.59436 4.36821 6.49027 3.9188 6.81128C3.46938 7.13228 3.36529 7.75683 3.6863 8.20625L6.1863 11.7062C6.36251 11.9529 6.64111 12.1064 6.94378 12.1234C7.24646 12.1405 7.54053 12.0193 7.74333 11.794L12.2433 6.79397Z" fill="white"/>
</svg>
