<svg width="18" height="18" viewBox="0 0 18 18" fill="none" xmlns="http://www.w3.org/2000/svg">
<path fill-rule="evenodd" clip-rule="evenodd" d="M2.39301 0.824143C2.00248 0.433619 1.36932 0.433619 0.978793 0.824143C0.588268 1.21467 0.588268 1.84783 0.978792 2.23836L7.62984 8.88941L0.757752 15.7615C0.367228 16.152 0.367228 16.7852 0.757752 17.1757C1.14828 17.5662 1.78144 17.5662 2.17197 17.1757L9.04405 10.3036L15.828 17.0876C16.2186 17.4781 16.8517 17.4781 17.2422 17.0876C17.6328 16.6971 17.6328 16.0639 17.2422 15.6734L10.4583 8.88941L17.0212 2.32647C17.4117 1.93594 17.4117 1.30278 17.0212 0.912252C16.6307 0.521728 15.9975 0.521728 15.607 0.912252L9.04405 7.47519L2.39301 0.824143Z" fill="white"/>
</svg>
