<svg width="103" height="10" viewBox="0 0 103 10" fill="none" xmlns="http://www.w3.org/2000/svg">
<g clip-path="url(#clip0_10652_617)">
<path d="M12.8749 0.11145C10.586 0.11145 8.81215 0.778117 8.81215 0.833672C8.75493 0.889228 8.69771 0.944783 8.69771 1.05589L8.9266 2.44478C8.9266 2.50034 8.9266 2.50034 8.98382 2.50034C8.98382 2.50034 9.04104 2.50034 9.09827 2.50034C9.09827 2.50034 10.0138 2.22256 10.8722 2.11145C12.3027 1.88923 13.1038 1.94478 13.5616 2.33367C13.7905 2.55589 13.8477 2.83367 13.8477 3.22256L13.7905 3.50034C13.7905 3.50034 12.0166 3.72256 10.8722 3.94478C9.72771 4.16701 8.98382 4.38923 8.4116 4.72256C7.20993 5.50034 6.92382 6.94478 7.15271 8.00034C7.3816 8.94478 8.18271 10.0003 11.0438 10.0003H11.2727C15.6216 10.0003 16.1938 9.27812 16.4227 7.72256L16.7088 5.66701L17.0522 3.00034C17.1094 2.22256 16.9377 1.55589 16.4799 1.11145C15.9077 0.444783 14.706 0.11145 12.8749 0.11145ZM13.5044 5.27812C13.5044 5.27812 13.3899 6.05589 13.3899 6.11145L13.161 8.11145H13.1038C13.1038 8.11145 12.646 8.27812 11.8449 8.27812C11.5588 8.27812 10.9294 8.27812 10.5288 7.88923C10.2999 7.66701 10.1855 7.38923 10.1855 6.94478C10.1855 6.16701 10.7005 5.61145 11.6733 5.44478C12.7033 5.27812 13.4472 5.16701 13.4472 5.16701L13.5044 5.27812Z" fill="white"/>
<path d="M52.4157 0.11145H52.0724C49.7835 0.11145 48.1812 0.778117 47.3801 2.00034C46.7507 3.00034 46.4646 6.44478 46.4646 6.50034C46.4074 7.16701 46.4646 7.66701 46.6362 8.11145C47.2657 9.77812 49.5546 10.0003 50.8707 10.0003C53.2168 10.0003 54.7618 9.33367 55.5629 8.11145C55.7918 7.72256 56.1351 6.66701 56.4785 3.77812V3.66701C56.5357 3.05589 56.5357 2.55589 56.364 2.11145C55.7918 0.500339 53.9035 0.167006 52.4157 0.11145ZM52.9307 6.38923C52.8735 6.83367 52.759 7.33367 52.4157 7.72256C52.1296 8.00034 51.7862 8.11145 51.2712 8.16701C50.8135 8.16701 50.5274 8.11145 50.2412 8.00034C49.8979 7.83367 49.669 7.38923 49.6118 7.00034C49.6118 6.72256 49.8407 5.05589 49.9551 4.16701L50.0124 3.72256C50.0696 3.33367 50.2412 2.77812 50.699 2.44478C50.9851 2.22256 51.3857 2.05589 51.7862 2.05589C52.1868 2.05589 52.4729 2.11145 52.759 2.27812C53.1596 2.55589 53.274 3.00034 53.274 3.33367C53.3312 3.38923 53.1596 4.50034 52.9307 6.38923Z" fill="white"/>
<path d="M46.1784 0.167006H44.805C43.6606 0.167006 43.2028 0.833672 42.9167 1.11145L39.4261 5.33367L39.4834 5.11145L40.1128 0.278117C40.1128 0.222561 40.1128 0.222561 40.1128 0.167006C40.1128 0.167006 40.0556 0.11145 39.9984 0.11145H37.1372C37.08 0.11145 36.9656 0.167006 36.9656 0.278117L35.7639 9.667C35.7639 9.72256 35.7639 9.72256 35.7639 9.72256H35.8211H37.3089C38.4534 9.72256 38.9684 9.00034 39.1972 8.77812L42.6306 4.44478L42.5161 4.72256L41.8867 9.61145C41.8867 9.667 41.8867 9.667 41.8867 9.72256C41.8867 9.72256 41.9439 9.77812 42.0011 9.77812H44.8622C44.9195 9.77812 45.0339 9.72256 45.0339 9.61145L46.2356 0.222561C46.2356 0.167006 46.2356 0.167006 46.2356 0.167006H46.1784Z" fill="white"/>
<path d="M66.8926 0.112216L63.9743 0.445549C63.9171 0.445549 63.8026 0.55666 63.8026 0.612216L63.4021 3.88999V4.0011H60.5982L61.1132 0.167771C61.1132 0.112216 61.1132 0.112216 61.1132 0.112216C61.1132 0.112216 61.056 0.0566602 61.056 0.112216L58.1376 0.445549C58.0804 0.445549 57.966 0.55666 57.966 0.612216L56.8215 9.66777C56.8215 9.72332 56.8215 9.72333 56.8215 9.77888C56.8215 9.77888 56.8788 9.83444 56.936 9.83444H59.7971C59.8543 9.83444 59.9688 9.77888 59.9688 9.66777L60.4265 6.05666H63.2304L62.7726 9.72332C62.7726 9.77888 62.7726 9.77888 62.8299 9.83444C62.8299 9.83444 62.8871 9.88999 62.9443 9.88999H63.6882C65.0043 9.88999 65.9771 9.72333 66.206 8.22333L67.236 0.278882C67.236 0.223327 67.236 0.223327 67.236 0.223327C67.0071 0.112216 66.9499 0.112216 66.8926 0.112216Z" fill="white"/>
<path d="M35.8212 2.22261L36.0501 0.278164C36.0501 0.222608 36.0501 0.222608 36.0501 0.167052C36.0501 0.167052 35.9929 0.111497 35.9356 0.111497H25.0634C24.8918 0.111497 24.7201 0.167052 24.5484 0.333719L21.5156 3.94483H21.0579L21.5729 0.111497C21.5729 0.0559414 21.5729 0.0559414 21.5729 0.0559414C21.5729 0.0559414 21.5156 0.0003858 21.5156 0.0559414L18.5973 0.389275C18.3684 0.44483 18.3112 0.555941 18.3112 0.611497L17.1667 9.66705C17.1667 9.72261 17.1667 9.72261 17.1667 9.77816C17.1667 9.77816 17.224 9.83372 17.2812 9.83372H20.1423C20.1995 9.83372 20.314 9.77816 20.314 9.66705L20.7717 6.00039H21.2295L23.3467 9.66705C23.404 9.72261 23.5184 9.83372 23.5756 9.83372H26.7229C26.7801 9.83372 26.8373 9.83372 26.7801 9.72261L23.919 5.1115L26.3223 2.44483H29.7556L28.8401 9.72261C28.8401 9.77816 28.8401 9.77816 28.8401 9.83372C28.8401 9.83372 28.8973 9.88927 28.9545 9.88927H31.8156C31.8729 9.88927 31.9873 9.83372 31.9873 9.72261L32.9029 2.44483H35.7068C35.764 2.38928 35.8212 2.33372 35.8212 2.22261Z" fill="white"/>
<path d="M6.80944 0.167236H4.06278C3.83389 0.167236 3.66222 0.278347 3.54778 0.389459C3.54778 0.389459 0.171667 4.38946 0.114444 4.44501C-0.0572222 4.66724 0 4.88946 0.0572222 4.94501L2.74667 9.50057C2.80389 9.61168 3.03278 9.72279 3.20444 9.72279H5.60778C5.77944 9.72279 5.83667 9.61168 5.77944 9.50057L3.03278 4.94501L6.92389 0.333903C7.03833 0.278347 6.98111 0.167236 6.80944 0.167236Z" fill="white"/>
<path d="M74.4461 5.00068L71.7566 0.445123C71.6994 0.334011 71.4705 0.2229 71.2989 0.2229H68.8955C68.7239 0.2229 68.6666 0.334011 68.7239 0.445123L71.4133 5.00068L67.5222 9.61179C67.4077 9.7229 67.465 9.83401 67.6366 9.83401H70.3833C70.6122 9.77846 70.7839 9.7229 70.8983 9.61179C70.8983 9.61179 74.2744 5.61179 74.3316 5.55623C74.5605 5.27846 74.5033 5.05623 74.4461 5.00068Z" fill="white"/>
<path d="M84.7462 3.55494C84.3457 4.1105 83.7734 4.44383 82.9151 4.6105L82.8579 4.94383C83.0296 4.99939 83.7734 5.05494 84.2884 5.55494C84.5746 5.83272 84.7462 6.22161 84.7462 6.88828C84.7462 7.55494 84.5173 8.27717 84.0023 8.77717C83.2584 9.6105 81.9995 9.88828 80.7979 9.88828C79.2529 9.88828 78.0512 9.55494 77.5934 9.38828C77.479 9.33272 77.4218 9.27717 77.479 9.1105L77.7651 8.44383C77.8223 8.33272 77.9368 8.27717 78.0512 8.33272C78.9095 8.6105 79.9396 8.77717 80.8551 8.77717C81.6562 8.77717 82.4001 8.55494 82.9151 8.05494C83.2584 7.66606 83.3729 7.27717 83.3729 6.77717C83.3729 6.22161 83.144 5.94383 82.8007 5.72161C82.2857 5.38828 81.3701 5.33272 80.3401 5.27717C80.2257 5.27717 80.1112 5.22161 80.1112 5.1105L80.1684 4.44383C80.1684 4.33272 80.2829 4.27717 80.3973 4.22161C81.4273 4.16606 82.2857 4.05494 82.8579 3.72161C83.4301 3.44383 83.659 2.94383 83.659 2.33272C83.659 1.88828 83.4873 1.55495 83.2012 1.33272C82.9723 1.16606 82.4001 1.1105 81.7707 1.1105C80.5118 1.1105 79.4818 1.38828 78.7379 1.6105C78.5662 1.66606 78.509 1.6105 78.509 1.49939L78.3945 0.832723C78.3945 0.666056 78.4518 0.610501 78.5662 0.554945C79.0812 0.332723 80.4545 -0.000610352 82.0568 -0.000610352C83.144 -0.000610352 84.0023 0.221612 84.5173 0.721612C84.9179 1.05495 85.1468 1.55495 85.1468 2.16606C85.204 2.6105 85.0323 3.16606 84.7462 3.55494Z" fill="white"/>
<path d="M93.158 1.38817C92.3568 1.2215 91.6702 1.11039 90.6974 1.11039C89.6102 1.11039 88.8663 1.38817 88.2941 1.94373C87.8363 2.44373 87.6074 3.11039 87.4357 4.05484C87.4929 4.05484 88.9235 3.55484 90.1824 3.55484C91.2696 3.55484 92.128 3.77706 92.7002 4.33261C93.158 4.7215 93.4441 5.33261 93.4441 6.16595C93.4441 7.11039 93.158 8.16595 92.4141 8.83261C91.6702 9.55484 90.5257 9.88817 89.2096 9.88817C87.8935 9.88817 87.0352 9.61039 86.5202 9.05484C86.0052 8.49928 85.8335 7.7215 85.8335 6.66595C85.8335 6.16595 85.8907 5.61039 85.9479 4.94373C86.1768 3.27706 86.5202 1.88817 87.4929 0.999281C88.2368 0.332614 89.3241 -0.0562744 90.9263 -0.0562744C92.4141 -0.0562744 93.3868 0.221503 93.4441 0.277059C93.5013 0.277059 93.6157 0.332614 93.5585 0.443726L93.3296 1.2215C93.2724 1.33261 93.2152 1.38817 93.158 1.38817ZM91.613 5.16595C91.2124 4.83261 90.6402 4.66595 89.9535 4.66595C89.1524 4.66595 88.0652 4.83261 87.3213 5.11039C87.2641 5.61039 87.1496 6.11039 87.1496 6.66595C87.1496 7.49928 87.3213 8.05484 87.6646 8.38817C88.0079 8.7215 88.5802 8.88817 89.3241 8.88817C90.4113 8.88817 91.1552 8.61039 91.5557 7.94373C91.8418 7.49928 92.0135 6.88817 92.0135 6.33261C92.0707 5.83261 91.8991 5.44373 91.613 5.16595Z" fill="white"/>
<path d="M102.6 6.61111C102.085 8.44444 100.997 9.94444 98.0791 9.94444C96.6485 9.94444 95.733 9.55556 95.1607 9C94.5885 8.38889 94.3596 7.5 94.3596 6.5C94.3596 5.38889 94.5313 3.94444 94.9318 2.88889C95.5041 1.27778 96.6485 0 99.338 0C100.711 0 101.627 0.333333 102.199 0.888889C102.829 1.5 103.057 2.38889 103.057 3.38889C103 4.44444 102.829 5.61111 102.6 6.61111ZM101.055 1.66667C100.711 1.27778 100.082 1.05556 99.1663 1.05556C97.1635 1.05556 96.4768 2 96.0763 3.61111C95.9046 4.5 95.733 5.5 95.733 6.38889C95.733 7.22222 95.8474 7.88889 96.3052 8.27778C96.7057 8.66667 97.278 8.83333 98.1935 8.83333C100.025 8.83333 100.826 8.05556 101.226 6.55556C101.455 5.66667 101.627 4.38889 101.627 3.44444C101.627 2.72222 101.455 2.05556 101.055 1.66667Z" fill="white"/>
</g>
<defs>
<clipPath id="clip0_10652_617">
<rect width="103" height="10" fill="white"/>
</clipPath>
</defs>
</svg>
