<svg width="183" height="19" viewBox="0 0 183 19" fill="none" xmlns="http://www.w3.org/2000/svg">
<g clip-path="url(#clip0_10502_2)">
<path d="M22.875 0.699951C18.8083 0.699951 15.6567 1.89995 15.6567 1.99995C15.555 2.09995 15.4533 2.19995 15.4533 2.39995L15.86 4.89995C15.86 4.99995 15.86 4.99995 15.9617 4.99995C15.9617 4.99995 16.0633 4.99995 16.165 4.99995C16.165 4.99995 17.7917 4.49995 19.3167 4.29995C21.8583 3.89995 23.2817 3.99995 24.095 4.69995C24.5017 5.09995 24.6033 5.59995 24.6033 6.29995L24.5017 6.79995C24.5017 6.79995 21.35 7.19995 19.3167 7.59995C17.2833 7.99995 15.9617 8.39995 14.945 8.99995C12.81 10.4 12.3017 13 12.7083 14.9C13.115 16.6 14.5383 18.5 19.6217 18.5H20.0283C27.755 18.5 28.7717 17.2 29.1783 14.4L29.6867 10.7L30.2967 5.89995C30.3983 4.49995 30.0933 3.29995 29.28 2.49995C28.2633 1.29995 26.1283 0.699951 22.875 0.699951ZM23.9933 9.99995C23.9933 9.99995 23.79 11.4 23.79 11.5L23.3833 15.1H23.2817C23.2817 15.1 22.4683 15.4 21.045 15.4C20.5367 15.4 19.4183 15.4 18.7067 14.7C18.3 14.3 18.0967 13.8 18.0967 13C18.0967 11.6 19.0117 10.6 20.74 10.3C22.57 9.99995 23.8917 9.79995 23.8917 9.79995L23.9933 9.99995Z" fill="white"/>
<path d="M93.1267 0.699951H92.5167C88.45 0.699951 85.6033 1.89995 84.18 4.09995C83.0617 5.89995 82.5533 12.1 82.5533 12.2C82.4517 13.4 82.5533 14.3 82.8583 15.1C83.9767 18.1 88.0433 18.5 90.3817 18.5C94.55 18.5 97.295 17.3 98.7183 15.1C99.125 14.4 99.735 12.5 100.345 7.29995V7.09995C100.447 5.99995 100.447 5.09995 100.142 4.29995C99.125 1.39995 95.77 0.799951 93.1267 0.699951ZM94.0417 12C93.94 12.8 93.7367 13.7 93.1267 14.4C92.6183 14.9 92.0083 15.1 91.0933 15.2C90.28 15.2 89.7717 15.1 89.2633 14.9C88.6533 14.6 88.2467 13.8 88.145 13.1C88.145 12.6 88.5517 9.59995 88.755 7.99995L88.8567 7.19995C88.9583 6.49995 89.2633 5.49995 90.0767 4.89995C90.585 4.49995 91.2967 4.19995 92.0083 4.19995C92.72 4.19995 93.2283 4.29995 93.7367 4.59995C94.4483 5.09995 94.6517 5.89995 94.6517 6.49995C94.7533 6.59995 94.4483 8.59995 94.0417 12Z" fill="white"/>
<path d="M82.045 0.799951H79.605C77.5717 0.799951 76.7583 1.99995 76.25 2.49995L70.0483 10.1L70.15 9.69995L71.2683 0.999951C71.2683 0.899951 71.2683 0.899951 71.2683 0.799951C71.2683 0.799951 71.1667 0.699951 71.065 0.699951H65.9817C65.88 0.699951 65.6767 0.799951 65.6767 0.999951L63.5417 17.9C63.5417 18 63.5417 18 63.5417 18H63.6433H66.2867C68.32 18 69.235 16.7 69.6417 16.3L75.7417 8.49995L75.5383 8.99995L74.42 17.7999C74.42 17.9 74.42 17.9 74.42 18C74.42 18 74.5217 18.1 74.6233 18.1H79.7067C79.8083 18.1 80.0117 18 80.0117 17.7999L82.1467 0.899951C82.1467 0.799951 82.1467 0.799951 82.1467 0.799951H82.045Z" fill="white"/>
<path d="M118.848 0.699962L113.663 1.29996C113.562 1.29996 113.358 1.49996 113.358 1.59996L112.647 7.49996V7.69996H107.665L108.58 0.799962C108.58 0.699962 108.58 0.699962 108.58 0.699962C108.58 0.699962 108.478 0.599962 108.478 0.699962L103.293 1.29996C103.192 1.29996 102.988 1.49996 102.988 1.59996L100.955 17.9C100.955 18 100.955 18 100.955 18.1C100.955 18.1 101.057 18.2 101.158 18.2H106.242C106.343 18.2 106.547 18.1 106.547 17.9L107.36 11.4H112.342L111.528 18C111.528 18.1 111.528 18.1 111.63 18.2C111.63 18.2 111.732 18.3 111.833 18.3H113.155C115.493 18.3 117.222 18 117.628 15.3L119.458 0.999962C119.458 0.899962 119.458 0.899962 119.458 0.899962C119.052 0.699962 118.95 0.699962 118.848 0.699962Z" fill="white"/>
<path d="M63.6433 4.49999L64.05 0.999986C64.05 0.899986 64.05 0.899986 64.05 0.799986C64.05 0.799986 63.9483 0.699986 63.8467 0.699986H44.53C44.225 0.699986 43.92 0.799986 43.615 1.09999L38.2267 7.59999H37.4133L38.3283 0.699986C38.3283 0.599986 38.3283 0.599986 38.3283 0.599986C38.3283 0.599986 38.2267 0.499986 38.2267 0.599986L33.0417 1.19999C32.635 1.29999 32.5333 1.49999 32.5333 1.59999L30.5 17.9C30.5 18 30.5 18 30.5 18.1C30.5 18.1 30.6017 18.2 30.7033 18.2H35.7867C35.8883 18.2 36.0917 18.1 36.0917 17.9L36.905 11.3H37.7183L41.48 17.9C41.5817 18 41.785 18.2 41.8867 18.2H47.4783C47.58 18.2 47.6817 18.2 47.58 18L42.4967 9.69999L46.7667 4.89999H52.8667L51.24 18C51.24 18.1 51.24 18.1 51.24 18.2C51.24 18.2 51.3417 18.3 51.4433 18.3H56.5267C56.6283 18.3 56.8317 18.2 56.8317 18L58.4583 4.89999H63.44C63.5417 4.79999 63.6433 4.69999 63.6433 4.49999Z" fill="white"/>
<path d="M12.0983 0.799927H7.21833C6.81167 0.799927 6.50667 0.999927 6.30333 1.19993C6.30333 1.19993 0.305 8.39993 0.203333 8.49993C-0.101667 8.89993 0 9.29993 0.101667 9.39993L4.88 17.5999C4.98167 17.7999 5.38833 17.9999 5.69333 17.9999H9.96333C10.2683 17.9999 10.37 17.7999 10.2683 17.5999L5.38833 9.39993L12.3017 1.09993C12.505 0.999927 12.4033 0.799927 12.0983 0.799927Z" fill="white"/>
<path d="M132.268 9.50002L127.49 1.30002C127.388 1.10002 126.982 0.900024 126.677 0.900024H122.407C122.102 0.900024 122 1.10002 122.102 1.30002L126.88 9.50002L119.967 17.8C119.763 18 119.865 18.2 120.17 18.2H125.05C125.457 18.1 125.762 18 125.965 17.8C125.965 17.8 131.963 10.6 132.065 10.5C132.472 10 132.37 9.60003 132.268 9.50002Z" fill="white"/>
<path d="M150.568 6.9C149.857 7.9 148.84 8.5 147.315 8.8L147.213 9.4C147.518 9.5 148.84 9.6 149.755 10.5C150.263 11 150.568 11.7 150.568 12.9C150.568 14.1 150.162 15.4 149.247 16.3C147.925 17.8 145.688 18.3 143.553 18.3C140.808 18.3 138.673 17.7 137.86 17.4C137.657 17.3 137.555 17.2 137.657 16.9L138.165 15.7C138.267 15.5 138.47 15.4 138.673 15.5C140.198 16 142.028 16.3 143.655 16.3C145.078 16.3 146.4 15.9 147.315 15C147.925 14.3 148.128 13.6 148.128 12.7C148.128 11.7 147.722 11.2 147.112 10.8C146.197 10.2 144.57 10.1 142.74 10C142.537 10 142.333 9.9 142.333 9.7L142.435 8.5C142.435 8.3 142.638 8.2 142.842 8.1C144.672 8 146.197 7.8 147.213 7.2C148.23 6.7 148.637 5.8 148.637 4.7C148.637 3.9 148.332 3.3 147.823 2.9C147.417 2.6 146.4 2.5 145.282 2.5C143.045 2.5 141.215 3 139.893 3.4C139.588 3.5 139.487 3.4 139.487 3.2L139.283 2C139.283 1.7 139.385 1.6 139.588 1.5C140.503 1.1 142.943 0.5 145.79 0.5C147.722 0.5 149.247 0.9 150.162 1.8C150.873 2.4 151.28 3.3 151.28 4.4C151.382 5.2 151.077 6.2 150.568 6.9Z" fill="white"/>
<path d="M165.513 3.00002C164.09 2.70002 162.87 2.50002 161.142 2.50002C159.21 2.50002 157.888 3.00002 156.872 4.00002C156.058 4.90002 155.652 6.10002 155.347 7.80002C155.448 7.80002 157.99 6.90002 160.227 6.90002C162.158 6.90002 163.683 7.30002 164.7 8.30002C165.513 9.00002 166.022 10.1 166.022 11.6C166.022 13.3 165.513 15.2 164.192 16.4C162.87 17.7 160.837 18.3 158.498 18.3C156.16 18.3 154.635 17.8 153.72 16.8C152.805 15.8 152.5 14.4 152.5 12.5C152.5 11.6 152.602 10.6 152.703 9.40002C153.11 6.40002 153.72 3.90002 155.448 2.30002C156.77 1.10002 158.702 0.400024 161.548 0.400024C164.192 0.400024 165.92 0.900024 166.022 1.00002C166.123 1.00002 166.327 1.10002 166.225 1.30002L165.818 2.70002C165.717 2.90002 165.615 3.00002 165.513 3.00002ZM162.768 9.80002C162.057 9.20002 161.04 8.90002 159.82 8.90002C158.397 8.90002 156.465 9.20002 155.143 9.70002C155.042 10.6 154.838 11.5 154.838 12.5C154.838 14 155.143 15 155.753 15.6C156.363 16.2 157.38 16.5 158.702 16.5C160.633 16.5 161.955 16 162.667 14.8C163.175 14 163.48 12.9 163.48 11.9C163.582 11 163.277 10.3 162.768 9.80002Z" fill="white"/>
<path d="M182.288 12.4C181.373 15.7 179.442 18.4 174.257 18.4C171.715 18.4 170.088 17.7 169.072 16.7C168.055 15.6 167.648 14 167.648 12.2C167.648 10.2 167.953 7.6 168.665 5.7C169.682 2.8 171.715 0.5 176.493 0.5C178.933 0.5 180.56 1.1 181.577 2.1C182.695 3.2 183.102 4.8 183.102 6.6C183 8.5 182.695 10.6 182.288 12.4ZM179.543 3.5C178.933 2.8 177.815 2.4 176.188 2.4C172.63 2.4 171.41 4.1 170.698 7C170.393 8.6 170.088 10.4 170.088 12C170.088 13.5 170.292 14.7 171.105 15.4C171.817 16.1 172.833 16.4 174.46 16.4C177.713 16.4 179.137 15 179.848 12.3C180.255 10.7 180.56 8.4 180.56 6.7C180.56 5.4 180.255 4.2 179.543 3.5Z" fill="white"/>
</g>
<defs>
<clipPath id="clip0_10502_2">
<rect width="183" height="18" fill="white" transform="translate(0 0.5)"/>
</clipPath>
</defs>
</svg>
