<svg width="334" height="30" viewBox="0 0 334 30" fill="none" xmlns="http://www.w3.org/2000/svg">
<path d="M27.5399 2.20947C24.6474 2.20947 21.7829 2.73279 19.0717 3.74986C18.9065 3.83157 18.8074 4.00543 18.8243 4.19146L19.2818 7.27832C19.2886 7.34265 19.3301 7.4061 19.3835 7.44609C19.4462 7.47217 19.5216 7.47217 19.5835 7.44609C20.8306 7.07577 22.0955 6.77587 23.374 6.55246C26.4054 6.02654 28.0872 6.15606 28.9378 6.98189C29.4318 7.51737 29.6292 8.26931 29.4589 8.98213L29.3835 9.5776C29.3835 9.5776 25.7065 10.067 23.3198 10.5225C21.5253 10.7659 19.7978 11.3623 18.2304 12.2828C15.7463 13.931 15.1329 17.1526 15.6099 19.451C16.0284 21.4669 17.7678 23.8748 23.7205 23.8748H24.1518C33.2495 23.8748 34.4398 22.2936 34.8406 18.946L35.3862 14.5004L36.1004 8.62398C36.3182 6.80281 35.992 5.42585 35.0787 4.40096C33.7883 2.92925 31.322 2.20947 27.5399 2.20947ZM28.8828 13.5763C28.8828 13.5763 28.6998 15.3175 28.6998 15.3401L28.1618 19.7474H28.0864C27.2383 19.9761 26.3639 20.0891 25.4845 20.0708C24.5059 20.1638 23.5307 19.8674 22.7555 19.2485C22.2599 18.706 22.01 17.981 22.0523 17.243C22.0523 15.4749 23.08 14.3744 25.1913 13.9806C27.2942 13.5903 28.9827 13.3964 28.9827 13.3964L28.8828 13.5763Z" fill="white"/>
<path d="M109.966 2.22412H109.297C104.478 2.22412 101.202 3.63498 99.5715 6.42193C98.2634 8.63167 97.633 16.1371 97.6254 16.2145C97.4848 17.4054 97.6076 18.612 97.9906 19.7464C99.3487 23.4209 104.053 23.9095 106.76 23.8886C111.619 23.8886 114.9 22.476 116.499 19.7708C116.992 18.938 117.713 16.6048 118.381 10.2929V10.0599C118.539 8.92463 118.461 7.7676 118.145 6.66707C117.1 3.15687 113.12 2.31974 109.966 2.22412ZM111.08 15.9233V16.0302C111.016 17.0551 110.63 18.0409 109.972 18.8206C109.331 19.4187 108.5 19.7473 107.627 19.7525C106.882 19.8482 106.126 19.7082 105.452 19.3622C104.69 18.8737 104.203 18.0444 104.135 17.1238C104.091 16.5292 104.613 12.8599 104.894 10.8884L105.024 9.97821C105.124 8.8716 105.643 7.85453 106.464 7.13215C107.109 6.61057 107.909 6.32196 108.739 6.31936C109.433 6.27589 110.131 6.44019 110.74 6.79486C111.447 7.31817 111.861 8.15878 111.845 9.05067C111.854 9.47489 111.591 11.8567 111.08 15.9233Z" fill="white"/>
<path d="M96.9654 2.3878H94.0797C92.4996 2.34173 91.0161 3.13192 90.1511 4.47845L82.8309 13.7347L83.0249 13.1844L84.3127 2.68162C84.3254 2.60773 84.3042 2.53384 84.2568 2.47995C84.2094 2.42866 84.139 2.40084 84.0738 2.40084H78.0533C77.8839 2.41127 77.7432 2.53384 77.7136 2.70509L75.193 23.1482C75.1862 23.2178 75.2083 23.2821 75.2506 23.3334C75.2981 23.3708 75.3582 23.3943 75.4226 23.3943H78.565C80.1384 23.4108 81.6066 22.6119 82.4657 21.2723L89.6215 11.8127L89.3851 12.3873L88.0838 23.1187C88.0745 23.1848 88.0897 23.256 88.1329 23.3117C88.1888 23.363 88.2575 23.3943 88.332 23.3943H94.3449C94.516 23.3864 94.6575 23.256 94.6846 23.077L97.1865 2.60252C97.2018 2.53819 97.1865 2.47212 97.1408 2.42866C97.0883 2.3878 97.0273 2.37216 96.9654 2.3878Z" fill="white"/>
<path d="M140.248 2.21659L134.117 2.98852C133.934 3.01721 133.787 3.15977 133.759 3.34059L132.887 10.507L132.84 10.8017H126.982L127.997 2.44956C128.008 2.38349 127.989 2.31656 127.944 2.26266C127.898 2.22268 127.834 2.20355 127.768 2.21659L121.638 2.98852C121.456 3.01721 121.315 3.15977 121.283 3.34059L118.903 23.1187C118.897 23.1909 118.916 23.2561 118.962 23.3117C119.008 23.363 119.073 23.3978 119.145 23.3943H125.163C125.338 23.3891 125.486 23.2561 125.511 23.0796L126.481 15.1656V15.1047H132.346L131.37 23.1196C131.361 23.1917 131.385 23.2569 131.432 23.3126C131.478 23.3639 131.543 23.3986 131.612 23.3952H133.129C135.905 23.3952 137.944 23.0535 138.374 19.7928L140.504 2.45043C140.521 2.38436 140.498 2.31743 140.458 2.26353C140.405 2.20964 140.324 2.18616 140.248 2.21659Z" fill="white"/>
<path d="M75.4302 6.87687L75.947 2.63559C75.9572 2.56257 75.9335 2.48955 75.886 2.44174C75.8301 2.39828 75.7598 2.37481 75.6946 2.38785H52.8894C52.4691 2.40784 52.0769 2.593 51.7956 2.9016L45.4201 10.8495H44.5135L45.537 2.47825C45.5497 2.41653 45.5277 2.35047 45.4828 2.30352C45.4345 2.25745 45.3692 2.23746 45.3066 2.2505L39.1776 3.01721C38.9921 3.04677 38.8506 3.19281 38.8209 3.37449L36.4004 23.1257C36.3834 23.1952 36.4046 23.2674 36.4537 23.3213C36.5003 23.3743 36.5707 23.4039 36.6418 23.4039H42.7072C42.8775 23.3908 43.0173 23.2674 43.052 23.0935L44.0272 15.116H44.9643L49.3386 23.0935C49.447 23.2726 49.63 23.3873 49.8325 23.4039H56.3614C56.4673 23.4039 56.5723 23.35 56.4825 23.1657L50.5069 13.0254L55.4658 7.19155H62.6301L60.678 23.1265C60.6653 23.1961 60.6823 23.2682 60.734 23.3221C60.7823 23.3752 60.8534 23.4047 60.9229 23.4047H66.9426C67.112 23.3986 67.2577 23.2682 67.2823 23.0944L69.2013 7.19242H75.082C75.2548 7.18634 75.4048 7.05334 75.4302 6.87687Z" fill="white"/>
<path d="M14.8728 2.3877H9.11833C8.72352 2.40595 8.34904 2.5772 8.07538 2.87363L0.887384 11.7369C0.617114 12.0429 0.575599 12.495 0.784867 12.8557L6.36819 22.8769C6.55967 23.2038 6.89771 23.402 7.2705 23.4159H12.2489C12.6047 23.4159 12.7801 23.1907 12.6047 22.903L7.00701 12.8748L15.1193 2.85016C15.3303 2.56416 15.2202 2.3877 14.8728 2.3877Z" fill="white"/>
<path d="M150.341 2.88058C150.139 2.5772 149.804 2.39204 149.443 2.3877H144.454C144.108 2.3877 143.933 2.62067 144.101 2.90405L149.71 12.9279L141.597 22.956C141.376 23.2116 141.486 23.415 141.842 23.415H147.591C147.99 23.3967 148.362 23.2246 148.634 22.9291L155.826 14.0388C156.1 13.7267 156.149 13.2651 155.932 12.9044L150.341 2.88058Z" fill="white"/>
<path d="M172.158 12.3289L182.681 1.85393C182.736 1.80004 182.769 1.72615 182.772 1.64443C182.772 1.49839 182.654 1.37582 182.509 1.37582H179.694C179.543 1.3793 179.391 1.44276 179.285 1.5549L170.084 11.0032H168.932L170 1.85393C170.005 1.82351 170.005 1.7896 170.005 1.76439C169.993 1.53664 169.809 1.36278 169.585 1.37582H167.573C167.558 1.37582 167.54 1.37061 167.528 1.37061C167.263 1.37061 167.047 1.58532 167.042 1.85393L164.474 23.1551V23.1681C164.48 23.4159 164.674 23.6054 164.912 23.6028H166.877C167.138 23.6028 167.368 23.415 167.415 23.1542L168.583 13.5807H169.736L177.037 23.4228C177.122 23.535 177.25 23.5967 177.392 23.6028H180.315H180.331C180.5 23.6054 180.639 23.4732 180.646 23.3046C180.646 23.2264 180.623 23.1551 180.582 23.0934L172.158 12.3289Z" fill="white"/>
<path d="M195.733 8.21822C194.91 7.70707 193.579 7.41064 191.451 7.41064C189.289 7.4289 187.143 7.73315 185.061 8.31297C184.851 8.34687 184.711 8.54768 184.74 8.75718L184.851 10.2976V10.3028C184.867 10.441 184.982 10.5453 185.122 10.5384C185.233 10.5297 185.338 10.5123 185.444 10.4871C187.194 10.0133 188.993 9.736 190.797 9.66733C191.66 9.61691 192.523 9.71862 193.342 9.96897C193.88 10.1428 194.229 10.6635 194.2 11.2347C194.172 11.9379 194.1 12.6447 193.987 13.3392L188.313 14.2737C186.07 14.6032 184.205 14.8726 183.259 16.9155C182.87 17.8604 182.671 18.8723 182.674 19.8946C182.577 21.3185 183.331 22.6659 184.589 23.2952C185.993 23.8498 187.494 24.0932 188.994 23.9907C190.319 23.9924 191.634 23.8498 192.927 23.5664C195.027 23.0944 195.59 22.6085 195.854 20.4778L196.802 12.629C196.862 12.1431 196.976 11.0938 196.976 10.5305C197.025 9.58561 196.545 8.6859 195.733 8.21822ZM193.026 21.4054C191.826 21.7635 190.578 21.9383 189.329 21.9191C188.254 21.9191 187.052 21.8609 186.293 21.228C185.788 20.8134 185.506 20.1762 185.536 19.5164C185.516 18.834 185.671 18.1594 185.977 17.5588C186.515 16.6225 187.37 16.4765 188.432 16.3192L193.783 15.4499L193.026 21.4054Z" fill="white"/>
<path d="M205.89 0.257007C204.556 0.195287 203.585 0.162254 202.964 0.075325C202.932 0.0675014 202.902 0.0605469 202.865 0.0605469C202.643 0.0605469 202.458 0.243968 202.458 0.476938L202.223 2.18684C202.191 2.40155 202.223 2.54672 202.458 2.61105C203.496 2.66755 204.529 2.66495 205.565 2.60323C209.028 2.60323 211.418 4.77298 211.304 9.4602H211.155C210.796 8.82649 209.436 7.51125 206.951 7.51125C201.812 7.51125 200.335 11.2649 199.745 15.7174C199.613 16.5641 199.546 17.4186 199.531 18.2757C199.531 21.792 200.958 23.9896 205.331 23.9896C210.68 23.9896 212.76 20.442 213.512 14.815C213.771 13.1078 213.91 11.3883 213.933 9.67144C213.933 7.08269 213.482 5.10331 212.516 3.61856C211.195 1.73046 209.145 0.371754 205.89 0.257007ZM210.621 15.7817C210.15 19.245 209.316 21.858 205.564 21.858C203.049 21.858 202.342 20.4489 202.342 18.3139C202.366 17.4655 202.444 16.6206 202.577 15.7808C203.049 12.3254 203.853 9.73403 207.244 9.73403C210.035 9.73403 210.795 11.2379 210.795 13.4659C210.785 14.243 210.729 15.0193 210.621 15.7817Z" fill="white"/>
<path d="M225.621 7.4209C223.617 7.4435 221.619 7.77035 219.707 8.38581C218.201 8.92825 217.967 9.43331 217.813 10.7607L215.539 29.5053C215.507 29.7713 215.664 29.9825 215.928 29.9217L217.934 29.5244C218.168 29.4931 218.35 29.3071 218.384 29.0689L218.853 25.2144L218.731 23.4072C220.147 23.794 221.612 23.9853 223.084 23.9827C228.466 23.9827 230.238 21.2878 230.91 15.7192C231.028 14.816 231.091 13.898 231.093 12.9835C231.093 11.1476 230.763 9.67323 229.79 8.72049C228.935 7.87293 227.632 7.4209 225.621 7.4209ZM228.239 13.2008C228.223 14.0423 228.167 14.8855 228.061 15.7209C227.501 20.4481 226.262 21.8911 223.037 21.8911C221.766 21.9068 220.504 21.7451 219.283 21.4052L220.641 10.2748C221.972 9.91751 223.342 9.70018 224.72 9.62282C226.15 9.62282 227.194 9.79407 227.75 10.7294C228.129 11.4935 228.296 12.3472 228.239 13.2008Z" fill="white"/>
<path d="M253.587 7.42357L251.578 7.8417C251.34 7.88342 251.169 8.08249 251.154 8.32502L249.355 23.1551C249.349 23.1917 249.349 23.2273 249.349 23.2647C249.376 23.4777 249.563 23.628 249.771 23.6037H251.593H251.606C251.856 23.6107 252.072 23.4081 252.077 23.1551L253.941 7.8417C253.971 7.53918 253.815 7.36272 253.587 7.42357Z" fill="white"/>
<path d="M242.612 13.5294H237.472L238.149 7.84249C238.182 7.5391 238.01 7.36264 237.796 7.42436L235.792 7.84249C235.544 7.87291 235.354 8.07546 235.341 8.32581L233.543 23.1559C233.515 23.4219 233.688 23.6045 233.984 23.6045H241.402C244.776 23.6045 246.927 22.191 247.378 18.5539C247.441 18.1914 247.441 17.8254 247.441 17.5255C247.439 14.6725 245.649 13.5294 242.612 13.5294ZM244.56 18.5322V18.5843C244.362 20.2647 243.647 21.5903 241.445 21.5208H236.478L237.232 15.4427H242.202C244.068 15.4427 244.625 16.4407 244.625 17.7594C244.625 17.9567 244.56 18.2583 244.56 18.5322Z" fill="white"/>
<path d="M279.249 7.39028L277.32 7.78407C277.32 7.78842 277.317 7.78842 277.312 7.78842C277.05 7.82667 276.868 8.07528 276.908 8.34129L276.15 14.5533L275.722 18.0574C275.49 20.1706 274.929 21.9135 271.405 21.9135C269.25 21.9135 267.919 21.3433 267.919 19.2083C267.924 18.8336 267.952 18.4607 268.008 18.0895L269.25 7.86231C269.261 7.8145 269.261 7.76668 269.25 7.71366C269.213 7.52502 269.023 7.40593 268.833 7.44331L266.886 7.86231C266.654 7.89099 266.467 8.07789 266.439 8.31956L265.317 17.8496C265.25 18.3599 265.211 18.8797 265.197 19.3926C265.109 20.5262 265.471 21.6458 266.204 22.5055C267.124 23.4948 268.691 23.9833 271.137 23.9833C272.845 23.9833 274.139 23.7234 275.14 23.287L275.123 23.4487C275.117 23.4861 275.117 23.5278 275.123 23.5687C275.154 23.7651 275.334 23.8973 275.528 23.8677L277.458 23.4739C277.458 23.4687 277.462 23.4687 277.467 23.4687C277.729 23.4305 277.911 23.1836 277.871 22.9167L278.435 18.2869C278.439 18.2669 278.46 18.0861 278.495 17.7835C278.741 15.6912 279.656 7.80841 279.656 7.80841C279.662 7.77016 279.662 7.7293 279.656 7.68845C279.625 7.49286 279.443 7.35899 279.249 7.39028Z" fill="white"/>
<path d="M311.56 0.982667L309.332 1.34516C309.114 1.34516 308.923 1.5138 308.893 1.73982L307.794 10.8231H295.409L296.563 1.37559C296.571 1.32691 296.571 1.27823 296.564 1.23042C296.524 1.05482 296.353 0.944418 296.183 0.982667L293.995 1.34516C293.758 1.37559 293.571 1.47034 293.571 1.73982L290.976 23.1557C290.97 23.187 290.97 23.2148 290.976 23.2487C290.997 23.4695 291.206 23.6295 291.424 23.6043H293.434C293.685 23.6043 293.897 23.4113 293.93 23.1557L295.115 13.4049H307.501L306.315 23.1557C306.31 23.1792 306.31 23.2053 306.315 23.2305C306.331 23.4513 306.514 23.6156 306.734 23.6034H308.771C309.027 23.6034 309.239 23.4104 309.272 23.1548L311.904 1.37559C311.933 1.13653 311.817 0.982667 311.56 0.982667Z" fill="white"/>
<path d="M332.393 10.2232C332.986 9.02795 333.289 7.70141 333.273 6.35748C333.335 5.26391 333.046 4.18077 332.449 3.2741C331.442 1.91713 329.58 1.37904 327.065 1.37904H317.49C317.214 1.37296 316.974 1.57202 316.929 1.85368L314.351 23.1548V23.2113C314.366 23.4417 314.571 23.619 314.799 23.6051H316.78C317.035 23.6051 317.262 23.4147 317.31 23.1539L318.349 14.4854L324.412 14.641C326.154 14.6723 327.352 15.0348 328.111 15.7232C328.716 16.3578 329.029 17.2297 328.968 18.119C328.968 18.6319 328.909 19.2048 328.909 19.7133L328.671 23.1174C328.642 23.446 328.787 23.5912 329.08 23.5912H331.244C331.263 23.599 331.283 23.599 331.303 23.599C331.537 23.5834 331.724 23.3843 331.709 23.1461L331.957 19.8915C332.01 18.9596 332.01 18.7805 332.01 18.239C332.071 17.2541 331.867 16.2622 331.417 15.3825C330.624 14.0603 329.171 13.8482 327.699 13.6987L327.787 12.9267C330.208 12.6294 331.638 11.7288 332.393 10.2232ZM324.517 12.0818L318.577 12.2991L319.606 3.81654H326.758C328.178 3.81654 329.097 4.17729 329.626 4.89185C330.032 5.49253 330.214 6.21318 330.165 6.93817C330.209 8.09606 329.921 9.25048 329.335 10.2441C328.362 11.7288 326.586 12.0253 324.517 12.0818Z" fill="white"/>
</svg>
