<svg width="162" height="107" viewBox="0 0 162 107" fill="none" xmlns="http://www.w3.org/2000/svg">
<g clip-path="url(#clip0_10817_1669)">
<path d="M44.4493 0.381007C40.9818 0.127002 37.4783 0 33.9386 0C30.3989 0 26.8973 0.127002 23.4337 0.381007C17.4777 4.07295 11.8013 8.19547 6.45011 12.7154C3.81452 19.1563 1.65865 25.7822 0 32.5391C1.65947 39.2977 3.81533 45.9254 6.45011 52.3686C11.8014 56.8867 17.4778 61.0073 23.4337 64.6973C26.9011 64.9475 30.4028 65.0745 33.9386 65.0783C37.4745 65.0821 40.978 64.9551 44.4493 64.6973C50.4052 61.0073 56.0816 56.8867 61.4328 52.3686C64.0643 45.9259 66.2145 39.298 67.8658 32.5391C66.2098 25.7814 64.0539 19.1554 61.4157 12.7154C56.07 8.19615 50.3994 4.07364 44.4493 0.381007Z" fill="url(#paint0_linear_10817_1669)"/>
<path opacity="0.2" d="M6.4501 52.3687V52.4418H6.54034L6.4501 52.3687Z" fill="url(#paint1_linear_10817_1669)"/>
<path opacity="0.2" d="M6.4501 52.3687V52.4418H6.54034L6.4501 52.3687Z" fill="url(#paint2_linear_10817_1669)"/>
<path opacity="0.2" d="M6.4501 52.3687V52.4418H6.54034L6.4501 52.3687Z" fill="url(#paint3_linear_10817_1669)"/>
<path opacity="0.2" d="M44.4835 0.386694C40.9933 0.128898 37.4783 0 33.9386 0C30.399 0 26.8973 0.127002 23.4337 0.381007L23.2512 0.494741C26.0501 2.11994 28.689 4.0049 31.1328 6.12455C35.2868 3.58882 39.7823 1.65675 44.4835 0.386694Z" fill="url(#paint4_linear_10817_1669)"/>
<path opacity="0.2" d="M21.5631 13.6479C24.4463 10.7748 27.6582 8.24964 31.1327 6.12444C28.689 4.00479 26.0501 2.11983 23.2512 0.494629C17.3612 4.15678 11.746 8.2411 6.45011 12.7153L6.41019 12.8063C7.98422 12.6584 9.57536 12.5845 11.1836 12.5845C14.6705 12.5897 18.148 12.946 21.5631 13.6479Z" fill="url(#paint5_linear_10817_1669)"/>
<path opacity="0.2" d="M21.5631 13.6479C24.4463 10.7748 27.6582 8.24964 31.1327 6.12444C28.689 4.00479 26.0501 2.11983 23.2512 0.494629C17.3612 4.15678 11.746 8.2411 6.45011 12.7153L6.41019 12.8063C7.98422 12.6584 9.57536 12.5845 11.1836 12.5845C14.6705 12.5897 18.148 12.946 21.5631 13.6479Z" fill="url(#paint6_linear_10817_1669)"/>
<path opacity="0.2" d="M61.467 52.2776C64.082 45.8633 66.2207 39.2661 67.8658 32.5392C66.2195 25.8343 64.0847 19.2583 61.4785 12.8633C59.8 20.0445 56.5928 26.7819 52.0742 32.6188C56.5822 38.4246 59.7856 45.129 61.467 52.2776Z" fill="url(#paint7_linear_10817_1669)"/>
<path opacity="0.2" d="M44.4835 0.386719C39.7823 1.65678 35.2868 3.58884 31.1328 6.12457C37.1204 11.3059 41.8328 17.7909 44.9055 25.0783C47.5422 27.3461 49.9438 29.8723 52.0742 32.6188C56.5989 26.7834 59.812 20.0459 61.4956 12.8633C61.4956 12.8121 61.4557 12.7609 61.4328 12.7154C56.0943 8.19653 50.4291 4.07581 44.4835 0.386719Z" fill="url(#paint8_linear_10817_1669)"/>
<path opacity="0.2" d="M44.4835 0.386719C39.7823 1.65678 35.2868 3.58884 31.1328 6.12457C37.1204 11.3059 41.8328 17.7909 44.9055 25.0783C47.5422 27.3461 49.9438 29.8723 52.0742 32.6188C56.5989 26.7834 59.812 20.0459 61.4956 12.8633C61.4956 12.8121 61.4557 12.7609 61.4328 12.7154C56.0943 8.19653 50.4291 4.07581 44.4835 0.386719Z" fill="url(#paint9_linear_10817_1669)"/>
<path opacity="0.2" d="M44.9055 25.0782C41.8328 17.7909 37.1204 11.3058 31.1327 6.12451C27.6582 8.24971 24.4463 10.7749 21.5631 13.648C30.1974 15.4012 38.2352 19.3371 44.9055 25.0782Z" fill="url(#paint10_linear_10817_1669)"/>
<path opacity="0.2" d="M44.9055 25.0782C41.8328 17.7909 37.1204 11.3058 31.1327 6.12451C27.6582 8.24971 24.4463 10.7749 21.5631 13.648C30.1974 15.4012 38.2352 19.3371 44.9055 25.0782Z" fill="url(#paint11_linear_10817_1669)"/>
<path opacity="0.2" d="M44.9055 25.0782C41.8328 17.7909 37.1204 11.3058 31.1327 6.12451C27.6582 8.24971 24.4463 10.7749 21.5631 13.648C30.1974 15.4012 38.2352 19.3371 44.9055 25.0782Z" fill="url(#paint12_linear_10817_1669)"/>
<path opacity="0.2" d="M6.45011 52.363C6.41589 51.6066 6.39878 50.8503 6.39878 50.0883C6.39194 43.3173 7.72825 36.6118 10.3308 30.3579C12.9333 24.104 16.7507 18.4251 21.5631 13.6481C18.1472 12.9538 14.6697 12.6051 11.1836 12.6074C9.57536 12.6074 7.98422 12.6814 6.41018 12.8292C3.79484 19.2348 1.6524 25.8223 0 32.5392C1.65687 39.2967 3.81279 45.9227 6.45011 52.363Z" fill="url(#paint13_linear_10817_1669)"/>
<path opacity="0.2" d="M6.45011 52.363C6.41589 51.6066 6.39878 50.8503 6.39878 50.0883C6.39194 43.3173 7.72825 36.6118 10.3308 30.3579C12.9333 24.104 16.7507 18.4251 21.5631 13.6481C18.1472 12.9538 14.6697 12.6051 11.1836 12.6074C9.57536 12.6074 7.98422 12.6814 6.41018 12.8292C3.79484 19.2348 1.6524 25.8223 0 32.5392C1.65687 39.2967 3.81279 45.9227 6.45011 52.363Z" fill="url(#paint14_linear_10817_1669)"/>
<path opacity="0.2" d="M6.45011 52.363C6.41589 51.6066 6.39878 50.8503 6.39878 50.0883C6.39194 43.3173 7.72825 36.6118 10.3308 30.3579C12.9333 24.104 16.7507 18.4251 21.5631 13.6481C18.1472 12.9538 14.6697 12.6051 11.1836 12.6074C9.57536 12.6074 7.98422 12.6814 6.41018 12.8292C3.79484 19.2348 1.6524 25.8223 0 32.5392C1.65687 39.2967 3.81279 45.9227 6.45011 52.363Z" fill="url(#paint15_linear_10817_1669)"/>
<path opacity="0.2" d="M48.2931 36.9633C48.7104 39.6234 48.9201 42.3118 48.9204 45.0042C48.9275 51.5877 47.6651 58.1112 45.2021 64.2195C50.883 60.6495 56.3065 56.6876 61.4328 52.3628C61.4483 52.3341 61.4598 52.3035 61.467 52.2718C59.7848 45.1252 56.5815 38.4228 52.0742 32.6187C50.8938 34.1342 49.6316 35.5845 48.2931 36.9633Z" fill="url(#paint16_linear_10817_1669)"/>
<path opacity="0.2" d="M48.2931 36.9633C48.7104 39.6234 48.9201 42.3118 48.9204 45.0042C48.9275 51.5877 47.6651 58.1112 45.2021 64.2195C50.883 60.6495 56.3065 56.6876 61.4328 52.3628C61.4483 52.3341 61.4598 52.3035 61.467 52.2718C59.7848 45.1252 56.5815 38.4228 52.0742 32.6187C50.8938 34.1342 49.6316 35.5845 48.2931 36.9633Z" fill="url(#paint17_linear_10817_1669)"/>
<path opacity="0.2" d="M48.2931 36.9634C43.4838 41.9329 37.7185 45.8838 31.3421 48.5797C24.9657 51.2756 18.1095 52.6609 11.1836 52.6529C9.62098 52.6529 8.06976 52.579 6.54135 52.4425C11.8644 56.9334 17.5102 61.0293 23.4337 64.6973C26.9011 64.9475 30.4027 65.0745 33.9386 65.0783C37.4745 65.0821 40.978 64.9551 44.4493 64.6973C44.7059 64.5437 44.9511 64.3845 45.2021 64.2253C47.6651 58.117 48.9275 51.5935 48.9204 45.01C48.9204 42.3157 48.7107 39.6254 48.2931 36.9634Z" fill="url(#paint18_linear_10817_1669)"/>
<path opacity="0.2" d="M48.2931 36.9634C43.4838 41.9329 37.7185 45.8838 31.3421 48.5797C24.9657 51.2756 18.1095 52.6609 11.1836 52.6529C9.62098 52.6529 8.06976 52.579 6.54135 52.4425C11.8644 56.9334 17.5102 61.0293 23.4337 64.6973C26.9011 64.9475 30.4027 65.0745 33.9386 65.0783C37.4745 65.0821 40.978 64.9551 44.4493 64.6973C44.7059 64.5437 44.9511 64.3845 45.2021 64.2253C47.6651 58.117 48.9275 51.5935 48.9204 45.01C48.9204 42.3157 48.7107 39.6254 48.2931 36.9634Z" fill="url(#paint19_linear_10817_1669)"/>
<path opacity="0.2" d="M48.2931 36.9634C43.4838 41.9329 37.7185 45.8838 31.3421 48.5797C24.9657 51.2756 18.1095 52.6609 11.1836 52.6529C9.62098 52.6529 8.06976 52.579 6.54135 52.4425C11.8644 56.9334 17.5102 61.0293 23.4337 64.6973C26.9011 64.9475 30.4027 65.0745 33.9386 65.0783C37.4745 65.0821 40.978 64.9551 44.4493 64.6973C44.7059 64.5437 44.9511 64.3845 45.2021 64.2253C47.6651 58.117 48.9275 51.5935 48.9204 45.01C48.9204 42.3157 48.7107 39.6254 48.2931 36.9634Z" fill="url(#paint20_linear_10817_1669)"/>
<path opacity="0.2" d="M52.0742 32.6187C49.9438 29.8722 47.5422 27.346 44.9055 25.0781C46.5112 28.8891 47.6487 32.8798 48.2931 36.9633C49.6316 35.5845 50.8938 34.1342 52.0742 32.6187Z" fill="url(#paint21_linear_10817_1669)"/>
<path opacity="0.2" d="M52.0742 32.6187C49.9438 29.8722 47.5422 27.346 44.9055 25.0781C46.5112 28.8891 47.6487 32.8798 48.2931 36.9633C49.6316 35.5845 50.8938 34.1342 52.0742 32.6187Z" fill="url(#paint22_linear_10817_1669)"/>
<path opacity="0.2" d="M52.0742 32.6187C49.9438 29.8722 47.5422 27.346 44.9055 25.0781C46.5112 28.8891 47.6487 32.8798 48.2931 36.9633C49.6316 35.5845 50.8938 34.1342 52.0742 32.6187Z" fill="url(#paint23_linear_10817_1669)"/>
<path opacity="0.2" d="M6.39877 50.0882C6.39877 50.8502 6.39877 51.6065 6.4501 52.3628L6.54134 52.4367C8.06975 52.5732 9.62097 52.6472 11.1836 52.6472C18.109 52.6559 24.9651 51.2714 31.3414 48.5766C37.7178 45.8817 43.4833 41.9318 48.2931 36.9633C47.6487 32.8799 46.5112 28.8892 44.9055 25.0782C38.2352 19.3371 30.1974 15.4012 21.5631 13.6479C16.7507 18.4249 12.9333 24.1038 10.3308 30.3578C7.72824 36.6117 6.39193 43.3172 6.39877 50.0882Z" fill="url(#paint24_linear_10817_1669)"/>
<path opacity="0.2" d="M6.39877 50.0882C6.39877 50.8502 6.39877 51.6065 6.4501 52.3628L6.54134 52.4367C8.06975 52.5732 9.62097 52.6472 11.1836 52.6472C18.109 52.6559 24.9651 51.2714 31.3414 48.5766C37.7178 45.8817 43.4833 41.9318 48.2931 36.9633C47.6487 32.8799 46.5112 28.8892 44.9055 25.0782C38.2352 19.3371 30.1974 15.4012 21.5631 13.6479C16.7507 18.4249 12.9333 24.1038 10.3308 30.3578C7.72824 36.6117 6.39193 43.3172 6.39877 50.0882Z" fill="url(#paint25_linear_10817_1669)"/>
<path opacity="0.2" d="M6.39877 50.0882C6.39877 50.8502 6.39877 51.6065 6.4501 52.3628L6.54134 52.4367C8.06975 52.5732 9.62097 52.6472 11.1836 52.6472C18.109 52.6559 24.9651 51.2714 31.3414 48.5766C37.7178 45.8817 43.4833 41.9318 48.2931 36.9633C47.6487 32.8799 46.5112 28.8892 44.9055 25.0782C38.2352 19.3371 30.1974 15.4012 21.5631 13.6479C16.7507 18.4249 12.9333 24.1038 10.3308 30.3578C7.72824 36.6117 6.39193 43.3172 6.39877 50.0882Z" fill="url(#paint26_linear_10817_1669)"/>
<path opacity="0.2" d="M6.39877 50.0882C6.39877 50.8502 6.39877 51.6065 6.4501 52.3628L6.54134 52.4367C8.06975 52.5732 9.62097 52.6472 11.1836 52.6472C18.109 52.6559 24.9651 51.2714 31.3414 48.5766C37.7178 45.8817 43.4833 41.9318 48.2931 36.9633C47.6487 32.8799 46.5112 28.8892 44.9055 25.0782C38.2352 19.3371 30.1974 15.4012 21.5631 13.6479C16.7507 18.4249 12.9333 24.1038 10.3308 30.3578C7.72824 36.6117 6.39193 43.3172 6.39877 50.0882Z" fill="url(#paint27_linear_10817_1669)"/>
<path d="M73.0499 73.7505H79.6882V74.7457H74.0422V78.2941H79.0437V79.2893H74.0422V83.4633H79.6882V84.4585H73.0499V73.7505Z" fill="white"/>
<path d="M91.4193 73.7505H92.3888V83.4178H97.8181V73.7505H98.8161V83.4178H100.105V87.0061H99.1069V84.4357H91.4193V73.7505Z" fill="white"/>
<path d="M102.495 84.4585H101.354V73.7505H102.346V82.7297L107.667 73.7505H108.808V84.4585H107.815V75.4792L102.495 84.4585Z" fill="white"/>
<path d="M111.003 84.612L110.034 84.3049L113.456 73.7505H114.87L118.292 84.3049L117.328 84.612L116.222 81.2H112.11L111.003 84.612ZM115.897 80.2219L114.186 74.8708L112.475 80.2219H115.897Z" fill="white"/>
<path d="M129.635 84.612L128.671 84.3049L132.093 73.7505H133.507L136.929 84.3049L135.965 84.612L134.859 81.2H130.747L129.635 84.612ZM134.528 80.2219L132.817 74.8708L131.107 80.2219H134.528Z" fill="white"/>
<path d="M127.457 84.4583H126.459V74.7455H122.238L121.32 83.1106L120.334 84.1626L118.879 84.6232L118.571 83.6736L119.769 83.2926L120.339 82.667L121.32 73.7617H127.422L127.457 84.4583Z" fill="white"/>
<path d="M67.5293 84.4585H66.5313V74.7457H63.1608V73.7505H70.8998V74.7457H67.5293V84.4585Z" fill="white"/>
<path d="M60.201 73.7505L61.9119 75.3257V82.8833L60.201 84.4585H55.764L54.0531 82.8833V75.3257L55.764 73.7505H60.201ZM59.8303 74.7457H56.1347L55.0283 75.7408V82.4568L56.1347 83.4519H59.8303L60.931 82.4568V75.7408L59.8303 74.7457Z" fill="white"/>
<path d="M45.4473 84.4585H44.4493V73.7505H51.8974V84.4585H50.8937V74.7457H45.4473V84.4585Z" fill="white"/>
<path d="M88.2769 73.7505H89.2749V84.4585H88.2769V79.3973H82.8305V84.4585H81.8325V73.7505H82.8305V78.4022H88.2769V73.7505Z" fill="white"/>
<path d="M141.178 59.3633L142.889 60.9385V68.4904L141.178 70.0656H136.747L135.036 68.4904V60.9385L136.747 59.3633H141.178ZM140.807 60.3528H137.112L136.005 61.3479V68.0753L137.112 69.0704H140.807L141.914 68.0753V61.3479L140.807 60.3528Z" fill="white"/>
<path d="M159.924 59.3633L161.635 60.9385V68.4904L159.924 70.0656H155.493L153.782 68.4904V60.9385L155.493 59.3633H159.924ZM159.559 60.3528H155.863L154.757 61.3479V68.0753L155.863 69.0704H159.559L160.66 68.0753V61.3479L159.559 60.3528Z" fill="white"/>
<path d="M50.8481 59.3633H51.8461V70.0656H50.8481V65.8461L50.4203 65.9655H45.7096L44.4493 64.6974V59.3633H45.4473V64.3334L46.1089 64.9703H50.3291L50.8481 64.8054V59.3633Z" fill="white"/>
<path d="M54.2984 59.3633H60.9367V60.3528H55.3192V63.9013H60.3207V64.8964H55.3192V69.0704H60.9652V70.0656H54.2984V59.3633Z" fill="white"/>
<path d="M70.1071 70.0656H69.1091V60.3528H64.8946L63.9707 68.7179L63.0069 69.7585L61.5469 70.2191L61.2446 69.2695L62.4423 68.8885L63.0126 68.2629L63.9935 59.3633H70.0957L70.1071 70.0656Z" fill="white"/>
<path d="M145.142 59.3633H152.556V60.3528H146.14V70.0656H145.142V59.3633Z" fill="white"/>
<path d="M78.4221 59.3633L80.133 60.9385V68.4904L78.4221 70.0656H73.9852L72.2743 68.4904V60.9385L73.9852 59.3633H78.4221ZM78.0514 60.3528H74.3559L73.2495 61.3479V68.0753L74.3559 69.0704H78.0514L79.1521 68.0753V61.3479L78.0514 60.3528Z" fill="white"/>
<path d="M89.7369 65.4935V68.4904L88.1571 70.0656H82.3001V59.3633H88.14L89.4175 60.6314V63.6567L88.6647 64.4074L89.7369 65.4935ZM83.2982 63.9183H87.7408L88.4195 63.2473V61.0295L87.7408 60.3528H83.2982V63.9183ZM87.775 64.9135H83.2982V69.0704H87.775L88.7388 68.1094V65.8916L87.775 64.9135Z" fill="white"/>
<path d="M91.7329 59.3633H98.3712V60.3528H92.7253V63.9013H97.7268V64.8964H92.7253V69.0704H98.3712V70.0656H91.7329V59.3633Z" fill="white"/>
<path d="M105.99 59.3633H106.989V70.0656H105.99V65.8461L105.563 65.9655H100.852L99.5974 64.6974V59.3633H100.59V64.3334L101.251 64.9703H105.472L105.99 64.8054V59.3633Z" fill="white"/>
<path d="M109.441 59.3633H116.085V60.3528H110.439V63.9013H115.44V64.8964H110.439V69.0704H116.085V70.0656H109.441V59.3633Z" fill="white"/>
<path d="M124.086 67.9104L124.81 68.6098L123.35 70.0656H118.891L117.311 68.4904V60.9385L118.891 59.3633H123.185L124.765 60.9385V62.6445H123.755V61.3422L122.763 60.3471H119.307L118.303 61.3422V68.0696L119.307 69.0648H122.923L124.086 67.9104Z" fill="white"/>
<path d="M127.508 64.3789H129.219L131.899 59.8808L133.525 59.3633L133.833 60.3243L132.589 60.7224L130.12 64.868L132.606 69.0136L133.833 69.4116L133.525 70.3727L131.899 69.8495L129.219 65.3741H127.508V70.2191H126.493V59.5168H127.508V64.3789Z" fill="white"/>
<path d="M81.6614 55.8315H80.5208V45.1235H81.5531V54.1028L86.874 45.1235H88.0146V55.8315H87.0165V46.8523L81.6614 55.8315Z" fill="white"/>
<path d="M93.575 55.8315H92.5827V46.1187H89.2065V45.1235H96.9512V46.1187H93.575V55.8315Z" fill="white"/>
<path d="M45.4473 55.8315H44.4493V45.1235H50.3063L51.8974 46.6874V50.1847L50.3063 51.7485H45.4473V55.8315ZM45.4473 46.1187V50.7533H49.8785L50.888 49.7582V47.1139L49.8785 46.1187H45.4473Z" fill="white"/>
<path d="M53.038 55.9794L52.0685 55.678L55.4903 45.1235H56.8989L60.3207 55.678L59.3512 55.9794L58.2505 52.5674H54.1102L53.038 55.9794ZM57.9255 51.5893L56.2146 46.2438L54.5037 51.5893H57.9255Z" fill="white"/>
<path d="M78.3822 51.2538V54.2563L76.8025 55.8315H70.9455V45.1235H76.7853L78.0571 46.3917V49.4227L77.31 50.1676L78.3822 51.2538ZM71.9378 49.6842H76.3861L77.0648 49.0075V46.7897L76.3861 46.1187H71.9378V49.6842ZM76.4204 50.6737H71.9435V54.8307H76.4204L77.3899 53.8696V51.6518L76.4204 50.6737Z" fill="white"/>
<path d="M107.787 45.1235H114.431V46.1187H108.785V49.6672H113.781V50.6624H108.785V54.8307H114.431V55.8315H107.787V45.1235Z" fill="white"/>
<path d="M99.3122 55.8315H98.1716V45.1235H99.1697V54.0971L104.491 45.1235H105.631V55.8315H104.633V46.8523L99.3122 55.8315Z" fill="white"/>
<path d="M67.7233 50.1676L68.4761 49.4227V46.3917L67.2043 45.1235H61.3587V46.1187H62.3567H63.9422H66.8051L67.478 46.7897V49.0075L66.8051 49.6786H63.3434V50.6737H66.8336L67.8031 51.6518V53.8696L66.8336 54.8307H63.1951H62.3567H61.3587V55.8315H67.2157L68.8011 54.2563V51.2538L67.7233 50.1676Z" fill="white"/>
<path d="M49.6162 96.4118L49.1771 94.8423H45.6811L44.7458 96.4118H44.4835L48.0308 90.4863H48.2361L49.9014 96.4118H49.6162ZM49.1086 94.5978L48.0764 90.8844L45.8579 94.5978H49.1086Z" fill="white"/>
<path d="M54.2527 93.597C54.2548 93.7027 54.2351 93.8077 54.1949 93.9055C54.1547 94.0033 54.0948 94.0918 54.0189 94.1657C53.8126 94.3489 53.5567 94.4675 53.2832 94.5069C53.519 94.5496 53.7393 94.6536 53.922 94.8083C53.9935 94.874 54.0504 94.9541 54.0887 95.0433C54.127 95.1325 54.146 95.2287 54.1444 95.3258C54.1427 95.5372 54.0612 95.7402 53.9163 95.8944C53.7343 96.0874 53.5069 96.232 53.2547 96.3152C52.9162 96.4343 52.5585 96.4902 52.1997 96.4802C51.6631 96.4923 51.132 96.3712 50.6541 96.1276L51.1617 92.9487C51.3968 92.8367 51.6435 92.7509 51.8974 92.6928C52.1744 92.6304 52.4574 92.598 52.7414 92.5961C53.1417 92.5661 53.5411 92.6637 53.882 92.8748C54.001 92.9531 54.0977 93.0607 54.1626 93.1873C54.2276 93.3138 54.2586 93.455 54.2527 93.597ZM50.9393 95.9854C51.3491 96.164 51.7924 96.2532 52.2396 96.247C52.5311 96.252 52.8216 96.2118 53.1007 96.1276C53.3149 96.0656 53.5107 95.9524 53.671 95.7977C53.7967 95.6747 53.8684 95.5071 53.8706 95.3314C53.8709 95.2227 53.8399 95.1161 53.7813 95.0244C53.7226 94.9327 53.6389 94.8596 53.5399 94.8139C53.2547 94.6685 52.9357 94.6018 52.616 94.6206H51.1503L50.9393 95.9854ZM51.1959 94.3874H52.5875C52.9529 94.4122 53.3184 94.3416 53.6482 94.1827C53.7523 94.1292 53.8392 94.0474 53.8987 93.9468C53.9582 93.8462 53.9881 93.7308 53.9847 93.6141C53.9848 93.4986 53.9543 93.3851 53.8962 93.2853C53.8381 93.1854 53.7545 93.1026 53.6539 93.0454C53.3608 92.8803 53.0261 92.8033 52.6901 92.8236C52.2474 92.822 51.8083 92.903 51.3955 93.0624L51.1959 94.3874Z" fill="white"/>
<path d="M61.0222 93.8302C61.0227 93.9542 61.0112 94.078 60.988 94.1998L60.6344 96.4347H60.3721L60.72 94.2737C60.7273 94.1544 60.7273 94.0348 60.72 93.9155C60.732 93.7715 60.7133 93.6267 60.6651 93.4904C60.6169 93.3542 60.5404 93.2297 60.4405 93.125C60.2522 92.9541 60.005 92.8624 59.7504 92.8691C59.4016 92.8659 59.0649 92.9962 58.8095 93.2331C58.5441 93.4761 58.3625 93.7966 58.2905 94.1486V94.1998L57.9369 96.4347H57.6689L58.011 94.2737C58.0348 94.1501 58.0462 94.0243 58.0452 93.8984C58.0579 93.7575 58.0411 93.6156 57.9959 93.4815C57.9508 93.3474 57.8782 93.2241 57.7829 93.1193C57.5982 92.9507 57.3546 92.8609 57.1043 92.8691C56.8608 92.8693 56.6221 92.9362 56.4142 93.0625C56.1978 93.1864 56.014 93.3599 55.8781 93.5686C55.741 93.7723 55.6496 94.0031 55.6101 94.2453L55.2565 96.4347H54.9941L55.5644 92.744H55.8211L55.707 93.5003C55.8743 93.2481 56.0941 93.0347 56.3515 92.8748C56.5948 92.7191 56.8778 92.6362 57.167 92.636C57.4327 92.6331 57.6924 92.7147 57.9084 92.8691C58.0206 92.9603 58.1129 93.0735 58.1796 93.2016C58.2463 93.3297 58.2859 93.4701 58.2962 93.6141C58.45 93.3267 58.6735 93.0823 58.9463 92.9032C59.2039 92.7292 59.5078 92.6361 59.8189 92.636C60.1188 92.6302 60.4107 92.7333 60.6401 92.926C60.7675 93.0387 60.8679 93.1784 60.934 93.3349C61.0001 93.4913 61.0303 93.6606 61.0222 93.8302Z" fill="white"/>
<path d="M65.6188 93.5061C65.7781 93.7787 65.8609 94.0891 65.8584 94.4046C65.8498 94.732 65.7659 95.053 65.6131 95.3429C65.4441 95.6704 65.195 95.9501 64.8889 96.1561C64.5507 96.3775 64.1527 96.4906 63.7482 96.4802C63.4218 96.485 63.1003 96.4005 62.8187 96.2357C62.5456 96.0798 62.3192 95.8541 62.1628 95.5817C62.0078 95.3076 61.9272 94.9979 61.929 94.6833C61.9363 94.3611 62.0203 94.0453 62.1742 93.762C62.344 93.4333 62.5953 93.1533 62.9042 92.9488C63.2401 92.7213 63.6388 92.604 64.0448 92.6133C64.3687 92.6087 64.6879 92.6912 64.9687 92.8521C65.2414 93.0066 65.4663 93.2328 65.6188 93.5061ZM62.4251 93.8303C62.2792 94.0871 62.2007 94.3766 62.197 94.6719C62.1938 94.9489 62.2646 95.2217 62.4023 95.4623C62.5354 95.7013 62.7329 95.8983 62.9726 96.031C63.2153 96.1707 63.4909 96.2434 63.7711 96.2414C64.1133 96.2488 64.4497 96.1516 64.7349 95.9628C65.0044 95.788 65.2243 95.5472 65.3736 95.2633C65.5139 94.9968 65.5864 94.6999 65.5846 94.3989C65.5891 94.1243 65.5202 93.8534 65.385 93.6142C65.2492 93.3773 65.0523 93.1809 64.8147 93.0455C64.5724 92.905 64.2966 92.8323 64.0163 92.8351C63.6762 92.831 63.3427 92.928 63.0582 93.1137C62.7911 93.2968 62.5736 93.5429 62.4251 93.8303Z" fill="white"/>
<path d="M69.6737 96.4118L69.9645 94.6376H67.113L66.8279 96.4118H66.5656L67.1359 92.7212H67.3982L67.1244 94.4272H69.9759L70.244 92.7212H70.5063L69.936 96.4118H69.6737Z" fill="white"/>
<path d="M74.9433 93.506C75.1026 93.7787 75.1853 94.089 75.1828 94.4045C75.1771 94.7323 75.0931 95.054 74.9375 95.3428C74.7686 95.6703 74.5195 95.95 74.2133 96.156C73.8751 96.3775 73.4771 96.4906 73.0727 96.4802C72.7462 96.485 72.4247 96.4004 72.1431 96.2356C71.87 96.0797 71.6436 95.854 71.4872 95.5817C71.3322 95.3076 71.2516 94.9979 71.2534 94.6832C71.2607 94.361 71.3447 94.0453 71.4986 93.7619C71.6684 93.4332 71.9197 93.1533 72.2286 92.9487C72.5649 92.7219 72.9634 92.6047 73.3692 92.6132C73.6948 92.6092 74.0157 92.6917 74.2988 92.8521C74.5694 93.0073 74.7923 93.2335 74.9433 93.506ZM71.7496 93.8302C71.6036 94.0871 71.5251 94.3766 71.5215 94.6718C71.5182 94.9488 71.5891 95.2216 71.7268 95.4622C71.8598 95.7012 72.0574 95.8983 72.2971 96.0309C72.5397 96.1707 72.8153 96.2433 73.0955 96.2413C73.4377 96.2487 73.7741 96.1515 74.0593 95.9627C74.3288 95.7879 74.5487 95.5471 74.698 95.2632C74.8414 94.9994 74.9178 94.7046 74.9204 94.4045C74.925 94.1299 74.8561 93.859 74.7208 93.6198C74.585 93.3829 74.3881 93.1865 74.1505 93.0511C73.9082 92.9106 73.6324 92.8379 73.3521 92.8407C73.0121 92.8366 72.6785 92.9336 72.394 93.1193C72.1234 93.2993 71.902 93.5436 71.7496 93.8302Z" fill="white"/>
<path d="M80.2299 96.4118L80.3326 93.051L78.251 96.4118H77.9716L76.9906 93.051L76.0211 96.4118H75.7702L76.831 92.7212H77.1446L78.1826 96.1332L80.3041 92.7212H80.6178L80.5094 96.4118H80.2299Z" fill="white"/>
<path d="M84.6669 96.4118L84.952 94.6376H82.1005L81.8154 96.4118H81.553L82.1233 92.7212H82.3857L82.1176 94.4272H84.9691L85.2372 92.7212H85.5452L84.9748 96.4118H84.6669Z" fill="white"/>
<path d="M90.0049 93.8303L90.1817 92.7498H90.444L89.8737 96.4404H89.6114L89.7483 95.6045C89.5716 95.8739 89.3356 96.0995 89.0582 96.2642C88.7638 96.4332 88.4283 96.5179 88.0887 96.5087C87.7603 96.5142 87.4368 96.4296 87.1534 96.2642C86.8807 96.1097 86.6558 95.8835 86.5033 95.6102C86.344 95.3376 86.2612 95.0272 86.2637 94.7117C86.2732 94.3892 86.3592 94.0734 86.5147 93.7905C86.6844 93.4617 86.9357 93.1818 87.2446 92.9773C87.5801 92.7487 87.9791 92.6313 88.3853 92.6418C88.7566 92.6338 89.1199 92.7499 89.4175 92.9716C89.6981 93.1899 89.9035 93.4901 90.0049 93.8303ZM86.7428 93.8587C86.5968 94.1156 86.5183 94.4051 86.5147 94.7003C86.5078 94.9745 86.5745 95.2456 86.7079 95.4855C86.8412 95.7254 87.0364 95.9255 87.2732 96.0651C87.5161 96.2041 87.7915 96.2767 88.0716 96.2755C88.4166 96.2827 88.7559 96.1877 89.0468 96.0026C89.3175 95.8292 89.5377 95.588 89.6855 95.3031C89.8321 95.0385 89.9086 94.741 89.908 94.4387C89.9129 94.1623 89.8441 93.8894 89.7084 93.6483C89.5732 93.4109 89.3761 93.2144 89.1381 93.0796C88.8933 92.9399 88.6159 92.8673 88.3339 92.8692C87.9939 92.8651 87.6603 92.9621 87.3758 93.1479C87.1115 93.3197 86.8941 93.5542 86.7428 93.8303V93.8587Z" fill="white"/>
<path d="M93.94 96.406L94.1852 94.8649H92.5998L91.2482 96.406H90.9288L92.326 94.8592C92.0598 94.8378 91.8105 94.7206 91.6246 94.5294C91.4587 94.3546 91.3686 94.1217 91.3736 93.8811C91.3741 93.6806 91.4293 93.484 91.5333 93.3125C91.656 93.1238 91.8301 92.9738 92.0352 92.8803C92.3071 92.7577 92.6038 92.6993 92.902 92.7097H94.8183L94.248 96.3946L93.94 96.406ZM91.9268 93.2215C91.831 93.2988 91.754 93.3969 91.7017 93.5082C91.6493 93.6195 91.623 93.7412 91.6246 93.8641C91.6176 93.9704 91.635 94.0768 91.6755 94.1754C91.716 94.2739 91.7786 94.362 91.8584 94.4327C92.057 94.5895 92.3072 94.6666 92.5599 94.6488H94.2251L94.4989 92.9428H92.845C92.5148 92.9184 92.1874 93.0178 91.9268 93.2215Z" fill="white"/>
<path d="M100.567 96.4118L100.852 94.6376H98.0005L97.7154 96.4118H97.4531L98.0234 92.7212H98.2857L98.0177 94.4272H100.869L101.143 92.7212H101.405L100.835 96.4118H100.567Z" fill="white"/>
<path d="M105.722 93.4266C105.864 93.662 105.939 93.9312 105.939 94.2056C105.939 94.3546 105.923 94.5032 105.893 94.6492H102.415C102.411 94.9201 102.48 95.1871 102.614 95.4226C102.747 95.6616 102.945 95.8586 103.185 95.9913C103.432 96.1412 103.717 96.2181 104.006 96.213C104.534 96.2018 105.041 95.9998 105.432 95.6444L105.551 95.8377C105.126 96.2327 104.57 96.4575 103.989 96.4689C103.655 96.4768 103.325 96.3921 103.036 96.2244C102.766 96.0707 102.544 95.8466 102.392 95.5761C102.238 95.3077 102.158 95.0038 102.158 94.6947C102.161 94.337 102.255 93.986 102.432 93.6746C102.609 93.3633 102.862 93.1018 103.167 92.9148C103.509 92.7024 103.905 92.5937 104.308 92.602C104.598 92.5975 104.883 92.6705 105.135 92.8136C105.387 92.9566 105.596 93.1644 105.74 93.4152L105.722 93.4266ZM102.723 93.6597C102.572 93.8901 102.473 94.15 102.432 94.4217H105.677V94.2454C105.68 94.002 105.617 93.7622 105.494 93.5517C105.371 93.3375 105.193 93.1596 104.979 93.0358C104.765 92.912 104.521 92.8467 104.274 92.8465C103.951 92.8414 103.633 92.9198 103.35 93.074C103.099 93.2189 102.884 93.4192 102.723 93.6597Z" fill="white"/>
<path d="M109.663 96.4118H109.258L107.177 94.5409L106.874 96.4118H106.612L107.182 92.7212H107.445L107.177 94.4272L109.697 92.7212H110.097L107.462 94.4897L109.663 96.4118Z" fill="white"/>
<path d="M114.026 93.506C114.181 93.7801 114.262 94.0898 114.26 94.4045C114.254 94.7323 114.17 95.054 114.015 95.3428C113.847 95.6715 113.598 95.9515 113.29 96.156C112.952 96.3775 112.554 96.4906 112.15 96.4802C111.823 96.485 111.502 96.4004 111.22 96.2356C110.947 96.0797 110.721 95.854 110.564 95.5817C110.409 95.3076 110.329 94.9979 110.33 94.6832C110.34 94.3606 110.426 94.0449 110.581 93.7619C110.749 93.4334 110.998 93.1534 111.306 92.9487C111.642 92.7219 112.04 92.6047 112.446 92.6132C112.772 92.6092 113.093 92.6917 113.376 92.8521C113.646 93.0096 113.87 93.2351 114.026 93.506ZM110.827 93.8302C110.683 94.0881 110.605 94.377 110.599 94.6718C110.595 94.9488 110.666 95.2216 110.804 95.4622C110.937 95.7012 111.134 95.8983 111.374 96.0309C111.617 96.1699 111.892 96.2425 112.173 96.2413C112.515 96.2487 112.851 96.1515 113.136 95.9627C113.406 95.7879 113.626 95.5471 113.775 95.2632C113.923 95.0008 114.001 94.7054 114.003 94.4045C114.006 94.1294 113.935 93.8586 113.798 93.6198C113.663 93.3824 113.466 93.1859 113.228 93.0511C112.983 92.9114 112.705 92.8388 112.423 92.8407C112.083 92.8366 111.75 92.9336 111.465 93.1193C111.198 93.3016 110.979 93.5455 110.827 93.8302Z" fill="white"/>
<path d="M119.313 96.4118L119.41 93.051L117.328 96.4118H117.049L116.045 93.051L115.075 96.4118H114.824L115.885 92.7212H116.199L117.237 96.1332L119.358 92.7212H119.672L119.564 96.4118H119.313Z" fill="white"/>
<path d="M124.976 96.4118L125.078 93.051L122.997 96.4118H122.717L121.714 93.051L120.744 96.4118H120.487L121.554 92.7212H121.862L122.9 96.1332L125.027 92.7212H125.341L125.227 96.4118H124.976Z" fill="white"/>
<path d="M129.955 93.4265C130.096 93.6619 130.171 93.9311 130.171 94.2056C130.171 94.3546 130.155 94.5031 130.126 94.6491H126.647C126.644 94.9192 126.711 95.1856 126.841 95.4225C126.976 95.6684 127.176 95.8729 127.419 96.0142C127.662 96.1554 127.939 96.2281 128.221 96.2243C128.749 96.2131 129.256 96.011 129.647 95.6557L129.766 95.849C129.341 96.244 128.785 96.4687 128.204 96.4802C127.87 96.488 127.54 96.4034 127.251 96.2357C126.981 96.082 126.759 95.8579 126.607 95.5874C126.453 95.3189 126.373 95.0151 126.373 94.706C126.376 94.3483 126.47 93.9973 126.647 93.6859C126.824 93.3746 127.077 93.1131 127.382 92.9261C127.724 92.7131 128.12 92.6044 128.523 92.6133C128.818 92.609 129.108 92.6857 129.361 92.8351C129.607 92.9777 129.811 93.1815 129.955 93.4265ZM126.955 93.6596C126.802 93.8888 126.703 94.1492 126.664 94.4217H129.909V94.2454C129.912 94.0019 129.849 93.7622 129.726 93.5516C129.603 93.3366 129.424 93.1582 129.209 93.0343C128.993 92.9105 128.749 92.8456 128.5 92.8465C128.18 92.8421 127.863 92.9204 127.582 93.0739C127.331 93.2188 127.116 93.4192 126.955 93.6596Z" fill="white"/>
<path d="M134.819 93.4889C134.975 93.7625 135.056 94.0725 135.053 94.3874C135.05 94.7321 134.96 95.0706 134.791 95.3712C134.618 95.6967 134.365 95.9728 134.055 96.173C133.722 96.3814 133.336 96.4881 132.943 96.4801C132.568 96.4871 132.202 96.3712 131.899 96.1502C131.603 95.9364 131.386 95.6303 131.283 95.2802L130.776 98.4761H130.513L131.432 92.7212H131.694L131.563 93.5799C131.742 93.2941 131.986 93.0544 132.276 92.8804C132.583 92.6994 132.934 92.6068 133.291 92.6131C133.601 92.607 133.908 92.6853 134.177 92.8396C134.446 92.9939 134.668 93.2183 134.819 93.4889ZM131.62 93.8301C131.474 94.087 131.395 94.3765 131.392 94.6717C131.388 94.9487 131.459 95.2215 131.597 95.4621C131.73 95.7012 131.928 95.8982 132.167 96.0308C132.408 96.1698 132.682 96.2425 132.96 96.2412C133.304 96.2476 133.642 96.1505 133.93 95.9626C134.199 95.7878 134.419 95.547 134.568 95.2631C134.712 94.9993 134.788 94.7045 134.791 94.4044C134.792 94.1301 134.724 93.86 134.591 93.6197C134.455 93.3828 134.258 93.1864 134.021 93.051C133.778 92.9105 133.503 92.8378 133.222 92.8406C132.882 92.8365 132.549 92.9335 132.264 93.1192C131.992 93.2976 131.77 93.5422 131.62 93.8301Z" fill="white"/>
<path d="M138.794 96.4118L139.091 94.5466C138.882 94.7439 138.639 94.9002 138.372 95.0072C138.088 95.1319 137.781 95.1958 137.471 95.1949C137.123 95.2052 136.781 95.1035 136.496 94.9048C136.364 94.8099 136.259 94.6837 136.189 94.5376C136.12 94.3916 136.088 94.2304 136.097 94.0689C136.093 93.9931 136.093 93.9172 136.097 93.8414L136.273 92.7041H136.541L136.365 93.813C136.361 93.8812 136.361 93.9495 136.365 94.0177C136.36 94.1477 136.387 94.2769 136.442 94.3946C136.498 94.5122 136.581 94.615 136.684 94.6944C136.923 94.8694 137.215 94.9577 137.511 94.9447C137.838 94.9456 138.16 94.8696 138.452 94.7229C138.711 94.6018 138.945 94.4341 139.142 94.2281L139.382 92.7041H139.644L139.074 96.3947L138.794 96.4118Z" fill="white"/>
<path d="M143.978 93.4262C144.118 93.6621 144.191 93.9314 144.189 94.2053C144.191 94.3541 144.177 94.5027 144.149 94.6489H140.665C140.664 94.9194 140.733 95.1857 140.864 95.4223C140.996 95.662 141.194 95.8593 141.435 95.9909C141.681 96.1423 141.966 96.2194 142.256 96.2127C142.784 96.2004 143.291 95.9985 143.682 95.644L143.796 95.8374C143.373 96.2325 142.818 96.4573 142.239 96.4686C141.905 96.4764 141.575 96.3918 141.286 96.2241C141.014 96.0712 140.79 95.847 140.636 95.5758C140.484 95.3069 140.406 95.003 140.408 94.6944C140.411 94.3485 140.499 94.0087 140.665 93.7049C140.841 93.3794 141.101 93.1065 141.418 92.9144C141.759 92.7008 142.155 92.5921 142.558 92.6017C142.853 92.5982 143.142 92.6749 143.397 92.8234C143.638 92.9731 143.837 93.1803 143.978 93.4262ZM140.978 93.6594C140.824 93.8882 140.723 94.1486 140.682 94.4214H143.927V94.2451C143.925 94.0021 143.86 93.7637 143.739 93.5526C143.619 93.3416 143.446 93.1649 143.237 93.0395C143.019 92.9123 142.771 92.8455 142.518 92.8462C142.198 92.841 141.881 92.9194 141.6 93.0737C141.349 93.2161 141.135 93.4171 140.978 93.6594Z" fill="white"/>
<path d="M148.506 93.2613L148.352 93.4375C148.197 93.2548 148.002 93.109 147.782 93.011C147.559 92.9074 147.315 92.855 147.069 92.8575C146.705 92.8492 146.347 92.946 146.037 93.1361C145.777 93.3111 145.567 93.5501 145.427 93.8299C145.289 94.0934 145.214 94.3856 145.21 94.6829C145.209 94.8895 145.25 95.0941 145.329 95.2849C145.408 95.4758 145.525 95.649 145.672 95.7945C145.819 95.94 145.993 96.0549 146.185 96.1326C146.377 96.2102 146.583 96.249 146.79 96.2468C147.307 96.2274 147.8 96.0259 148.181 95.6781L148.301 95.8714C147.88 96.2495 147.339 96.4671 146.773 96.4856C146.441 96.4918 146.113 96.4072 145.826 96.2411C145.554 96.0882 145.329 95.864 145.176 95.5928C145.022 95.3243 144.942 95.0205 144.942 94.7114C144.947 94.4308 145.008 94.154 145.121 93.8969C145.233 93.6398 145.396 93.4074 145.599 93.2129C145.801 93.0185 146.041 92.866 146.303 92.764C146.565 92.662 146.845 92.6126 147.126 92.6187C147.404 92.6157 147.678 92.674 147.93 92.7893C148.156 92.9001 148.354 93.0617 148.506 93.2613Z" fill="white"/>
<path d="M152.27 96.4118H151.865L149.784 94.5409L149.476 96.4118H149.219L149.79 92.7212H150.052L149.784 94.4272L152.305 92.7212H152.698L150.069 94.4897L152.27 96.4118Z" fill="white"/>
<path d="M156.667 93.8301L156.844 92.7497H157.107L156.536 96.4403H156.262L156.394 95.6044C156.221 95.8747 155.986 96.1006 155.709 96.264C155.413 96.4325 155.075 96.5171 154.734 96.5086C154.495 96.5131 154.258 96.4699 154.036 96.3814C153.815 96.293 153.613 96.1611 153.444 95.9935C153.274 95.8259 153.14 95.6261 153.049 95.406C152.958 95.1858 152.912 94.9496 152.915 94.7116C152.922 94.3894 153.006 94.0737 153.16 93.7903C153.33 93.4616 153.581 93.1816 153.89 92.9771C154.226 92.7496 154.625 92.6323 155.031 92.6416C155.4 92.6328 155.762 92.749 156.057 92.9715C156.346 93.1864 156.56 93.4869 156.667 93.8301ZM153.411 93.8301C153.265 94.087 153.187 94.3765 153.183 94.6718C153.179 94.9506 153.25 95.2255 153.388 95.4679C153.522 95.7062 153.72 95.903 153.958 96.0366C154.201 96.1763 154.477 96.2489 154.757 96.247C155.1 96.2551 155.438 96.16 155.726 95.974C155.989 95.8046 156.205 95.5733 156.356 95.3005C156.508 95.0277 156.589 94.7219 156.593 94.4102C156.596 94.1332 156.526 93.8603 156.388 93.6197C156.256 93.3798 156.058 93.1825 155.818 93.0511C155.573 92.9114 155.295 92.8388 155.014 92.8407C154.673 92.8365 154.34 92.9335 154.055 93.1193C153.783 93.2976 153.562 93.5423 153.411 93.8301Z" fill="white"/>
<path d="M160.602 96.4061L160.848 94.865H159.262L157.888 96.4061H157.568L158.971 94.8594C158.703 94.8393 158.452 94.7219 158.264 94.5295C158.098 94.3547 158.008 94.1218 158.013 93.8812C158.013 93.6799 158.07 93.4826 158.179 93.3126C158.299 93.1221 158.474 92.9717 158.681 92.8804C158.95 92.7572 159.245 92.6988 159.542 92.7098H161.458L160.888 96.3947L160.602 96.4061ZM158.589 93.2216C158.494 93.2998 158.418 93.398 158.366 93.5091C158.314 93.6202 158.287 93.7415 158.287 93.8642C158.281 93.9703 158.299 94.0764 158.34 94.1748C158.38 94.2731 158.442 94.3613 158.521 94.4329C158.72 94.5891 158.97 94.6662 159.222 94.6489H160.893L161.161 92.943H159.507C159.177 92.9196 158.85 93.0189 158.589 93.2216Z" fill="white"/>
<path d="M48.7664 101.911C48.9252 102.184 49.0079 102.494 49.006 102.81C48.9988 103.137 48.9148 103.458 48.7607 103.748C48.5932 104.076 48.3438 104.356 48.0365 104.561C47.6985 104.783 47.3008 104.898 46.8959 104.891C46.5686 104.89 46.2475 104.802 45.9663 104.635C45.6907 104.48 45.4636 104.251 45.3104 103.975C45.1511 103.703 45.0684 103.392 45.0709 103.077C45.0803 102.754 45.1663 102.439 45.3218 102.156C45.4954 101.829 45.7459 101.55 46.0518 101.342C46.3877 101.115 46.7864 100.998 47.1924 101.007C47.5172 101.001 47.837 101.086 48.1163 101.251C48.3898 101.407 48.6148 101.636 48.7664 101.911ZM45.5728 102.235C45.4261 102.494 45.3476 102.785 45.3446 103.082C45.3438 103.358 45.4124 103.63 45.5442 103.873C45.6826 104.108 45.8811 104.303 46.1196 104.437C46.3581 104.571 46.6279 104.639 46.9016 104.635C47.2455 104.641 47.5833 104.544 47.8711 104.356C48.1404 104.181 48.3603 103.941 48.5098 103.657C48.6523 103.395 48.7286 103.102 48.7322 102.804C48.7338 102.53 48.6651 102.259 48.5326 102.019C48.3979 101.779 48.2006 101.58 47.9616 101.443C47.7227 101.306 47.451 101.236 47.1753 101.24C46.8349 101.233 46.5006 101.331 46.2172 101.519C45.9427 101.697 45.7203 101.944 45.5728 102.235Z" fill="white"/>
<path d="M53.711 101.894C53.8667 102.168 53.9474 102.478 53.9448 102.792C53.9381 103.149 53.8436 103.498 53.6696 103.81C53.4955 104.121 53.2473 104.385 52.9467 104.578C52.6065 104.794 52.2092 104.903 51.8061 104.891C51.4308 104.896 51.064 104.778 50.7625 104.555C50.4842 104.332 50.2827 104.028 50.1865 103.685L49.6675 106.91H49.4052L50.3291 101.16H50.5857L50.4545 102.013C50.6337 101.728 50.878 101.488 51.1674 101.314C51.4747 101.133 51.826 101.041 52.1825 101.047C52.4922 101.045 52.7968 101.125 53.0653 101.279C53.3338 101.433 53.5566 101.655 53.711 101.922V101.894ZM50.5116 102.235C50.3674 102.495 50.289 102.786 50.2834 103.082C50.2818 103.359 50.3526 103.632 50.4888 103.873C50.6213 104.112 50.819 104.309 51.0591 104.442C51.3006 104.584 51.5769 104.657 51.8575 104.652C52.1997 104.659 52.5361 104.562 52.8213 104.373C53.092 104.2 53.3122 103.959 53.46 103.674C53.6069 103.413 53.6854 103.12 53.6881 102.821C53.6906 102.546 53.6198 102.275 53.4828 102.036C53.3481 101.796 53.1508 101.597 52.9119 101.46C52.6729 101.323 52.4012 101.253 52.1255 101.257C51.7851 101.25 51.4509 101.348 51.1674 101.536C50.8923 101.709 50.6665 101.95 50.5116 102.235Z" fill="white"/>
<path d="M57.6517 101.791C57.6606 101.968 57.6083 102.143 57.5035 102.286C57.3837 102.434 57.2315 102.553 57.0586 102.633C56.7883 102.763 56.5079 102.871 56.2203 102.957L55.7127 103.111C55.4752 103.171 55.2535 103.281 55.0626 103.435C54.9918 103.488 54.9343 103.556 54.8947 103.635C54.8551 103.714 54.8345 103.801 54.8345 103.89C54.8392 104.027 54.8939 104.159 54.9884 104.259C55.1043 104.377 55.2444 104.468 55.3991 104.527C55.5805 104.598 55.7743 104.633 55.9694 104.629C56.2588 104.636 56.5459 104.576 56.8077 104.453C57.016 104.355 57.2083 104.227 57.378 104.072L57.5035 104.248C57.3024 104.421 57.0778 104.564 56.8362 104.674C56.5477 104.811 56.2315 104.879 55.9123 104.873C55.6881 104.875 55.4656 104.835 55.2565 104.754C55.0663 104.684 54.8961 104.569 54.7603 104.419C54.639 104.282 54.572 104.106 54.5721 103.924C54.5681 103.819 54.5853 103.715 54.6225 103.617C54.6597 103.52 54.7163 103.431 54.7888 103.355C54.9512 103.198 55.1458 103.078 55.3591 103.003C55.6293 102.893 55.9054 102.798 56.1861 102.718C56.4399 102.636 56.6892 102.541 56.9332 102.434C57.0751 102.373 57.2018 102.282 57.3039 102.167C57.3848 102.063 57.4271 101.934 57.4236 101.803C57.4244 101.716 57.4014 101.631 57.3572 101.557C57.3129 101.483 57.2491 101.422 57.1727 101.382C56.954 101.265 56.7075 101.21 56.4598 101.223C56.0393 101.222 55.6282 101.347 55.2793 101.581L55.1766 101.393C55.57 101.136 56.0295 100.998 56.4997 100.995C56.7974 100.982 57.0925 101.055 57.3495 101.206C57.4465 101.269 57.5254 101.356 57.5784 101.458C57.6314 101.561 57.6567 101.676 57.6517 101.791Z" fill="white"/>
<path d="M61.9974 102.206L62.1742 101.132H62.4366L61.8663 104.822H61.5925L61.7294 103.981C61.5472 104.25 61.3052 104.474 61.0222 104.635C60.7312 104.797 60.4033 104.882 60.0698 104.882C59.7363 104.882 59.4084 104.797 59.1174 104.635C58.8439 104.479 58.6189 104.25 58.4673 103.975C58.308 103.702 58.2252 103.392 58.2277 103.076C58.2372 102.754 58.3232 102.438 58.4787 102.155C58.6522 101.829 58.9028 101.55 59.2087 101.342C59.5441 101.113 59.9432 100.996 60.3493 101.006C60.7201 101.002 61.0824 101.118 61.3815 101.336C61.6716 101.556 61.8867 101.86 61.9974 102.206ZM58.7296 102.235C58.5854 102.494 58.5071 102.785 58.5015 103.082C58.4983 103.361 58.5692 103.636 58.7068 103.878C58.842 104.116 59.039 104.312 59.2771 104.447C59.519 104.589 59.7951 104.661 60.0755 104.657C60.4205 104.664 60.7599 104.569 61.0507 104.384C61.3106 104.214 61.5249 103.983 61.6749 103.712C61.825 103.44 61.9063 103.136 61.9119 102.826C61.9171 102.548 61.8482 102.273 61.7123 102.03C61.5771 101.793 61.3801 101.596 61.142 101.461C60.895 101.323 60.6155 101.252 60.3322 101.257C59.9935 101.249 59.6608 101.347 59.3798 101.535C59.1114 101.711 58.8918 101.952 58.741 102.235H58.7296Z" fill="white"/>
<path d="M66.2006 104.822L66.4914 103.048H63.6399L63.3547 104.822H63.0924L63.6627 101.132H63.925L63.6513 102.809H66.5028L66.7709 101.132H67.0332L66.4629 104.822H66.2006Z" fill="white"/>
<path d="M70.7573 104.822L70.8884 104.004C70.7074 104.267 70.4697 104.486 70.1927 104.646C69.9095 104.807 69.589 104.891 69.2631 104.891C69.0473 104.889 68.8341 104.844 68.6357 104.76C68.4288 104.678 68.2504 104.538 68.1225 104.356C67.9825 104.142 67.9127 103.89 67.9229 103.634C67.915 103.534 67.915 103.433 67.9229 103.333L68.2764 101.132H68.5388L68.2023 103.259C68.194 103.359 68.194 103.46 68.2023 103.56C68.1897 103.716 68.2141 103.872 68.2736 104.016C68.333 104.16 68.4259 104.289 68.5445 104.39C68.783 104.567 69.0742 104.659 69.3714 104.652C69.6297 104.652 69.884 104.589 70.1128 104.47C70.334 104.349 70.5281 104.185 70.6831 103.987C70.8296 103.8 70.9311 103.582 70.9797 103.35L71.3333 101.132H71.5956L71.0253 104.822H70.7573Z" fill="white"/>
<path d="M75.85 101.985C75.8519 102.097 75.8306 102.209 75.7874 102.312C75.7442 102.416 75.6801 102.51 75.5991 102.588C75.3824 102.771 75.1169 102.888 74.8349 102.923C75.0662 102.968 75.281 103.074 75.4565 103.23C75.5249 103.292 75.5795 103.368 75.6168 103.452C75.6541 103.536 75.6734 103.627 75.6732 103.719C75.6663 103.93 75.5856 104.131 75.4451 104.288C75.2679 104.486 75.0418 104.635 74.7893 104.72C74.4578 104.836 74.1082 104.892 73.757 104.885C73.4442 104.895 73.1319 104.853 72.8332 104.76C72.5779 104.671 72.3284 104.567 72.0861 104.447L72.2229 104.225C72.44 104.345 72.6671 104.446 72.9016 104.527C73.1861 104.613 73.4826 104.653 73.7798 104.646C74.0657 104.651 74.3506 104.611 74.6239 104.527C74.8381 104.462 75.0337 104.347 75.1942 104.191C75.3195 104.063 75.391 103.892 75.3938 103.714C75.3893 103.608 75.3554 103.506 75.296 103.419C75.2366 103.331 75.1539 103.262 75.0573 103.219C74.7735 103.076 74.4569 103.009 74.1391 103.026H73.1069L73.1411 102.787H74.1391C74.5027 102.812 74.8666 102.741 75.1942 102.582C75.3015 102.53 75.3921 102.45 75.4555 102.349C75.5188 102.249 75.5525 102.132 75.5525 102.013C75.5525 101.895 75.5188 101.778 75.4555 101.678C75.3921 101.577 75.3015 101.496 75.1942 101.445C74.9015 101.284 74.5695 101.21 74.2361 101.229C73.7397 101.226 73.2482 101.326 72.7932 101.524L72.7362 101.314C72.9677 101.208 73.2108 101.13 73.4605 101.081C73.7323 101.022 74.0094 100.992 74.2874 100.99C74.6874 100.963 75.0858 101.06 75.428 101.268C75.5557 101.34 75.662 101.444 75.7362 101.57C75.8103 101.696 75.8496 101.839 75.85 101.985Z" fill="white"/>
<path d="M80.4124 102.207L80.5892 101.132H80.8516L80.2813 104.822H80.0246L80.1558 103.981C79.9827 104.251 79.7482 104.477 79.4714 104.64C79.1752 104.811 78.8381 104.897 78.4962 104.891C78.17 104.894 77.849 104.809 77.5666 104.646C77.2932 104.488 77.0668 104.261 76.9108 103.987C76.7532 103.713 76.6725 103.403 76.677 103.088C76.6842 102.766 76.7683 102.45 76.9222 102.167C77.0957 101.841 77.3463 101.562 77.6522 101.354C77.9881 101.126 78.3868 101.009 78.7928 101.018C79.1621 101.012 79.5229 101.128 79.8193 101.348C80.0991 101.568 80.3058 101.867 80.4124 102.207ZM77.1503 102.235C77.0037 102.494 76.9252 102.785 76.9222 103.082C76.9199 103.36 76.9886 103.634 77.1218 103.878C77.2576 104.115 77.4545 104.312 77.6921 104.447C77.9318 104.589 78.2062 104.662 78.4848 104.658C78.8301 104.667 79.17 104.572 79.46 104.385C79.7323 104.211 79.9544 103.97 80.1045 103.685C80.2485 103.422 80.3249 103.127 80.3269 102.826C80.3301 102.548 80.2592 102.273 80.1216 102.03C79.9898 101.79 79.7919 101.593 79.5513 101.462C79.3061 101.324 79.0286 101.253 78.7472 101.257C78.4068 101.25 78.0725 101.348 77.7891 101.536C77.5098 101.707 77.2799 101.948 77.1218 102.235H77.1503Z" fill="white"/>
<path d="M84.8551 106.102H84.5928L84.7924 104.822H84.53L84.6669 104.004C84.4838 104.267 84.2442 104.487 83.9654 104.646C83.6845 104.808 83.3658 104.892 83.0415 104.891C82.8239 104.89 82.6087 104.845 82.4085 104.76C82.2037 104.677 82.0273 104.537 81.9009 104.356C81.7584 104.143 81.6885 103.89 81.7013 103.634C81.6935 103.534 81.6935 103.433 81.7013 103.333L82.0549 101.132H82.3173L81.9808 103.259C81.9726 103.359 81.9726 103.46 81.9808 103.56C81.9688 103.716 81.9941 103.873 82.0546 104.017C82.1151 104.161 82.209 104.289 82.3287 104.39C82.5668 104.568 82.8582 104.66 83.1556 104.652C83.4119 104.651 83.6643 104.589 83.8913 104.47C84.1134 104.351 84.3078 104.186 84.4616 103.987C84.6098 103.8 84.7132 103.582 84.7639 103.35L85.1174 101.132H85.3798L84.8095 104.584H85.0718L84.8551 106.102Z" fill="white"/>
<path d="M89.2521 104.822L89.389 104.004C89.2043 104.266 88.965 104.485 88.6875 104.646C88.4048 104.808 88.084 104.893 87.7579 104.891C87.5422 104.889 87.329 104.844 87.1306 104.76C86.9244 104.68 86.7474 104.539 86.623 104.356C86.4785 104.144 86.4065 103.89 86.4177 103.634C86.4195 103.533 86.4291 103.432 86.4462 103.333L86.7998 101.132H87.0622L86.7257 103.259C86.7175 103.359 86.7175 103.46 86.7257 103.56C86.7123 103.716 86.737 103.873 86.7975 104.018C86.8581 104.162 86.9528 104.29 87.0736 104.39C87.3117 104.568 87.6032 104.66 87.9005 104.652C88.1568 104.651 88.4092 104.589 88.6362 104.47C88.8583 104.351 89.0527 104.186 89.2065 103.987C89.3552 103.801 89.4569 103.583 89.5031 103.35L89.8623 101.132H90.1076L89.5373 104.822H89.2521Z" fill="white"/>
<path d="M93.6377 104.811L93.883 103.276H92.2975L90.9231 104.811H90.6037L92.001 103.264C91.7364 103.241 91.4883 103.126 91.2995 102.94C91.1331 102.766 91.0429 102.533 91.0486 102.292C91.0472 102.091 91.1025 101.894 91.2082 101.723C91.3309 101.534 91.505 101.385 91.7101 101.291C91.9832 101.173 92.2793 101.116 92.577 101.126H94.4875L93.9172 104.805L93.6377 104.811ZM91.6246 101.627C91.5276 101.704 91.4495 101.803 91.3962 101.916C91.3429 102.028 91.3157 102.151 91.3166 102.275C91.3115 102.381 91.3304 102.488 91.3719 102.586C91.4133 102.685 91.4763 102.772 91.5561 102.843C91.7533 102.998 92.0017 103.073 92.2519 103.054H93.9229L94.1966 101.376H92.5428C92.2162 101.344 91.8891 101.433 91.6246 101.627Z" fill="white"/>
</g>
<defs>
<linearGradient id="paint0_linear_10817_1669" x1="53.8421" y1="58.8457" x2="14.6067" y2="6.68735" gradientUnits="userSpaceOnUse">
<stop offset="0.09" stop-color="#89BD45"/>
<stop offset="1" stop-color="#29A4DD"/>
</linearGradient>
<linearGradient id="paint1_linear_10817_1669" x1="-53.6553" y1="52.4024" x2="48.4077" y2="52.4024" gradientUnits="userSpaceOnUse">
<stop stop-color="white"/>
<stop offset="0.03" stop-color="white" stop-opacity="0"/>
<stop offset="1" stop-color="white"/>
</linearGradient>
<linearGradient id="paint2_linear_10817_1669" x1="-2.26445" y1="52.4184" x2="7.89065" y2="63.0447" gradientUnits="userSpaceOnUse">
<stop stop-color="white"/>
<stop offset="0.03" stop-color="white" stop-opacity="0"/>
<stop offset="1" stop-color="white"/>
</linearGradient>
<linearGradient id="paint3_linear_10817_1669" x1="-3.53175" y1="43.9616" x2="73.652" y2="109.579" gradientUnits="userSpaceOnUse">
<stop stop-color="white"/>
<stop offset="0.97" stop-color="white" stop-opacity="0"/>
<stop offset="1" stop-color="white"/>
</linearGradient>
<linearGradient id="paint4_linear_10817_1669" x1="-645.779" y1="-467.058" x2="-125.872" y2="1060.84" gradientUnits="userSpaceOnUse">
<stop stop-color="white"/>
<stop offset="0.03" stop-color="white" stop-opacity="0"/>
<stop offset="1" stop-color="white"/>
</linearGradient>
<linearGradient id="paint5_linear_10817_1669" x1="-2351.13" y1="163.727" x2="2127.11" y2="163.727" gradientUnits="userSpaceOnUse">
<stop stop-color="white"/>
<stop offset="0.03" stop-color="white" stop-opacity="0"/>
<stop offset="1" stop-color="white"/>
</linearGradient>
<linearGradient id="paint6_linear_10817_1669" x1="-1239.11" y1="-709.519" x2="409.23" y2="1917.02" gradientUnits="userSpaceOnUse">
<stop stop-color="white"/>
<stop offset="0.03" stop-color="white" stop-opacity="0"/>
<stop offset="1" stop-color="white"/>
</linearGradient>
<linearGradient id="paint7_linear_10817_1669" x1="859.816" y1="377.051" x2="4200.6" y2="1511.8" gradientUnits="userSpaceOnUse">
<stop stop-color="white"/>
<stop offset="0.97" stop-color="white" stop-opacity="0"/>
<stop offset="1" stop-color="white"/>
</linearGradient>
<linearGradient id="paint8_linear_10817_1669" x1="-1000.9" y1="-2362.87" x2="3373.63" y2="1130.65" gradientUnits="userSpaceOnUse">
<stop stop-color="white"/>
<stop offset="0.03" stop-color="white" stop-opacity="0"/>
<stop offset="1" stop-color="white"/>
</linearGradient>
<linearGradient id="paint9_linear_10817_1669" x1="1739.65" y1="103.529" x2="6114.18" y2="3597.04" gradientUnits="userSpaceOnUse">
<stop stop-color="white"/>
<stop offset="0.97" stop-color="white" stop-opacity="0"/>
<stop offset="1" stop-color="white"/>
</linearGradient>
<linearGradient id="paint10_linear_10817_1669" x1="-2204.84" y1="526.024" x2="2023.88" y2="526.024" gradientUnits="userSpaceOnUse">
<stop stop-color="white"/>
<stop offset="0.03" stop-color="white" stop-opacity="0"/>
<stop offset="1" stop-color="white"/>
</linearGradient>
<linearGradient id="paint11_linear_10817_1669" x1="-1033.51" y1="-1133.37" x2="1602.17" y2="1618.3" gradientUnits="userSpaceOnUse">
<stop stop-color="white"/>
<stop offset="0.03" stop-color="white" stop-opacity="0"/>
<stop offset="1" stop-color="white"/>
</linearGradient>
<linearGradient id="paint12_linear_10817_1669" x1="1073.61" y1="316.965" x2="3709.06" y2="3068.59" gradientUnits="userSpaceOnUse">
<stop stop-color="white"/>
<stop offset="0.97" stop-color="white" stop-opacity="0"/>
<stop offset="1" stop-color="white"/>
</linearGradient>
<linearGradient id="paint13_linear_10817_1669" x1="-2056.04" y1="2282.65" x2="1849.47" y2="2282.65" gradientUnits="userSpaceOnUse">
<stop stop-color="white"/>
<stop offset="0.03" stop-color="white" stop-opacity="0"/>
<stop offset="1" stop-color="white"/>
</linearGradient>
<linearGradient id="paint14_linear_10817_1669" x1="-1602.14" y1="-1012.69" x2="2598.22" y2="918.755" gradientUnits="userSpaceOnUse">
<stop stop-color="white"/>
<stop offset="0.03" stop-color="white" stop-opacity="0"/>
<stop offset="1" stop-color="white"/>
</linearGradient>
<linearGradient id="paint15_linear_10817_1669" x1="2190.59" y1="1630.26" x2="-1971.88" y2="2045.45" gradientUnits="userSpaceOnUse">
<stop stop-color="white"/>
<stop offset="0.97" stop-color="white" stop-opacity="0"/>
<stop offset="1" stop-color="white"/>
</linearGradient>
<linearGradient id="paint16_linear_10817_1669" x1="500.296" y1="1188.26" x2="3724.35" y2="2595.07" gradientUnits="userSpaceOnUse">
<stop stop-color="white"/>
<stop offset="0.97" stop-color="white" stop-opacity="0"/>
<stop offset="1" stop-color="white"/>
</linearGradient>
<linearGradient id="paint17_linear_10817_1669" x1="1817.6" y1="2585.65" x2="-1325.39" y2="2883.13" gradientUnits="userSpaceOnUse">
<stop stop-color="white"/>
<stop offset="0.97" stop-color="white" stop-opacity="0"/>
<stop offset="1" stop-color="white"/>
</linearGradient>
<linearGradient id="paint18_linear_10817_1669" x1="-4034.73" y1="2559.72" x2="3641.82" y2="2559.72" gradientUnits="userSpaceOnUse">
<stop stop-color="white"/>
<stop offset="0.03" stop-color="white" stop-opacity="0"/>
<stop offset="1" stop-color="white"/>
</linearGradient>
<linearGradient id="paint19_linear_10817_1669" x1="669.351" y1="1474.2" x2="4467.66" y2="6327.63" gradientUnits="userSpaceOnUse">
<stop stop-color="white"/>
<stop offset="0.97" stop-color="white" stop-opacity="0"/>
<stop offset="1" stop-color="white"/>
</linearGradient>
<linearGradient id="paint20_linear_10817_1669" x1="4651.29" y1="2403.97" x2="-3022.15" y2="4530.84" gradientUnits="userSpaceOnUse">
<stop stop-color="white"/>
<stop offset="0.97" stop-color="white" stop-opacity="0"/>
<stop offset="1" stop-color="white"/>
</linearGradient>
<linearGradient id="paint21_linear_10817_1669" x1="-303.994" y1="-640.253" x2="1036.82" y2="45.3551" gradientUnits="userSpaceOnUse">
<stop stop-color="white"/>
<stop offset="0.03" stop-color="white" stop-opacity="0"/>
<stop offset="1" stop-color="white"/>
</linearGradient>
<linearGradient id="paint22_linear_10817_1669" x1="342.979" y1="269.08" x2="1683.8" y2="954.688" gradientUnits="userSpaceOnUse">
<stop stop-color="white"/>
<stop offset="0.97" stop-color="white" stop-opacity="0"/>
<stop offset="1" stop-color="white"/>
</linearGradient>
<linearGradient id="paint23_linear_10817_1669" x1="786.291" y1="625.991" x2="-594.383" y2="779.131" gradientUnits="userSpaceOnUse">
<stop stop-color="white"/>
<stop offset="0.97" stop-color="white" stop-opacity="0"/>
<stop offset="1" stop-color="white"/>
</linearGradient>
<linearGradient id="paint24_linear_10817_1669" x1="-3988.65" y1="2286.52" x2="3600.1" y2="2286.52" gradientUnits="userSpaceOnUse">
<stop stop-color="white"/>
<stop offset="0.03" stop-color="white" stop-opacity="0"/>
<stop offset="1" stop-color="white"/>
</linearGradient>
<linearGradient id="paint25_linear_10817_1669" x1="-2955.53" y1="-1157.11" x2="2448.2" y2="3764.07" gradientUnits="userSpaceOnUse">
<stop stop-color="white"/>
<stop offset="0.03" stop-color="white" stop-opacity="0"/>
<stop offset="1" stop-color="white"/>
</linearGradient>
<linearGradient id="paint26_linear_10817_1669" x1="825.852" y1="1827.11" x2="6229.58" y2="6748.3" gradientUnits="userSpaceOnUse">
<stop stop-color="white"/>
<stop offset="0.97" stop-color="white" stop-opacity="0"/>
<stop offset="1" stop-color="white"/>
</linearGradient>
<linearGradient id="paint27_linear_10817_1669" x1="4299.73" y1="1787.33" x2="-3561.95" y2="3340.26" gradientUnits="userSpaceOnUse">
<stop stop-color="white"/>
<stop offset="0.97" stop-color="white" stop-opacity="0"/>
<stop offset="1" stop-color="white"/>
</linearGradient>
<clipPath id="clip0_10817_1669">
<rect width="161.658" height="106.881" fill="white"/>
</clipPath>
</defs>
</svg>
