<svg width="168" height="49" viewBox="0 0 168 49" fill="none" xmlns="http://www.w3.org/2000/svg">
<g clip-path="url(#clip0_10817_1766)">
<path d="M122.626 40.6074L120.711 47.3888H121.868L122.383 45.4687H124.269L124.807 47.3888H125.964L124.008 40.6074H122.626ZM122.527 44.5289L122.99 42.8582C123.094 42.458 123.181 41.9823 123.268 41.5878C123.355 41.9823 123.453 42.4464 123.569 42.8582L124.037 44.5289H122.527Z" fill="white"/>
<path d="M127.532 40.6074V43.5079C127.532 44.5637 127.468 45.6311 127.051 46.1126C126.876 46.2986 126.648 46.4261 126.398 46.4781L126.531 47.4643C126.908 47.4664 127.278 47.3531 127.589 47.1394C128.469 46.5187 128.602 45.0452 128.602 43.4151V41.6458H130.251V47.4121H131.338V40.6074H127.532Z" fill="white"/>
<path d="M102.024 43.6994L104.089 40.6074H102.828L101.185 43.5079H101.005V40.6074H99.9582V43.5079H99.7905L98.1416 40.6074H96.8688L98.94 43.6762C98.0838 43.827 97.7019 44.4825 97.4242 45.4165C97.2333 46.0604 97.0713 46.7681 96.8457 47.4062H97.9507C98.1277 46.9031 98.2745 46.3897 98.3904 45.869C98.6276 45.051 98.9111 44.4477 99.7442 44.4477H99.9872V47.4062H101.034V44.4477H101.266C102.099 44.4477 102.388 45.0278 102.62 45.869C102.737 46.3907 102.887 46.9042 103.071 47.4062H104.176C103.921 46.7681 103.777 46.0604 103.597 45.3817C103.267 44.4767 102.891 43.798 102.024 43.6994Z" fill="white"/>
<path d="M107.497 43.2411C107.352 43.7806 107.248 44.2099 107.161 44.5231H107.109C106.97 44.1229 106.843 43.7168 106.687 43.2759L105.703 40.6074H104.471L106.461 45.2483C106.494 45.3016 106.514 45.362 106.519 45.4246C106.524 45.4871 106.514 45.55 106.49 45.6079C106.34 45.9908 106.021 46.4723 105.512 46.4723C105.39 46.4752 105.267 46.4615 105.148 46.4317L105.055 47.4295C105.24 47.4986 105.437 47.5301 105.634 47.5223C105.93 47.5216 106.221 47.4451 106.479 47.2999C106.737 47.1547 106.954 46.9457 107.109 46.6927C107.589 45.8537 107.977 44.9648 108.266 44.0416L109.423 40.619H108.266L107.497 43.2411Z" fill="white"/>
<path d="M111.737 40.5725C111.179 40.5644 110.62 40.613 110.071 40.7175V47.4119H111.159V44.8536C111.334 44.8873 111.513 44.9009 111.691 44.8943C112.037 44.9145 112.384 44.8608 112.708 44.7368C113.032 44.6128 113.326 44.4213 113.571 44.1749C113.929 43.7432 114.111 43.1921 114.08 42.6318C114.091 42.3551 114.045 42.0792 113.946 41.8208C113.846 41.5625 113.695 41.3272 113.502 41.1294C113.007 40.7237 112.375 40.5244 111.737 40.5725ZM111.737 43.9313C111.558 43.9393 111.379 43.9217 111.205 43.8791V41.5587C111.41 41.509 111.62 41.4875 111.83 41.4948C111.989 41.4744 112.151 41.4899 112.303 41.5402C112.456 41.5905 112.595 41.6743 112.711 41.7855C112.827 41.8967 112.916 42.0325 112.973 42.183C113.03 42.3334 113.052 42.4947 113.039 42.6551C113.058 42.8298 113.037 43.0067 112.978 43.1722C112.919 43.3378 112.823 43.4877 112.698 43.6106C112.572 43.7335 112.421 43.8263 112.254 43.8818C112.088 43.9374 111.911 43.9543 111.737 43.9313Z" fill="white"/>
<path d="M118.738 43.3452H116.215V40.6245H115.128V47.4117H116.215V44.4242H118.738V47.4117H119.82V40.6245H118.738V43.3452Z" fill="white"/>
<path d="M149.019 27.9205C149.18 27.9408 149.344 27.9256 149.499 27.876C149.654 27.8264 149.797 27.7435 149.917 27.6331C150.037 27.5227 150.132 27.3875 150.194 27.2367C150.257 27.086 150.286 26.9234 150.28 26.7603H149.516C149.481 27.1199 149.371 27.3752 149.047 27.3752C148.723 27.3752 148.602 27.1141 148.585 26.7603H147.815C147.806 26.919 147.831 27.0779 147.889 27.2259C147.947 27.374 148.036 27.5077 148.151 27.6179C148.265 27.7281 148.402 27.8122 148.552 27.8645C148.701 27.9167 148.861 27.9358 149.019 27.9205Z" fill="white"/>
<path d="M133.074 29.1617C133.474 29.1598 133.87 29.249 134.231 29.4228L134.468 28.4366C134.016 28.2177 133.518 28.1141 133.016 28.1349C131.194 28.1349 129.834 29.4808 129.834 31.72C129.834 33.7794 130.991 35.1426 132.877 35.1426C133.408 35.1615 133.935 35.0541 134.416 34.8293L134.237 33.8548C133.874 34.0217 133.479 34.1069 133.08 34.1042C131.772 34.1042 131.003 33.147 131.003 31.6562C130.985 30.0261 131.859 29.1617 133.074 29.1617Z" fill="white"/>
<path d="M121.237 28.1353C119.559 28.1353 118.408 29.6029 118.408 31.6913C118.408 33.681 119.467 35.1429 121.144 35.1429C122.822 35.1429 124.002 33.8435 124.002 31.5637C124.002 29.6319 122.978 28.1353 121.237 28.1353ZM121.237 34.1567C120.196 34.1567 119.588 33.0487 119.588 31.6681C119.588 30.2874 120.167 29.1214 121.237 29.1214C122.307 29.1214 122.886 30.3396 122.886 31.6159C122.857 33.0661 122.261 34.1567 121.208 34.1567H121.237Z" fill="white"/>
<path d="M148.729 31.2849C148.342 32.0506 147.954 32.8685 147.642 33.6053C147.688 32.7003 147.711 31.7025 147.711 30.6235V28.2451H146.704V35.0323H147.919L149.418 32.1318C149.819 31.3814 150.173 30.6064 150.476 29.8114C150.413 30.6874 150.401 31.5517 150.401 32.6191V35.0265H151.408V28.2451H150.303L148.729 31.2849Z" fill="white"/>
<path d="M127.937 31.3895C128.231 31.2745 128.484 31.0726 128.661 30.8106C128.839 30.5486 128.933 30.2387 128.932 29.9218C128.941 29.6753 128.889 29.4303 128.781 29.2087C128.673 28.987 128.512 28.7956 128.313 28.6514C127.813 28.3079 127.208 28.1536 126.606 28.2163C126.074 28.2114 125.543 28.26 125.021 28.3613V35.0151C125.464 35.0728 125.91 35.1019 126.357 35.1021C127.445 35.1021 128.145 34.8875 128.567 34.4698C128.757 34.29 128.906 34.0719 129.006 33.8299C129.106 33.588 129.153 33.3276 129.146 33.066C129.164 32.6903 129.055 32.3194 128.835 32.0146C128.615 31.7098 128.298 31.4893 127.937 31.3895ZM126.103 29.1619C126.306 29.1167 126.514 29.0991 126.722 29.1097C127.41 29.1097 127.832 29.3997 127.832 30.0378C127.832 30.6759 127.41 31.0182 126.675 31.0182H126.097L126.103 29.1619ZM126.681 34.1624C126.489 34.1767 126.295 34.1767 126.103 34.1624V31.9058H126.641C127.393 31.9058 127.994 32.2306 127.994 33.0196C127.994 33.8085 127.358 34.1624 126.681 34.1624Z" fill="white"/>
<path d="M137.668 31.3256L139.825 28.2627H138.512L136.684 31.1632H136.51V28.2627H135.458V35.0499H136.528V32.0682H136.788C137.633 32.0682 137.945 32.6483 138.194 33.4894C138.327 34.0133 138.491 34.5286 138.686 35.0325H139.843C139.577 34.3886 139.392 33.6983 139.166 32.9847C138.929 32.132 138.535 31.4881 137.668 31.3256Z" fill="white"/>
<path d="M115.914 31.3256L118.067 28.2627H116.753L114.931 31.1632H114.752V28.2627H113.681V35.0499H114.752V32.0682H115.012C115.857 32.0682 116.169 32.6483 116.418 33.4894C116.55 34.0133 116.715 34.5286 116.91 35.0325H118.067C117.801 34.3886 117.615 33.6983 117.396 32.9847C117.141 32.132 116.776 31.4881 115.914 31.3256Z" fill="white"/>
<path d="M142.672 31.2849C142.284 32.0506 141.897 32.8685 141.584 33.6053C141.631 32.7003 141.66 31.7025 141.66 30.6235V28.2451H140.647V35.0323H141.822L143.332 32.1318C143.73 31.3803 144.084 30.6054 144.39 29.8114C144.315 30.6874 144.309 31.5517 144.309 32.6191V35.0265H145.316V28.2451H144.211L142.672 31.2849Z" fill="white"/>
<path d="M111.263 30.9658H108.746V28.2451H107.659V35.0323H108.746V32.039H111.263V35.0323H112.351V28.2451H111.263V30.9658Z" fill="white"/>
<path d="M100.236 31.1862C99.7738 30.8361 99.2066 30.654 98.6276 30.67C98.3819 30.6725 98.1365 30.6899 97.8929 30.7222V29.2603H100.491V28.2451H96.8168V35.0149C97.2579 35.0732 97.7024 35.1022 98.1474 35.102C98.5653 35.1328 98.9851 35.0799 99.3824 34.9464C99.7797 34.813 100.147 34.6016 100.462 34.3246C100.825 33.9116 101.014 33.3726 100.988 32.8221C101.002 32.509 100.941 32.1971 100.81 31.9125C100.68 31.6278 100.483 31.3788 100.236 31.1862ZM99.5128 33.7329C99.3769 33.8722 99.2137 33.9818 99.0335 34.0547C98.8532 34.1276 98.6599 34.1622 98.4656 34.1564C98.272 34.1595 98.0784 34.1459 97.8871 34.1158V31.6445C98.0664 31.6445 98.2631 31.6097 98.4309 31.6097C98.7865 31.5931 99.1359 31.7065 99.4144 31.9288C99.5508 32.0373 99.659 32.1774 99.7295 32.337C99.8001 32.4967 99.8309 32.6711 99.8194 32.8453C99.8323 33.1694 99.7228 33.4863 99.5128 33.7329Z" fill="white"/>
<path d="M103.412 28.2451L101.503 35.0323H102.625L103.14 33.1064H105.032L105.57 35.0323H106.727L104.795 28.2451H103.412ZM103.314 32.1724L103.771 30.5017C103.881 30.0957 103.968 29.6258 104.06 29.2313C104.153 29.6258 104.245 30.084 104.361 30.5017L104.835 32.1724H103.314Z" fill="white"/>
<path d="M130.586 18.0586H128.07V15.3438H126.982V22.131H128.07V19.1376H130.586V22.131H131.674V15.3438H130.586V18.0586Z" fill="white"/>
<path d="M134.48 15.3438L132.565 22.131H133.722L134.231 20.205H136.129L136.667 22.131H137.824L135.886 15.3438H134.48ZM134.381 19.2711L134.844 17.6004C134.948 17.1943 135.035 16.7244 135.122 16.3299C135.215 16.7244 135.313 17.1827 135.423 17.6004L135.891 19.2711H134.381Z" fill="white"/>
<path d="M146.328 17.728C146.081 17.7295 145.833 17.7469 145.588 17.7802V15.3438H144.512V22.1136C144.959 22.1716 145.409 22.2007 145.86 22.2006C146.282 22.2298 146.706 22.1706 147.104 22.0268C147.503 21.883 147.867 21.6577 148.174 21.3652C148.502 20.949 148.669 20.4275 148.643 19.8976C148.66 18.3835 147.572 17.728 146.328 17.728ZM146.149 21.255C145.955 21.2592 145.762 21.2456 145.57 21.2144V18.7374C145.762 18.7085 145.955 18.6949 146.149 18.6968C146.324 18.6735 146.502 18.6892 146.671 18.7428C146.839 18.7963 146.993 18.8863 147.123 19.0065C147.253 19.1266 147.355 19.2739 147.421 19.438C147.488 19.602 147.518 19.7787 147.509 19.9556C147.517 20.1339 147.487 20.312 147.42 20.4777C147.354 20.6434 147.253 20.7929 147.124 20.9161C146.995 21.0393 146.842 21.1333 146.673 21.1918C146.505 21.2503 146.326 21.2718 146.149 21.255Z" fill="white"/>
<path d="M139.386 18.2617C139.386 19.3175 139.322 20.3907 138.906 20.8721C138.727 21.0539 138.5 21.1807 138.252 21.2376L138.385 22.218C138.763 22.2184 139.133 22.1075 139.449 21.8989C140.323 21.2724 140.456 19.8048 140.456 18.1747V16.3589H142.082V22.16H143.169V15.3438H139.386V18.2617Z" fill="white"/>
<path d="M153.311 18.0586H150.789V15.3438H149.701V22.131H150.789V19.1376H153.311V22.131H154.399V15.3438H153.311V18.0586Z" fill="white"/>
<path d="M123.187 15.2334C121.509 15.2334 120.358 16.7011 120.358 18.7894C120.358 20.7792 121.422 22.2701 123.1 22.2701C124.778 22.2701 125.958 20.9706 125.958 18.6908C125.958 16.7301 124.928 15.2334 123.187 15.2334ZM123.187 21.2549C122.14 21.2549 121.532 20.1469 121.532 18.7662C121.532 17.3856 122.111 16.2196 123.187 16.2196C124.263 16.2196 124.83 17.4378 124.83 18.714C124.807 20.1353 124.216 21.2549 123.164 21.2549H123.187Z" fill="white"/>
<path d="M100.427 18.0586H97.9044V15.3438H96.8168V22.131H97.9044V19.1376H100.427V22.131H101.515V15.3438H100.427V18.0586Z" fill="white"/>
<path d="M165.27 15.0191C165.431 15.0395 165.595 15.0244 165.75 14.9747C165.905 14.9251 166.047 14.8421 166.166 14.7316C166.286 14.6211 166.38 14.4857 166.442 14.335C166.504 14.1843 166.532 14.0218 166.525 13.8589H165.767C165.733 14.2186 165.623 14.4738 165.299 14.4738C164.975 14.4738 164.853 14.2069 164.836 13.8589H164.066C164.057 14.0176 164.083 14.1765 164.14 14.3245C164.198 14.4726 164.288 14.6063 164.402 14.7165C164.516 14.8267 164.653 14.9109 164.803 14.9631C164.953 15.0153 165.112 15.0344 165.27 15.0191Z" fill="white"/>
<path d="M116.655 18.3835C116.267 19.1492 115.88 19.9672 115.567 20.7039C115.614 19.7989 115.637 18.8012 115.637 17.7222V15.3438H114.63V22.131H115.839L117.343 19.2595C117.746 18.5091 118.102 17.7341 118.408 16.939C118.333 17.815 118.327 18.6793 118.327 19.7467V22.1542H119.334V15.3438H118.229L116.655 18.3835Z" fill="white"/>
<path d="M104.315 15.3438L102.406 22.131H103.528L104.037 20.205H105.952L106.496 22.131H107.653L105.715 15.3438H104.315ZM104.216 19.2711L104.679 17.6004C104.783 17.1943 104.87 16.7244 104.963 16.3299C105.049 16.7244 105.142 17.1827 105.264 17.6004L105.732 19.2711H104.216Z" fill="white"/>
<path d="M161.515 15.3438H160.427V22.131H161.515V15.3438Z" fill="white"/>
<path d="M164.963 18.3835C164.576 19.1492 164.182 19.9672 163.875 20.7039C163.916 19.7989 163.945 18.8012 163.945 17.7222V15.3438H162.938V22.131H164.147L165.652 19.2595C166.053 18.509 166.406 17.734 166.71 16.939C166.647 17.815 166.635 18.6793 166.635 19.7467V22.1542H167.642V15.3438H166.537L164.963 18.3835Z" fill="white"/>
<path d="M157.5 17.728C157.269 17.7275 157.038 17.7488 156.812 17.7918V15.3438H155.735V22.1136C156.175 22.1714 156.617 22.2005 157.06 22.2006C157.483 22.2319 157.907 22.1738 158.306 22.0298C158.705 21.8859 159.069 21.6595 159.374 21.3652C159.7 20.9543 159.866 20.4392 159.843 19.915C159.826 18.3951 158.721 17.728 157.5 17.728ZM157.338 21.255C157.162 21.2592 156.985 21.2456 156.812 21.2144V18.7374C156.985 18.7083 157.162 18.6947 157.338 18.6968C157.51 18.6795 157.685 18.6991 157.849 18.7542C158.013 18.8094 158.164 18.8988 158.291 19.0167C158.419 19.1345 158.52 19.2781 158.588 19.4379C158.656 19.5978 158.689 19.7702 158.686 19.944C158.694 20.1217 158.664 20.2991 158.598 20.4645C158.533 20.6299 158.433 20.7794 158.306 20.9033C158.178 21.0272 158.026 21.1226 157.86 21.1832C157.693 21.2438 157.515 21.2683 157.338 21.255Z" fill="white"/>
<path d="M113.675 21.1738L113.114 21.1448V15.3438H112.027V21.11H109.643V15.3438H108.561V22.131H112.709L112.738 22.8445L112.773 23.8133H113.618L113.635 22.8445L113.675 21.1738Z" fill="white"/>
<path d="M10.2208 47.5281V36.9354C10.2208 27.3868 9.79848 20.1123 9.54971 15.3033H9.72327C10.9671 19.5902 13.5474 25.5595 15.364 29.5622L23.9322 47.5455H33.9005V0.208956H24.3777V10.6508C24.3777 19.3524 25.1298 27.5725 25.4538 32.5672H25.2918C23.6835 28.4252 20.9412 22.4038 19.275 18.7491L10.6316 0.208956H0.657532V47.5281H10.2208ZM36.0584 47.3946C39.4294 47.746 42.817 47.9126 46.2061 47.8935C55.6016 47.8935 61.2481 46.1996 64.5747 43.1135C65.9189 41.9797 66.9901 40.556 67.7084 38.9487C68.4267 37.3415 68.7735 35.5923 68.7229 33.8318C68.7229 28.6109 65.2516 24.0745 58.7546 22.5314V22.2529C64.326 20.2052 66.9005 16.1386 66.9005 11.9213C66.9005 8.62627 65.6508 5.4589 62.6655 3.35892C58.7546 0.580223 53.6866 0.000118854 48.4508 0.000118854C44.3013 -0.0621763 40.1545 0.242592 36.0584 0.910883V47.3946ZM46.9408 7.15861C47.8651 6.93904 48.815 6.84731 49.7641 6.88596C54.2651 6.88596 56.1975 9.54864 56.1975 12.9887C56.1975 16.8231 53.189 19.6657 49.255 19.6657H46.9408V7.15861ZM46.9408 26.4761H49.255C53.5709 26.5399 57.395 28.9995 57.395 33.6984C57.395 38.5481 53.7444 40.7873 49.3418 40.7873C48.539 40.8189 47.7351 40.7742 46.9408 40.6538V26.4761ZM78.425 32.8572C78.425 38.9715 75.7753 40.0157 72.6396 40.0157C71.4374 40.0163 70.2381 39.8997 69.0584 39.6677L68.1443 47.3946C69.9239 47.8991 71.7684 48.1357 73.6173 48.0966C81.6128 48.0966 89.4173 46.0662 89.4173 32.4338V0.208956H78.425V32.863V32.8572Z" fill="url(#paint0_linear_10817_1766)"/>
</g>
<defs>
<linearGradient id="paint0_linear_10817_1766" x1="45.0374" y1="8.88732" x2="45.0374" y2="49.2568" gradientUnits="userSpaceOnUse">
<stop stop-color="#E63412"/>
<stop offset="0.3" stop-color="#E33312"/>
<stop offset="0.49" stop-color="#DA3212"/>
<stop offset="0.66" stop-color="#CB2E13"/>
<stop offset="0.81" stop-color="#B62A13"/>
<stop offset="0.95" stop-color="#9B2414"/>
<stop offset="1" stop-color="#902214"/>
</linearGradient>
<clipPath id="clip0_10817_1766">
<rect width="167.002" height="48.0965" fill="white" transform="translate(0.657532)"/>
</clipPath>
</defs>
</svg>
