<svg width="382" height="248" viewBox="0 0 382 248" fill="none" xmlns="http://www.w3.org/2000/svg">
<path d="M282.388 124.272L211.093 6.26354C209.846 4.43355 208.15 2.91013 206.147 1.8205C204.145 0.730877 201.893 0.106668 199.581 0H135.928C131.478 0 129.254 2.72328 131.382 6.17277L202.967 124.182L99.4585 242.644C96.6531 245.64 98.0073 248 102.554 248H175.977C181.021 247.789 185.777 245.737 189.23 242.281L281.034 137.435C282.684 135.643 283.701 133.414 283.944 131.056C284.186 128.698 283.643 126.328 282.388 124.272Z" fill="white"/>
<path d="M282.388 124.272L211.093 6.26354C209.846 4.43355 208.15 2.91013 206.147 1.8205C204.145 0.730877 201.893 0.106668 199.581 0H135.928C131.478 0 129.254 2.72328 131.382 6.17277L202.967 124.182L99.4585 242.644C96.6531 245.64 98.0073 248 102.554 248H175.977C181.021 247.789 185.777 245.737 189.23 242.281L281.034 137.435C282.684 135.643 283.701 133.414 283.944 131.056C284.186 128.698 283.643 126.328 282.388 124.272Z" fill="url(#paint0_linear_2001_7033)"/>
<path d="M380.388 124.272L309.093 6.26354C307.846 4.43355 306.15 2.91013 304.147 1.8205C302.145 0.730877 299.893 0.106668 297.581 0H233.928C229.478 0 227.254 2.72328 229.382 6.17277L300.967 124.182L197.458 242.644C194.653 245.64 196.007 248 200.554 248H273.977C279.021 247.789 283.777 245.737 287.23 242.281L379.034 137.435C380.684 135.643 381.701 133.414 381.944 131.056C382.186 128.698 381.643 126.328 380.388 124.272Z" fill="white"/>
<path d="M380.388 124.272L309.093 6.26354C307.846 4.43355 306.15 2.91013 304.147 1.8205C302.145 0.730877 299.893 0.106668 297.581 0H233.928C229.478 0 227.254 2.72328 229.382 6.17277L300.967 124.182L197.458 242.644C194.653 245.64 196.007 248 200.554 248H273.977C279.021 247.789 283.777 245.737 287.23 242.281L379.034 137.435C380.684 135.643 381.701 133.414 381.944 131.056C382.186 128.698 381.643 126.328 380.388 124.272Z" fill="url(#paint1_linear_2001_7033)"/>
<path d="M184.388 124.272L113.093 6.26354C111.846 4.43355 110.15 2.91013 108.147 1.8205C106.145 0.730877 103.893 0.106668 101.581 0H37.9284C33.4785 0 31.2535 2.72328 33.3817 6.17277L104.967 124.182L1.45848 242.644C-1.34689 245.64 0.00734989 248 4.55399 248H77.9775C83.0211 247.789 87.7771 245.737 91.2304 242.281L183.034 137.435C184.684 135.643 185.701 133.414 185.944 131.056C186.186 128.698 185.643 126.328 184.388 124.272Z" fill="url(#paint2_linear_2001_7033)"/>
<defs>
<linearGradient id="paint0_linear_2001_7033" x1="191" y1="0" x2="191" y2="248" gradientUnits="userSpaceOnUse">
<stop stop-color="#7427F7"/>
<stop offset="1" stop-color="#FFBB88"/>
</linearGradient>
<linearGradient id="paint1_linear_2001_7033" x1="289" y1="0" x2="289" y2="248" gradientUnits="userSpaceOnUse">
<stop stop-color="#7427F7"/>
<stop offset="1" stop-color="#FFBB88"/>
</linearGradient>
<linearGradient id="paint2_linear_2001_7033" x1="93" y1="0" x2="93" y2="248" gradientUnits="userSpaceOnUse">
<stop stop-color="#7427F7"/>
<stop offset="1" stop-color="#FFBB88"/>
</linearGradient>
</defs>
</svg>
