<svg width="50" height="50" viewBox="0 0 50 50" fill="none" xmlns="http://www.w3.org/2000/svg">
<path d="M29.8174 22H27.0529V20C27.0529 18.968 27.1496 18.318 28.851 18.318H29.8496C30.4846 18.318 31 17.87 31 17.318V16.064C31 15.541 30.5387 15.094 29.9382 15.059C29.2433 15.018 28.5473 14.999 27.8502 15C24.7291 15 22.4513 16.657 22.4513 19.699V22H20.1504C19.5154 22 19 22.448 19 23V25C19 25.552 19.5154 26 20.1504 26L22.4513 25.999V34C22.4513 34.552 22.9666 35 23.6017 35H25.9025C26.5375 35 27.0529 34.552 27.0529 34V25.997L29.5539 25.996C30.1383 25.996 30.6296 25.615 30.6963 25.11L30.9597 23.114C31.0391 22.521 30.5053 22 29.8174 22Z" fill="white"/>
<path fill-rule="evenodd" clip-rule="evenodd" d="M25 48.04C37.7246 48.04 48.04 37.7246 48.04 25C48.04 12.2754 37.7246 1.96 25 1.96C12.2754 1.96 1.96 12.2754 1.96 25C1.96 37.7246 12.2754 48.04 25 48.04ZM25 49C38.2548 49 49 38.2548 49 25C49 11.7452 38.2548 1 25 1C11.7452 1 1 11.7452 1 25C1 38.2548 11.7452 49 25 49Z" fill="white"/>
</svg>
