<svg width="50" height="50" viewBox="0 0 50 50" fill="none" xmlns="http://www.w3.org/2000/svg">
<path d="M33.65 17.1052L15.9339 23.6219C14.7248 24.0851 14.7318 24.7285 15.7121 25.0154L20.2605 26.3689L30.7843 20.0352C31.2819 19.7464 31.7365 19.9017 31.3628 20.2182L22.8365 27.5584H22.8345L22.8365 27.5594L22.5227 32.0315C22.9824 32.0315 23.1852 31.8304 23.443 31.5931L25.6523 29.5438L30.2477 32.7817C31.095 33.2268 31.7036 32.998 31.9144 32.0334L34.931 18.472C35.2398 17.2911 34.4584 16.7564 33.65 17.1052Z" fill="white"/>
<path fill-rule="evenodd" clip-rule="evenodd" d="M25 48.04C37.7246 48.04 48.04 37.7246 48.04 25C48.04 12.2754 37.7246 1.96 25 1.96C12.2754 1.96 1.96 12.2754 1.96 25C1.96 37.7246 12.2754 48.04 25 48.04ZM25 49C38.2548 49 49 38.2548 49 25C49 11.7452 38.2548 1 25 1C11.7452 1 1 11.7452 1 25C1 38.2548 11.7452 49 25 49Z" fill="white"/>
</svg>
