<svg width="50" height="50" viewBox="0 0 50 50" fill="none" xmlns="http://www.w3.org/2000/svg">
<path d="M25.4431 31.9817L21.3399 31.9057C20.0113 31.8793 18.6795 31.9321 17.377 31.6579C15.3956 31.2483 15.2553 29.2399 15.1084 27.5553C14.906 25.1868 14.9843 22.7754 15.3663 20.4268C15.5819 19.1089 16.4304 18.3226 17.7426 18.237C22.1723 17.9264 26.6314 17.9632 31.0512 18.1081C31.518 18.1214 31.988 18.194 32.4482 18.2766C34.7203 18.6797 34.7757 20.9556 34.923 22.8715C35.0698 24.8072 35.0078 26.7529 34.7271 28.6754C34.5019 30.2672 34.0709 31.6021 32.2524 31.7309C29.9738 31.8994 27.7476 32.0351 25.4626 31.9919C25.4627 31.9817 25.4496 31.9817 25.4431 31.9817ZM23.0308 27.9517C24.7479 26.954 26.4322 25.973 28.1394 24.982C26.4191 23.9844 24.738 23.0033 23.0308 22.0124V27.9517Z" fill="white"/>
<path fill-rule="evenodd" clip-rule="evenodd" d="M25 48.04C37.7246 48.04 48.04 37.7246 48.04 25C48.04 12.2754 37.7246 1.96 25 1.96C12.2754 1.96 1.96 12.2754 1.96 25C1.96 37.7246 12.2754 48.04 25 48.04ZM25 49C38.2548 49 49 38.2548 49 25C49 11.7452 38.2548 1 25 1C11.7452 1 1 11.7452 1 25C1 38.2548 11.7452 49 25 49Z" fill="white"/>
</svg>
