<svg width="50" height="51" viewBox="0 0 50 51" fill="none" xmlns="http://www.w3.org/2000/svg">
<path fill-rule="evenodd" clip-rule="evenodd" d="M25 48.5078C37.7246 48.5078 48.04 38.1924 48.04 25.4678C48.04 12.7431 37.7246 2.42777 25 2.42777C12.2754 2.42777 1.96 12.7431 1.96 25.4678C1.96 38.1924 12.2754 48.5078 25 48.5078ZM25 49.4678C38.2548 49.4678 49 38.7226 49 25.4678C49 12.2129 38.2548 1.46777 25 1.46777C11.7452 1.46777 1 12.2129 1 25.4678C1 38.7226 11.7452 49.4678 25 49.4678Z" fill="white"/>
<path d="M36.8599 32.3425C35.798 30.4267 33.0627 28.1246 31.9335 27.1229C31.6245 26.8486 31.5914 26.3741 31.8726 26.0708C34.0277 23.7492 35.7513 21.0816 36.3446 19.4697C36.6064 18.7577 36.0645 18.0053 35.3011 18.0053H33.0834C32.3525 18.0053 31.9246 18.2684 31.7208 18.6872C29.9298 22.3665 28.3934 23.9589 27.318 24.8896C26.7158 25.4109 25.7769 24.979 25.7769 24.1858C25.7769 22.6574 25.7769 20.6818 25.7769 19.2808C25.7769 18.6013 25.2226 18.0515 24.539 18.0515L20.4877 18.0053C19.9778 18.0053 19.6865 18.5841 19.9926 18.9899L20.6615 19.9525C20.9132 20.2861 21.0491 20.6918 21.0491 21.1083L21.0456 25.4434C21.0456 26.1976 20.1338 26.566 19.5925 26.0376C17.7613 24.2498 16.1724 20.5988 15.6004 18.853C15.4349 18.3477 14.9628 18.0065 14.4275 18.0053L12.2429 18C11.4233 18 10.8241 18.779 11.0469 19.5633C13.043 26.5874 17.1385 33.2696 24.4373 33.9941C25.1565 34.0652 25.7769 33.4846 25.7769 32.766V30.4877C25.7769 29.8343 26.288 29.2727 26.9451 29.2561C26.9682 29.2555 26.9912 29.2555 27.0143 29.2555C28.9447 29.2555 31.1068 32.0723 31.8632 33.3898C32.0806 33.769 32.4872 34 32.9268 34H35.8654C36.7228 34 37.2729 33.0883 36.8599 32.3425Z" fill="white"/>
</svg>
